<svg xmlns="http://www.w3.org/2000/svg" viewBox="0 0 283 162" xmlns:v="https://vecta.io/nano"><style><![CDATA[.B{stroke:#000}.C{filter:url(#B)}.D{stroke-width:1}.E{fill-rule:evenodd}.F{stroke-width:10}.G{stroke:#fff}]]></style><defs><clipPath id="A"><path d="M49.91 52.76h168.6v51.02c-43.95 52.89-71.73 113.9-74.31 187.4H86.52c2.27-63.39 8.836-125.7 57.68-177.5H49.92v-61z" fill="#fff" class="B D E"/></clipPath><filter id="B" x="-.5" y="-.5" width="4" height="2"><feGaussianBlur stdDeviation="4"/></filter><clipPath id="C"><path d="M415.9 112.7v175.2h36.59V112.7H415.9zM285 113.794v39.94h56.56l-58.78 96.5v38.81h107.6v-38.81H321.6l71-100.9v-35.5H285zm200.7.0625v176.2h39.94v-62.06h26.59c42.59-.1455 43.72-115.5-2.25-114.2H485.7zm37.72 37.72h15.59c17.35-.5945 17.71 38.94 0 36.5l-14.41 1.219-1.188-37.72z" fill="#000" class="B D E"/></clipPath><clipPath id="D"><path d="M0-.0625v345.6h257.8 11.09 334.5v-268.8h-334.5v-76.78H.09z" fill="#000" class="B D"/></clipPath><clipPath id="E"><path transform="rotate(90)" d="M80.59-598.4h261.1v335.7H80.59v-335.7z" fill="#fff" class="B D"/></clipPath><filter id="F" x="-.5" y="-.5" width="2" height="2"><feGaussianBlur stdDeviation="4"/></filter></defs><g transform="matrix(.4697 0 0 .4682 .02562 .221)"><g class="B"><path d="M0-.0625v345.6h257.8 11.09 334.5v-268.8h-334.5v-76.78H.09z"/><path d="M49.91 52.76h168.6v51.02c-43.95 52.89-71.73 113.9-74.31 187.4H86.52c2.27-63.39 8.836-125.7 57.68-177.5H49.92v-61z" fill="#fff" class="E"/></g><g clip-path="url(#A)" fill="none" class="F"><path d="m49.91 52.76h168.6v51.02c-43.95 52.89-71.73 113.9-74.31 187.4" class="C G"/><path d="M144.2 291.2H86.52c2.27-63.39 8.836-125.7 57.68-177.5H49.92v-61" class="B C"/></g><g clip-path="url(#D)" fill="none" class="F"><path d="M603.4 345.6V76.8H268.9V.02H.1" class="C G"/><path d="M0-.0625v345.6h603.39" class="B C"/></g><g transform="matrix(.9942 0 0 .9852 1.514 5.061999999999999)"><g class="B"><path transform="rotate(90)" d="M80.59-598.4h261.1v335.7H80.59v-335.7z" fill="#fff"/><path d="M415.9 112.7v175.2h36.59V112.7H415.9zM285 113.794v39.94h56.56l-58.78 96.5v38.81h107.6v-38.81H321.6l71-100.9v-35.5H285zm200.7.0625v176.2h39.94v-62.06h26.59c42.59-.1455 43.72-115.5-2.25-114.2H485.7zm37.72 37.72h15.59c17.35-.5945 17.71 38.94 0 36.5l-14.41 1.219-1.188-37.72z" class="E"/></g><g clip-path="url(#C)" fill="none" class="F"><path d="M452.5 287.9V112.7h-36.59M390.41 289v-38.81h-68.78l71-100.9v-35.5h-107.6m240.7 176.3v-62.06m26.59 0c42.59-.1455 43.72-115.5-2.25-114.2h-64.28m53.31 74.22l-14.41 1.219-1.188-37.72" class="C G"/><path d="M415.9 112.7v175.2h36.59m-167.5-174.2v39.94h56.56l-58.78 96.5v38.81h107.6m95.34-175.2v176.2h39.94m0-62.06h26.59m-28.81-76.44h15.59c17.35-.5945 17.71 38.94 0 36.5" class="B C"/></g><g clip-path="url(#E)" class="F"><g transform="rotate(90)"><g fill="none"><path d="M80.59-598.4h261.1M80.59-262.7v-335.7" filter="url(#F)" class="G"/><path d="M341.7-598.4v335.7H80.6" filter="url(#F)" class="B"/></g></g></g></g></g></svg>