<svg xmlns="http://www.w3.org/2000/svg" width="255.921" height="249.521" preserveAspectRatio="xMidYMid"><path fill="#00005b" d="m.566 1.131 255.28 1.686.64 247.835H2.17Z" style="stroke-width:.992241" transform="translate(-.566 -1.131)"/><path fill="#99f" d="M60.234 173.909V64.149c0-.747.32-1.174 1.067-1.174l1.548-.002 1.199-.011.845-.015.899-.023.968-.034.514-.021c.96-.04 1.935-.065 2.931-.087l3.054-.063 1.052-.028 1.07-.036c.96-.035 1.944-.059 2.951-.079l3.093-.055 2.142-.047 1.094-.032c2.204-.071 4.361-.095 6.503-.103l3.204-.004c8.746 0 16 1.067 21.973 3.307a38.09 38.09 0 0 1 14.293 8.747 33.963 33.963 0 0 1 7.787 12.16c1.6 4.48 2.453 9.066 2.453 13.866 0 9.174-2.133 16.747-6.4 22.72-4.266 5.974-10.24 10.454-17.173 13.014-7.012 2.577-14.72 3.56-23.128 3.623h-3.049l-1.187-.012-.76-.019-.449-.018-.402-.024-.358-.03a15.594 15.594 0 0 0-.692-.052l-.521-.023-.57-.016-.951-.012-1.853-.004v34.24c.107.747-.427 1.387-1.173 1.493H61.514c-.853 0-1.28-.426-1.28-1.386Zm23.254-90.347v35.84l1.254.089a43.18 43.18 0 0 0 2.906.124H93.3c4.16 0 8.32-.64 12.267-1.92 3.413-.96 6.4-2.986 8.746-5.653 2.24-2.667 3.307-6.293 3.307-10.987a17.557 17.557 0 0 0-2.453-9.493c-1.738-2.658-4.162-4.728-7.083-5.928l-.384-.152c-3.947-1.6-8.213-2.24-12.587-2.133l-2.466.003-1.159.007-1.106.014-1.052.024c-.512.015-1.002.034-1.47.058a36.513 36.513 0 0 0-.687-.028l-.64-.014a31.158 31.158 0 0 0-.3-.002l-.565.004-.515.014-.238.01-.437.024-.384.03-.172.017-.304.034zm72.32 6.187h18.666c1.008 0 1.825.666 2.182 1.548l.058.158c.32.854.534 1.707.64 2.667.214 1.067.427 2.24.534 3.307l.089 1.031c.07.882.124 1.818.124 2.809a39.68 39.68 0 0 1 10.82-8.85l.593-.324c4.907-2.773 10.56-4.16 16.214-4.16.746-.106 1.386.427 1.493 1.174v21.226c0 .854-.533 1.174-1.707 1.174-3.584-.1-7.26.172-10.77.903l-.75.163c-3.093.64-6.08 1.6-8.96 2.88-2.026.96-3.946 2.24-5.44 3.947v54.4c0 1.067-.426 1.493-1.386 1.493h-21.014c-.853.107-1.6-.426-1.706-1.28v-59.52c0-2.56 0-5.226-.107-8l-.063-2.08-.087-4.16c-.017-.693-.037-1.386-.063-2.08 0-2.453-.214-4.8-.427-7.253-.107-.533.213-1.067.747-1.173 0-.092.156-.105.268-.04z"/><path fill="#ff7f18" d="M10.663 10.663h234.594v228.194H10.663ZM0 249.521h255.92V0H0Z" style="fill:#99f;fill-opacity:1;stroke-width:.429915"/></svg>