<svg xmlns="http://www.w3.org/2000/svg" xmlns:xlink="http://www.w3.org/1999/xlink" width="397.5" height="191.25"><defs><linearGradient id="a"><stop offset="0" stop-color="#70b0df"/><stop offset=".5" stop-color="#1b81c5"/><stop offset="1" stop-color="#4a98ce"/></linearGradient><linearGradient xlink:href="#a" id="b" x1="162.674" x2="162.674" y1="14.453" y2="175.035" gradientUnits="userSpaceOnUse"/></defs><g fill="#8c96a1"><path fill-rule="evenodd" d="M48.822 92.924 12.205 174.94h23.95l7.118-17.382h36.803l7.12 17.382h23.949l-36.71-82.017H48.823zm13.006 19.338 6.213 15.595 6.213 15.598-12.389.03-12.388.03 6.175-15.626 6.176-15.627zm164.597-19.338-36.617 82.017h23.95l7.118-17.382h36.803l7.12 17.382h23.948l-36.709-82.017h-25.613zm13.006 19.338 6.213 15.595 6.213 15.598-12.389.03-12.389.03 6.176-15.626 6.176-15.627zm55.58-19.621h27.2l17.392 26.153 18.438-26.153h26.807l-32.3 39.753 34.392 42.83h-27.2l-19.745-27.922-19.354 27.922h-29.03l35.046-42.437z"/><path d="m179.941 55.93-32.56 32.025 11.209 10.143 10.603-10.66 1.184.001v61.155c0 7.763-6.25 14.013-14.014 14.013H145.23a13.983 13.983 0 0 1-14.014-14.013v-6.528h-21.65v8.13A25.28 25.28 0 0 0 134.9 175.53h28.766a25.28 25.28 0 0 0 25.336-25.336V87.482l.838.002 12.387 10.614 9.74-10.143L179.94 55.93z" color="#000" overflow="visible" style="isolation:auto;mix-blend-mode:normal;solid-color:#000;solid-opacity:1;marker:none" transform="translate(0 2)"/><path d="m120.23 135.333 32.56-32.026-11.21-10.142-10.603 10.66-1.183-.002V42.668c0-7.763 6.25-14.013 14.013-14.013h11.135c7.764 0 14.014 6.25 14.014 14.013v6.528h21.65v-8.13a25.28 25.28 0 0 0-25.336-25.335h-28.765a25.28 25.28 0 0 0-25.336 25.336v62.713l-.838-.002-12.387-10.614-9.74 10.143 32.025 32.025z" color="#000" overflow="visible" style="isolation:auto;mix-blend-mode:normal;solid-color:#000;solid-opacity:1;marker:none" transform="translate(0 2)"/></g><path fill="url(#b)" fill-rule="evenodd" stroke="#0c4c75" stroke-width=".5" d="M136.504 15.73a25.28 25.28 0 0 0-25.336 25.336v62.713l-.838-.002-12.387-10.613-9.74 10.143 32.026 32.025 32.56-32.025-11.209-10.143-10.603 10.66-1.184-.002V42.668c0-7.764 6.25-14.014 14.014-14.014h11.134c7.764 0 14.014 6.25 14.014 14.014v6.527h21.65v-8.129A25.28 25.28 0 0 0 165.27 15.73h-28.766zm43.437 40.2-32.56 32.025 11.209 10.143 10.603-10.66 1.184.001v61.155c0 7.763-6.25 14.013-14.014 14.013H145.23a13.983 13.983 0 0 1-14.014-14.013v-6.528h-21.65v8.13A25.28 25.28 0 0 0 134.9 175.53h28.766a25.28 25.28 0 0 0 25.336-25.336V87.482l.838.002 12.387 10.614 9.74-10.143L179.94 55.93zm115.07 34.71 31.645 40.147-35.045 42.438h29.03l19.353-27.924 19.746 27.924h27.201l-34.392-42.83 32.299-39.754H358.04l-18.437 26.154L322.21 90.64h-27.2zm-246.189.284L12.205 172.94h23.95l7.118-17.382h36.803l7.12 17.382h23.949l-36.71-82.017H48.823zm177.604 0-36.617 82.017h23.949l7.119-17.382h36.803l7.119 17.382h23.949l-36.709-82.017h-25.613zM61.828 110.262l6.213 15.595 6.213 15.598-12.389.03-12.388.03 6.175-15.626 6.176-15.627zm177.604 0 6.213 15.595 6.212 15.598-12.388.03-12.389.03 6.176-15.626 6.176-15.627z"/></svg>