<svg xmlns="http://www.w3.org/2000/svg" width="512" height="82" preserveAspectRatio="xMidYMid"><path fill="#34A853" d="M511.618 76.575c-.044-.28-.087-.556-.134-.833a68.381 68.381 0 0 0-6.829-20.435 68.733 68.733 0 0 0-12.517-17.004 68.94 68.94 0 0 0-12.123-9.61c.028-.044.05-.09.077-.134 1.378-2.381 2.76-4.76 4.139-7.141a213234.702 213234.702 0 0 1 6.946-11.985 6.285 6.285 0 0 0-.043-6.382 6.228 6.228 0 0 0-2.178-2.169 6.325 6.325 0 0 0-2.671-.86 6.385 6.385 0 0 0-2.152.187 6.265 6.265 0 0 0-3.818 2.918l-2.903 5.01-4.043 6.975c-1.379 2.382-2.761 4.76-4.14 7.142-.15.26-.302.52-.452.782-.21-.083-.416-.166-.625-.246-7.6-2.898-15.846-4.484-24.465-4.484-.236 0-.469 0-.706.004a68.553 68.553 0 0 0-21.895 3.8c-.794.277-1.58.57-2.359.876-.14-.243-.284-.486-.422-.73l-4.14-7.14A212571.1 212571.1 0 0 1 407.22 3.13a6.264 6.264 0 0 0-5.97-3.105 6.25 6.25 0 0 0-2.673.86 6.253 6.253 0 0 0-2.856 3.783 6.302 6.302 0 0 0 .09 3.541c.137.42.316.83.545 1.226.97 1.669 1.939 3.341 2.903 5.01 1.35 2.325 2.698 4.65 4.046 6.975 1.378 2.381 2.758 4.76 4.137 7.141.01.02.024.04.034.06a68.95 68.95 0 0 0-12.24 9.687 69.222 69.222 0 0 0-7.531 8.87 68.178 68.178 0 0 0-4.986 8.134 68.445 68.445 0 0 0-5.787 15.353 69.782 69.782 0 0 0-1.042 5.083c-.046.276-.089.556-.131.833a66.705 66.705 0 0 0-.394 3.008H512c-.11-1.01-.24-2.012-.392-3.008l.01-.007Z"/><path fill="#202124" d="M479.223 60.692c2.734-1.82 3.132-6.03.887-9.405-2.243-3.374-6.279-4.633-9.011-2.813-2.734 1.82-3.132 6.03-.887 9.404 2.243 3.375 6.279 4.634 9.01 2.814ZM417.272 57.89c2.245-3.374 1.847-7.585-.888-9.405-2.734-1.82-6.767-.56-9.012 2.814-2.244 3.374-1.846 7.585.887 9.405 2.734 1.82 6.77.56 9.013-2.814ZM307.781 53.996c0-9.168 6.618-16.402 14.967-16.402 8.35 0 14.457 7.03 14.457 16.402 0 9.373-6.21 16.606-14.457 16.606-8.248 0-14.967-7.335-14.967-16.606Zm-28.71 25.571h11.708V28.629H279.07v50.938Zm-1.834-67.95c0 4.38 3.565 7.946 7.738 7.946 4.174 0 7.637-3.566 7.637-7.947 0-4.075-3.463-7.538-7.637-7.538-4.173 0-7.738 3.463-7.738 7.538ZM231.32 53.894c0-9.17 6.72-16.3 15.373-16.3 8.655 0 15.374 7.13 15.374 16.3 0 9.168-6.822 16.707-15.374 16.707s-15.373-7.437-15.373-16.707Zm-11.913 0c0 15.28 12.015 27.302 27.286 27.302 15.273 0 27.286-12.021 27.286-27.302 0-15.282-11.81-26.896-27.286-26.896-15.474 0-27.286 11.716-27.286 26.896Zm-31.663 25.672h11.708V52.876c0-10.595 5.599-15.282 14.967-15.282 1.73 0 3.055.102 4.275.408v-10.29c-1.22-.407-3.36-.713-5.7-.713-15.884 0-25.25 9.984-25.25 25.877v26.691Zm-46.936-25.57c0-9.17 6.618-16.403 14.966-16.403 8.35 0 14.458 7.03 14.458 16.402 0 9.373-6.21 16.606-14.458 16.606-8.247 0-14.966-7.335-14.966-16.606Zm-11.912 0c0 14.771 11.81 27.2 25.758 27.2 5.803 0 11.098-2.343 14.254-6.214h.51v4.584h11.708V.003h-11.708v32.803h-.51C165.853 29.14 160.56 27 154.654 27c-14.05 0-25.758 12.327-25.758 26.997Zm-51.314 25.57H89.29v-29.85c0-7.13 4.785-12.123 11.403-12.123s11.403 4.992 11.403 12.124v29.849h11.709v-29.85c0-12.428-9.876-22.718-23.112-22.718-13.235 0-23.111 10.29-23.111 22.719v29.849ZM23.824 49.004 36.45 12.84h.61l12.626 36.165h-25.86ZM0 79.567h13.236l6.617-18.949h33.803l6.617 18.949H73.51L44.085.003H29.424L0 79.567Zm321.627 1.63c5.804 0 11.098-2.343 14.255-6.214h.51v4.584H348.1V.003H336.39v32.803h-.51C332.828 29.14 327.534 27 321.628 27c-14.049 0-25.757 12.327-25.757 26.997s11.81 27.201 25.757 27.201Z"/></svg>