<svg xmlns="http://www.w3.org/2000/svg" width="58.064" height="27" aria-hidden="true" class="h-6"><path d="M13.482 27c-1.956 0-3.756-.324-5.4-.972-1.644-.648-3.072-1.566-4.284-2.754A12.247 12.247 0 0 1 .99 19.116C.33 17.52 0 15.786 0 13.914c0-2.232.342-4.212 1.026-5.94.696-1.728 1.656-3.18 2.88-4.356A12.48 12.48 0 0 1 8.19.918C9.822.306 11.568 0 13.428 0c2.28 0 4.278.354 5.994 1.062 1.716.708 3.144 1.668 4.284 2.88A11.706 11.706 0 0 1 26.244 8.1c.552 1.548.804 3.168.756 4.86-.06 2.328-.546 4.116-1.458 5.364-.912 1.236-2.328 1.854-4.248 1.854a5.839 5.839 0 0 1-2.826-.702 3.703 3.703 0 0 1-1.764-2.07l1.044.054c-.492.924-1.164 1.572-2.016 1.944a6.464 6.464 0 0 1-2.61.558c-1.212 0-2.28-.258-3.204-.774a5.682 5.682 0 0 1-2.178-2.214c-.528-.948-.792-2.046-.792-3.294 0-1.284.276-2.394.828-3.33a5.77 5.77 0 0 1 2.232-2.196c.936-.516 1.992-.774 3.168-.774.78 0 1.59.162 2.43.486.852.324 1.512.78 1.98 1.368l-.738.936V7.884h2.412l-.054 6.462c0 .924.18 1.62.54 2.088.36.468.894.702 1.602.702.624 0 1.104-.174 1.44-.522.348-.36.588-.846.72-1.458a10.66 10.66 0 0 0 .252-2.106c.036-1.86-.24-3.426-.828-4.698-.588-1.272-1.386-2.298-2.394-3.078a9.499 9.499 0 0 0-3.294-1.71c-1.2-.36-2.394-.54-3.582-.54-1.68 0-3.174.27-4.482.81-1.308.528-2.412 1.278-3.312 2.25-.888.96-1.56 2.1-2.016 3.42-.444 1.308-.654 2.748-.63 4.32.048 1.56.33 2.964.846 4.212a9.324 9.324 0 0 0 2.16 3.204 9.38 9.38 0 0 0 3.276 2.034c1.26.468 2.64.702 4.14.702.84 0 1.674-.096 2.502-.288.84-.18 1.608-.438 2.304-.774l1.026 2.808c-.924.432-1.896.75-2.916.954a14.649 14.649 0 0 1-3.078.324Zm-.144-10.098c.852 0 1.566-.246 2.142-.738.576-.492.864-1.326.864-2.502 0-1.068-.258-1.872-.774-2.412-.504-.552-1.218-.828-2.142-.828-1.092 0-1.908.288-2.448.864-.54.576-.81 1.368-.81 2.376 0 1.032.276 1.83.828 2.394.564.564 1.344.846 2.34.846z" class="fill-blue-500" style="fill:#3b82f5;fill-opacity:1"/><path d="M44.555 7.033V4.765h13.51v2.268h-5.449V22.22h-2.624V7.032h-5.438zM32.148 22.22h-2.795l6.28-17.455h3.043L44.96 22.22h-2.796L37.228 7.936h-.137zm.47-6.835h9.067v2.216h-9.068z" class="fill-blue-600 dark:fill-blue-500" style="fill:#2665eb;fill-opacity:1"/></svg>