<svg xmlns="http://www.w3.org/2000/svg" width="151.176" height="94.734" preserveAspectRatio="xMidYMid"><g fill="#0a0b09"><path d="M42.323 77.153c2.02 0 3.937-.18 5.741-.583 1.83-.402 3.454-1.034 4.824-1.973 1.37-.9 2.503-2.137 3.33-3.711.826-1.558 1.221-3.581 1.221-6.028 0-4.792-1.349-8.195-4.029-10.261-2.687-2.038-6.27-3.051-10.677-3.051h-22.26v25.607Zm-1.13-39.583c3.626 0 6.628-.861 9.008-2.61 2.355-1.715 3.499-4.558 3.499-8.456 0-2.161-.381-3.951-1.144-5.339-.788-1.388-1.833-2.475-3.153-3.234-1.31-.791-2.79-1.339-4.51-1.632-1.684-.332-3.453-.459-5.264-.459H20.473v21.73ZM43.841 0c4.446 0 8.46.385 12.13 1.18 3.647.773 6.761 2.065 9.392 3.838 2.592 1.769 4.619 4.124 6.07 7.09 1.416 2.924 2.129 6.582 2.129 10.91 0 4.683-1.063 8.592-3.188 11.717-2.14 3.121-5.286 5.681-9.488 7.67 5.723 1.645 9.96 4.544 12.771 8.66 2.825 4.146 4.206 9.11 4.206 14.927 0 4.717-.904 8.774-2.705 12.189-1.822 3.457-4.3 6.26-7.355 8.421-3.08 2.182-6.617 3.782-10.58 4.824A47.21 47.21 0 0 1 45.07 92.99H0V0ZM128.3 41.468c-2.2-2.432-5.921-3.75-10.462-3.75-2.956 0-5.403.498-7.359 1.512-1.914 1-3.485 2.246-4.682 3.71-1.194 1.491-2.01 3.062-2.482 4.743-.474 1.638-.756 3.125-.844 4.439h30.091c-.441-4.718-2.055-8.203-4.262-10.654zm-21.25 35.374c2.769 2.705 6.773 4.068 11.96 4.068 3.729 0 6.953-.943 9.657-2.825 2.68-1.875 4.312-3.884 4.944-5.967h16.285c-2.617 8.104-6.589 13.89-12.01 17.373-5.352 3.499-11.885 5.243-19.494 5.243-5.304 0-10.078-.861-14.36-2.55-4.284-1.712-7.864-4.113-10.876-7.241-2.935-3.143-5.212-6.858-6.836-11.219-1.607-4.34-2.42-9.145-2.42-14.353 0-5.035.845-9.739 2.487-14.085 1.68-4.361 4-8.125 7.051-11.282 3.062-3.175 6.688-5.678 10.911-7.507 4.227-1.826 8.884-2.74 14.043-2.74 5.696 0 10.685 1.094 14.961 3.33 4.262 2.2 7.754 5.183 10.501 8.919 2.744 3.732 4.697 7.998 5.918 12.779 1.208 4.777 1.635 9.767 1.286 14.993H102.47c0 5.32 1.8 10.36 4.58 13.064zM98.689 6.24h37.694v9.176H98.689Z"/></g></svg>