<svg xmlns="http://www.w3.org/2000/svg" width="154.28" height="34.131"><path fill="#f26c32" d="M12.75 8.4h9.64l-1.49 5.72A3.57 3.57 0 0 1 19.62 16a3.46 3.46 0 0 1-2.17.72H13a4.31 4.31 0 0 0-2.71.9 4.7 4.7 0 0 0-1.64 2.43 4.63 4.63 0 0 0-.07 2.18c.15.654.433 1.27.83 1.81a4.24 4.24 0 0 0 1.54 1.26 4.54 4.54 0 0 0 2.05.47h2.7a1.53 1.53 0 0 1 1.26.62c.315.387.416.904.27 1.38l-1.7 6.32h-3a12 12 0 0 1-5.65-1.35 12.72 12.72 0 0 1-4.28-3.52 12.49 12.49 0 0 1-2.32-5 12.27 12.27 0 0 1 .15-5.83l.17-.69a12.52 12.52 0 0 1 1.72-3.77A12.81 12.81 0 0 1 5.1 11a12.519 12.519 0 0 1 3.56-1.91 12.24 12.24 0 0 1 4.09-.69zm4.87 25.73L26 2.64A3.58 3.58 0 0 1 27.3.73 3.41 3.41 0 0 1 29.48 0h8.91A12.1 12.1 0 0 1 44 1.34 12.74 12.74 0 0 1 50.68 10a12 12 0 0 1-.17 5.82l-.17.64a12.69 12.69 0 0 1-1.71 3.78 12.53 12.53 0 0 1-2.75 3 12.56 12.56 0 0 1-7.66 2.61H30.5L32 20a3.57 3.57 0 0 1 1.27-1.88 3.51 3.51 0 0 1 2.18-.73H38A4.46 4.46 0 0 0 42.32 14c.194-.68.215-1.398.06-2.09a4.76 4.76 0 0 0-.83-1.81A4.61 4.61 0 0 0 40 8.85a4.43 4.43 0 0 0-2-.49h-4.81L27 31.52a3.64 3.64 0 0 1-1.28 1.88 3.38 3.38 0 0 1-2.13.73zm53.19-16.81.13-.47a.62.62 0 0 0-.11-.58.66.66 0 0 0-.53-.27H56.44A3.5 3.5 0 0 1 53 13.22a3.73 3.73 0 0 1 0-1.66l.86-3.24h18.79a6.6 6.6 0 0 1 3.19.77 7.26 7.26 0 0 1 2.41 2 7.15 7.15 0 0 1 1.33 2.84 7 7 0 0 1-.07 3.3l-3.37 12.55a5.77 5.77 0 0 1-5.63 4.3L56.65 34a7.35 7.35 0 0 1-5.89-2.88 7.73 7.73 0 0 1-1.36-3 7 7 0 0 1 .08-3.44l.17-.64a7.16 7.16 0 0 1 1-2.22 7.86 7.86 0 0 1 1.65-1.75A7.4 7.4 0 0 1 54.39 19a7.29 7.29 0 0 1 2.43-.4h11.64l-.85 3.2a3.62 3.62 0 0 1-1.28 1.88 3.41 3.41 0 0 1-2.13.72H59a.89.89 0 0 0-.93.73.86.86 0 0 0 .17.83.94.94 0 0 0 .76.36h8.4a1.33 1.33 0 0 0 .81-.26 1.08 1.08 0 0 0 .43-.68l.08-.34zM95.64 8.4a12.09 12.09 0 0 1 5.69 1.35 12.72 12.72 0 0 1 4.29 3.56 12.49 12.49 0 0 1 2.32 5.08 12.07 12.07 0 0 1-.19 5.84l-2.13 8a2.31 2.31 0 0 1-.92 1.36 2.54 2.54 0 0 1-1.55.52h-4.61a1.57 1.57 0 0 1-1.54-2l2.56-9.68a4.24 4.24 0 0 0 .07-2.09 4.71 4.71 0 0 0-.84-1.81 4.53 4.53 0 0 0-3.58-1.78h-4.78l-4.13 15.5a2.36 2.36 0 0 1-.92 1.36 2.6 2.6 0 0 1-1.6.52h-4.57a1.52 1.52 0 0 1-1.21-.62 1.48 1.48 0 0 1-.28-1.39L84 8.4zm25.12 8.13a2.16 2.16 0 0 0-.72 1l-1.92 7.25a1.21 1.21 0 0 0 .21 1.11c.232.322.604.512 1 .51H137l-1.37 5.07a3.58 3.58 0 0 1-1.28 1.88 3.36 3.36 0 0 1-2.13.73h-16.06a6.83 6.83 0 0 1-3.2-.75 7.12 7.12 0 0 1-2.41-2 7.51 7.51 0 0 1-1.33-2.86 6.61 6.61 0 0 1 .11-3.27l2.6-9.68a9.69 9.69 0 0 1 1.33-2.9 9.55 9.55 0 0 1 4.84-3.73 9.24 9.24 0 0 1 3.13-.54h11.39a6.75 6.75 0 0 1 3.2.77 7.27 7.27 0 0 1 2.41 2 6.77 6.77 0 0 1 1.3 2.85 7.18 7.18 0 0 1-.08 3.29l-.77 2.9a5.52 5.52 0 0 1-2.07 3.09 5.66 5.66 0 0 1-3.52 1.18h-12.88l.85-3.16a3.39 3.39 0 0 1 1.24-1.88 3.46 3.46 0 0 1 2.17-.72h5.21a.91.91 0 0 0 .94-.73l.17-.64a1 1 0 0 0-.94-1.24h-7.93a1.83 1.83 0 0 0-1.16.47zM137 34.13l8.58-32.21a2.48 2.48 0 0 1 .91-1.39 2.63 2.63 0 0 1 1.6-.53h4.57a1.59 1.59 0 0 1 1.3.62c.312.389.406.908.25 1.38l-6.4 23.77a10.72 10.72 0 0 1-1.52 3.41 11 11 0 0 1-2.47 2.62 11.331 11.331 0 0 1-3.18 1.71 11 11 0 0 1-3.64.62z"/></svg>