<svg xmlns="http://www.w3.org/2000/svg" width="180" height="118" fill="none"><path fill="#263238" d="M2.235 99.891c0 3.64 1.107 6.558 3.321 8.758 2.214 2.198 5.208 3.298 8.982 3.298 3.775 0 6.315-.928 8.203-2.786 1.887-1.872 2.83-4.04 2.83-6.507v-.222h-5.46v.2c0 .995-.432 1.849-1.294 2.563-.861.713-2.302 1.07-4.324 1.07-2.273 0-3.937-.558-4.993-1.672-1.056-1.115-1.582-2.6-1.582-4.457v-1.203c0-1.856.535-3.341 1.605-4.456 1.07-1.114 2.727-1.672 4.97-1.672 1.961 0 3.388.342 4.28 1.025.906.683 1.36 1.544 1.36 2.584v.224h5.46l-.021-.29c-.089-2.48-1.056-4.635-2.898-6.462-1.843-1.843-4.554-2.763-8.136-2.763-3.774 0-6.768 1.099-8.982 3.298-2.214 2.184-3.321 5.102-3.321 8.758v.712ZM30.163 111.279h5.573V99.705c0-2.534 1.219-3.846 2.228-4.559 1.01-.728 2.163-1.09 3.455-1.09.4 0 .765.02 1.091.066.342.045.662.096.958.155v-6.819c-.149-.059-.408-.126-.78-.2a5.125 5.125 0 0 0-1.047-.112c-1.323 0-2.505.357-3.545 1.07-.936.642-1.692 1.398-2.268 2.27-.06.09-.2.053-.207-.055l-.488-2.639h-4.971v23.487h.001ZM45.744 99.891c0 3.64 1.152 6.558 3.455 8.758 2.303 2.198 5.335 3.298 9.094 3.298 3.76 0 6.768-1.099 9.072-3.298 2.319-2.198 3.477-5.118 3.477-8.758v-.712c0-3.654-1.16-6.574-3.477-8.758-2.302-2.198-5.327-3.298-9.072-3.298-3.745 0-6.791 1.099-9.094 3.298-2.303 2.184-3.455 5.102-3.455 8.758v.712Zm5.685-.958c0-2.034.594-3.52 1.782-4.456 1.19-.936 2.883-1.403 5.082-1.403s3.871.467 5.06 1.403c1.204.936 1.806 2.422 1.806 4.456v1.203c0 2.11-.595 3.617-1.782 4.524-1.174.891-2.868 1.336-5.082 1.336-2.215 0-3.916-.445-5.104-1.336-1.174-.907-1.76-2.414-1.76-4.524v-1.203h-.002ZM73.375 87.791l7 23.487h6.339l4.97-17.054c.053-.183.312-.186.37-.003l5.36 17.06h6.334l7.043-23.486h-6.892l-3.476 13.08c-.15.595-.291 1.181-.424 1.76-.076.365-.204.944-.283 1.31-.017.081-.133.083-.152 0a64.269 64.269 0 0 0-.323-1.311 34.022 34.022 0 0 0-.49-1.76l-3.88-13.08h-6.597s-3.895 13.342-4.613 16.001c-.03.115-.194.113-.223-.002l-4.034-16h-6.028l-.001-.002ZM112.613 99.892c0 3.475.944 6.321 2.83 8.534 1.902 2.198 4.54 3.299 7.914 3.299 1.753 0 3.269-.32 4.547-.958.888-.449 2.028-1.459 2.655-2.048.254 1.081.599 2.56.599 2.56h5.523v-34.16h-5.813v13.503c-.742-1.04-1.724-1.842-2.943-2.406-1.217-.579-2.697-.869-4.434-.869-3.27 0-5.9 1.107-7.891 3.32-1.992 2.198-2.987 5.035-2.987 8.513v.712Zm5.684.222-.022-1.158c0-1.694.521-3.061 1.559-4.1 1.041-1.053 2.654-1.581 4.839-1.581 1.529 0 2.83.357 3.9 1.07l.033.021c1.43.964 2.262 2.599 2.262 4.323v1.614c0 1.773-.881 3.446-2.373 4.404l-.034.022c-1.144.712-2.467 1.069-3.967 1.069-2.2 0-3.782-.528-4.748-1.582-.966-1.053-1.449-2.421-1.449-4.099v-.003ZM143.283 111.279h5.551V87.792h-5.551v23.487Zm-1.18-29.903c0 1.01.342 1.842 1.025 2.495.699.64 1.678.958 2.942.958 1.264 0 2.214-.327 2.897-.98.699-.654 1.049-1.478 1.049-2.473 0-.995-.342-1.798-1.027-2.451-.683-.654-1.663-.981-2.942-.981-1.28 0-2.22.327-2.919.98-.683.654-1.025 1.47-1.025 2.452ZM155.565 111.279h5.551v-9.528c0-5.394 1.907-8.81 6.062-8.81s5.038 2.414 5.038 5.807v12.531h5.549V97.352c0-3.995-.816-6.662-2.451-8-1.635-1.352-3.722-2.027-6.264-2.027-1.678 0-3.231.312-4.658.936-1.284.554-2.329 1.341-3.133 2.362-.067-.361-.434-2.83-.434-2.83h-5.26v23.487-.001ZM104.286 68.55H75.714c-12.143 0-20-7.854-20-19.993V19.775C55.714 7.855 63.571 0 75.495 0h28.791c12.143 0 20 7.855 20 19.994v28.563c0 12.139-7.857 19.993-20 19.993Z"/><path fill="#fff" d="M99.769 46.703c-1.283 0-2.427-.398-3.373-1.177-1.13-.918-2.03-2.287-2.06-3.896-.017-.812.837-.812.837-.812s1.388-.017 2.061-.017c.674.017.87.987.902 1.23.26 2.182 1.452 3.133 2.366 3.567.55.26.413 1.073-.733 1.109v-.004ZM88.247 35.62c-1.13-.139-2.807-.257-3.89-.534-1.756-.447-1.708-2.082-1.632-2.615.213-1.6.778-3.08 1.648-4.455 1.083-1.684 2.639-3.165 4.64-4.369 3.753-2.254 9.506-3.653 15.273-3.653 1.068 0 8.849 0 8.849 1.607 0 .892-1.797.809-2.579.809-5.875 0-10.057.826-13.17 2.616-3.067 1.753-5.204 4.438-6.652 8.412-.153.346-.657 2.392-2.487 2.185v-.004ZM93.373 52.02c-2.916.063-5.663-1.303-7.743-3.685-1.762-2.017-2.823-4.05-3.02-6.659-.12-1.704.607-2.293 1.595-2.19.682.068 2.807.174 4.023.433.912.191 1.518.714 1.67 1.79.804 5.738 4.297 7.995 6.377 8.482.365.085.59.329.578.767-.016.417-.247.99-3.477 1.059l-.003.003ZM85.068 57.113c-2.067.09-4.09-.342-4.668-.447-2.432-.447-4.471-1.22-6.218-2.369-4.182-2.744-6.707-7.59-7.008-13.328-.077-1.362-.245-3.964 2.89-3.767 1.292.072 3.343.717 4.788 1.148 1.794.52 2.661 1.954 2.661 3.372 0 8.09 6.773 13.261 9.987 13.261.737 0 1.071.239 1.071.714 0 .357-.333 1.281-3.5 1.42l-.003-.004Z"/><path fill="#fff" d="M74.28 33.339c-1.222-.227-2.416-.75-3.579-1.05-3.595-.924-2.982-4.681-2.645-5.711 3.27-9.975 13.655-13.311 22.036-14.203 7.891-.84 16.148-.19 23.839 2.027.55.15 2.065.53 1.738 1.45-.328.922-1.239.28-9.629.09a46.072 46.072 0 0 0-8.301.559c-4.757.75-9.648 2.306-13.58 5.59-1.895 1.588-3.562 3.615-4.677 6.01a15.26 15.26 0 0 0-.718 1.886c-.2.664-.95 4-4.48 3.355l-.004-.003ZM94.398 35.264c.674-3.122 3.102-7.772 12.388-7.772 1.071 0 1.428.357 1.428.714s-.5.714-1.071.714c-5.643 0-7.435 3.462-8.737 7.009-.42 1.142-1.375 1.313-2.572 1.109-.839-.155-1.75-.257-1.436-1.774Z"/></svg>