<svg xmlns="http://www.w3.org/2000/svg" width="512" height="149" preserveAspectRatio="xMidYMid"><path fill="#1AD1A5" d="M24.358 102.98h45.185c12.478 0 22.593 10.115 22.593 22.593s-10.115 22.593-22.593 22.593H24.358c-12.478 0-22.593-10.115-22.593-22.593S11.88 102.98 24.358 102.98Z"/><circle cx="46.95" cy="46.95" r="45.185" fill="#FFF"/><path fill-opacity=".2" d="M46.95 0C72.88 0 93.9 21.02 93.9 46.95c0 25.93-21.02 46.95-46.95 46.95C21.02 93.9 0 72.88 0 46.95 0 21.02 21.02 0 46.95 0Zm0 1.765c-24.955 0-45.185 20.23-45.185 45.185 0 24.956 20.23 45.186 45.185 45.186 24.956 0 45.186-20.23 45.186-45.186 0-24.955-20.23-45.185-45.186-45.185Z"/><circle cx="46.95" cy="46.95" r="20.243" fill="#FF9903"/><path fill="#1AD1A5" d="M448.755 113.302c-6.566 0-12.215-1.2-16.945-3.6-4.73-2.4-8.366-5.825-10.908-10.273-2.471-4.518-3.707-9.884-3.707-16.097h19.593c0 2.47.494 4.589 1.482 6.354.989 1.765 2.365 3.106 4.13 4.024 1.836.918 4.025 1.377 6.566 1.377 2.542 0 4.73-.459 6.566-1.377 1.836-.918 3.213-2.259 4.13-4.024.99-1.765 1.483-3.883 1.483-6.354h19.592c0 6.213-1.27 11.579-3.812 16.097-2.542 4.448-6.213 7.872-11.014 10.273-4.73 2.4-10.45 3.6-17.156 3.6Zm-31.56-29.97V37.899h19.593v45.433h-19.593Zm43.95 0V37.899h19.592v45.433h-19.592Zm31.263 28.7V37.899H512v74.133h-19.592Z"/><path d="m182.648 112.032-.953-9.85V37.9h19.062v74.133h-18.11Zm-15.038 1.27c-5.013 0-9.32-1.094-12.92-3.283-3.53-2.188-6.249-5.365-8.155-9.53-1.906-4.166-2.86-9.144-2.86-14.933s.93-10.716 2.79-14.782l.07-.15c1.906-4.166 4.624-7.343 8.154-9.532 3.601-2.189 7.908-3.283 12.92-3.283 4.378 0 7.979 1.094 10.803 3.283 2.894 2.189 5.013 5.366 6.354 9.531 1.412 4.095 2.118 9.073 2.118 14.933 0 5.79-.706 10.767-2.118 14.932-1.324 4.113-3.406 7.262-6.245 9.448l-.11.083c-2.823 2.19-6.424 3.283-10.801 3.283Zm5.083-17.58c1.765 0 3.318-.423 4.66-1.27a9.47 9.47 0 0 0 3.283-3.601c.776-1.553 1.165-3.318 1.165-5.295 0-1.977-.389-3.707-1.165-5.19-.777-1.553-1.871-2.753-3.283-3.6-1.342-.847-2.93-1.271-4.766-1.271-1.694 0-3.212.424-4.554 1.27-1.341.848-2.4 2.048-3.177 3.601-.776 1.483-1.2 3.213-1.27 5.19.07 1.977.494 3.742 1.27 5.295.777 1.483 1.836 2.683 3.177 3.6 1.412.848 2.966 1.271 4.66 1.271Zm68.468 16.31-.53-12.18V86.086c0-2.47-.14-4.695-.423-6.672-.282-1.977-.988-3.53-2.118-4.66-1.13-1.129-2.965-1.694-5.507-1.694-1.765 0-3.212.424-4.342 1.271a12.65 12.65 0 0 0-2.86 2.965L208.756 72c1.482-2.895 3.318-5.401 5.507-7.519 2.26-2.118 4.871-3.742 7.837-4.872 3.036-1.2 6.39-1.8 10.06-1.8 5.649 0 10.485 1.024 14.51 3.071 4.024 2.048 7.095 4.907 9.213 8.578 2.118 3.672 3.177 7.943 3.177 12.815v29.759H241.16Zm-14.085 1.27c-6.142 0-10.943-1.376-14.403-4.13-3.389-2.824-5.083-6.848-5.083-12.073 0-5.507 1.694-9.566 5.083-12.179 3.46-2.683 8.26-4.024 14.403-4.024h15.568v10.908h-8.049c-2.47 0-4.377.424-5.719 1.27-1.341.848-2.012 2.048-2.012 3.602 0 1.059.46 1.87 1.377 2.435.918.565 2.189.848 3.813.848 1.765 0 3.283-.318 4.553-.954 1.271-.706 2.26-1.659 2.966-2.859.706-1.27 1.059-2.718 1.059-4.342h4.977c0 6.848-1.624 12.144-4.871 15.886-3.248 3.741-7.802 5.612-13.662 5.612Zm42.033-1.27V59.08h19.063v52.952h-19.063Zm9.531-58.035c-2.824 0-5.295-1.06-7.413-3.178-2.118-2.118-3.177-4.589-3.177-7.413 0-2.894 1.06-5.366 3.177-7.413 2.118-2.118 4.59-3.177 7.413-3.177 2.895 0 5.366 1.059 7.414 3.177 2.118 2.047 3.177 4.519 3.177 7.413 0 2.824-1.06 5.295-3.177 7.413-2.048 2.119-4.519 3.178-7.414 3.178Zm40.141 59.305c-3.53 0-6.813-.494-9.849-1.482-3.036-.989-5.648-2.365-7.837-4.13-2.118-1.836-3.6-4.025-4.448-6.566l15.145-5.931c.776 1.906 1.87 3.142 3.283 3.707 1.412.494 2.647.74 3.706.74 1.13 0 2.048-.246 2.754-.74.706-.495 1.059-1.2 1.059-2.119 0-.988-.494-1.8-1.483-2.435-.967-.691-2.44-1.28-4.42-1.768l-4.476-1.092c-4.73-1.2-8.295-3.283-10.696-6.248-2.4-2.965-3.6-6.425-3.6-10.378 0-5.437 1.976-9.638 5.93-12.603 4.024-2.965 9.46-4.448 16.309-4.448 4.166 0 7.66.53 10.484 1.589 2.895.988 5.26 2.4 7.096 4.236a19.283 19.283 0 0 1 4.236 6.354l-14.72 5.613c-.495-1.412-1.342-2.436-2.542-3.071-1.13-.636-2.542-.953-4.236-.953-1.2 0-2.154.282-2.86.847-.635.565-.953 1.235-.953 2.012 0 .847.494 1.588 1.483 2.224l.141.074c1.057.54 2.599 1.08 4.625 1.62l4.342 1.06c3.247.776 6.071 1.976 8.472 3.6 2.4 1.553 4.271 3.495 5.613 5.825 1.341 2.33 2.012 5.012 2.012 8.048 0 3.46-1.024 6.425-3.071 8.896-2.048 2.4-4.907 4.272-8.579 5.613-3.67 1.271-7.978 1.906-12.92 1.906Zm47.997 21.181c-2.47 0-5.083-.494-7.836-1.483-2.754-.917-4.943-1.906-6.566-2.965l7.095-15.356a9.799 9.799 0 0 0 2.436 1.483c.918.423 1.765.635 2.542.635a6.3 6.3 0 0 0 3.177-.847c1.033-.551 1.832-1.473 2.395-2.764l6.395-14.922 14.297-39.184h21.18l-22.769 54.858c-1.624 3.954-3.318 7.484-5.083 10.59-1.735 3.054-3.914 5.46-6.536 7.217l-.136.09c-2.613 1.766-6.143 2.648-10.59 2.648Zm4.66-22.451L346.021 59.08h21.181l15.78 39.184 6.46 13.768h-18.004Z"/></svg>