<svg xmlns="http://www.w3.org/2000/svg" width="256" height="404" preserveAspectRatio="xMidYMid"><path fill="#1AD1A5" d="M66.406 280.753h123.188c34.017 0 61.594 27.577 61.594 61.594 0 34.017-27.577 61.594-61.594 61.594H66.406c-34.017 0-61.594-27.577-61.594-61.594 0-34.017 27.577-61.594 61.594-61.594Z"/><circle cx="128" cy="128" r="123.188" fill="#FFF"/><path fill-opacity=".2" d="M128 0c70.692 0 128 57.308 128 128 0 70.692-57.308 128-128 128C57.308 256 0 198.692 0 128 0 57.308 57.308 0 128 0Zm0 4.812C59.965 4.812 4.812 59.965 4.812 128S59.965 251.188 128 251.188 251.188 196.035 251.188 128 196.035 4.812 128 4.812Z"/><circle cx="128" cy="128" r="55.188" fill="#FF9903"/></svg>