<svg xmlns="http://www.w3.org/2000/svg" width="1017.199" height="464.718" viewBox="0 0 269.134 122.957"><g style="stroke-width:.413133"><path d="M180.335 81.685v-6.71h8.329v2.52h-5.298l.014 1.375.014 1.376 2.481.013 2.481.014v2.467H183.367l.014 1.58.013 1.582 2.79.013 2.789.013v2.468h-8.638z" style="fill:#d22225;stroke-width:.413133" transform="matrix(2.42053 0 0 2.42053 -223.193 -126.584)"/><path d="M649.484 283.129c-5.313.032-11.455.384-13.914.93l-.437.097v49.938h11.271V314.23l3.063.087c3.464.1 4.369.331 5.662 1.438 1.49 1.276 2.19 2.853 3.351 7.553.962 3.889 2.346 8.647 2.868 9.861l.396.924h11.822l-.552-1.604c-.304-.882-1.264-4.227-2.133-7.433-.87-3.207-1.757-6.355-1.975-6.996-1.071-3.161-3.107-5.981-5.148-7.133-.566-.32-1.025-.637-1.018-.707.006-.07.727-.471 1.602-.89 1.283-.617 1.932-1.105 3.363-2.528 1.448-1.44 1.92-2.065 2.58-3.414 1.098-2.245 1.453-4.022 1.317-6.608-.203-3.84-1.259-6.384-3.64-8.775-1.246-1.253-1.801-1.642-3.503-2.46-2.277-1.092-4.175-1.64-7.28-2.1-1.617-.24-4.507-.336-7.695-.317zm1.631 8.52c1.486.02 2.938.104 3.582.247 3.705.823 5.709 3.496 5.465 7.29-.21 3.283-2.49 5.673-6.152 6.449-.8.17-2.488.273-4.447.275l-3.159.004V291.945l.924-.146c.782-.124 2.302-.17 3.787-.15zM738.24 283.078c-5.245.045-11.915.463-14.246.98l-.437.098v24.86c0 23.506.018 24.863.34 24.959.187.055 1.564.192 3.06.306 1.496.114 3.115.242 3.596.282.48.037 3.368.045 6.414.011 4.336-.046 6.086-.144 8.064-.449 7.3-1.124 12.339-3.268 16.147-6.87 4.48-4.236 6.906-9.8 7.46-17.112.624-8.206-1.537-14.961-6.294-19.684-4.584-4.55-10.35-6.702-19.547-7.291-1.218-.078-2.808-.105-4.557-.09zm1.836 8.942c3.098 0 4.054.068 5.242.373 4.081 1.044 6.739 2.855 8.748 5.964.966 1.495 1.495 2.885 1.985 5.225.52 2.481.41 7.79-.211 10.25-.845 3.344-2.187 5.723-4.387 7.777-2.248 2.1-4.886 3.298-8.463 3.844-1.687.258-6.284.35-7.336.147l-.437-.084v-33.198l.535-.15c.294-.082 2.24-.148 4.324-.148z" style="fill:#d22225;stroke-width:1.56145" transform="translate(-223.193 -126.584) scale(.64043)"/><path d="M505.31 283.371v50.723h32.454v-9.328H516.775v-12.049h18.852v-9.328h-18.852v-10.494h20.018v-9.524h-15.742zM567.996 282.64c-2.344.024-4.657.244-6.717.659-3.645.735-8.266 2.746-10.98 4.78-6.106 4.574-9.564 11.555-9.945 20.071-.248 5.522.962 10.962 3.351 15.069 3.793 6.52 10.338 10.425 19.322 11.531.374.045 2.606.056 4.957.025 3.255-.043 4.81-.15 6.514-.455 2.57-.458 5.416-1.305 5.549-1.652.05-.13-.289-2.16-.752-4.508-.659-3.337-.903-4.255-1.121-4.201-.154.038-1.072.272-2.041.52-5.103 1.304-10.886 1.162-14.615-.36-4.672-1.906-7.917-6.208-8.797-11.662-.316-1.955-.147-7.214.281-8.777.811-2.964 1.958-5.081 3.777-6.971 2.11-2.192 4.643-3.515 8.094-4.229 1.625-.335 2.406-.387 4.762-.306 2.972.102 4.757.406 7.252 1.23.835.276 1.546.472 1.576.434.032-.038.567-2.066 1.19-4.506.95-3.727 1.084-4.466.85-4.617-.605-.391-3.495-1.19-5.605-1.55-2.182-.374-4.557-.548-6.902-.524zm18.74.725.002 15.6c.001 9.141.083 16.322.198 17.348 1.27 11.382 7.042 17.577 17.279 18.544 1.022.097 2.907.133 4.19.079 4.026-.17 6.878-.825 9.716-2.233 6.04-2.996 9.444-8.772 10.2-17.303.108-1.23.197-8.764.197-17.113l.002-14.916h-11.434l-.084 16.275c-.081 15.65-.1 16.347-.492 18.098-.826 3.69-2.335 5.918-4.852 7.162l-1.482.733h-2.537c-2.453 0-2.58-.02-3.854-.623-2.342-1.11-3.72-2.906-4.742-6.182l-.545-1.746-.1-16.809-.1-16.81-5.78-.051z" style="fill:#343686;stroke-width:1.56145" transform="translate(-223.193 -126.584) scale(.64043)"/></g><g style="stroke-width:.413133"><path d="M425.635 197.654c-42.533 0-77.012 34.48-77.012 77.012 0 42.533 34.48 77.012 77.012 77.012 35.135 0 65.815-23.78 74.578-57.805v-11.38c0-67.525-39.442-84.838-74.578-84.839z" style="fill:#d22225;fill-opacity:1;stroke-width:.413133;stroke-linecap:round;paint-order:stroke fill markers" transform="translate(-223.193 -126.584) scale(.64043)"/><path d="m426.836 204.402-12.172 31.434h-38.137l31.016 23.361-12.426 39.371 31.719-27.748 31.719 27.748-12.426-39.37 31.016-23.362h-38.137z" style="fill:#fff;stroke:none;stroke-width:.413133px;stroke-linecap:butt;stroke-linejoin:miter;stroke-opacity:1" transform="translate(-223.193 -126.584) scale(.64043)"/><path d="M132.348 81.444v14.71c0 4.904-10.675 1.165-11.097 1.072-.422-.093-19.637-7.715-19.637-7.715l-8.33-11.51-.22-10.415 1.724-2.442 1.518 2.482 4.617 5.27 14.592 3.985 15.186 2.4z" style="fill:#fff;fill-opacity:1;stroke:none;stroke-width:.109308px;stroke-linecap:butt;stroke-linejoin:miter;stroke-opacity:1" transform="matrix(2.42053 0 0 2.42053 -223.193 -126.584)"/><path d="M363.07 229.93c-.077 0-.333.392-.445.463a77.011 77.011 0 0 0-.389.556 77.011 77.011 0 0 0-.416.61 77.011 77.011 0 0 0-.41.613 77.011 77.011 0 0 0-.404.617 77.011 77.011 0 0 0-.399.621 77.011 77.011 0 0 0-.392.625 77.011 77.011 0 0 0-.387.63 77.011 77.011 0 0 0-.38.632 77.011 77.011 0 0 0-.374.635 77.011 77.011 0 0 0-.369.64 77.011 77.011 0 0 0-.361.643 77.011 77.011 0 0 0-.356.646 77.011 77.011 0 0 0-.35.65 77.011 77.011 0 0 0-.343.653 77.011 77.011 0 0 0-.336.656 77.011 77.011 0 0 0-.332.66 77.011 77.011 0 0 0-.324.663 77.011 77.011 0 0 0-.319.666 77.011 77.011 0 0 0-.31.67 77.011 77.011 0 0 0-.307.671 77.011 77.011 0 0 0-.299.674 77.011 77.011 0 0 0-.29.678 77.011 77.011 0 0 0-.288.682 77.011 77.011 0 0 0-.277.681 77.011 77.011 0 0 0-.274.686 77.011 77.011 0 0 0-.265.69 77.011 77.011 0 0 0-.031.083c-1.073 2.992-2.06 6.02-2.707 8.647-.764 3.094-1.302 6.16-1.725 9.213a77.011 77.011 0 0 0-.078.646 77.011 77.011 0 0 0-.082.734 77.011 77.011 0 0 0-.074.733 77.011 77.011 0 0 0-.067.736 77.011 77.011 0 0 0-.03.389c-.08.8-.103 1.593-.16 2.39a77.011 77.011 0 0 0-.007.165 77.011 77.011 0 0 0 0 .002 77.011 77.011 0 0 0 0 .011c-.577 8.45.019 16.766 2.1 24.936 3.23 12.683 8.853 23.352 18.939 35.928 3.055 3.809 13.914 14.564 20.705 20.507 8.355 7.312 21.035 15.087 34.738 21.301 4.25 1.927 5.232 2.315 11.125 4.397 21.965 7.757 36.085 10.558 57.426 11.392v-.002c2.245.088 4.442.173 4.883.192.44.017 1.076-.023 1.41-.09l.174-.035v-26.098c-.343-.013-3.067-.084-6.758-.176-9.83-.244-18.383-.995-30.025-2.638-11.913-1.683-15.72-2.488-24.84-5.252-2.6-.788-6.52-2.196-10.514-3.715-3.448-1.312-6.964-2.707-9.537-3.842-3.808-1.68-12.03-5.876-15.644-7.984-20.053-11.699-34.397-26.989-41.758-44.51-3.753-8.934-5.67-17.92-6.157-28.877-.108-2.431.039-7.483.211-7.305.03.032.243 1.675.471 3.652 1.656 14.327 6.528 26.645 14.947 37.791 8.078 10.695 20.439 20.416 35.104 27.608 6.362 3.12 12.318 5.515 21.06 8.467 8.342 2.816 12.285 3.867 19.618 5.236 2.317.433 5.768 1.088 7.668 1.455.892.173 3.77.497 5.03.703 5.546.907 12.583 1.965 22.124 3.086 3.622.426 16.66.776 18.514.498l.486-.072v-22.975l-5.834-.017c-4.819-.015-7.067-.175-9.844-.272-1.951-.068-4.505-.04-6.918-.19-23.976-1.482-44.267-5.042-61.572-10.8-29.243-9.73-47.46-25.252-54.133-46.123-1.438-4.5-2.575-10.511-2.531-13.393l.02-1.205.574 1.848c2.072 6.666 4.263 11.148 7.765 15.887 3.747 5.069 8.123 9.383 13.194 13.007 16.065 11.481 40.497 19.231 71.515 22.688 13.038 1.453 31.468 2.21 42.654 1.902.804-.022 2.172.06 2.89.026l2.22-.108v-25.326c-.837.23-8.118 1.08-13.365 1.555-14.063 1.273-19.873 1.518-36.05 1.521-15.285.003-17.388-.092-27.536-1.234-5.878-.661-6.93-.823-8.707-1.35-.695-.205-2.838-.678-4.762-1.05-1.924-.373-4.548-.98-5.83-1.35-1.283-.37-2.813-.78-3.4-.91-4.15-.927-12.622-4.567-17.377-7.465-9.258-5.642-15.835-13.495-18.758-22.399-1.847-5.623-2.414-12.45-1.475-17.763.342-1.933.353-2.117.117-2.117z" style="fill:#343686;stroke-width:1.56145" transform="translate(-223.193 -126.584) scale(.64043)"/><path d="M349.21 265.184c-.15 1.084-.224 2.159-.331 3.238a77.011 77.011 0 0 1 .031-.389 77.011 77.011 0 0 1 .067-.736 77.011 77.011 0 0 1 .074-.733 77.011 77.011 0 0 1 .082-.734 77.011 77.011 0 0 1 .078-.646z" style="fill:#343686;stroke-width:1.56145" transform="translate(-223.193 -126.584) scale(.64043)"/></g></svg>