<svg xmlns="http://www.w3.org/2000/svg" xml:space="preserve" style="fill-rule:evenodd;clip-rule:evenodd;stroke-linejoin:round;stroke-miterlimit:2" viewBox="0 0 305 100"><path d="M112 68.332V31.348h24.976v6.991h-16.651v7.258h14.783v6.831h-14.783v8.913h17.879v6.991H112ZM152.666 61.554c.392.036.845.062 1.361.08.516.018 1.13.027 1.841.027 4.163 0 7.249-1.05 9.259-3.149 2.011-2.099 3.016-4.999 3.016-8.699 0-3.878-.961-6.813-2.882-8.805-1.921-1.993-4.963-2.989-9.126-2.989-.569 0-1.156.009-1.761.027-.605.017-1.174.062-1.708.133v23.375Zm24.069-11.741c0 3.202-.498 5.995-1.494 8.379-.997 2.384-2.411 4.358-4.243 5.924-1.832 1.565-4.065 2.739-6.698 3.522-2.633.783-5.586 1.174-8.859 1.174-1.494 0-3.237-.062-5.23-.187a42.546 42.546 0 0 1-5.87-.774V31.828a49.078 49.078 0 0 1 6.004-.72 91.276 91.276 0 0 1 5.363-.187c3.167 0 6.04.356 8.619 1.067 2.579.712 4.794 1.833 6.644 3.363 1.85 1.529 3.273 3.486 4.27 5.87.996 2.384 1.494 5.248 1.494 8.592ZM182.872 33.269l7.952-1.281v8.272h9.553v6.618h-9.553v9.873c0 1.672.294 3.006.881 4.003.587.996 1.77 1.494 3.549 1.494a15.2 15.2 0 0 0 2.641-.24c.907-.16 1.735-.383 2.482-.667l1.121 6.19c-.961.392-2.028.73-3.203 1.014-1.174.285-2.615.427-4.322.427-2.171 0-3.967-.293-5.39-.88-1.424-.587-2.562-1.406-3.416-2.455-.854-1.05-1.45-2.322-1.788-3.816-.338-1.494-.507-3.149-.507-4.963V33.269ZM204.433 54.51c0-2.491.382-4.67 1.147-6.538.765-1.868 1.77-3.424 3.015-4.67a12.549 12.549 0 0 1 4.297-2.828 13.435 13.435 0 0 1 4.989-.961c3.985 0 7.134 1.219 9.446 3.656 2.313 2.437 3.469 6.022 3.469 10.754 0 .462-.017.969-.053 1.52a79.153 79.153 0 0 1-.107 1.468h-18.038c.178 1.637.943 2.935 2.295 3.896 1.352.961 3.166 1.441 5.443 1.441 1.459 0 2.891-.134 4.296-.4 1.406-.267 2.553-.596 3.443-.988l1.067 6.458c-.427.213-.996.427-1.708.64-.711.214-1.503.4-2.375.561-.871.16-1.805.293-2.801.4-.997.107-1.993.16-2.989.16-2.526 0-4.723-.374-6.591-1.121-1.868-.747-3.415-1.77-4.643-3.068-1.227-1.299-2.135-2.838-2.722-4.617-.587-1.779-.88-3.7-.88-5.763Zm18.678-3.042a8.211 8.211 0 0 0-.346-1.975 4.944 4.944 0 0 0-.908-1.708 4.83 4.83 0 0 0-1.547-1.227c-.623-.32-1.397-.481-2.322-.481-.889 0-1.654.152-2.295.454a4.756 4.756 0 0 0-1.601 1.201 5.364 5.364 0 0 0-.987 1.734c-.231.659-.4 1.326-.507 2.002h10.513ZM247.661 62.782c.782 0 1.529-.018 2.241-.054a15.49 15.49 0 0 0 1.708-.16v-6.03c-.32-.072-.801-.143-1.441-.214a16.106 16.106 0 0 0-1.761-.107c-.747 0-1.45.045-2.108.134-.659.089-1.237.258-1.735.507a2.978 2.978 0 0 0-1.174 1.014c-.285.427-.427.96-.427 1.601 0 1.245.418 2.108 1.254 2.588.836.48 1.984.721 3.443.721Zm-.641-23.269c2.348 0 4.305.267 5.871.801 1.565.533 2.819 1.298 3.762 2.295.943.996 1.61 2.205 2.001 3.629.392 1.423.587 3.006.587 4.749v16.544c-1.138.249-2.721.543-4.749.881-2.028.338-4.483.507-7.365.507-1.815 0-3.46-.16-4.937-.48-1.476-.321-2.748-.845-3.815-1.575a7.195 7.195 0 0 1-2.455-2.855c-.57-1.174-.854-2.615-.854-4.323 0-1.636.329-3.024.987-4.162a7.594 7.594 0 0 1 2.642-2.722c1.103-.676 2.366-1.165 3.789-1.468 1.423-.302 2.9-.453 4.429-.453 1.032 0 1.948.044 2.749.133.8.089 1.45.205 1.948.347v-.747c0-1.352-.409-2.437-1.228-3.256-.818-.818-2.241-1.227-4.269-1.227a27.29 27.29 0 0 0-4.003.293c-1.316.196-2.455.472-3.415.828l-1.014-6.405a25.74 25.74 0 0 1 1.734-.453 30.41 30.41 0 0 1 2.268-.427 48.612 48.612 0 0 1 2.589-.32 28.123 28.123 0 0 1 2.748-.134ZM281.869 53.442c0-2.561-.329-4.376-.987-5.443-.658-1.068-1.788-1.601-3.389-1.601-.498 0-1.014.026-1.548.08a35.09 35.09 0 0 0-1.547.187v21.667h-7.952V41.221a54.163 54.163 0 0 1 2.375-.56 52.147 52.147 0 0 1 2.882-.534 42.854 42.854 0 0 1 3.122-.374 37.875 37.875 0 0 1 3.148-.133c2.028 0 3.674.258 4.937.774 1.263.516 2.304 1.129 3.122 1.841 1.138-.818 2.446-1.459 3.922-1.921 1.477-.463 2.838-.694 4.083-.694 2.241 0 4.083.311 5.524.934 1.44.623 2.588 1.503 3.442 2.642.854 1.138 1.441 2.49 1.761 4.056.32 1.565.48 3.308.48 5.23v15.85h-7.952v-14.89c0-2.561-.329-4.376-.987-5.443-.658-1.068-1.788-1.601-3.389-1.601-.427 0-1.023.106-1.788.32-.764.213-1.396.48-1.894.8.249.819.409 1.681.48 2.589.071.907.107 1.876.107 2.908v15.317h-7.952v-14.89Z" style="fill:#2a3b47;fill-rule:nonzero" transform="matrix(.99356 0 0 .99586 .721 -.793)"/><path d="M48.421 80.74c-10.594-.648-20.739-7.128-25.671-16.598-4.577-8.788-4.505-19.828.173-28.549 5.237-9.762 15.625-15.715 27.123-16.227 0 0 2.857-.183 4.764-1.266 5.658-3.215 6.503-12.705.422-16.58C53.595.477 51.641-.006 49.693 0 30.484.184 11.909 12.188 4.101 29.997-2.461 44.966-1.096 63.119 7.819 77c7.095 11.046 18.666 19.124 31.502 21.917 17.566 3.823 37.023-2.674 48.765-16.373 11.642-13.584 15.199-33.664 8.679-50.521-3.738-9.664-10.361-18.477-19.223-23.779a8.439 8.439 0 0 0-1.448-.687c8.915 7.635 14.567 18.964 14.567 31.6 0 22.968-18.671 41.614-41.67 41.614-.188 0-.207-.009-.57-.031Z" style="fill:#1292ee"/></svg>