<svg xmlns="http://www.w3.org/2000/svg" xml:space="preserve" style="fill-rule:evenodd;clip-rule:evenodd;stroke-linejoin:round;stroke-miterlimit:2" viewBox="0 0 130 130"><circle cx="435.004" cy="64.872" r="51.978" style="fill:#fff" transform="matrix(1.25054 0 0 1.25053 -478.987 -16.124)"/><path d="M48.421 80.74c-10.594-.648-20.739-7.128-25.671-16.598-4.577-8.788-4.505-19.828.173-28.549 5.237-9.762 15.625-15.715 27.123-16.227 0 0 2.857-.183 4.764-1.266 5.658-3.215 6.503-12.705.422-16.58C53.595.477 51.641-.006 49.693 0 30.484.184 11.909 12.188 4.101 29.997-2.461 44.966-1.096 63.119 7.819 77c7.095 11.046 18.666 19.124 31.502 21.917 17.566 3.823 37.023-2.674 48.765-16.373 11.642-13.584 15.199-33.664 8.679-50.521-3.738-9.664-10.361-18.477-19.223-23.779a8.439 8.439 0 0 0-1.448-.687c8.915 7.635 14.567 18.964 14.567 31.6 0 22.968-18.671 41.614-41.67 41.614-.188 0-.207-.009-.57-.031Z" style="fill:#1292ee" transform="translate(15 15)"/></svg>