<svg xmlns="http://www.w3.org/2000/svg" width="3840" height="2160" style="shape-rendering:geometricPrecision;text-rendering:geometricPrecision;image-rendering:optimizeQuality;fill-rule:evenodd;clip-rule:evenodd"><path d="M953.5 585.5h424c.33 33.906 0 67.74-1 101.5-106.33.5-212.67.667-319 .5v214c81.67-.167 163.33 0 245 .5.66 16.594 1 33.261 1 50 0 16.739-.34 33.406-1 50-81.67.5-163.33.67-245 .5.17 125.67 0 251.33-.5 377-33.98.32-68.484.32-103.5 0v-794Z" style="opacity:.981"/><path fill="#fe7161" d="M585.5 586.5c78.981 12.553 128.815 57.553 149.5 135 12.47 89.383-21.197 154.383-101 195l-1-1c-15.151 6.993-30.984 10.993-47.5 12h-2c-16.795.639-33.461 1.306-50 2h-135a14709.966 14709.966 0 0 1-2-342c54.392-.253 108.559-.587 162.5-1l26 2a2.428 2.428 0 0 0 .5-2Z" style="opacity:1"/><path fill="#f14e1e" d="M394.5 928.5c-64.343.086-127.343.086-189 0h-1c-.111-.617-.444-1.117-1-1.5a145.38 145.38 0 0 1-25-5 463.878 463.878 0 0 1-35-12.5c-37.381-20.037-63.715-49.704-79-89-.086-.996.248-1.829 1-2.5-6.11-14.729-9.443-29.896-10-45.5-.266-3.15-1.266-5.817-3-8v-13c1.55-1.8 2.55-3.967 3-6.5.68-19.038 4.847-37.538 12.5-55.5l13.5-27c22.731-34.054 53.731-57.054 93-69 .996-.086 1.829.248 2.5 1 8.874-3.42 17.874-5.087 27-5a238.19 238.19 0 0 1 25-3h160c2.147.613 4.314 1.279 6.5 2-.307 113.36-.64 226.693-1 340Z" style="opacity:1"/><path fill="#f9654b" d="M585.5 586.5a2.428 2.428 0 0 1-.5 2l-26-2c-53.941.413-108.108.747-162.5 1-.658 114.143.009 228.143 2 342h-3c0-.667-.333-1-1-1 .36-113.307.693-226.64 1-340a168.028 168.028 0 0 0-6.5-2H229a238.19 238.19 0 0 0-25 3c-9.126-.087-18.126 1.58-27 5-.671-.752-1.504-1.086-2.5-1 13.226-3.976 26.56-6.476 40-7.5 123.688-.826 247.355-.659 371 .5Z" style="opacity:.871"/><path d="M1551.5 613.5c38.22-.833 63.05 16.834 74.5 53 4.74 36.247-9.43 62.08-42.5 77.5-34.84 10.27-62.34.103-82.5-30.5-15.05-32.002-9.88-60.168 15.5-84.5 10.78-8.077 22.45-13.244 35-15.5Z" style="opacity:.98"/><path fill="#d6593f" d="m81.5 662.5-13.5 27c-7.653 17.962-11.82 36.462-12.5 55.5-.45 2.533-1.45 4.7-3 6.5 1.263-22.797 6.43-44.797 15.5-66 3.566-8.356 8.066-16.023 13.5-23Z" style="opacity:.514"/><path fill="#242725" d="M52.5 774.5c1.406.473 2.073 1.473 2 3-1.548-.321-2.215-1.321-2-3Z" style="opacity:.114"/><path fill="#d7583e" d="M52.5 764.5c1.734 2.183 2.734 4.85 3 8 .557 15.604 3.89 30.771 10 45.5-.752.671-1.086 1.504-1 2.5-5.66-13.65-8.994-27.983-10-43 .073-1.527-.594-2.527-2-3v-10Z" style="opacity:.534"/><path d="M1980.5 830.5c60.76-1.876 112.59 18.457 155.5 61 .18-14.908.68-29.741 1.5-44.5 34.33-.5 68.67-.667 103-.5.17 169.33 0 338.67-.5 508-9.59 102.81-60.09 177.31-151.5 223.5-73.24 32.6-146.9 32.6-221 0a224.49 224.49 0 0 1-30-17.5c-.33-.67-.67-1.33-1-2 16.93-29.53 34.1-58.86 51.5-88 47.26 31.94 97.42 38.11 150.5 18.5 56.4-25.64 88.9-69.14 97.5-130.5.17-28.57.67-57.07 1.5-85.5-.67-.67-1.33-.67-2 0-49.64 47.61-108.98 67.27-178 59-73.7-12.11-129.2-50.61-166.5-115.5-31.02-59.6-41.02-121.6-30-186 11.85-61.22 41.35-112.053 88.5-152.5 38.68-29.748 82.35-45.582 131-47.5Zm6 102c59.64-1.571 104.14 24.095 133.5 77 17.3 36.36 21.3 74.36 12 114-14.08 48.67-44.58 82.5-91.5 101.5-57.63 15.96-106.13 1.12-145.5-44.5-36.73-50.3-43.73-104.63-21-163 23.06-48.2 60.56-76.534 112.5-85Z" style="opacity:.986"/><path d="M2623.5 830.5c61.35-1.17 111.52 21.83 150.5 69a409.191 409.191 0 0 0 13.5 20c48.27-68.049 113.94-96.882 197-86.5 68.4 15.051 114.9 55.551 139.5 121.5a271.797 271.797 0 0 1 13 53c1.64 123.99 1.98 247.99 1 372-33.96.01-68.13.01-102.5 0 .17-113.33 0-226.67-.5-340-4.37-55.36-33.2-90.526-86.5-105.5-47.97-6.697-85.47 9.803-112.5 49.5-8.38 13.491-13.71 28.16-16 44-.5 117.33-.67 234.67-.5 352h-104c.17-116 0-232-.5-348-8.34-52.333-38.17-84.833-89.5-97.5-47.71-5.735-84.88 11.765-111.5 52.5-8.22 14.54-13.22 30.21-15 47-.5 115.33-.67 230.67-.5 346h-103c-.12-177.44-.45-354.61-1-531.5 34.52-1.493 69.19-1.993 104-1.5-.17 15.67 0 31.337.5 47 31.84-40.322 73.34-61.322 124.5-63Z" style="opacity:.985"/><path d="M3492.5 830.5c72.88-1.869 135.21 22.798 187 74 .84-19.329 1.17-38.329 1-57 34.33-1 68.66-1.333 103-1v533c-34.34.33-68.67 0-103-1 .12-18.99-.22-37.99-1-57-38.84 38.75-85.18 62.59-139 71.5-110.48 12.07-195.98-28.43-256.5-121.5-41.9-75.16-53.23-153.16-34-234 17.27-69.086 54.77-124.253 112.5-165.5 39.72-25.242 83.06-39.076 130-41.5Zm6 102c59.61-2.193 107.77 20.14 144.5 67 41.17 59.69 48.17 123.69 21 192-27.59 57.63-72.76 91.46-135.5 101.5-59.29 3.36-107.46-18.14-144.5-64.5-35.33-49.55-46.33-104.22-33-164 15.79-56.68 50.63-97.18 104.5-121.5a394.305 394.305 0 0 1 19-6c8.47-1.035 16.47-2.535 24-4.5Z" style="opacity:.99"/><path d="M1507.5 846.5h104c.17 177.33 0 354.67-.5 532-34.43 1-68.93 1.33-103.5 1v-533Z" style="opacity:.985"/><path fill="#c3543c" d="M143.5 909.5a463.878 463.878 0 0 0 35 12.5 145.38 145.38 0 0 0 25 5c.556.383.889.883 1 1.5-16.36-2.009-32.693-6.175-49-12.5a105.307 105.307 0 0 0-12-6.5Z" style="opacity:.514"/><path fill="#a159fe" d="M205.5 928.5c61.657.086 124.657.086 189 0 .667 0 1 .333 1 1v147c.027 15.58.027 31.24 0 47v147h-174c-2.198.57-4.531.57-7 0-2.644-.22-4.977-.22-7 0-4.918-.34-9.751-1.01-14.5-2-.333.33-.667.67-1 1a151.804 151.804 0 0 0-8.5-3c-2.015-1.42-4.348-2.09-7-2-22.866-6.15-43.199-16.82-61-32a6.575 6.575 0 0 0-3-3 114.619 114.619 0 0 1-22-22c.073-1.53-.594-2.53-2-3-13.69-16.34-23.022-35.01-28-56-.296-1.9-.962-3.57-2-5-.8-1.54-1.134-3.21-1-5-.358-3.19-1.025-6.19-2-9-.914-3.23-1.247-6.56-1-10 .51-2.89-.157-5.22-2-7v-26c1.78-1.49 2.447-3.49 2-6 2.115-22.34 8.449-43.34 19-63 1.406-.47 2.073-1.47 2-3 .333-.67.667-1.33 1-2 1.406-.47 2.073-1.47 2-3a64.305 64.305 0 0 1 6-9c1.406-.47 2.073-1.473 2-3 30.151-39.894 69.818-62.894 119-69Z" style="opacity:.998"/><path fill="#5997da" d="M395.5 929.5h1c-.332 47.836.001 95.5 1 143-.16 1.65-.826 2.99-2 4v-147Z" style="opacity:.298"/><path fill="#1bbbfd" d="M583.5 927.5c.333 1.333.667 1.333 1 0h1c64.524 10.564 111.024 45.564 139.5 105 23.748 62.88 15.748 121.21-24 175-41.95 47.88-93.283 69.22-154 64-64.67-10.44-111.003-45.1-139-104a683.85 683.85 0 0 1-9-28 46.91 46.91 0 0 1-1.5-11c.38-2.2-.287-3.86-2-5 .027-15.76.027-31.42 0-47 1.174-1.01 1.84-2.35 2-4 6.261-41.34 25.261-75.842 57-103.5 25.937-21.315 55.27-34.315 88-39a40.914 40.914 0 0 0-9-.5c16.539-.694 33.205-1.361 50-2Z" style="opacity:.998"/><path fill="#48678d" d="M86.5 997.5c.073 1.527-.594 2.53-2 3-.073-1.527.594-2.527 2-3ZM78.5 1009.5c.073 1.53-.594 2.53-2 3-.073-1.53.594-2.53 2-3ZM75.5 1014.5c.073 1.53-.594 2.53-2 3-.073-1.53.594-2.53 2-3Z" style="opacity:.298"/><path fill="#5b80bf" d="M54.5 1080.5c.447 2.51-.22 4.51-2 6-.475-2.58.192-4.58 2-6Z" style="opacity:.298"/><path fill="#5986bf" d="M52.5 1112.5c1.843 1.78 2.51 4.11 2 7-.617-.11-1.117-.44-1.5-1a18.423 18.423 0 0 1-.5-6Z" style="opacity:.298"/><path fill="#4c729e" d="M55.5 1129.5c.975 2.81 1.642 5.81 2 9-1.766-2.62-2.432-5.62-2-9Z" style="opacity:.298"/><path fill="#435c7a" d="M58.5 1143.5c1.038 1.43 1.704 3.1 2 5-1.713-1.14-2.38-2.8-2-5Z" style="opacity:.114"/><path fill="#3e5168" d="M88.5 1204.5c1.406.47 2.073 1.47 2 3-1.406-.47-2.073-1.47-2-3Z" style="opacity:.114"/><path fill="#435c7a" d="M112.5 1229.5a6.575 6.575 0 0 1 3 3c-2 0-3-1-3-3Z" style="opacity:.114"/><path fill="#4b6f99" d="M176.5 1264.5c2.652-.09 4.985.58 7 2-2.652.09-4.985-.58-7-2Z" style="opacity:.298"/><path fill="#498aae" d="M214.5 1270.5c-2.107.97-4.441 1.3-7 1v-1c2.023-.22 4.356-.22 7 0Z" style="opacity:.298"/><path fill="#0bce83" d="M214.5 1270.5c2.469.57 4.802.57 7 0 57.736.67 115.569 1.34 173.5 2 .5 59.67.667 119.33.5 179 .372 6.8-.294 13.47-2 20-1.492 3.76-2.492 7.76-3 12-13.82 53-45.487 91.5-95 115.5a67.337 67.337 0 0 1-15 4.5c-3.246.55-6.246 1.55-9 3-3.616.4-6.95 1.4-10 3-2.048 1.27-4.048 1.6-6 1-2.687-.16-5.354 0-8 .5-.556.38-.889.88-1 1.5h-7c-2.728-.33-5.062.34-7 2h-12c-.111-.62-.444-1.12-1-1.5-3.317-.5-6.65-.67-10-.5h-1c-6.47-1.43-13.137-2.43-20-3h-1c-3.05-1.6-6.384-2.6-10-3-1.792.13-3.458-.2-5-1-1.28-1.43-2.947-2.1-5-2-4.363-.42-8.363-1.75-12-4-.79-.9-1.79-1.57-3-2-13.27-5.27-25.27-12.61-36-22-1.411-2.41-3.411-4.08-6-5-16.414-14.03-29.081-30.36-38-49-.489-1.5-1.155-2.83-2-4-4.84-7.97-8.173-16.64-10-26-.103-3.14-1.103-5.8-3-8v-3c-.641-5.52-1.641-10.86-3-16v-3c.432-3.38-.234-6.38-2-9v-26c1.713-1.14 2.38-2.8 2-5-.31-3.21.023-6.21 1-9 1.08-3.13 1.747-6.46 2-10 1.6-3.05 2.6-6.38 3-10v-1c1.597-2.35 2.597-5.01 3-8 9.28-28.23 25.28-51.9 48-71 2.249-.58 3.915-1.91 5-4 10.521-9.1 22.188-16.43 35-22 2.657-.43 4.991-1.43 7-3a60.886 60.886 0 0 1 10-4.5 34.238 34.238 0 0 1 8-1.5c3.616-.4 6.95-1.4 10-3h1c6.18-.68 12.18-1.68 18-3h2c2.559.3 4.893-.03 7-1Z" style="opacity:.998"/><path fill="#5a93cf" d="M395.5 1123.5c1.713 1.14 2.38 2.8 2 5l-2 323c.167-59.67 0-119.33-.5-179-57.931-.66-115.764-1.33-173.5-2h174v-147Z" style="opacity:.906"/><path fill="#3d6173" d="M205.5 1271.5c-5.82 1.32-11.82 2.32-18 3 .418-.72 1.084-1.22 2-1.5a89.537 89.537 0 0 1 16-1.5Z" style="opacity:.114"/><path fill="#3c8494" d="M186.5 1274.5c-3.05 1.6-6.384 2.6-10 3 2.952-1.91 6.286-2.91 10-3Z" style="opacity:.467"/><path fill="#3a7b87" d="M158.5 1283.5c-2.009 1.57-4.343 2.57-7 3 1.82-1.95 4.154-2.95 7-3Z" style="opacity:.467"/><path fill="#328a8e" d="M116.5 1308.5c-1.085 2.09-2.751 3.42-5 4 1.085-2.09 2.751-3.42 5-4Z" style="opacity:.467"/><path fill="#40879d" d="M63.5 1383.5c-.403 2.99-1.403 5.65-3 8 .103-3.14 1.103-5.8 3-8Z" style="opacity:.298"/><path fill="#4691b1" d="M60.5 1392.5c-.4 3.62-1.4 6.95-3 10 .09-3.71 1.09-7.05 3-10Z" style="opacity:.298"/><path fill="#407b90" d="M57.5 1402.5c-.253 3.54-.92 6.87-2 10-.164-2.69.003-5.35.5-8 .278-.92.778-1.58 1.5-2Z" style="opacity:.467"/><path fill="#446389" d="M54.5 1421.5c.38 2.2-.287 3.86-2 5-.38-2.2.287-3.86 2-5Z" style="opacity:.298"/><path fill="#407c99" d="M52.5 1452.5c1.766 2.62 2.432 5.62 2 9-1.888-2.49-2.554-5.49-2-9Z" style="opacity:.298"/><path fill="#408da4" d="M54.5 1464.5c1.359 5.14 2.359 10.48 3 16-.722-.42-1.222-1.08-1.5-2-.83-4.64-1.33-9.3-1.5-14Z" style="opacity:.467"/><path fill="#4198b1" d="M393.5 1471.5c-.002 4.37-1.002 8.37-3 12 .508-4.24 1.508-8.24 3-12Z" style="opacity:.467"/><path fill="#3d7085" d="M57.5 1483.5c1.897 2.2 2.897 4.86 3 8-1.597-2.35-2.597-5.01-3-8Z" style="opacity:.298"/><path fill="#354853" d="M70.5 1517.5c.845 1.17 1.511 2.5 2 4-1.677-.68-2.343-2.02-2-4Z" style="opacity:.114"/><path fill="#3b707d" d="M110.5 1570.5c2.589.92 4.589 2.59 6 5-2.589-.92-4.589-2.59-6-5Z" style="opacity:.467"/><path fill="#242725" d="M152.5 1597.5c1.21.43 2.21 1.1 3 2-1.679.21-2.679-.45-3-2Z" style="opacity:.114"/><path fill="#2d3b44" d="M167.5 1603.5c2.053-.1 3.72.57 5 2-2.198.38-3.865-.29-5-2Z" style="opacity:.114"/><path fill="#3c6d7c" d="M280.5 1603.5c-2.508 2.05-5.508 3.05-9 3 2.754-1.45 5.754-2.45 9-3Z" style="opacity:.114"/><path fill="#3f8094" d="M177.5 1606.5c3.616.4 6.95 1.4 10 3-3.714-.09-7.048-1.09-10-3Z" style="opacity:.298"/><path fill="#477a9c" d="M271.5 1606.5c-2.952 1.91-6.286 2.91-10 3 3.05-1.6 6.384-2.6 10-3Z" style="opacity:.298"/><path fill="#43708a" d="M255.5 1610.5c-2.773 1.16-5.773 1.82-9 2 .111-.62.444-1.12 1-1.5 2.646-.5 5.313-.66 8-.5Z" style="opacity:.298"/><path fill="#407e93" d="M188.5 1609.5c6.863.57 13.53 1.57 20 3-7 .29-13.666-.71-20-3Z" style="opacity:.298"/><path fill="#389fab" d="M209.5 1612.5c3.35-.17 6.683 0 10 .5.556.38.889.88 1 1.5-4.149.58-7.816-.09-11-2Z" style="opacity:.467"/><path fill="#344152" d="M239.5 1612.5c-.111.62-.444 1.12-1 1.5-1.973.5-3.973.66-6 .5 1.938-1.66 4.272-2.33 7-2Z" style="opacity:.114"/></svg>