<svg xmlns="http://www.w3.org/2000/svg" width="181" height="38" fill="none"><g clip-path="url(#a)"><path fill="#FFEE04" d="M59.097 37.27V.482H.22V37.27h58.876Z"/><path fill="#fff" d="M66.982 15.375h4.016V9.637h5.752V6.422h-5.752V3.897h6.387V.684H66.982v14.691ZM90.398 8.338c.47-.722.705-1.61.705-2.662 0-1.053-.228-1.938-.686-2.683a4.47 4.47 0 0 0-1.923-1.713C87.67.882 86.71.684 85.612.684h-6.386v14.693h4.016v-4.849h1.39l2.599 4.85h4.363l-3.005-5.48c.766-.365 1.37-.883 1.81-1.558v-.002Zm-7.156-4.47h1.415c.472 0 .875.063 1.21.19.335.126.591.322.772.587.18.266.271.61.271 1.03 0 .42-.09.753-.27 1.012-.182.26-.44.447-.773.563-.335.119-.738.176-1.21.176h-1.415V3.868ZM103.952 1.347c-1.089-.577-2.303-.865-3.64-.865-1.337 0-2.566.288-3.652.865-1.087.577-1.948 1.426-2.587 2.546-.638 1.122-.957 2.5-.957 4.135 0 1.634.319 3 .957 4.122.64 1.122 1.5 1.973 2.587 2.554 1.086.582 2.302.871 3.652.871s2.553-.287 3.64-.865c1.089-.577 1.954-1.426 2.592-2.546.641-1.121.962-2.5.962-4.136 0-1.636-.321-3.013-.962-4.135-.64-1.122-1.505-1.97-2.592-2.546Zm-.928 8.91c-.235.606-.58 1.065-1.034 1.377-.454.314-1.015.47-1.678.47-.664 0-1.224-.158-1.68-.47-.454-.312-.8-.773-1.034-1.377-.234-.606-.35-1.346-.35-2.227 0-.882.116-1.622.35-2.228.234-.606.58-1.065 1.034-1.377.456-.312 1.014-.47 1.68-.47.666 0 1.224.158 1.678.47.454.312.799.773 1.034 1.377.234.606.351 1.348.351 2.228 0 .879-.117 1.623-.351 2.227ZM118.508 8.374h-.115l-5.261-7.69h-3.41v14.691h4.016V7.656h.089l5.345 7.72h3.352V.683h-4.016v7.69ZM124.393 3.897h4.452v11.478h3.958V3.897h4.45V.684h-12.86v3.213ZM139.122 15.375h10.635v-3.213h-6.619V9.637h6.099V6.422h-6.099V3.897h6.648V.684h-10.664v14.691ZM160.93 8.374h-.115l-5.259-7.69h-3.41v14.691h4.016V7.656h.086l5.347 7.72h3.353V.683h-4.018v7.69ZM179.376 4.086a6.155 6.155 0 0 0-2.571-2.525c-1.112-.585-2.427-.88-3.949-.88h-5.634v14.694h5.692c1.501 0 2.806-.293 3.909-.879a6.139 6.139 0 0 0 2.557-2.525c.602-1.098.904-2.411.904-3.943s-.302-2.844-.908-3.944v.002Zm-3.547 6.34c-.271.574-.668.98-1.186 1.212-.517.235-1.142.351-1.875.351h-1.532V4.07h1.415c.77 0 1.421.118 1.953.351.532.235.937.638 1.214 1.212.278.573.415 1.373.415 2.397 0 1.024-.135 1.821-.408 2.397h.004Z"/><path fill="#FFEE04" d="M75.705 30.28h-.115l-5.26-7.691h-3.41v14.693h4.017v-7.719h.086l5.347 7.72h3.353V22.588h-4.018v7.69ZM86.389 22.589l-4.883 14.693h4.334l.855-2.81h4.878l.855 2.81h4.334L91.88 22.59h-5.49Zm1.214 8.896 1.475-4.85h.115l1.475 4.85h-3.065ZM96.261 25.803h4.452v11.48h3.958v-11.48h4.452V22.59H96.261v3.215ZM115.008 22.589h-4.018v14.693h4.018V22.59ZM128.06 23.254c-1.088-.578-2.302-.865-3.64-.865-1.337 0-2.565.287-3.652.865-1.087.577-1.95 1.425-2.586 2.545-.639 1.122-.958 2.501-.958 4.135s.319 3.001.958 4.123c.638 1.122 1.499 1.973 2.586 2.554 1.087.581 2.303.871 3.652.871 1.35 0 2.554-.288 3.64-.865 1.087-.577 1.954-1.426 2.595-2.546.641-1.122.961-2.5.961-4.137 0-1.636-.32-3.013-.961-4.135-.641-1.122-1.506-1.97-2.595-2.545Zm-.928 8.91c-.234.606-.577 1.065-1.033 1.377-.454.314-1.015.47-1.681.47-.665 0-1.224-.158-1.68-.47-.456-.312-.799-.773-1.033-1.377-.235-.606-.352-1.346-.352-2.228 0-.88.117-1.621.352-2.227.234-.606.577-1.065 1.033-1.377.456-.312 1.015-.47 1.68-.47.666 0 1.224.158 1.681.47.456.312.799.773 1.033 1.377.234.606.351 1.348.351 2.227 0 .88-.117 1.624-.351 2.228ZM142.614 22.589v7.69h-.115l-5.258-7.69h-3.41v14.693h4.016v-7.719h.086l5.347 7.72h3.352V22.588h-4.018Z"/><path fill="#000" fill-rule="evenodd" d="M13.452 16.248v-4.73h9.921V5.737H6.835v26.278h6.617V21.503h9.921v-5.255h-9.921ZM47.188 5.737v14.45l-9.924-14.45h-6.615v5.78h-7.276v4.732h7.276v5.254h-7.276v4.73h7.276v5.782h6.615V17.566l9.924 14.449h6.614V5.737h-6.614Z" clip-rule="evenodd"/></g><defs><clipPath id="a"><path fill="#fff" d="M.22.482h180v37H.22z"/></clipPath></defs></svg>