<svg xmlns="http://www.w3.org/2000/svg" viewBox="0 0 200 29.05"><path fill="#fbbc04" d="M0 25.698 16.2 0h10.057v3.575L12.29 25.698"/><path fill="#1a73e8" d="M26.257 25.698H16.2V0h10.056v25.698z"/><path fill="#34a853" d="M33.519 18.435a7.262 7.262 0 0 1-7.262 7.263V11.173a7.262 7.262 0 0 1 7.262 7.262z"/><path fill="#0d652d" d="M26.257 25.698a7.262 7.262 0 1 1 0-14.525v14.525z"/><path fill="#1a73e8" d="M31.843 5.586c0 3.085-2.5 5.587-5.586 5.587V0a5.586 5.586 0 0 1 5.586 5.586z"/><path fill="#174ea6" d="M26.257 11.173a5.586 5.586 0 1 1 0-11.173v11.173z"/><path fill="#ea4335" d="M.559 5.028a5.028 5.028 0 1 1 10.056 0 5.028 5.028 0 0 1-10.056 0Z"/><g fill="#5f6368"><path d="M60.32 23.036c-5.758 0-10.6-4.666-10.6-10.4 0-5.733 4.842-10.401 10.6-10.401 3.186 0 5.453 1.243 7.162 2.867l-2.016 2.003c-1.222-1.14-2.878-2.03-5.146-2.03-4.205 0-7.492 3.375-7.492 7.56 0 4.187 3.287 7.561 7.492 7.561 2.726 0 4.281-1.091 5.276-2.08.814-.812 1.35-1.979 1.553-3.578h-6.83v-2.841h9.608c.102.507.152 1.117.152 1.777 0 2.13-.586 4.768-2.472 6.646-1.835 1.902-4.178 2.916-7.287 2.916zM84.94 16.34c0 3.855-2.978 6.696-6.632 6.696-3.652 0-6.63-2.84-6.63-6.697 0-3.881 2.978-6.697 6.63-6.697 3.654 0 6.632 2.816 6.632 6.697zm-2.902 0c0-2.41-1.729-4.06-3.73-4.06-2 0-3.728 1.65-3.728 4.06 0 2.384 1.727 4.059 3.728 4.059 2.001 0 3.73-1.675 3.73-4.06zM99.804 16.34c0 3.855-2.979 6.696-6.632 6.696-3.652 0-6.63-2.84-6.63-6.697 0-3.881 2.978-6.697 6.63-6.697 3.653 0 6.632 2.816 6.632 6.697zm-2.903 0c0-2.41-1.727-4.06-3.73-4.06-2 0-3.727 1.65-3.727 4.06 0 2.384 1.727 4.059 3.728 4.059 2.002 0 3.73-1.675 3.73-4.06zM114.294 10.048v12.025c0 4.948-2.93 6.977-6.395 6.977-3.262 0-5.224-2.182-5.962-3.958l2.572-1.066c.46 1.09 1.58 2.385 3.39 2.385 2.216 0 3.593-1.369 3.593-3.932v-.964h-.102c-.662.812-1.937 1.521-3.542 1.521-3.364 0-6.447-2.916-6.447-6.67 0-3.78 3.083-6.724 6.447-6.724 1.605 0 2.88.71 3.542 1.497h.102v-1.091h2.802zm-2.599 6.317c0-2.359-1.58-4.085-3.592-4.085-2.039 0-3.746 1.726-3.746 4.085 0 2.334 1.707 4.034 3.746 4.034 2.012 0 3.592-1.7 3.592-4.034zM119.476 22.63h-2.956V2.945h2.956V22.63zM131.095 18.546l2.294 1.522c-.738 1.091-2.523 2.967-5.606 2.967-3.82 0-6.582-2.94-6.582-6.694 0-3.984 2.785-6.698 6.252-6.698 3.491 0 5.198 2.765 5.758 4.26l.305.762-8.994 3.703c.688 1.345 1.757 2.03 3.261 2.03 1.503 0 2.549-.736 3.312-1.852zm-7.058-2.41 6.014-2.485c-.331-.837-1.325-1.421-2.498-1.421-1.503 0-3.59 1.318-3.516 3.906z"/></g><g fill="#5f6368"><path d="M143.704 14.743v7.889h-2.364v-18.4h10.741v2.26h-8.377v6.04h7.556v2.21h-7.556zM153.153 16.336c0-1.935.608-3.537 1.824-4.805 1.234-1.269 2.785-1.902 4.652-1.902 1.868 0 3.408.633 4.625 1.902 1.234 1.268 1.85 2.87 1.85 4.805 0 1.953-.616 3.555-1.85 4.806-1.217 1.268-2.757 1.901-4.625 1.901-1.867 0-3.418-.633-4.652-1.901-1.216-1.269-1.824-2.87-1.824-4.806zm2.364 0c0 1.353.394 2.45 1.182 3.288.788.84 1.764 1.26 2.93 1.26 1.165 0 2.141-.42 2.93-1.26.787-.839 1.181-1.935 1.181-3.288 0-1.336-.394-2.425-1.182-3.264-.805-.857-1.782-1.284-2.93-1.284-1.148 0-2.124.427-2.929 1.284-.788.84-1.182 1.928-1.182 3.264zM168.114 10.04h2.262v1.746h.103c.36-.615.913-1.13 1.658-1.54a4.737 4.737 0 0 1 2.326-.617c1.542 0 2.727.44 3.557 1.323.832.881 1.247 2.137 1.247 3.765v7.915h-2.364V14.87c-.051-2.056-1.087-3.084-3.11-3.084-.942 0-1.73.383-2.363 1.145-.635.763-.951 1.674-.951 2.736v6.965h-2.365V10.04zM186.542 22.838c-1.028 0-1.881-.318-2.557-.952-.677-.634-1.024-1.515-1.042-2.646v-7.041h-2.209V10.04h2.21V6.185h2.365v3.856h3.082V12.2h-3.082v6.27c0 .84.162 1.41.488 1.71.325.3.694.447 1.104.447.189 0 .373-.02.553-.062.18-.043.347-.1.502-.169l.745 2.107c-.617.223-1.338.336-2.159.336zM200 19.137c0 1.096-.48 2.022-1.44 2.775-.959.754-2.168 1.131-3.622 1.131-1.269 0-2.384-.33-3.342-.99a5.444 5.444 0 0 1-2.056-2.608l2.106-.899c.31.754.759 1.34 1.35 1.76.59.42 1.239.63 1.942.63.754 0 1.383-.162 1.888-.488.505-.325.757-.71.757-1.157 0-.805-.615-1.395-1.849-1.773l-2.16-.54c-2.45-.616-3.674-1.798-3.674-3.546 0-1.147.466-2.07 1.4-2.762.934-.694 2.13-1.041 3.586-1.041 1.113 0 2.12.266 3.02.797.898.531 1.528 1.24 1.886 2.132l-2.106.874a2.66 2.66 0 0 0-1.169-1.247 3.688 3.688 0 0 0-1.812-.449 3.04 3.04 0 0 0-1.658.463c-.488.308-.732.685-.732 1.13 0 .72.677 1.234 2.03 1.542l1.903.489c2.5.616 3.752 1.875 3.752 3.777z"/></g></svg>