<svg xmlns="http://www.w3.org/2000/svg" width="300" height="429.487"><defs><clipPath id="a" clipPathUnits="userSpaceOnUse"><path d="M640.547 230.558h11.505v16.521h-11.505v-16.521z"/></clipPath></defs><g clip-path="url(#a)" transform="matrix(25.81688 0 0 -25.81688 -16535.427 6380.307)"><path d="M0 0a2.462 2.462 0 0 1 2.461 2.469l.008 5.762a2.468 2.468 0 1 1-4.938 0V2.469A2.47 2.47 0 0 1 0 0" style="fill:#4285f4;fill-opacity:1;fill-rule:nonzero;stroke:none" transform="translate(646.303 236.379)"/><path d="M0 0v-2.59h1.646v2.562c-.268-.038-.539-.036-.818-.036C.547-.064.271-.039 0 0" style="fill:#34a853;fill-opacity:1;fill-rule:nonzero;stroke:none" transform="translate(645.48 233.15)"/><path d="M0 0c-.735.742-1.191 1.652-1.191 2.878h-1.643c0-1.646.644-2.999 1.685-4.041l.012.011-.012.011L0 0Z" style="fill:#fbbc05;fill-opacity:1;fill-rule:nonzero;stroke:none" transform="translate(643.38 235.911)"/><path d="M0 0c0-2.058-1.829-4.086-4.102-4.086a4.114 4.114 0 0 0-2.911 1.222l-.014-.014-1.149-1.142.012-.01a5.74 5.74 0 0 1 3.236-1.611c.272-.039.547-.064.828-.064.28 0 .55-.002.818.036C-.491-5.27 1.643-2.881 1.643 0H0Z" style="fill:#ea4335;fill-opacity:1;fill-rule:nonzero;stroke:none" transform="translate(650.408 238.79)"/></g></svg>