<svg xmlns="http://www.w3.org/2000/svg" width="33.519" height="25.698"><path fill="#fbbc04" d="M0 25.698 16.2 0h10.057v3.575L12.29 25.698"/><path fill="#1a73e8" d="M26.257 25.698H16.2V0h10.056v25.698z"/><path fill="#34a853" d="M33.519 18.435a7.262 7.262 0 0 1-7.262 7.263V11.173a7.262 7.262 0 0 1 7.262 7.262z"/><path fill="#0d652d" d="M26.257 25.698a7.262 7.262 0 1 1 0-14.525v14.525z"/><path fill="#1a73e8" d="M31.843 5.586c0 3.085-2.5 5.587-5.586 5.587V0a5.586 5.586 0 0 1 5.586 5.586z"/><path fill="#174ea6" d="M26.257 11.173a5.586 5.586 0 1 1 0-11.173v11.173z"/><path fill="#ea4335" d="M.559 5.028a5.028 5.028 0 1 1 10.056 0 5.028 5.028 0 0 1-10.056 0Z"/></svg>