<svg xmlns="http://www.w3.org/2000/svg" width="1120" height="965"><path d="M205 380c251.858 0 466.733 157.867 551.387 380H915V380Zm0 205v175h322.617C458.916 654.678 340.127 585 205 585Zm0-205h710v380H205Z" style="fill:#34a853"/><path d="M915 0v760h205V55c0-30-25-55-55-55ZM740 264a116 116 0 0 0-116 116 116 116 0 0 0 116 116 116 116 0 0 0 116-116 116 116 0 0 0-116-116Z" style="fill:#fbbc04"/><path d="M0 380V55C0 25 25 0 55 0h860v205H205v175z" style="fill:#ea4335"/><path d="M0 380v530c0 30 25 55 55 55h1010c30 0 55-25 55-55V760H205V380Z" style="fill:#4285f4"/></svg>