<svg xmlns="http://www.w3.org/2000/svg" width="1488.428" height="889.253"><path d="m0 0 1483.557 4.872 4.871 884.381L0 884.381Zm334.977 589.755v-90h160.78v180l185.4-.166-5.025-2.309c-2.763-1.27-11.693-5.1-19.843-8.51-24.366-10.198-36.89-18.724-54.12-36.843-10.05-10.568-20.874-25.967-27.463-39.076-5.096-10.14-13.346-31.394-13.809-35.581l-.324-2.937 63.809-9.228c35.095-5.076 64.939-9.247 66.32-9.27 1.975-.031 3.158 1.05 5.527 5.048 9.524 16.075 29.045 28.375 48.934 30.835 39.402 4.872 74.132-24.163 75.907-63.462 1.417-31.358-16.29-56.906-46.942-67.723-8.189-2.89-25.607-3.543-35.585-1.334-16.562 3.667-34.105 15.999-41.818 29.397-1.931 3.355-3.899 6.113-4.373 6.13-1.876.065-131.66-18.014-132.04-18.393-.336-.335 56.264-250.94 59.022-261.33l.863-3.25h-124.44v208h-160.78v-208h-152.74v488h152.74v-90zm691.35.086v-89.914l61.046-.449c50.137-.369 63.102-.749 72.556-2.126 45.532-6.637 75.163-20.01 98.924-44.645 23.057-23.906 35.045-51.976 38.844-90.951 1.439-14.766.72-39.174-1.563-53-10.033-60.784-46.103-98.57-106.52-111.58-22.373-4.82-20.773-4.759-135.41-5.148l-108.27-.368v100.1h-220.85l-3.241 13.75c-1.783 7.562-5.843 24.699-9.022 38.082-4.746 19.971-5.49 24.239-4.157 23.813.893-.286 6.373-2.307 12.176-4.493 13.294-5.007 37.71-11.701 47.748-13.09 9.786-1.355 38.914-1.367 53.24-.022 30.236 2.837 56.58 11.69 79.31 26.652 12.879 8.477 32.804 28.1 41.437 40.809 32.824 48.318 35.187 112.49 6.345 172.29-3.26 6.758-8.349 15.983-11.31 20.5-19.02 29.016-48.23 53.062-72.572 59.742-8.07 2.214-18.898 7.039-20.084 8.948-.43.694 28.626 1.023 90.365 1.023h91zm0-244.09v-54h30.424c48.304 0 63.803 3.05 76.569 15.065 11.117 10.463 16.624 23.326 16.58 38.724-.044 16.066-3.679 25.057-14.465 35.79-14.862 14.79-30.913 18.42-81.434 18.42h-27.673z" style="fill:#000;fill-opacity:1"/><path fill="#fff" stroke="#fff" stroke-width="2.433" d="M-4269.651 455.342v-243.31h150.85v209.25h163.02v-209.25h121.75l-1.307 5.474c-2.54 10.635-47.071 207.77-52.49 232.36-3.023 13.718-4.905 25.533-4.182 26.256.723.723 30.515 5.34 66.205 10.26l64.891 8.946 9.896-11.577c27.937-32.684 75.42-33.24 102.84-1.204 35.938 41.985 4.73 107.54-51.078 107.29-19.803-.087-35.66-7.375-50.547-23.231l-11.784-12.551-64.806 9.184c-35.644 5.051-65.351 9.73-66.017 10.395-2.54 2.54 10.5 34.529 20.974 51.451 19.244 31.091 42.436 50.852 76.365 65.064 8.629 3.615 16.146 7.005 16.703 7.533.557.529-39.132.961-88.2.961h-89.213v-180.05h-163.02v180.05h-150.85z"/><path fill="#fff" stroke="#fff" stroke-width="2.433" d="M-3601.691 696.542c1.27-1.174 7.9-3.947 14.732-6.162 58.229-18.879 103.08-90.97 103.13-165.77.03-43.193-12.994-76.78-41.351-106.63-19.256-20.27-39.728-33.177-66.904-42.178-17.86-5.914-22.878-6.461-60.827-6.628-38.795-.17-42.686.239-62.676 6.594-11.722 3.727-22.957 7.408-24.967 8.179-2.36.905-3.274.23-2.58-1.91.59-1.822 4.529-18.368 8.752-36.768l7.68-33.455h220.99v-100.35l113.75 1.213c106.04 1.13 115.07 1.563 133.21 6.383 50.455 13.403 80.167 40.402 95.377 86.669 5.616 17.083 6.423 23.632 6.6 53.528.151 25.428-.884 38.073-4.082 49.878-13.928 51.405-51.002 87.442-103.98 101.07-19.48 5.01-65.583 8.177-121.05 8.317l-41.971.105v180.05h-88.078c-50.624 0-87.095-.908-85.766-2.134zm261.63-281.61c16.962-5.037 32.185-19.72 36.303-35.012 7.731-28.713-8.277-57.752-36.215-65.695-4.842-1.377-26.594-3.202-48.34-4.056l-39.538-1.554v113.44l37.32-1.609c22.553-.972 42.525-3.154 50.469-5.513z"/></svg>