<svg xmlns="http://www.w3.org/2000/svg" width="2500" height="1093" fill-rule="evenodd" clip-rule="evenodd" image-rendering="optimizeQuality" shape-rendering="geometricPrecision" text-rendering="geometricPrecision" viewBox="0.02 -0.02 575.36 251.47"><path fill-rule="nonzero" d="M78.68 205.08v-46.36h82.83v92.73l95.51-.09-2.59-1.19c-1.42-.65-6.02-2.63-10.22-4.38-12.55-5.25-19-9.65-27.88-18.98-5.18-5.44-10.75-13.38-14.15-20.13-2.62-5.22-6.87-16.17-7.11-18.33l-.17-1.51 32.87-4.75c18.08-2.62 33.45-4.76 34.17-4.78 1.02-.02 1.63.54 2.85 2.6 4.91 8.28 14.96 14.62 25.21 15.88 20.3 2.51 38.19-12.45 39.1-32.69.73-16.15-8.39-29.31-24.18-34.89-4.22-1.49-13.19-1.82-18.33-.69-8.53 1.89-17.57 8.24-21.54 15.14-.99 1.73-2.01 3.15-2.25 3.16-.97.03-67.82-9.28-68.02-9.48-.17-.17 28.98-129.27 30.41-134.62l.44-1.67h-64.1V107.2H78.7V.05H.02v251.39H78.7v-46.36zm356.14.04v46.32h-46.88c-31.8 0-46.77-.17-46.55-.53.61-.98 6.19-3.47 10.35-4.61 12.54-3.44 27.59-15.83 37.39-30.78 1.52-2.33 4.15-7.08 5.83-10.56 14.86-30.81 13.64-63.86-3.27-88.75-4.45-6.55-14.71-16.65-21.34-21.02-11.71-7.71-25.28-12.27-40.86-13.73-7.38-.69-22.39-.69-27.43.01-5.17.72-17.75 4.16-24.6 6.74-2.99 1.13-5.81 2.17-6.27 2.31-.69.22-.3-1.98 2.14-12.27 1.64-6.89 3.73-15.72 4.65-19.62l1.67-7.08h113.77V-.02l55.78.19c59.05.2 58.23.17 69.76 2.65 31.12 6.7 49.7 26.17 54.87 57.48 1.18 7.12 1.55 19.7.8 27.3-1.96 20.08-8.13 34.54-20.01 46.85-12.24 12.69-27.5 19.58-50.96 23-4.87.71-11.55.91-37.38 1.1l-31.45.23v46.32zm0-125.74v27.82h14.26c26.03 0 34.29-1.87 41.95-9.49 5.56-5.53 7.43-10.16 7.45-18.44.02-7.93-2.82-14.56-8.54-19.95-6.58-6.19-14.56-7.76-39.44-7.76h-15.67v27.82z"/></svg>