<svg xmlns="http://www.w3.org/2000/svg" xml:space="preserve" width="123.899" height="46.974" viewBox="0 0 247.797 93.948"><g transform="translate(-4.182 -3)"><path fill="#11a14e" d="M228.605 92.744c-3.419 0-3.604-2.096-3.511-3.59.092-1.497 26.885-42.179 26.885-42.179l-18.847 3.19s.092-3.49-9.423-3.49-23.927 9.573-31.873 18.347c-7.945 8.775-12.749 18.647-12.656 21.239l-8.118 3.737s-6.044 2.795-8.604 2.644c-2.491-.147-3.696-.996-3.696-3.091 0-2.093 8.868-14.059 11.179-17.648 2.31-3.589 11.55-14.359 11.457-19.344-.093-4.986-2.956-5.584-6.929-5.584-3.973 0-10.625 1.395-14.875 4.188-4.25 2.792-24.297 26.324-29.101 32.607-4.804 6.281-5.82 7.677-7.761 8.973 0 0 7.021-10.37 9.239-13.66 2.217-3.291 20.879-31.809 20.879-31.809l-19.956 3.391s-21.826 34.396-22.75 35.194c-.923.797-9.584 5.688-13.002 6.387-3.418.697-6.468-.1-6.191-2.991.277-2.893 8.038-13.86 10.901-17.549 2.864-3.69 16.353-25.029 16.353-25.029l-18.57 3.291s-3.048-3.091-9.237-3.19c-6.19-.1-23.467 7.579-29.195 13.96-5.728 6.381-15.336 18.148-15.891 24.429 0 0-12.012 7.631-16.329 7.734-3.805.091-3.896-1.752-3.811-3.547.165-3.494 9.608-16.651 12.287-20.54 2.679-3.889 14.783-22.336 14.783-22.336-3.049 1.396-14.32 8.575-21.157 6.282 0 0-20.766 29.695-22.265 33.903-2 5.617 4.157 10.097 11.363 10.169 10.525.105 21.341-5.683 24.852-8.274 0 0 0 8.076 12.565 8.176 12.564.099 16.167-5.085 18.015-5.983 0 0 2.679 6.283 11.64 6.184 8.96-.102 17.737-4.687 21.433-7.18 0 0-.185 6.88 8.592 6.381 8.777-.499 10.715-5.683 13.58-9.173 0 0 25.498-32.605 31.873-35.299 6.375-2.692 4.712-1.994 2.68 1.196-2.032 3.191-22.081 27.422-22.265 36.096-.184 8.677 7.391 7.979 11.733 7.979 4.343 0 19.154-4.655 24.391-8.078 0 0 1.94 8.078 10.624 8.078 8.684 0 17.706-4.399 19.923-5.794 0 0 1.694 5.894 11.395 5.794 9.701-.102 23.65-8.078 24.852-8.875l-.739-1.596c-.001-.003-13.303 6.28-16.722 6.28zM77.14 82.751c-1.011 1.588-1.919 3.107-1.919 5.074 0 0-6.428 5.281-10.265 5.281-3.837 0-3.647-2.486-3.549-4.246.288-5.178 5.66-14.392 9.018-18.948 2.624-3.561 12.568-20.318 21.106-20.502 4.796-.104 4.605 1.967 5.468 3.728 0 0-18.804 27.957-19.859 29.613zm134.295-.035c-1.011 1.588-1.919 3.107-1.919 5.074 0 0-7.373 5.213-10.266 5.281-3.835.091-3.646-2.486-3.548-4.246.288-5.178 5.66-14.392 9.017-18.948 2.624-3.561 12.569-20.318 21.107-20.502 4.796-.104 4.605 1.968 5.468 3.728 0 0-18.804 27.957-19.859 29.613z"/><path fill="#0673ba" d="M224.35 87.444c-3.419 0-3.603-2.096-3.511-3.59.092-1.497 26.885-42.179 26.885-42.179l-18.848 3.191s.092-3.49-9.423-3.49-23.927 9.573-31.873 18.347c-7.946 8.775-12.749 18.647-12.657 21.239l-8.118 3.737s-6.044 2.795-8.604 2.644c-2.491-.147-3.696-.996-3.696-3.091 0-2.093 8.868-14.06 11.179-17.648 2.31-3.589 11.55-14.359 11.457-19.344-.093-4.986-2.956-5.584-6.929-5.584-3.974 0-10.625 1.396-14.875 4.188S131.04 72.187 126.236 78.47c-4.804 6.281-5.82 7.677-7.761 8.973 0 0 7.021-10.37 9.239-13.659 2.217-3.292 20.879-31.81 20.879-31.81l-19.956 3.391s-21.826 34.396-22.75 35.194c-.923.797-9.585 5.688-13.003 6.387-3.418.697-6.467-.1-6.19-2.991.277-2.893 8.038-13.86 10.902-17.549 2.864-3.69 16.352-25.029 16.352-25.029l-18.569 3.291s-3.048-3.091-9.239-3.19c-6.19-.1-23.466 7.578-29.194 13.96-5.728 6.381-15.336 18.148-15.891 24.429 0 0-12.012 7.631-16.329 7.734-3.804.091-3.896-1.752-3.811-3.547.165-3.494 9.608-16.651 12.287-20.54 2.679-3.889 14.783-22.336 14.783-22.336-3.049 1.396-14.32 8.575-21.156 6.282 0 0-20.766 29.695-22.265 33.903-2 5.617 4.156 10.097 11.363 10.169 10.525.106 21.34-5.683 24.852-8.274 0 0 0 8.076 12.564 8.176 12.564.099 16.168-5.085 18.015-5.983 0 0 2.679 6.283 11.64 6.184 8.961-.102 17.737-4.687 21.433-7.18 0 0-.185 6.88 8.592 6.381 8.777-.499 10.715-5.683 13.58-9.173 0 0 25.498-32.606 31.873-35.298s4.711-1.994 2.679 1.196c-2.032 3.191-22.081 27.422-22.265 36.095-.184 8.677 7.391 7.979 11.733 7.979 4.343 0 19.154-4.655 24.391-8.078 0 0 1.94 8.078 10.624 8.078 8.684 0 17.706-4.398 19.923-5.794 0 0 1.694 5.894 11.395 5.794 9.701-.102 23.65-8.078 24.852-8.875l-.738-1.596c.001-.003-13.301 6.28-16.72 6.28zM72.884 77.451c-1.011 1.588-1.919 3.107-1.919 5.074 0 0-6.428 5.281-10.265 5.281-3.837 0-3.647-2.486-3.549-4.246.288-5.178 5.66-14.392 9.018-18.948 2.623-3.561 12.568-20.318 21.105-20.502 4.796-.104 4.605 1.968 5.468 3.728.001 0-18.803 27.957-19.858 29.613zm134.296-.035c-1.011 1.588-1.919 3.107-1.919 5.074 0 0-7.373 5.213-10.266 5.281-3.835.091-3.646-2.486-3.548-4.246.288-5.178 5.66-14.392 9.017-18.948 2.624-3.561 12.569-20.318 21.106-20.502 4.796-.104 4.605 1.968 5.468 3.728.001 0-18.803 27.957-19.858 29.613z"/><linearGradient id="a" x1="22.881" x2="32.131" y1="33.435" y2="20.416" gradientUnits="userSpaceOnUse"><stop offset="0" style="stop-color:#0673ba"/><stop offset="1" style="stop-color:#11a14e"/></linearGradient><path fill="url(#a)" d="m45.488 11.621-10.384 6.473c1.936 6.463 5.017 12.606 8.801 18.646a19.2 19.2 0 0 1-3.31 3.079c-3.908-5.849-7.061-12.436-8.983-19.548l-7.758 4.836c1.782 6.128 4.476 12.089 7.715 18.04-.447.035-.893.074-1.348.074a17.41 17.41 0 0 1-3.542-.373c-2.643-4.809-4.811-10.046-6.281-15.586l-7.042 4.391a21.047 21.047 0 0 1-1.349-4.237l7.397-4.522a62.119 62.119 0 0 1-.937-6.839l-6.713 4.299c.186-1.476.52-2.898.985-4.254l5.559-3.325a59.714 59.714 0 0 1 .108-5.239c-4.191 3.693-6.87 9.31-6.87 15.605 0 11.122 8.353 20.139 18.659 20.139s18.659-9.017 18.659-20.139c0-4.289-1.25-8.255-3.366-11.52z" style="fill:url(#a)"/><linearGradient id="b" x1="28.9" x2="26.076" y1="20.286" y2="42.079" gradientUnits="userSpaceOnUse"><stop offset="0" style="stop-color:#fff"/><stop offset="1" style="stop-color:#1173ba"/></linearGradient><path fill="url(#b)" d="m18.297 12.773-5.559 3.325a21.319 21.319 0 0 0-.985 4.254l6.713-4.299c.183 2.317.506 4.597.937 6.839l-7.397 4.522a21.047 21.047 0 0 0 1.349 4.237l7.042-4.391c1.471 5.54 3.638 10.777 6.281 15.586 1.148.238 2.33.373 3.542.373.455 0 .901-.039 1.348-.074-3.239-5.95-5.933-11.911-7.715-18.04l7.758-4.836c1.923 7.112 5.076 13.699 8.983 19.548a19.274 19.274 0 0 0 3.31-3.079c-3.784-6.04-6.865-12.183-8.801-18.646l10.384-6.473a19.861 19.861 0 0 0-2.518-3.134l-8.935 5.462a51.745 51.745 0 0 1-1.042-7.2l3.796-2.431a17.391 17.391 0 0 0-2.836-.91l-1.08.646c-.005-.273-.003-.549-.003-.825A17.754 17.754 0 0 0 30.195 3c-.206 0-.405.026-.609.033a61.334 61.334 0 0 0-.021 3l-8.026 4.801a53.353 53.353 0 0 1 .13-5.595 18.637 18.637 0 0 0-3.264 2.295 59.714 59.714 0 0 0-.108 5.239zm11.392-3.907c.167 2.434.475 4.829.93 7.171l-7.845 4.795a56.21 56.21 0 0 1-1.053-6.863z" style="fill:url(#b)"/><linearGradient id="c" x1="11.981" x2="21.211" y1="24.827" y2="11.838" gradientUnits="userSpaceOnUse"><stop offset="0" style="stop-color:#115da6"/><stop offset="1" style="stop-color:#00a14f"/></linearGradient><path fill="url(#c)" d="m21.54 10.834 8.026-4.801a61.334 61.334 0 0 1 .021-3c-2.847.099-5.53.879-7.917 2.206a53.353 53.353 0 0 0-.13 5.595z" style="fill:url(#c)"/><linearGradient id="d" x1="16.145" x2="25.297" y1="27.619" y2="14.74" gradientUnits="userSpaceOnUse"><stop offset="0" style="stop-color:#115da6"/><stop offset="1" style="stop-color:#00a14f"/></linearGradient><path fill="url(#d)" d="M33.953 3.409c-.355-.079-.722-.123-1.083-.178 0 .275-.002.551.003.825z" style="fill:url(#d)"/><linearGradient id="e" x1="20.867" x2="30.121" y1="31.706" y2="18.683" gradientUnits="userSpaceOnUse"><stop offset="0" style="stop-color:#115da6"/><stop offset="1" style="stop-color:#00a14f"/></linearGradient><path fill="url(#e)" d="m34.035 13.949 8.935-5.462a18.472 18.472 0 0 0-6.181-4.168L32.993 6.75a51.455 51.455 0 0 0 1.042 7.199z" style="fill:url(#e)"/><linearGradient id="f" x1="16.54" x2="25.865" y1="28.555" y2="15.431" gradientUnits="userSpaceOnUse"><stop offset="0" style="stop-color:#115da6"/><stop offset="1" style="stop-color:#00a14f"/></linearGradient><path fill="url(#f)" d="M30.619 16.037a58.29 58.29 0 0 1-.93-7.171l-7.968 5.104a56.21 56.21 0 0 0 1.053 6.863z" style="fill:url(#f)"/></g></svg>