<svg xmlns="http://www.w3.org/2000/svg" xml:space="preserve" width="234" height="72" viewBox="0 0 468 144"><g fill="#5A5A58"><path d="M5.129 136.483v-18.872h2.744v18.872H5.129zM21.929 136.483v-10.332c0-.709-.178-1.27-.532-1.68-.355-.411-.99-.616-1.904-.616a5.99 5.99 0 0 0-1.932.294 7.275 7.275 0 0 0-1.708.854v11.48h-2.492v-14.504c.336-.056.742-.098 1.218-.126s.9-.042 1.274-.042v1.428h.14c.728-.634 1.437-1.068 2.128-1.302a6.781 6.781 0 0 1 2.184-.351c.56 0 1.087.075 1.582.225.494.149.933.396 1.316.742.382.346.686.803.91 1.372.224.569.336 1.273.336 2.113v10.444h-2.52zM37.189 136.176c-.374.187-.822.331-1.344.434s-.98.154-1.372.154c-1.512 0-2.6-.383-3.262-1.148-.663-.765-.994-1.96-.994-3.584v-7.979h-1.736v-2.185h1.736v-3.136c.336-.093.747-.182 1.232-.266s.915-.145 1.288-.183v3.584h3.696c0 .729-.056 1.456-.168 2.185h-3.528v8.176c0 .878.149 1.461.448 1.75.298.289.802.434 1.512.434.336 0 .705-.042 1.106-.126s.742-.191 1.022-.321c.093.317.168.672.224 1.063s.102.774.14 1.148zM50.993 127.523c0 .317-.005.663-.014 1.036-.01.373-.033.728-.07 1.063h-8.568v.225c0 .766.065 1.433.196 2.002s.35 1.041.658 1.414.718.653 1.232.84c.513.187 1.162.28 1.946.28.672 0 1.358-.089 2.058-.267.7-.177 1.265-.396 1.694-.658.13.336.252.719.364 1.148s.196.831.252 1.204c-.28.149-.602.285-.966.406a10.7 10.7 0 0 1-1.134.308c-.392.084-.789.145-1.19.182s-.779.057-1.134.057c-2.203 0-3.869-.606-4.998-1.82-1.13-1.213-1.694-3.07-1.694-5.572 0-1.344.154-2.506.462-3.485.308-.98.728-1.787 1.26-2.422a4.967 4.967 0 0 1 1.89-1.414 6.027 6.027 0 0 1 2.38-.463c1.792 0 3.136.519 4.032 1.555s1.344 2.497 1.344 4.381zm-5.432-3.975c-.971 0-1.736.336-2.296 1.008s-.858 1.782-.896 3.332h6.104c.019-.112.028-.262.028-.448v-.448c0-1.213-.252-2.09-.756-2.632-.504-.542-1.232-.812-2.184-.812zM62.64 121.728c0 .43-.023.868-.07 1.315-.047.448-.107.888-.182 1.316a7.847 7.847 0 0 0-.56-.112 4.296 4.296 0 0 0-.7-.056c-.504 0-1.013.084-1.526.252-.514.168-1.088.56-1.722 1.176v10.864h-2.492v-14.504c.336-.056.742-.098 1.218-.126s.9-.042 1.274-.042v1.848h.14c.392-.485.756-.863 1.092-1.134s.644-.476.924-.616.542-.229.784-.266a4.647 4.647 0 0 1 1.246-.029c.215.02.406.058.574.114zM74.708 136.483v-10.332c0-.709-.178-1.27-.532-1.68-.355-.411-.99-.616-1.904-.616a5.99 5.99 0 0 0-1.932.294 7.275 7.275 0 0 0-1.708.854v11.48H66.14v-14.504c.336-.056.742-.098 1.218-.126s.9-.042 1.274-.042v1.428h.14c.728-.634 1.437-1.068 2.128-1.302a6.781 6.781 0 0 1 2.184-.351c.56 0 1.087.075 1.582.225.494.149.933.396 1.316.742.382.346.686.803.91 1.372.224.569.336 1.273.336 2.113v10.444h-2.52zM92.852 127.523c0 .317-.005.663-.014 1.036-.01.373-.033.728-.07 1.063H84.2v.225c0 .766.065 1.433.196 2.002s.35 1.041.658 1.414.718.653 1.232.84c.513.187 1.162.28 1.946.28.672 0 1.358-.089 2.058-.267.7-.177 1.265-.396 1.694-.658.13.336.252.719.364 1.148s.196.831.252 1.204c-.28.149-.602.285-.966.406a10.7 10.7 0 0 1-1.134.308c-.392.084-.789.145-1.19.182s-.779.057-1.134.057c-2.203 0-3.869-.606-4.998-1.82-1.13-1.213-1.694-3.07-1.694-5.572 0-1.344.154-2.506.462-3.485.308-.98.728-1.787 1.26-2.422a4.967 4.967 0 0 1 1.89-1.414 6.027 6.027 0 0 1 2.38-.463c1.792 0 3.136.519 4.032 1.555s1.344 2.497 1.344 4.381zm-5.432-3.975c-.971 0-1.736.336-2.296 1.008s-.858 1.782-.896 3.332h6.104c.019-.112.028-.262.028-.448v-.448c0-1.213-.252-2.09-.756-2.632-.504-.542-1.232-.812-2.184-.812zM104.695 136.176c-.374.187-.822.331-1.344.434s-.98.154-1.372.154c-1.512 0-2.6-.383-3.262-1.148-.663-.765-.994-1.96-.994-3.584v-7.979h-1.736v-2.185h1.736v-3.136c.336-.093.747-.182 1.232-.266s.915-.145 1.288-.183v3.584h3.696c0 .729-.056 1.456-.168 2.185h-3.528v8.176c0 .878.149 1.461.448 1.75.298.289.802.434 1.512.434.336 0 .705-.042 1.106-.126s.742-.191 1.022-.321c.093.317.168.672.224 1.063s.103.774.14 1.148zM126.843 136.315c-.411.094-.845.164-1.302.21-.458.046-.91.079-1.358.098l-1.876-5.739h-6.468l-1.82 5.739c-.392-.019-.808-.052-1.246-.098s-.845-.116-1.218-.21a260.24 260.24 0 0 1 2.912-9.24 410.282 410.282 0 0 1 3.304-9.464h2.912a656.046 656.046 0 0 1 3.164 9.395 794.368 794.368 0 0 1 2.996 9.309zm-7.42-14.7a2.928 2.928 0 0 1-.154-.63 11.697 11.697 0 0 1-.07-.714h-.196c0 .504-.065.952-.196 1.344l-2.268 7.028h5.096l-2.212-7.028zM138.379 132.424c0 .746-.145 1.396-.434 1.945a3.852 3.852 0 0 1-1.176 1.358 5.124 5.124 0 0 1-1.722.784 8.295 8.295 0 0 1-2.072.252c-.71 0-1.452-.075-2.226-.225-.775-.148-1.452-.382-2.03-.699.093-.411.187-.799.28-1.162.093-.364.214-.732.364-1.106a7.564 7.564 0 0 0 1.974.672c.737.149 1.451.225 2.142.225.821 0 1.404-.168 1.75-.504.345-.337.518-.803.518-1.4 0-.485-.168-.877-.504-1.176-.336-.299-.756-.564-1.26-.798s-1.046-.458-1.624-.673a8.596 8.596 0 0 1-1.624-.798 4.294 4.294 0 0 1-1.26-1.204c-.336-.484-.504-1.101-.504-1.848 0-.746.145-1.4.434-1.96a4.012 4.012 0 0 1 1.19-1.4 5.373 5.373 0 0 1 1.75-.84 7.751 7.751 0 0 1 2.114-.28c.466 0 1.017.033 1.652.099.634.065 1.222.173 1.764.322-.019.354-.061.737-.126 1.147-.066.411-.145.803-.238 1.176a10.721 10.721 0 0 0-1.806-.392 14.24 14.24 0 0 0-1.918-.14c-1.493 0-2.24.653-2.24 1.96 0 .43.168.774.504 1.035.336.262.756.505 1.26.729a29.9 29.9 0 0 0 1.652.672c.597.224 1.148.514 1.652.868s.924.798 1.26 1.33.504 1.21.504 2.031zM151.035 132.424c0 .746-.145 1.396-.434 1.945a3.852 3.852 0 0 1-1.176 1.358 5.124 5.124 0 0 1-1.722.784 8.295 8.295 0 0 1-2.072.252c-.71 0-1.452-.075-2.226-.225-.775-.148-1.452-.382-2.03-.699.093-.411.187-.799.28-1.162.093-.364.214-.732.364-1.106a7.564 7.564 0 0 0 1.974.672c.737.149 1.451.225 2.142.225.821 0 1.404-.168 1.75-.504.345-.337.518-.803.518-1.4 0-.485-.168-.877-.504-1.176-.336-.299-.756-.564-1.26-.798s-1.046-.458-1.624-.673a8.596 8.596 0 0 1-1.624-.798 4.294 4.294 0 0 1-1.26-1.204c-.336-.484-.504-1.101-.504-1.848 0-.746.145-1.4.434-1.96a4.012 4.012 0 0 1 1.19-1.4 5.373 5.373 0 0 1 1.75-.84 7.751 7.751 0 0 1 2.114-.28c.466 0 1.017.033 1.652.099.634.065 1.222.173 1.764.322-.019.354-.061.737-.126 1.147-.066.411-.145.803-.238 1.176a10.721 10.721 0 0 0-1.806-.392 14.24 14.24 0 0 0-1.918-.14c-1.493 0-2.24.653-2.24 1.96 0 .43.168.774.504 1.035.336.262.756.505 1.26.729a29.9 29.9 0 0 0 1.652.672c.597.224 1.148.514 1.652.868s.924.798 1.26 1.33.504 1.21.504 2.031zM157.979 117.835c0 .43-.122.794-.364 1.093s-.616.447-1.12.447c-.486 0-.85-.153-1.092-.462a1.689 1.689 0 0 1-.364-1.078c0-.429.121-.802.364-1.119.242-.317.616-.477 1.12-.477.485 0 .849.159 1.092.477s.364.69.364 1.119zm-2.716 18.648v-14.616h2.492v14.616h-2.492zM174.359 137.436c0 1.512-.532 2.739-1.596 3.682s-2.669 1.414-4.816 1.414c-1.083 0-1.993-.107-2.73-.322-.738-.215-1.33-.514-1.778-.896a3.29 3.29 0 0 1-.966-1.358c-.196-.522-.294-1.082-.294-1.68s.112-1.13.336-1.596c.224-.467.579-.952 1.064-1.456a6.518 6.518 0 0 1-.49-.952 5.947 5.947 0 0 1-.322-1.008c.056-.225.135-.477.238-.756.102-.28.224-.574.364-.883a9.013 9.013 0 0 1 .966-1.638 3.66 3.66 0 0 1-1.246-1.47c-.29-.606-.434-1.293-.434-2.059 0-.728.116-1.39.35-1.987.233-.598.564-1.11.994-1.54.429-.43.961-.761 1.596-.994.634-.233 1.344-.351 2.128-.351.373 0 .765.028 1.176.085.41.056.784.121 1.12.195h4.228c0 .299-.014.607-.042.924-.028.318-.08.626-.154.925l-1.932.14-.028.112c.261.317.457.677.588 1.077.13.402.196.846.196 1.33 0 .803-.126 1.494-.378 2.072a3.915 3.915 0 0 1-1.05 1.442 4.41 4.41 0 0 1-1.568.854 6.31 6.31 0 0 1-1.904.28 7.776 7.776 0 0 1-2.016-.28c-.317.411-.537.789-.658 1.134-.122.346-.182.612-.182.799 0 .598.28.896.84.896h4.368c.616 0 1.171.065 1.666.196s.915.346 1.26.644c.345.299.616.696.812 1.19.196.496.294 1.106.294 1.835zm-2.408.223c0-.728-.136-1.204-.406-1.428-.271-.224-.714-.336-1.33-.336h-5.124c-.262.262-.434.569-.518.924s-.126.672-.126.952c0 .989.271 1.68.812 2.072.541.392 1.474.588 2.8.588 1.232 0 2.188-.21 2.87-.63.681-.419 1.022-1.134 1.022-2.142zm-1.429-11.368c0-1.063-.243-1.81-.728-2.239-.486-.43-1.158-.645-2.016-.645-1.792 0-2.688.962-2.688 2.884 0 1.009.233 1.736.7 2.185.466.448 1.129.672 1.988.672.858 0 1.53-.215 2.016-.645.486-.429.728-1.166.728-2.212zM186.818 136.483v-10.332c0-.709-.178-1.27-.532-1.68-.355-.411-.99-.616-1.904-.616a5.99 5.99 0 0 0-1.932.294 7.275 7.275 0 0 0-1.708.854v11.48h-2.492v-14.504c.336-.056.742-.098 1.218-.126s.9-.042 1.274-.042v1.428h.14c.728-.634 1.437-1.068 2.128-1.302a6.781 6.781 0 0 1 2.184-.351c.56 0 1.087.075 1.582.225.494.149.933.396 1.316.742.382.346.686.803.91 1.372.224.569.336 1.273.336 2.113v10.444h-2.52zM204.962 127.523c0 .317-.005.663-.014 1.036-.01.373-.033.728-.07 1.063h-8.568v.225c0 .766.065 1.433.196 2.002s.35 1.041.658 1.414.718.653 1.232.84c.513.187 1.162.28 1.946.28.672 0 1.358-.089 2.058-.267.7-.177 1.265-.396 1.694-.658.13.336.252.719.364 1.148s.196.831.252 1.204c-.28.149-.602.285-.966.406a10.7 10.7 0 0 1-1.134.308c-.392.084-.789.145-1.19.182s-.779.057-1.134.057c-2.203 0-3.869-.606-4.998-1.82-1.13-1.213-1.694-3.07-1.694-5.572 0-1.344.154-2.506.462-3.485.308-.98.728-1.787 1.26-2.422a4.967 4.967 0 0 1 1.89-1.414 6.027 6.027 0 0 1 2.38-.463c1.792 0 3.136.519 4.032 1.555s1.344 2.497 1.344 4.381zm-5.432-3.975c-.971 0-1.736.336-2.296 1.008s-.858 1.782-.896 3.332h6.104c.019-.112.028-.262.028-.448v-.448c0-1.213-.252-2.09-.756-2.632-.504-.542-1.232-.812-2.184-.812zM217.562 136.483v-1.232h-.14c-.616.561-1.241.952-1.876 1.177a6.271 6.271 0 0 1-2.1.336c-.784 0-1.489-.141-2.114-.42a4.191 4.191 0 0 1-1.61-1.288c-.448-.579-.794-1.316-1.036-2.212-.243-.896-.364-1.97-.364-3.221 0-1.437.154-2.664.462-3.682s.742-1.848 1.302-2.492a4.994 4.994 0 0 1 2.016-1.414c.784-.298 1.661-.448 2.632-.448.467 0 .947.047 1.442.141.494.094.956.215 1.386.364v-6.244c.336-.057.747-.103 1.232-.141a17.19 17.19 0 0 1 1.288-.056v20.832h-2.52zm0-12.068c-.354-.205-.789-.358-1.302-.462a7.23 7.23 0 0 0-1.414-.153c-.616 0-1.162.089-1.638.266a2.705 2.705 0 0 0-1.204.896c-.327.421-.574.985-.742 1.694-.168.71-.252 1.596-.252 2.66 0 1.026.07 1.872.21 2.534.14.663.34 1.189.602 1.582.261.392.597.667 1.008.826.41.158.877.237 1.4.237.597 0 1.167-.074 1.708-.224s1.083-.401 1.624-.756v-9.1zM243.783 136.554c-.477.046-.9.069-1.273.069l-7.785-13.243a11.54 11.54 0 0 0-.223-.421 5.786 5.786 0 0 1-.268-.546 37.784 37.784 0 0 1-.433-1.106l-.195.027c.037.374.07.752.098 1.135s.043.714.043.994v13.02h-2.465v-18.676a9.443 9.443 0 0 1 1.428-.196 20.968 20.968 0 0 1 1.4-.056l7.447 12.684c.168.28.336.611.504.994s.309.732.42 1.05l.197-.027c-.037-.28-.07-.635-.098-1.064a16.553 16.553 0 0 1-.043-1.092v-12.488h2.465V136.4c-.336.055-.742.107-1.219.154zM258.89 136.483v-1.26h-.141c-.69.541-1.376.934-2.058 1.176s-1.414.364-2.198.364c-.56 0-1.087-.075-1.582-.225a3.366 3.366 0 0 1-1.302-.728c-.374-.336-.672-.788-.896-1.358-.225-.569-.337-1.273-.337-2.113V121.95a50.52 50.52 0 0 1 1.232-.111c.467-.038.896-.057 1.288-.057v10.36c0 .728.182 1.302.546 1.722s1.013.63 1.946.63c.69 0 1.315-.088 1.876-.266a7.52 7.52 0 0 0 1.624-.742V121.95c.354-.037.765-.074 1.231-.111.467-.038.896-.057 1.288-.057v14.7h-2.517zM282.857 136.483v-10.332c0-.69-.173-1.246-.519-1.666s-.947-.63-1.806-.63c-.654 0-1.228.103-1.723.308a6.083 6.083 0 0 0-1.47.896v11.424h-2.52v-10.332c0-.709-.173-1.27-.519-1.68-.346-.411-.938-.616-1.777-.616-.579 0-1.13.098-1.652.294s-1.036.48-1.54.854v11.48h-2.492v-14.504c.336-.056.742-.098 1.218-.126.477-.028.9-.042 1.274-.042v1.428h.14c.672-.597 1.298-1.021 1.876-1.273.579-.252 1.241-.379 1.988-.379.746 0 1.419.15 2.016.448.598.299 1.055.803 1.372 1.513.784-.729 1.521-1.237 2.212-1.526s1.447-.435 2.269-.435c.578 0 1.12.075 1.624.225s.947.396 1.33.742c.382.346.681.803.896 1.372s.322 1.265.322 2.086v10.472h-2.519zM302.429 128.672c0 2.706-.573 4.731-1.722 6.075-1.147 1.345-2.758 2.017-4.83 2.017-1.008 0-1.941-.126-2.8-.378s-1.662-.648-2.408-1.19v-19.348c.336-.057.742-.103 1.218-.141.477-.037.9-.056 1.274-.056v7.476h.14c.653-.578 1.283-.979 1.891-1.203.606-.225 1.283-.337 2.029-.337.747 0 1.438.127 2.072.379s1.186.657 1.652 1.218c.466.56.83 1.293 1.092 2.198.261.905.392 2.002.392 3.29zm-2.688.279c0-1.008-.07-1.838-.21-2.492-.14-.652-.351-1.171-.63-1.554a2.318 2.318 0 0 0-1.022-.812c-.401-.159-.863-.238-1.386-.238-1.214 0-2.324.392-3.332 1.176v8.82c.373.262.788.443 1.246.546.457.103.919.154 1.386.154.653 0 1.223-.094 1.708-.28s.896-.494 1.232-.924.588-1.004.756-1.723c.168-.717.252-1.608.252-2.673zM317.157 127.523c0 .317-.005.663-.014 1.036-.01.373-.033.728-.07 1.063h-8.567v.225c0 .766.064 1.433.195 2.002s.351 1.041.658 1.414.719.653 1.232.84c.513.187 1.161.28 1.945.28.672 0 1.358-.089 2.059-.267.699-.177 1.264-.396 1.693-.658.131.336.252.719.364 1.148s.196.831.252 1.204c-.28.149-.602.285-.966.406s-.742.224-1.134.308c-.393.084-.789.145-1.19.182s-.779.057-1.134.057c-2.203 0-3.869-.606-4.998-1.82-1.13-1.213-1.694-3.07-1.694-5.572 0-1.344.154-2.506.462-3.485.309-.98.729-1.787 1.261-2.422a4.96 4.96 0 0 1 1.89-1.414 6.027 6.027 0 0 1 2.38-.463c1.792 0 3.136.519 4.032 1.555.896 1.036 1.344 2.497 1.344 4.381zm-5.431-3.975c-.971 0-1.736.336-2.296 1.008-.561.672-.859 1.782-.896 3.332h6.104c.018-.112.027-.262.027-.448v-.448c0-1.213-.252-2.09-.756-2.632-.504-.542-1.231-.812-2.183-.812zM328.805 121.728c0 .43-.023.868-.069 1.315-.047.448-.108.888-.183 1.316a7.847 7.847 0 0 0-.56-.112 4.305 4.305 0 0 0-.7-.056c-.504 0-1.013.084-1.526.252s-1.087.56-1.722 1.176v10.864h-2.492v-14.504c.336-.056.742-.098 1.218-.126.477-.028.9-.042 1.274-.042v1.848h.14c.393-.485.756-.863 1.093-1.134.336-.271.644-.476.924-.616.279-.14.541-.229.784-.266a4.644 4.644 0 0 1 1.245-.029c.215.018.406.058.574.114zM340.731 132.424c0 .746-.145 1.396-.434 1.945a3.852 3.852 0 0 1-1.176 1.358c-.495.354-1.069.616-1.723.784s-1.344.252-2.071.252c-.71 0-1.452-.075-2.227-.225-.774-.148-1.451-.382-2.029-.699.093-.411.186-.799.279-1.162.094-.364.215-.732.364-1.106.578.299 1.236.522 1.974.672s1.451.225 2.143.225c.821 0 1.404-.168 1.75-.504.345-.337.518-.803.518-1.4 0-.485-.168-.877-.504-1.176s-.756-.564-1.26-.798-1.046-.458-1.624-.673a8.596 8.596 0 0 1-1.624-.798 4.294 4.294 0 0 1-1.26-1.204c-.336-.484-.504-1.101-.504-1.848 0-.746.145-1.4.434-1.96s.687-1.026 1.19-1.4a5.373 5.373 0 0 1 1.75-.84 7.744 7.744 0 0 1 2.113-.28c.467 0 1.018.033 1.652.099s1.223.173 1.764.322c-.019.354-.061.737-.126 1.147a14.12 14.12 0 0 1-.237 1.176 10.734 10.734 0 0 0-1.807-.392c-.682-.093-1.32-.14-1.918-.14-1.493 0-2.24.653-2.24 1.96 0 .43.169.774.505 1.035.336.262.756.505 1.26.729s1.055.448 1.651.672c.598.224 1.148.514 1.652.868s.924.798 1.26 1.33.505 1.21.505 2.031zM363.636 136.315c-.41.094-.845.164-1.302.21-.458.046-.91.079-1.358.098l-1.876-5.739h-6.468l-1.819 5.739a22.25 22.25 0 0 1-1.246-.098 8.743 8.743 0 0 1-1.219-.21 262.32 262.32 0 0 1 2.912-9.24 410.36 410.36 0 0 1 3.305-9.464h2.911a643.827 643.827 0 0 1 3.164 9.395 775.958 775.958 0 0 1 2.996 9.309zm-7.42-14.7a2.926 2.926 0 0 1-.153-.63 11.697 11.697 0 0 1-.07-.714h-.196c0 .504-.065.952-.196 1.344l-2.268 7.028h5.096l-2.213-7.028zM375.144 136.483v-1.26h-.141c-.69.541-1.376.934-2.058 1.176s-1.414.364-2.198.364c-.56 0-1.087-.075-1.582-.225a3.366 3.366 0 0 1-1.302-.728c-.374-.336-.672-.788-.896-1.358-.225-.569-.337-1.273-.337-2.113V121.95a50.52 50.52 0 0 1 1.232-.111c.467-.038.896-.057 1.288-.057v10.36c0 .728.182 1.302.546 1.722s1.013.63 1.946.63c.69 0 1.315-.088 1.876-.266a7.52 7.52 0 0 0 1.624-.742V121.95c.354-.037.765-.074 1.231-.111.467-.038.896-.057 1.288-.057v14.7h-2.517zM390.544 136.176a5.292 5.292 0 0 1-1.344.434c-.523.103-.98.154-1.372.154-1.513 0-2.6-.383-3.263-1.148-.662-.765-.993-1.96-.993-3.584v-7.979h-1.736v-2.185h1.736v-3.136c.336-.093.746-.182 1.231-.266s.914-.145 1.288-.183v3.584h3.696c0 .729-.057 1.456-.168 2.185h-3.528v8.176c0 .878.149 1.461.448 1.75.298.289.802.434 1.512.434.336 0 .704-.042 1.106-.126.4-.084.741-.191 1.021-.321.094.317.168.672.225 1.063.057.391.103.774.141 1.148zM402.584 136.483v-10.332c0-.709-.173-1.27-.519-1.68-.346-.411-.984-.616-1.918-.616-.69 0-1.325.098-1.903.294a7.813 7.813 0 0 0-1.736.854v11.48h-2.492v-20.636c.336-.057.742-.103 1.218-.141.477-.037.9-.056 1.274-.056v7.588h.14c.71-.597 1.404-1.021 2.086-1.273s1.424-.379 2.227-.379c.597 0 1.147.08 1.651.238.505.159.938.416 1.303.771.363.354.653.812.868 1.372.214.56.321 1.241.321 2.044v10.472h-2.52zM421.932 129.176c0 1.27-.164 2.38-.49 3.332-.326.951-.774 1.74-1.344 2.365a5.514 5.514 0 0 1-2.016 1.414 6.555 6.555 0 0 1-2.506.477c-.935 0-1.783-.146-2.549-.435s-1.419-.742-1.96-1.357c-.541-.616-.961-1.4-1.26-2.353s-.448-2.1-.448-3.443c0-1.214.154-2.292.462-3.234.309-.942.742-1.736 1.303-2.38a5.535 5.535 0 0 1 2.002-1.47 6.296 6.296 0 0 1 2.534-.505c.896 0 1.726.136 2.491.406.766.271 1.429.71 1.988 1.316s.998 1.391 1.316 2.352c.317.962.477 2.133.477 3.515zm-2.688 0c0-1.009-.084-1.857-.253-2.549-.168-.689-.405-1.245-.714-1.666-.308-.42-.682-.723-1.12-.909s-.938-.28-1.497-.28c-.523 0-1.004.084-1.442.252s-.817.462-1.134.882c-.318.42-.565.976-.742 1.666-.178.691-.266 1.559-.266 2.604 0 1.026.074 1.885.224 2.575.149.691.373 1.246.672 1.666s.667.719 1.106.896c.438.178.938.266 1.498.266s1.068-.088 1.525-.266.845-.477 1.162-.896.56-.975.728-1.666c.169-.69.253-1.549.253-2.575zM433.579 121.728c0 .43-.023.868-.069 1.315-.047.448-.108.888-.183 1.316a7.847 7.847 0 0 0-.56-.112 4.305 4.305 0 0 0-.7-.056c-.504 0-1.013.084-1.526.252s-1.087.56-1.722 1.176v10.864h-2.492v-14.504c.336-.056.742-.098 1.218-.126.477-.028.9-.042 1.274-.042v1.848h.14c.393-.485.756-.863 1.093-1.134.336-.271.644-.476.924-.616.279-.14.541-.229.784-.266a4.644 4.644 0 0 1 1.245-.029c.215.018.406.058.574.114zM439.794 117.835c0 .43-.121.794-.363 1.093-.243.299-.616.447-1.12.447-.486 0-.85-.153-1.092-.462a1.689 1.689 0 0 1-.364-1.078c0-.429.121-.802.364-1.119.242-.317.615-.477 1.119-.477.485 0 .85.159 1.093.477.242.317.363.69.363 1.119zm-2.716 18.648v-14.616h2.492v14.616h-2.492zM452.45 136.176a5.292 5.292 0 0 1-1.344.434c-.523.103-.98.154-1.372.154-1.513 0-2.6-.383-3.263-1.148-.662-.765-.993-1.96-.993-3.584v-7.979h-1.736v-2.185h1.736v-3.136c.336-.093.746-.182 1.231-.266s.914-.145 1.288-.183v3.584h3.696c0 .729-.057 1.456-.168 2.185h-3.528v8.176c0 .878.149 1.461.448 1.75.298.289.802.434 1.512.434.336 0 .704-.042 1.106-.126.4-.084.741-.191 1.021-.321.094.317.168.672.225 1.063.057.391.103.774.141 1.148zM462.054 136.035c-.783 2.314-1.675 3.977-2.674 4.984s-2.133 1.512-3.401 1.512c-.355 0-.766-.032-1.232-.098s-.915-.21-1.344-.435c.037-.41.103-.821.195-1.231.094-.411.196-.775.309-1.092.298.13.648.232 1.05.308.401.074.788.112 1.162.112.541 0 1.003-.146 1.386-.435s.724-.761 1.022-1.414l.756-1.764a100.58 100.58 0 0 1-1.33-3.29 117.472 117.472 0 0 1-1.344-3.668c-.439-1.26-.859-2.529-1.261-3.808s-.761-2.524-1.077-3.738a16.16 16.16 0 0 1 1.231-.14c.467-.038.877-.057 1.232-.057l3.275 10.332c.094.262.183.551.267.868s.153.606.21.868h.111c.057-.299.122-.603.196-.91s.158-.593.252-.854l3.332-10.304c.336 0 .742.015 1.218.042.477.028.892.08 1.246.154l-4.787 14.058z"/></g><path fill="#11A14E" d="M228.605 92.744c-3.419 0-3.604-2.096-3.511-3.59.092-1.497 26.885-42.179 26.885-42.179l-18.847 3.19s.092-3.49-9.423-3.49-23.927 9.573-31.873 18.347c-7.945 8.775-12.749 18.647-12.656 21.239l-8.118 3.737s-6.044 2.795-8.604 2.644c-2.491-.147-3.696-.996-3.696-3.091 0-2.093 8.868-14.059 11.179-17.648 2.31-3.589 11.55-14.359 11.457-19.344-.093-4.986-2.956-5.584-6.929-5.584-3.973 0-10.625 1.395-14.875 4.188-4.25 2.792-24.297 26.324-29.101 32.607-4.804 6.281-5.82 7.677-7.761 8.973 0 0 7.021-10.37 9.239-13.66 2.217-3.291 20.879-31.809 20.879-31.809l-19.956 3.391s-21.826 34.396-22.75 35.194c-.923.797-9.584 5.688-13.002 6.387-3.418.697-6.468-.1-6.191-2.991.277-2.893 8.038-13.86 10.901-17.549 2.864-3.69 16.353-25.029 16.353-25.029l-18.57 3.291s-3.048-3.091-9.237-3.19c-6.19-.1-23.467 7.579-29.195 13.96-5.728 6.381-15.336 18.148-15.891 24.429 0 0-12.012 7.631-16.329 7.734-3.805.091-3.896-1.752-3.811-3.547.165-3.494 9.608-16.651 12.287-20.54 2.679-3.889 14.783-22.336 14.783-22.336-3.049 1.396-14.32 8.575-21.157 6.282 0 0-20.766 29.695-22.265 33.903-2 5.617 4.157 10.097 11.363 10.169 10.525.105 21.341-5.683 24.852-8.274 0 0 0 8.076 12.565 8.176 12.564.099 16.167-5.085 18.015-5.983 0 0 2.679 6.283 11.64 6.184 8.96-.102 17.737-4.687 21.433-7.18 0 0-.185 6.88 8.592 6.381 8.777-.499 10.715-5.683 13.58-9.173 0 0 25.498-32.605 31.873-35.299 6.375-2.692 4.712-1.994 2.68 1.196-2.032 3.191-22.081 27.422-22.265 36.096-.184 8.677 7.391 7.979 11.733 7.979 4.343 0 19.154-4.655 24.391-8.078 0 0 1.94 8.078 10.624 8.078s17.706-4.399 19.923-5.794c0 0 1.694 5.894 11.395 5.794 9.701-.102 23.65-8.078 24.852-8.875l-.739-1.596c-.001-.003-13.303 6.28-16.722 6.28zM77.14 82.751c-1.011 1.588-1.919 3.107-1.919 5.074 0 0-6.428 5.281-10.265 5.281s-3.647-2.486-3.549-4.246c.288-5.178 5.66-14.392 9.018-18.948 2.624-3.561 12.568-20.318 21.106-20.502 4.796-.104 4.605 1.967 5.468 3.728 0 0-18.804 27.957-19.859 29.613zm134.295-.035c-1.011 1.588-1.919 3.107-1.919 5.074 0 0-7.373 5.213-10.266 5.281-3.835.091-3.646-2.486-3.548-4.246.288-5.178 5.66-14.392 9.017-18.948 2.624-3.561 12.569-20.318 21.107-20.502 4.796-.104 4.605 1.968 5.468 3.728 0 0-18.804 27.957-19.859 29.613z"/><path fill="#0673BA" d="M224.35 87.444c-3.419 0-3.603-2.096-3.511-3.59.092-1.497 26.885-42.179 26.885-42.179l-18.848 3.191s.092-3.49-9.423-3.49-23.927 9.573-31.873 18.347c-7.946 8.775-12.749 18.647-12.657 21.239l-8.118 3.737s-6.044 2.795-8.604 2.644c-2.491-.147-3.696-.996-3.696-3.091 0-2.093 8.868-14.06 11.179-17.648 2.31-3.589 11.55-14.359 11.457-19.344-.093-4.986-2.956-5.584-6.929-5.584-3.974 0-10.625 1.396-14.875 4.188S131.04 72.187 126.236 78.47c-4.804 6.281-5.82 7.677-7.761 8.973 0 0 7.021-10.37 9.239-13.659 2.217-3.292 20.879-31.81 20.879-31.81l-19.956 3.391s-21.826 34.396-22.75 35.194c-.923.797-9.585 5.688-13.003 6.387-3.418.697-6.467-.1-6.19-2.991.277-2.893 8.038-13.86 10.902-17.549 2.864-3.69 16.352-25.029 16.352-25.029l-18.569 3.291s-3.048-3.091-9.239-3.19c-6.19-.1-23.466 7.578-29.194 13.96-5.728 6.381-15.336 18.148-15.891 24.429 0 0-12.012 7.631-16.329 7.734-3.804.091-3.896-1.752-3.811-3.547.165-3.494 9.608-16.651 12.287-20.54 2.679-3.889 14.783-22.336 14.783-22.336-3.049 1.396-14.32 8.575-21.156 6.282 0 0-20.766 29.695-22.265 33.903-2 5.617 4.156 10.097 11.363 10.169 10.525.106 21.34-5.683 24.852-8.274 0 0 0 8.076 12.564 8.176 12.564.099 16.168-5.085 18.015-5.983 0 0 2.679 6.283 11.64 6.184 8.961-.102 17.737-4.687 21.433-7.18 0 0-.185 6.88 8.592 6.381 8.777-.499 10.715-5.683 13.58-9.173 0 0 25.498-32.606 31.873-35.298s4.711-1.994 2.679 1.196c-2.032 3.191-22.081 27.422-22.265 36.095-.184 8.677 7.391 7.979 11.733 7.979 4.343 0 19.154-4.655 24.391-8.078 0 0 1.94 8.078 10.624 8.078s17.706-4.398 19.923-5.794c0 0 1.694 5.894 11.395 5.794 9.701-.102 23.65-8.078 24.852-8.875l-.738-1.596c.001-.003-13.301 6.28-16.72 6.28zM72.884 77.451c-1.011 1.588-1.919 3.107-1.919 5.074 0 0-6.428 5.281-10.265 5.281-3.837 0-3.647-2.486-3.549-4.246.288-5.178 5.66-14.392 9.018-18.948 2.623-3.561 12.568-20.318 21.105-20.502 4.796-.104 4.605 1.968 5.468 3.728.001 0-18.803 27.957-19.858 29.613zm134.296-.035c-1.011 1.588-1.919 3.107-1.919 5.074 0 0-7.373 5.213-10.266 5.281-3.835.091-3.646-2.486-3.548-4.246.288-5.178 5.66-14.392 9.017-18.948 2.624-3.561 12.569-20.318 21.106-20.502 4.796-.104 4.605 1.968 5.468 3.728.001 0-18.803 27.957-19.858 29.613z"/><linearGradient id="a" x1="22.881" x2="32.131" y1="33.435" y2="20.416" gradientUnits="userSpaceOnUse"><stop offset="0" style="stop-color:#0673ba"/><stop offset="1" style="stop-color:#11a14e"/></linearGradient><path fill="url(#a)" d="m45.488 11.621-10.384 6.473c1.936 6.463 5.017 12.606 8.801 18.646a19.2 19.2 0 0 1-3.31 3.079c-3.908-5.849-7.061-12.436-8.983-19.548l-7.758 4.836c1.782 6.128 4.476 12.089 7.715 18.04-.447.035-.893.074-1.348.074a17.41 17.41 0 0 1-3.542-.373c-2.643-4.809-4.811-10.046-6.281-15.586l-7.042 4.391a21.047 21.047 0 0 1-1.349-4.237l7.397-4.522a62.119 62.119 0 0 1-.937-6.839l-6.713 4.299c.186-1.476.52-2.898.985-4.254l5.559-3.325a59.714 59.714 0 0 1 .108-5.239c-4.191 3.693-6.87 9.31-6.87 15.605 0 11.122 8.353 20.139 18.659 20.139s18.659-9.017 18.659-20.139c0-4.289-1.25-8.255-3.366-11.52z"/><linearGradient id="b" x1="28.9" x2="26.076" y1="20.286" y2="42.079" gradientUnits="userSpaceOnUse"><stop offset="0" style="stop-color:#fff"/><stop offset="1" style="stop-color:#1173ba"/></linearGradient><path fill="url(#b)" d="m18.297 12.773-5.559 3.325a21.319 21.319 0 0 0-.985 4.254l6.713-4.299c.183 2.317.506 4.597.937 6.839l-7.397 4.522a21.047 21.047 0 0 0 1.349 4.237l7.042-4.391c1.471 5.54 3.638 10.777 6.281 15.586 1.148.238 2.33.373 3.542.373.455 0 .901-.039 1.348-.074-3.239-5.95-5.933-11.911-7.715-18.04l7.758-4.836c1.923 7.112 5.076 13.699 8.983 19.548a19.274 19.274 0 0 0 3.31-3.079c-3.784-6.04-6.865-12.183-8.801-18.646l10.384-6.473a19.861 19.861 0 0 0-2.518-3.134l-8.935 5.462a51.745 51.745 0 0 1-1.042-7.2l3.796-2.431a17.391 17.391 0 0 0-2.836-.91l-1.08.646c-.005-.273-.003-.549-.003-.825A17.754 17.754 0 0 0 30.195 3c-.206 0-.405.026-.609.033a61.334 61.334 0 0 0-.021 3l-8.026 4.801a53.353 53.353 0 0 1 .13-5.595 18.637 18.637 0 0 0-3.264 2.295 59.714 59.714 0 0 0-.108 5.239zm11.392-3.907c.167 2.434.475 4.829.93 7.171l-7.845 4.795a56.21 56.21 0 0 1-1.053-6.863l7.968-5.103z"/><linearGradient id="c" x1="11.981" x2="21.211" y1="24.827" y2="11.838" gradientUnits="userSpaceOnUse"><stop offset="0" style="stop-color:#115da6"/><stop offset="1" style="stop-color:#00a14f"/></linearGradient><path fill="url(#c)" d="m21.54 10.834 8.026-4.801a61.334 61.334 0 0 1 .021-3c-2.847.099-5.53.879-7.917 2.206a53.353 53.353 0 0 0-.13 5.595z"/><linearGradient id="d" x1="16.145" x2="25.297" y1="27.619" y2="14.74" gradientUnits="userSpaceOnUse"><stop offset="0" style="stop-color:#115da6"/><stop offset="1" style="stop-color:#00a14f"/></linearGradient><path fill="url(#d)" d="M33.953 3.409c-.355-.079-.722-.123-1.083-.178 0 .275-.002.551.003.825l1.08-.647z"/><linearGradient id="e" x1="20.867" x2="30.121" y1="31.706" y2="18.683" gradientUnits="userSpaceOnUse"><stop offset="0" style="stop-color:#115da6"/><stop offset="1" style="stop-color:#00a14f"/></linearGradient><path fill="url(#e)" d="m34.035 13.949 8.935-5.462a18.472 18.472 0 0 0-6.181-4.168L32.993 6.75a51.455 51.455 0 0 0 1.042 7.199z"/><linearGradient id="f" x1="16.54" x2="25.865" y1="28.555" y2="15.431" gradientUnits="userSpaceOnUse"><stop offset="0" style="stop-color:#115da6"/><stop offset="1" style="stop-color:#00a14f"/></linearGradient><path fill="url(#f)" d="M30.619 16.037a58.29 58.29 0 0 1-.93-7.171l-7.968 5.104a56.21 56.21 0 0 0 1.053 6.863l7.845-4.796z"/></svg>