<svg xmlns="http://www.w3.org/2000/svg" width="512" height="136" preserveAspectRatio="xMidYMid"><path fill="#3CF" d="M60.936.04h43.33v135.374h-43.33V.04ZM.06.04h43.27v135.374H.06V.04ZM203.121.04h43.331v135.374h-43.331V.04ZM319.577.04h43.331v135.374h-43.331V.04ZM437.365.04h43.331v135.374h-43.331V.04Z"/><path fill="#F40" d="M104.132.04h55.658v43.295h-55.658V.04ZM104.132 55.522h38.05v43.331h-38.05V55.522ZM171.975.04h31.822v43.295h-31.822V.04ZM245.911.04h31.822v43.295h-31.822V.04ZM288.431.04h31.822v43.295h-31.822V.04ZM362.368.04h31.822v43.295h-31.822V.04ZM406.241.04h31.822v43.295h-31.822V.04ZM480.178.04H512v43.295h-31.822V.04Z"/><path d="M203.121.04h43.331v43.295h-43.331V.04ZM319.577.04h43.331v43.295h-43.331V.04ZM437.387.04h43.331v43.295h-43.331V.04ZM60.936.04h43.33v43.295h-43.33V.04ZM60.936 55.522h43.33v43.334h-43.33V55.522Z"/></svg>