<svg xmlns="http://www.w3.org/2000/svg" width="12.94" height="14.55" data-name="Layer 1"><path d="M0 .033h12.973V14.55H0z" style="font-variation-settings:normal;opacity:1;vector-effect:none;fill:#000;fill-opacity:1;fill-rule:evenodd;stroke-width:.997743;stroke-linecap:butt;stroke-linejoin:miter;stroke-miterlimit:4;stroke-dasharray:none;stroke-dashoffset:0;stroke-opacity:1;stop-color:#000;stop-opacity:1"/><path d="M12.94 13.88v.67H0v-.67zm-.51-1v.85H.51v-.85ZM1.76 3.72l.14.07.1 1.15v7.35l-.2.06h-.75l-.22-.06-.08-1.49-.07-2.22V6.8l.07-1.86.07-1.15.18-.07Zm10.24 0 .14.07.08 1.15.07 1.85v1.78l-.07 2.23v1.49l-.2.06h-.71l-.21-.06-.1-1.49-.08-2.22V6.8L11 4.94V3.79l.15-.07Zm-7.15 0 .15.07v1.15l.07 1.85v1.78L5 10.8v1.49l-.2.06h-.69l-.21-.06-.08-1.49-.07-2.22V6.8l.07-1.86.06-1.15.12-.07Zm3.92 0 .14.07L9 4.94v7.35l-.2.06H8l-.22-.06-.05-1.49-.07-2.22V6.8l.07-1.86.07-1.15.14-.07Zm3.66-1.52v1.18H.51V2.2ZM6.35 0l6.25 1.42-.25.44H.37L0 1.51Z" style="fill:#fff"/></svg>