<svg xmlns="http://www.w3.org/2000/svg" id="Layer_1" data-name="Layer 1" viewBox="0 0 61.49 14.56"><defs><style>.cls-1{fill:#222}</style></defs><path d="M12.94 13.88v.67H0v-.67Zm-.51-1v.85H.51v-.85ZM1.76 3.72l.14.07.1 1.15v7.35l-.2.06h-.75l-.22-.06-.08-1.49-.07-2.22V6.8l.07-1.86.07-1.15.18-.07Zm10.24 0 .14.07.08 1.15.07 1.85v1.78l-.07 2.23v1.49l-.2.06h-.71l-.21-.06-.1-1.49-.08-2.22V6.8L11 4.94V3.79l.15-.07Zm-7.15 0 .15.07v1.15l.07 1.85v1.78L5 10.8v1.49l-.2.06h-.69l-.21-.06-.08-1.49-.07-2.22V6.8l.07-1.86.06-1.15.12-.07Zm3.92 0 .14.07L9 4.94v7.35l-.2.06H8l-.22-.06-.05-1.49-.07-2.22V6.8l.07-1.86.07-1.15.14-.07Zm3.66-1.52v1.18H.51V2.2ZM6.35 0l6.25 1.42-.25.44H.37L0 1.51Z" class="cls-1"/><g id="Layer_1-2" data-name="Layer 1-2"><g id="A"><path d="M15.5 5.76v-.22c.68 0 .77-.17.78-.8V1c0-.63-.1-.81-.77-.81V0H18v.21c-.67 0-.77.18-.77.81v3.72c0 .62.1.81.77.81v.21ZM23.77 5.77l-3-4.88v4.87h-.59V1.1c0-.81-.12-.77-.92-.92V0h2l2.75 4.67V0h.57v5.77ZM30.49 1.33c0-.68-.3-.88-1-.88h-.59v5.31h-1V.4h-.61c-.69 0-.91.2-1 .85h-.26V0h4.56v1.33ZM36.53 5.76H33v-4.6c0-.82 0-.85-.85-1V0h4.25v1.33h-.23c0-.64-.34-.87-1-.87h-.67c-.42 0-.57 0-.57.45v1.64H35c.51 0 .65-.22.73-.66H36v1.8h-.26c0-.49-.22-.74-.73-.74h-1.09v1.91c0 .47.12.5.57.5h1c.61 0 .75-.29.81-.85h.24ZM41.91 5.76l-1.58-2.65h-.55v2.64h-1V1.16c0-.82 0-.86-.85-1V0h2.29c1.08 0 2.4.23 2.4 1.54a1.32 1.32 0 0 1-1.36 1.4l1.63 2.82ZM40.39.46c-.65 0-.61.24-.61.78v1.4h.51c.77 0 1.4-.28 1.4-1.11S41.32.4 40.39.4ZM48.7 5.76 45.78.88v4.87h-.54V1.09c0-.8-.13-.76-.9-.91V0h2L49 4.66V0h.61v5.76ZM55.4 5.76h-3.53v-4.6c0-.82 0-.85-.84-1V0h4.23v1.33H55c0-.64-.33-.87-1-.87h-.59c-.42 0-.57 0-.57.45v1.64h1c.51 0 .64-.22.72-.66h.26v1.8h-.26c0-.49-.21-.74-.72-.74h-1.03v1.91c0 .47.12.5.57.5h1c.61 0 .75-.29.81-.85h.24ZM61.23 1.33c0-.73-.29-.93-1-.93h-.62v5.36h-1V.4H58c-.69 0-.93.2-1 .85h-.26V.01h4.61v1.32Z" class="cls-1"/></g></g><g id="Layer_1-2-2" data-name="Layer 1-2"><g id="A-2" data-name="A"><path d="m19 14.45-.67-1.9h-1.85l-.56 1.89h-.45l1.47-4.93a4.88 4.88 0 0 0 .12-.51c0-.38-.34-.38-.57-.42v-.2h1.44l1.87 6.11Zm-1.6-5-.78 2.64h1.61ZM24.52 14.47l-1.35-2.84h-.48v2.84h-.82v-4.9c0-.86 0-.9-.71-1v-.2h1.94c.92 0 2 .24 2 1.64a1.33 1.33 0 0 1-1.1 1.46l1.4 3Zm-1.31-5.7c-.52 0-.52.24-.52.82v1.62h.44A1 1 0 0 0 24.3 10c0-.85-.37-1.23-1.09-1.23ZM29.08 14.4c-1.74 0-2.23-1.33-2.23-3.17s.48-3 2.11-3a4.47 4.47 0 0 1 1.51.34V10h-.22a1.54 1.54 0 0 0-.15-.55 1.22 1.22 0 0 0-1.18-.79c-1.17 0-1.29 1.48-1.29 2.53-.09 1.31.47 2.5 1.25 2.66a.79.79 0 0 0 .22 0 1.93 1.93 0 0 0 1.32-.45v.69a2.89 2.89 0 0 1-1.34.31ZM35.55 14.47v-3h-2v3h-.81V9.56c0-.81-.12-.83-.73-.91v-.2l1.54-.2v2.82h2V8.35h.81v6.12ZM37.75 14.47v-.28c.58 0 .65-.18.65-.84V9.4c0-.66-.07-.84-.65-.84v-.22h2.14v.22c-.56 0-.65.2-.65.84v4c0 .64.09.84.65.84v.22ZM44.3 14.47h-.64l-1.45-5c-.21-.76-.25-.82-.88-1v-.2h1.42l1.44 5 1.43-5h.48ZM51.32 14.47h-3v-4.9c0-.86 0-.88-.71-1v-.2h3.6v1.32H51c0-.68-.28-.92-.81-.92h-.59c-.35 0-.47 0-.47.48v1.81H50c.44 0 .56-.24.62-.7h.22v1.91h-.22c0-.52-.17-.78-.62-.78h-.9v2c0 .49.09.53.47.53h.84c.52 0 .64-.32.68-.91h.21Z" class="cls-1"/></g></g></svg>