<svg xmlns="http://www.w3.org/2000/svg" viewBox="0 0 88 31"><path fill="#fff" stroke="#000" stroke-linecap="round" stroke-width="1.916" d="M.958.958h86.084v29.084H.958z"/><text x="51.557" y="22.255" font-family="Bitstream Vera Sans Mono" font-size="22.643" style="word-spacing:0;letter-spacing:0">
  <tspan x="51.557" y="22.255">{</tspan>
 </text><text x="71.69" y="22.255" font-family="Bitstream Vera Sans Mono" font-size="22.643" style="word-spacing:0;letter-spacing:0">
  <tspan x="71.69" y="22.255">}</tspan>
 </text><path fill="#0c479c" d="M73.606 18a2.917 2.917 0 0 0-.304-.139l.073-.006s-.653-.289-.71-2.387c-.056-2.098.622-2.456.622-2.456l-.097.004a2.927 2.927 0 1 0-3.923-3.972c-.312.586-.4 1.23-.302 1.837l-.033-.051s.172.761-1.613 1.869c-1.785 1.109-2.59.557-2.59.557l.051.075c-.05-.031-.1-.064-.153-.092a2.926 2.926 0 1 0 .456 4.868l-.02.037s.65-.535 2.523.47c1.478.794 1.697 1.571 1.726 1.863a2.923 2.923 0 0 0 5.505 1.48 2.925 2.925 0 0 0-1.211-3.958zm-3.3.384c-.236.084-.912.176-2.334-.587-1.54-.827-1.77-1.518-1.803-1.725a2.884 2.884 0 0 0-.035-.748l.01.014s-.126-.672 1.637-1.766c1.577-.98 2.295-.785 2.428-.733a2.901 2.901 0 0 0 .814.385c.217.207.617.793.658 2.336.043 1.554-.414 2.153-.663 2.365-.256.116-.496.27-.712.459z"/><path fill="#fff" d="M70.113 8.764c-.851.931-.869 2.301-.049 3.076-.405-.39-.396-1.203.013-1.98.053-.07.206-.235.429-.16.022.008.037.01.046.008a.614.614 0 0 0 .741-.626.605.605 0 0 0-.167-.39c.786-.515 1.689-.574 2.059-.236h.014c-.845-.77-2.226-.633-3.086.308z"/><g fill="#fff"><path d="m61.527 17.372-.022-.024.015.017.007.007zM61.554 14.272c-.851.931-.87 2.301-.049 3.076-.405-.39-.397-1.203.013-1.98.053-.07.206-.235.429-.16.022.008.037.01.046.008a.614.614 0 0 0 .741-.626.607.607 0 0 0-.167-.39c.786-.515 1.689-.574 2.059-.236l.014.001c-.845-.772-2.227-.634-3.086.307z"/></g><g fill="#fff"><path d="m70.588 22.035-.022-.023.014.016.008.007zM70.615 18.935c-.852.932-.87 2.302-.05 3.077-.405-.39-.396-1.203.014-1.98.052-.07.205-.235.428-.16.023.007.037.01.046.008a.614.614 0 0 0 .741-.626.606.606 0 0 0-.167-.39c.786-.515 1.689-.574 2.059-.237l.014.001c-.845-.771-2.226-.633-3.085.307z"/></g><image/><text x="4.562" y="19.41" font-family="Roboto" font-size="11" font-weight="bold" style="word-spacing:0;letter-spacing:0">
  <tspan x="4.562" y="19.41">JSON-LD</tspan>
 </text></svg>