<svg xmlns="http://www.w3.org/2000/svg" width="107.287" height="119.728" preserveAspectRatio="xMidYMid"><defs><linearGradient id="a" x1="435.846" x2="496.96" y1="71.773" y2="79.378" gradientTransform="scale(.85457 1.17018)" gradientUnits="userSpaceOnUse"><stop offset="0%" stop-color="#8AC443"/><stop offset="100%" stop-color="#75B843"/></linearGradient><linearGradient id="b" x1="464.739" x2="520.722" y1="65.574" y2="71.755" gradientTransform="scale(.80498 1.24227)" gradientUnits="userSpaceOnUse"><stop offset="0%" stop-color="#75B843"/><stop offset="100%" stop-color="#4B9744"/></linearGradient><linearGradient id="c" x1="607.747" x2="503.12" y1="38.803" y2="61.537" gradientTransform="scale(.80484 1.2425)" gradientUnits="userSpaceOnUse"><stop offset="0%" stop-color="#C1DB74"/><stop offset="100%" stop-color="#ACD259"/></linearGradient><linearGradient id="d" x1="720.768" x2="611.875" y1="29.888" y2="46.475" gradientTransform="scale(.67388 1.48395)" gradientUnits="userSpaceOnUse"><stop offset="0%" stop-color="#ACD259"/><stop offset="100%" stop-color="#8AC443"/></linearGradient></defs><path fill="url(#a)" d="M377.4 54.3c1.3 1.5 26 9.7 34.5 19.7 8.6 10 12.3 18.9 11.1 27.5-1.2 8.6-6.5 8.4-8.7 11.6-2.3 3.1-5.5 7-11.5 6.6-8-.5-16.2-4.5-22.1-18.3-5.9-13.8-5.5-26.8-5-34 .4-7.3 1.7-13.1 1.7-13.1z" style="fill:url(#a)" transform="translate(-375.439)"/><path fill="url(#b)" d="m378.1 56.6 37 55.2-1.7 1.9z" style="fill:url(#b)" transform="translate(-375.439)"/><path fill="url(#c)" d="M472.6 0c-1.7 2.8-40.9 23-52.6 41.9-11.8 19-15.1 33.9-10.8 47.9 4.3 14 12.4 13.4 17 18s10.9 10.2 21 8c13.2-3 25.9-11.8 32.2-36.4 6.3-24.6 2.2-46.2-.5-58.1C476.2 9.4 472.6 0 472.6 0Z" style="fill:url(#c)" transform="translate(-375.439)"/><path fill="url(#d)" d="M471.9 4.2 424.4 106l2.8 2.8z" style="fill:url(#d)" transform="translate(-375.439)"/></svg>