<?xml version="1.0" encoding="UTF-8" standalone="no"?>
<svg
   xmlns:dc="http://purl.org/dc/elements/1.1/"
   xmlns:cc="http://creativecommons.org/ns#"
   xmlns:rdf="http://www.w3.org/1999/02/22-rdf-syntax-ns#"
   xmlns:svg="http://www.w3.org/2000/svg"
   xmlns="http://www.w3.org/2000/svg"
   xmlns:sodipodi="http://sodipodi.sourceforge.net/DTD/sodipodi-0.dtd"
   xmlns:inkscape="http://www.inkscape.org/namespaces/inkscape"
   id="a"
   data-name="Layer 1"
   viewBox="0 0 1141.4116 246.1633"
   aria-hidden="true"
   name="IconLogo"
   class="h-8 w-32"
   style=""
   version="1.1"
   sodipodi:docname="LerarnVue-wordmark.svg"
   inkscape:version="1.0.2 (e86c870, 2021-01-15)">
  <metadata
     id="metadata33">
    <rdf:RDF>
      <cc:Work
         rdf:about="">
        <dc:format>image/svg+xml</dc:format>
        <dc:type
           rdf:resource="http://purl.org/dc/dcmitype/StillImage" />
        <dc:title></dc:title>
      </cc:Work>
    </rdf:RDF>
  </metadata>
  <defs
     id="defs31" />
  <sodipodi:namedview
     pagecolor="#ffffff"
     bordercolor="#666666"
     borderopacity="1"
     objecttolerance="10"
     gridtolerance="10"
     guidetolerance="10"
     inkscape:pageopacity="0"
     inkscape:pageshadow="2"
     inkscape:window-width="1024"
     inkscape:window-height="715"
     id="namedview29"
     showgrid="false"
     inkscape:zoom="0.76187558"
     inkscape:cx="570.70581"
     inkscape:cy="123.08165"
     inkscape:window-x="-8"
     inkscape:window-y="-8"
     inkscape:window-maximized="1"
     inkscape:current-layer="a" />
  <g
     id="b"
     data-name="Page-1">
    <g
       id="c"
       data-name="Custom-Preset">
      <g
         id="d"
         data-name="logo">
        <path
           id="e"
           data-name="Triangle"
           d="M39.76,10.79l114.16,200.57c5.87,10.31,2.36,23.47-7.84,29.4-3.25,1.89-6.94,2.88-10.7,2.87l-95.58-.33c-22-.08-39.8-18.13-39.8-40.38V21.53C0,9.64,9.54,0,21.3,0c7.62,0,14.66,4.12,18.46,10.79h0Z"
           style="fill:#404959;" />
        <path
           id="f"
           data-name="Triangle-Copy-2"
           d="M118.19,233.84l-47.13-78.54c-6.11-10.18-2.81-23.38,7.37-29.49,3.35-2.01,7.19-3.07,11.09-3.06l94.33,.15c11.13,.02,20.14,9.05,20.12,20.18,0,3.65-1,7.22-2.88,10.35l-48.35,80.42c-5.73,9.54-18.11,12.62-27.65,6.89-2.83-1.7-5.2-4.07-6.9-6.9h0Z"
           style="fill:#15ca82;" />
        <path
           id="g"
           data-name="Path"
           d="M89.52,122.76l13.98,.02,50.41,88.58c3.2,5.62,3.61,12.09,1.67,17.77l-2.85,4.74c-3.5,5.82-9.47,9.23-15.76,9.71l-.61,.04h-.38l-.38,.02c-3.59,.03-7.23-.9-10.53-2.88-2.83-1.7-5.2-4.07-6.9-6.9l-47.13-78.54c-6.11-10.18-2.81-23.38,7.37-29.49,3.35-2.01,7.19-3.07,11.09-3.06l.02-.01Z"
           style="fill:#404959;isolation:isolate;opacity:0.44;" />
      </g>
    </g>
  </g>
  <g
     id="g18">
    <path
       d="M243.6309,188.5432c-.9673-.9521-1.4561-2.0674-1.4658-3.3486l-.9766-124.7959c-.0107-1.4072,.46-2.5625,1.4131-3.4668,.9531-.9023,2.0688-1.3613,3.3501-1.3711l25.3428-.1982c1.4072-.0107,2.5625,.4307,3.4663,1.3174,.9009,.8896,1.3599,2.0391,1.3706,3.4463l.7871,100.6035,58.1743-.4551c1.4067-.0117,2.563,.46,3.4673,1.4131,.9019,.9531,1.3604,2.1338,1.3716,3.541l.1504,19.2002c.0098,1.2812-.4312,2.4033-1.3179,3.3701-.8892,.9668-2.0381,1.4561-3.4448,1.4678l-88.3169,.6904c-1.2812,.0098-2.4038-.4619-3.3716-1.4141Z"
       class="fill-gray dark:fill-white"
       id="path8" />
    <path
       d="M363.4595,178.4866c-8.897-8.251-13.5991-20.3096-14.1074-36.1797l-.0527-6.7207c.3921-15.1045,5.0029-26.9482,13.835-35.5332,8.8281-8.5791,20.731-12.9297,35.7061-13.0459,10.8784-.0859,20.0811,2.0508,27.604,6.4082,7.5215,4.3564,13.2002,10.3604,17.0371,18.0107,3.8335,7.6504,5.793,16.4658,5.8711,26.4502l.0356,4.6084c.0103,1.2803-.4312,2.4033-1.3179,3.3701-.8892,.9668-2.0376,1.4561-3.4443,1.4678l-61.4385,.4805,.0107,1.3438c.3018,6.0166,1.813,10.8662,4.5303,14.5557,2.7168,3.6934,6.6348,5.5176,11.7549,5.4775,3.1982-.0254,5.8179-.7178,7.856-2.0781,2.0356-1.3604,3.8804-3.0068,5.5298-4.9395,1.1416-1.416,2.061-2.2871,2.7637-2.6123,.6992-.3242,1.8203-.4951,3.356-.5068l23.8076-.1865c1.1519-.0088,2.145,.3379,2.9844,1.0322,.8359,.6982,1.2603,1.6221,1.269,2.7744,.0264,3.3291-1.8335,7.1846-5.5732,11.5645-3.7427,4.3818-9.1855,8.2021-16.3271,11.4561-7.1445,3.2539-15.5801,4.9219-25.3057,4.998-15.3599,.1201-27.4873-3.9434-36.3843-12.1953Zm52.0269-49.9453l-.0029-.3848c-.0493-6.2686-1.5278-11.2197-4.4365-14.8457-2.9082-3.625-6.9243-5.417-12.0425-5.377-4.9912,.0391-8.9131,1.8936-11.7646,5.5635-2.8516,3.6709-4.2529,8.6445-4.2036,14.9131l.0029,.3848,32.4473-.2539Z"
       class="fill-gray dark:fill-white"
       id="path10" />
    <path
       d="M479.2012,186.1252c-5.5879-2.5781-9.9688-6.1289-13.1396-10.6494-3.1733-4.5176-4.7778-9.5312-4.8208-15.0361-.0693-8.8311,3.4893-15.9639,10.6802-21.3965,7.1875-5.4316,17.1128-9.2207,29.7681-11.3691l23.9702-3.834-.021-2.6885c-.0381-4.8633-1.0913-8.4404-3.1553-10.7275-2.0669-2.2881-5.5317-3.4131-10.395-3.375-2.9453,.0225-5.3716,.5547-7.2837,1.5928-1.9116,1.042-3.8867,2.4639-5.9189,4.2705-1.7817,1.5498-3.1177,2.5869-4.0078,3.1035-.376,1.0293-1.0767,1.5449-2.0996,1.5527l-20.9272,.1641c-1.2812,.0098-2.3403-.3965-3.1777-1.2236-.8408-.8242-1.1992-1.8145-1.0796-2.9678,.0991-3.4561,1.7671-7.3105,4.998-11.5596s8.1938-7.9355,14.8896-11.0605c6.6958-3.124,14.9697-4.7246,24.8271-4.8018,15.7432-.123,27.4165,3.2734,35.0249,10.1895,7.6055,6.918,11.4556,16.2637,11.5479,28.0391l.4565,58.3662c.0098,1.2812-.4316,2.4033-1.3184,3.3701-.8887,.9668-2.0371,1.4561-3.4443,1.4678l-22.2715,.1738c-1.2808,.0098-2.4033-.4619-3.3711-1.4141-.9673-.9521-1.4561-2.0674-1.4658-3.3486l-.0527-6.7197c-2.7852,3.9912-6.6963,7.252-11.7319,9.7881-5.0386,2.5352-11.0103,3.8301-17.9224,3.8848-6.7852,.0527-12.9697-1.2119-18.5581-3.791Zm41.6694-24.0391c3.6182-3.8682,5.3979-9.5137,5.3398-16.9385l-.021-2.6875-16.2974,3.0078c-11.5029,2.1387-17.2314,6.2158-17.1841,12.2305,.0249,3.2002,1.3882,5.7178,4.0908,7.5518,2.7026,1.8359,5.9736,2.7373,9.814,2.707,5.8853-.0459,10.6401-2.0029,14.2578-5.8711Z"
       class="fill-gray dark:fill-white"
       id="path12" />
    <path
       d="M582.4028,185.9905c-.9038-.8877-1.3599-2.0361-1.3706-3.4463l-.7061-90.2373c-.0107-1.4072,.4268-2.5615,1.3169-3.4658,.8867-.9014,2.0352-1.3604,3.4453-1.3711l22.0791-.1729c1.4072-.0107,2.5957,.459,3.563,1.4121,.9683,.9521,1.4565,2.0703,1.4663,3.3486l.0605,7.6787c6.9727-8.3721,16.4131-12.6074,28.3174-12.7012l8.4473-.0654c1.4072-.0107,2.5625,.4297,3.4668,1.3164,.9004,.8906,1.3594,2.0381,1.3701,3.4453l.1553,19.7754c.0098,1.2803-.4316,2.4033-1.3174,3.3701-.8896,.9668-2.0371,1.457-3.4443,1.4678l-18.624,.1455c-5.25,.041-9.3008,1.5127-12.1572,4.416-2.8574,2.9023-4.2656,6.9766-4.2246,12.2236l.3848,49.1514c.0107,1.4102-.46,2.5654-1.4141,3.4678-.9531,.9033-2.1343,1.3604-3.541,1.3711l-23.8071,.1865c-1.4102,.0107-2.5654-.4277-3.4663-1.3164Z"
       class="fill-gray dark:fill-white"
       id="path14" />
    <path
       d="M669.5669,185.3079c-.9033-.8867-1.3594-2.0352-1.3701-3.4453l-.7061-90.2373c-.0107-1.4072,.4268-2.5615,1.3164-3.4668,.8867-.9004,2.0352-1.3594,3.4453-1.3701l22.0791-.1729c1.4072-.0107,2.5957,.4297,3.5625,1.3154,.9678,.8906,1.457,2.0381,1.4678,3.4453l.0566,7.2949c3.4219-4.251,7.8418-7.6748,13.2637-10.2793,5.4189-2.6016,11.5859-3.9307,18.4971-3.9844,11.2617-.0889,20.4443,3.6494,27.5449,11.208,7.0967,7.5615,10.7021,18.1895,10.8096,31.8838l.4189,53.5674c.0098,1.2812-.4307,2.4033-1.3174,3.3701-.8896,.9668-2.0381,1.4561-3.4443,1.4678l-24.1914,.1885c-1.2812,.0107-2.4043-.4609-3.3721-1.4141-.9668-.9521-1.4561-2.0664-1.4658-3.3477l-.4102-52.415c-.0469-6.0146-1.5557-10.6436-4.5244-13.8848-2.9707-3.2412-7.208-4.8398-12.71-4.7969-5.375,.042-9.5869,1.707-12.6328,4.9951-3.0469,3.2881-4.5459,7.9404-4.499,13.9551l.4102,52.415c.0098,1.2812-.4316,2.4033-1.3184,3.3701-.8887,.9668-2.0371,1.4561-3.4443,1.4678l-24,.1875c-1.4102,.0107-2.5654-.4277-3.4658-1.3174Z"
       class="fill-gray dark:fill-white"
       id="path16" />
  </g>
  <g
     id="g26">
    <path
       d="M821.3511,177.6194l-39.168-122.8804-.3838-1.728c0-1.0229,.4141-1.9497,1.248-2.7837,.8311-.8311,1.8232-1.248,2.9756-1.248h23.8086c1.79,0,3.2939,.5127,4.5117,1.5361,1.2148,1.0259,2.0156,2.1777,2.3994,3.4556l27.2646,88.7041,27.0713-88.7041c.3848-1.2778,1.1826-2.4297,2.4004-3.4556,1.2148-1.0234,2.7178-1.5361,4.5117-1.5361h24c1.0234,0,1.9502,.417,2.7842,1.248,.8311,.834,1.248,1.7607,1.248,2.7837l-.3838,1.728-39.168,122.8804c-1.1523,3.8398-3.7773,5.7598-7.8721,5.7598h-29.376c-4.0977,0-6.7197-1.9199-7.8721-5.7598Z"
       style="fill:#15ca82;"
       id="path20" />
    <path
       d="M925.0298,173.8752c-6.9111-7.6143-10.3672-18.2695-10.3672-31.9688v-53.5674c0-1.4067,.4463-2.5591,1.3438-3.4561,.8936-.894,2.0459-1.3438,3.4561-1.3438h24c1.4072,0,2.5918,.4497,3.5518,1.3438,.96,.897,1.4404,2.0493,1.4404,3.4561v52.416c0,12.5459,5.5674,18.8154,16.7031,18.8154,5.377,0,9.6006-1.6621,12.6729-4.9912,3.0713-3.3271,4.6074-7.9346,4.6074-13.8242v-52.416c0-1.4067,.4805-2.5591,1.4404-3.4561,.96-.894,2.0791-1.3438,3.3594-1.3438h24c1.4072,0,2.5596,.4497,3.4561,1.3438,.8945,.897,1.3447,2.0493,1.3447,3.4561v90.2402c0,1.2803-.4502,2.3994-1.3447,3.3604-.8965,.959-2.0488,1.4395-3.4561,1.4395h-22.2715c-1.2812,0-2.4004-.4805-3.3604-1.4395-.96-.9609-1.4395-2.0801-1.4395-3.3604v-7.2959c-6.6572,9.3447-17.2803,14.0156-31.8721,14.0156-11.2656,0-20.3525-3.8066-27.2646-11.4238Z"
       style="fill:#15ca82;"
       id="path22" />
    <path
       d="M1048.4849,172.8186c-8.832-8.3184-13.4404-20.4141-13.8242-36.2871v-6.7207c.5098-15.1016,5.2139-26.9097,14.1123-35.4238,8.8945-8.5107,20.832-12.7676,35.8076-12.7676,10.8779,0,20.0635,2.208,27.5518,6.6235,7.4883,4.416,13.1191,10.4644,16.8965,18.144,3.7734,7.6802,5.6641,16.5122,5.6641,26.4961v4.6074c0,1.2812-.4502,2.4004-1.3447,3.3613-.8965,.959-2.0488,1.4395-3.4561,1.4395h-61.4395v1.3438c.2549,6.0176,1.7275,10.8809,4.416,14.5918,2.6875,3.7148,6.5908,5.5684,11.7119,5.5684,3.1982,0,5.8232-.6719,7.8721-2.0156,2.0459-1.3438,3.9033-2.9766,5.5674-4.8965,1.1523-1.4062,2.0791-2.2715,2.7842-2.5918,.7021-.3184,1.8242-.4805,3.3604-.4805h23.8076c1.1523,0,2.1426,.3545,2.9766,1.0566,.8311,.7051,1.248,1.6318,1.248,2.7832,0,3.3301-1.8906,7.1699-5.6641,11.5205-3.7773,4.3525-9.249,8.1299-16.416,11.3281-7.1699,3.1982-15.6182,4.7998-25.3438,4.7998-15.3604,0-27.4561-4.1582-36.2881-12.4805Zm52.416-49.5356v-.3838c0-6.27-1.4404-11.2319-4.3203-14.8799s-6.8818-5.4722-12-5.4722c-4.9922,0-8.9277,1.8242-11.8076,5.4722-2.8809,3.6479-4.3203,8.6099-4.3203,14.8799v.3838h32.4482Z"
       style="fill:#15ca82;"
       id="path24" />
  </g>
</svg>
