<?xml version="1.0" encoding="UTF-8" standalone="no"?>
<svg
   xmlns:dc="http://purl.org/dc/elements/1.1/"
   xmlns:cc="http://creativecommons.org/ns#"
   xmlns:rdf="http://www.w3.org/1999/02/22-rdf-syntax-ns#"
   xmlns:svg="http://www.w3.org/2000/svg"
   xmlns="http://www.w3.org/2000/svg"
   xmlns:sodipodi="http://sodipodi.sourceforge.net/DTD/sodipodi-0.dtd"
   xmlns:inkscape="http://www.inkscape.org/namespaces/inkscape"
   id="a"
   data-name="Layer 1"
   viewBox="0 0 203.97003 243.6407"
   aria-hidden="true"
   name="IconLogo"
   class="h-8 w-32"
   version="1.1"
   sodipodi:docname="LerarnVue+.svg"
   inkscape:version="1.0.2 (e86c870, 2021-01-15)"
   width="203.97003"
   height="243.6407">
  <metadata
     id="metadata33">
    <rdf:RDF>
      <cc:Work
         rdf:about="">
        <dc:format>image/svg+xml</dc:format>
        <dc:type
           rdf:resource="http://purl.org/dc/dcmitype/StillImage" />
        <dc:title></dc:title>
      </cc:Work>
    </rdf:RDF>
  </metadata>
  <defs
     id="defs31" />
  <sodipodi:namedview
     pagecolor="#ffffff"
     bordercolor="#666666"
     borderopacity="1"
     objecttolerance="10"
     gridtolerance="10"
     guidetolerance="10"
     inkscape:pageopacity="0"
     inkscape:pageshadow="2"
     inkscape:window-width="1024"
     inkscape:window-height="715"
     id="namedview29"
     showgrid="false"
     inkscape:zoom="0.57848045"
     inkscape:cx="5.8128156"
     inkscape:cy="123.08165"
     inkscape:window-x="-8"
     inkscape:window-y="-8"
     inkscape:window-maximized="1"
     inkscape:current-layer="a"
     fit-margin-top="0"
     fit-margin-left="0"
     fit-margin-right="0"
     fit-margin-bottom="0" />
  <g
     id="b"
     data-name="Page-1">
    <g
       id="c"
       data-name="Custom-Preset">
      <g
         id="d"
         data-name="logo">
        <path
           id="e"
           data-name="Triangle"
           d="m 39.76,10.79 114.16,200.57 c 5.87,10.31 2.36,23.47 -7.84,29.4 -3.25,1.89 -6.94,2.88 -10.7,2.87 L 39.8,243.3 C 17.8,243.22 0,225.17 0,202.92 V 21.53 C 0,9.64 9.54,0 21.3,0 28.92,0 35.96,4.12 39.76,10.79 Z"
           style="fill:#404959" />
        <path
           id="f"
           data-name="Triangle-Copy-2"
           d="M 118.19,233.84 71.06,155.3 c -6.11,-10.18 -2.81,-23.38 7.37,-29.49 3.35,-2.01 7.19,-3.07 11.09,-3.06 l 94.33,0.15 c 11.13,0.02 20.14,9.05 20.12,20.18 0,3.65 -1,7.22 -2.88,10.35 l -48.35,80.42 c -5.73,9.54 -18.11,12.62 -27.65,6.89 -2.83,-1.7 -5.2,-4.07 -6.9,-6.9 z"
           style="fill:#15ca82" />
        <path
           id="g"
           data-name="Path"
           d="m 89.52,122.76 13.98,0.02 50.41,88.58 c 3.2,5.62 3.61,12.09 1.67,17.77 l -2.85,4.74 c -3.5,5.82 -9.47,9.23 -15.76,9.71 l -0.61,0.04 h -0.38 l -0.38,0.02 c -3.59,0.03 -7.23,-0.9 -10.53,-2.88 -2.83,-1.7 -5.2,-4.07 -6.9,-6.9 L 71.04,155.32 c -6.11,-10.18 -2.81,-23.38 7.37,-29.49 3.35,-2.01 7.19,-3.07 11.09,-3.06 z"
           style="opacity:0.44;isolation:isolate;fill:#404959" />
      </g>
    </g>
  </g>
</svg>
