<svg xmlns="http://www.w3.org/2000/svg" width="628.585" height="90.104" viewBox="0 0 166.313 23.84"><g style="font-size:17.6224px;line-height:1.25;stroke-width:.440562;fill:#fff"><path d="m168.422 21.76.013-3.65h.425l2.704-3.441h3.467l-4.018 4.931h-.807zm-2.76 2.521V11.465h3.06V24.28zm5.97 0-2.515-3.993 2.015-2.171 4.036 6.164zm-12.002.181q-1.521 0-2.61-.625-1.082-.626-1.664-1.74-.582-1.12-.582-2.59 0-1.478.582-2.592.588-1.12 1.67-1.746 1.09-.625 2.597-.625 1.333 0 2.322.482.995.481 1.552 1.364.563.876.595 2.059h-2.86q-.088-.739-.5-1.158-.408-.42-1.065-.42-.532 0-.932.301-.4.294-.626.876-.219.576-.219 1.427 0 .851.219 1.44.225.581.626.882.4.294.932.294.426 0 .751-.182.332-.181.545-.532.212-.356.269-.863h2.86q-.044 1.189-.595 2.077-.544.889-1.533 1.383-.983.488-2.334.488zm-12.097-.018q-.92 0-1.633-.307-.707-.313-1.12-.939-.407-.632-.407-1.583 0-.8.281-1.352.282-.55.776-.894.495-.345 1.14-.52.644-.181 1.376-.244.82-.075 1.32-.156.501-.088.727-.244.231-.163.231-.457v-.032q0-.481-.332-.744-.331-.263-.895-.263-.607 0-.976.263t-.47.726l-2.821-.1q.125-.877.644-1.565.526-.695 1.44-1.089.92-.4 2.209-.4.92 0 1.695.219.776.212 1.352.625.576.407.889 1.002.319.594.319 1.358v6.533h-2.879v-1.34h-.075q-.256.489-.657.827-.394.338-.932.507-.532.169-1.202.169zm.945-2.003q.494 0 .889-.2.4-.2.638-.55.238-.357.238-.827v-.913q-.132.068-.32.125-.18.056-.4.106-.219.05-.45.088-.232.037-.445.069-.432.068-.738.212-.3.144-.463.376-.157.225-.157.538 0 .476.338.726.344.25.87.25zm-14.931 1.84V11.465h3.06v4.85h.062q.188-.438.532-.845.35-.407.889-.664.544-.262 1.302-.262 1 0 1.87.525.877.526 1.415 1.621t.538 2.791q0 1.633-.52 2.735-.512 1.101-1.388 1.652-.87.55-1.934.55-.726 0-1.258-.237-.532-.238-.895-.626-.357-.388-.55-.832h-.095v1.558zm2.997-4.806q0 .776.207 1.352.212.575.607.895.4.312.957.312.563 0 .958-.312.394-.32.594-.895.207-.576.207-1.352 0-.776-.207-1.346-.2-.569-.594-.882-.388-.313-.958-.313-.563 0-.957.307-.395.306-.607.876-.207.57-.207 1.358zm-10.763 4.944q-1.064 0-1.934-.551-.87-.55-1.39-1.652-.519-1.102-.519-2.735 0-1.696.538-2.79.539-1.096 1.408-1.622.876-.525 1.884-.525.757 0 1.295.262.539.257.889.664.35.407.532.845h.063v-4.85h3.06V24.28h-3.03v-1.558h-.093q-.194.444-.55.832-.357.388-.896.626-.532.238-1.257.238zm1.063-2.385q.557 0 .952-.312.394-.32.607-.895.212-.576.212-1.352 0-.789-.212-1.358-.207-.57-.607-.876-.395-.307-.952-.307-.57 0-.963.313-.395.313-.601.882-.2.57-.2 1.346 0 .776.206 1.352.207.575.595.895.394.312.963.312zm-10.707 2.429q-1.508 0-2.603-.595-1.09-.6-1.677-1.708-.582-1.114-.582-2.648 0-1.489.588-2.603.588-1.12 1.658-1.74 1.07-.625 2.522-.625 1.026 0 1.878.319.85.319 1.47.945.62.626.964 1.545.344.914.344 2.097v.763h-8.354v-1.777h5.507q-.006-.488-.232-.87-.225-.381-.62-.594-.387-.22-.894-.22-.513 0-.92.232-.407.226-.645.62-.238.388-.25.882v1.809q0 .588.231 1.032.232.438.658.682.425.244 1.013.244.407 0 .739-.112.331-.113.57-.332.237-.219.356-.538l2.81.081q-.175.945-.77 1.646-.588.695-1.546 1.083-.957.381-2.215.381zm-10.626 0q-1.508 0-2.603-.595-1.09-.6-1.677-1.708-.582-1.114-.582-2.648 0-1.489.588-2.603.588-1.12 1.658-1.74 1.07-.625 2.522-.625 1.026 0 1.878.319.85.319 1.47.945.62.626.964 1.545.344.914.344 2.097v.763h-8.354v-1.777h5.507q-.006-.488-.232-.87-.225-.381-.62-.594-.387-.22-.894-.22-.513 0-.92.232-.407.226-.645.62-.238.388-.25.882v1.809q0 .588.232 1.032.231.438.657.682.425.244 1.013.244.407 0 .739-.112.331-.113.57-.332.237-.219.356-.538l2.81.081q-.175.945-.77 1.646-.588.695-1.546 1.083-.957.381-2.215.381zm-14.093-.182V11.465h8.749v2.515h-5.651v2.629h5.094v2.522h-5.094v5.15zm-7.766.138q-1.064 0-1.934-.551-.87-.55-1.389-1.652-.52-1.102-.52-2.735 0-1.696.539-2.79.538-1.096 1.408-1.622.876-.525 1.884-.525.757 0 1.295.262.538.257.889.664.35.407.532.845h.062v-4.85h3.06V24.28H86.45v-1.558h-.093q-.194.444-.551.832-.357.388-.895.626-.532.238-1.258.238zm1.064-2.385q.557 0 .951-.312.394-.32.607-.895.213-.576.213-1.352 0-.789-.213-1.358-.206-.57-.607-.876-.394-.307-.951-.307-.57 0-.964.313t-.6.882q-.2.57-.2 1.346 0 .776.206 1.352.206.575.594.895.394.312.964.312zm-9.575 2.247v-9.612h3.06v9.612zm1.533-10.732q-.644 0-1.107-.426-.463-.432-.463-1.039 0-.6.463-1.026.463-.432 1.107-.432.651 0 1.108.432.463.425.463 1.026 0 .607-.463 1.04-.457.425-1.108.425zm-6.533 6.583v-5.463h3.054v9.612H70.28v-1.79h-.1q-.32.883-1.09 1.402-.763.513-1.845.513-.983 0-1.727-.45-.745-.451-1.158-1.258-.413-.814-.42-1.903V14.67H67v5.526q.007.782.414 1.232.406.451 1.107.451.457 0 .82-.2.37-.207.582-.595.22-.394.22-.951zM58.94 27.886v-5.163h-.062q-.194.444-.55.832-.358.388-.896.626-.532.238-1.258.238-1.063 0-1.933-.551-.87-.55-1.39-1.652-.519-1.102-.519-2.735 0-1.696.538-2.79.538-1.096 1.408-1.622.876-.525 1.884-.525.757 0 1.295.262.539.257.889.664.35.407.532.845h.094v-1.646H62v13.217zm-1.702-5.852q.557 0 .952-.312.394-.32.607-.895.212-.576.212-1.352 0-.789-.212-1.358-.207-.57-.607-.876-.395-.307-.952-.307-.57 0-.963.313-.395.313-.601.882-.2.57-.2 1.346 0 .776.206 1.352.207.575.595.895.394.312.963.312zm-9.574 2.247v-9.612h3.06v9.612zm1.533-10.732q-.645 0-1.108-.426-.463-.432-.463-1.039 0-.6.463-1.026.463-.432 1.108-.432.65 0 1.107.432.464.425.464 1.026 0 .607-.464 1.04-.456.425-1.107.425zM37.63 24.28V11.465h3.098v10.3h5.332v2.516zm-23.26-8.308h4.496v-4.52h3.792v4.52h4.52v3.804h-4.52v4.497h-3.792v-4.497H14.37Zm6.404-10.03a11.92 11.92 0 0 0-11.92 11.92 11.92 11.92 0 0 0 11.92 11.92 11.92 11.92 0 0 0 11.92-11.92 11.92 11.92 0 0 0-11.92-11.92Zm0 3.435a8.485 8.485 0 0 1 8.485 8.485 8.485 8.485 0 0 1-8.485 8.485 8.485 8.485 0 0 1-8.485-8.485 8.485 8.485 0 0 1 8.485-8.485z" aria-label="LiquidFeedback" style="font-weight:800;font-family:inter;-inkscape-font-specification:&quot;inter Ultra-Bold&quot;;fill:#4caf50;fill-opacity:1" transform="translate(-8.855 -5.943)"/></g></svg>