<svg xmlns="http://www.w3.org/2000/svg" xml:space="preserve" width="315.321" height="422.44"><defs><clipPath id="a" clipPathUnits="userSpaceOnUse"><path d="M0 1728h1716.5V0H0Z"/></clipPath></defs><g style="display:inline"><path d="M.457.457h315.127v422.152H.457z" style="font-variation-settings:normal;opacity:1;vector-effect:none;fill:#0068b0;fill-opacity:1;fill-rule:evenodd;stroke-width:.96322;stroke-linecap:butt;stroke-linejoin:miter;stroke-miterlimit:4;stroke-dasharray:none;stroke-dashoffset:0;stroke-opacity:1;stop-color:#000;stop-opacity:1"/></g><g clip-path="url(#a)" style="fill:#fff;fill-opacity:1" transform="matrix(1.33333 0 0 -1.33333 -1025.454 1935.042)"><g style="fill:#fff;fill-opacity:1"><path d="M0 0h22.736c12.537 0 22.736 10.199 22.736 22.736S35.273 45.472 22.736 45.472 0 35.273 0 22.736Zm-103.334-32.474c-12.537 0-22.736-10.2-22.736-22.737 0-12.536 10.199-22.736 22.736-22.736s22.736 10.2 22.736 22.736v22.737zM8.121-162.023c-22.384 0-40.596 18.211-40.596 40.596v88.953h-15.648v-22.737c0-30.443-24.768-55.21-55.211-55.21-30.443 0-55.21 24.767-55.21 55.21 0 30.444 24.767 55.211 55.21 55.211h22.736v114.211c0 22.384 18.211 40.596 40.596 40.596 22.384 0 40.595-18.212 40.595-40.596v-9.361c0-8.968-7.269-16.237-16.237-16.237-8.967 0-16.237 7.269-16.237 16.237v9.361c0 4.478-3.643 8.121-8.121 8.121-4.478 0-8.121-3.643-8.121-8.121V0h15.648v22.736c0 30.443 24.768 55.211 55.211 55.211 30.443 0 55.211-24.768 55.211-55.211 0-30.443-24.768-55.21-55.211-55.21H0v-88.953c0-4.478 3.643-8.122 8.121-8.122 4.478 0 8.121 3.644 8.121 8.122v9.202c0 8.967 7.27 16.237 16.237 16.237 8.968 0 16.238-7.27 16.238-16.237v-9.202c0-22.385-18.211-40.596-40.596-40.596" style="fill:#fff;fill-opacity:1;fill-rule:nonzero;stroke:none" transform="translate(927.635 1296.475)"/></g></g></svg>