<svg xmlns="http://www.w3.org/2000/svg" xml:space="preserve" width="315.321" height="422.44"><defs><clipPath id="a" clipPathUnits="userSpaceOnUse"><path d="M0 1728h1716.5V0H0Z"/></clipPath><clipPath id="b" clipPathUnits="userSpaceOnUse"><path d="M0 1728h1716.5V0H0Z"/></clipPath></defs><g clip-path="url(#a)" style="fill:#0068b0;fill-opacity:1" transform="matrix(1.33333 0 0 -1.33333 -1025.454 1935.042)"><g style="fill:#0068b0;fill-opacity:1"><path d="M0 0h22.736c12.537 0 22.736 10.199 22.736 22.736S35.273 45.472 22.736 45.472 0 35.273 0 22.736Zm-103.334-32.474c-12.537 0-22.736-10.2-22.736-22.737 0-12.536 10.199-22.736 22.736-22.736s22.736 10.2 22.736 22.736v22.737zM8.121-162.023c-22.384 0-40.596 18.211-40.596 40.596v88.953h-15.648v-22.737c0-30.443-24.768-55.21-55.211-55.21-30.443 0-55.21 24.767-55.21 55.21 0 30.444 24.767 55.211 55.21 55.211h22.736v114.211c0 22.384 18.211 40.596 40.596 40.596 22.384 0 40.595-18.212 40.595-40.596v-9.361c0-8.968-7.269-16.237-16.237-16.237-8.967 0-16.237 7.269-16.237 16.237v9.361c0 4.478-3.643 8.121-8.121 8.121-4.478 0-8.121-3.643-8.121-8.121V0h15.648v22.736c0 30.443 24.768 55.211 55.211 55.211 30.443 0 55.211-24.768 55.211-55.211 0-30.443-24.768-55.21-55.211-55.21H0v-88.953c0-4.478 3.643-8.122 8.121-8.122 4.478 0 8.121 3.644 8.121 8.122v9.202c0 8.967 7.27 16.237 16.237 16.237 8.968 0 16.238-7.27 16.238-16.237v-9.202c0-22.385-18.211-40.596-40.596-40.596" style="fill:#0068b0;fill-opacity:1;fill-rule:nonzero;stroke:none" transform="translate(927.635 1296.475)"/></g></g><text style="font-variant:normal;font-weight:700;font-stretch:normal;font-size:174.806px;font-family:Dosis;-inkscape-font-specification:Dosis-Bold;writing-mode:lr-tb;fill:#0068b0;fill-opacity:1;fill-rule:nonzero;stroke:none" transform="matrix(1.33333 0 0 1.33333 -371.99 686.085)"><tspan x="0 43.177059 130.23039 206.09616 288.42975 331.60678 392.26443 483.86273 575.28619 666.70972 751.31573" y="0">localtunnel</tspan></text><g clip-path="url(#b)" style="fill:#0068b0;fill-opacity:1" transform="matrix(1.33333 0 0 -1.33333 -1025.454 1935.042)"><g style="fill:#0068b0;fill-opacity:1"><path d="M0 0h13.855c7.64 0 13.856 6.216 13.856 13.855 0 7.64-6.216 13.856-13.856 13.856C6.216 27.711 0 21.495 0 13.855Zm-62.972-19.79c-7.64 0-13.856-6.216-13.856-13.856s6.216-13.855 13.856-13.855 13.855 6.215 13.855 13.855v13.856ZM4.949-98.738c-13.641 0-24.739 11.098-24.739 24.739v54.209h-9.537v-13.856c0-18.552-15.093-33.645-33.645-33.645-18.553 0-33.646 15.093-33.646 33.645C-96.618-15.093-81.525 0-62.972 0h13.855v69.601c0 13.641 11.098 24.739 24.739 24.739 13.642 0 24.74-11.098 24.74-24.739v-5.705c0-5.465-4.431-9.895-9.895-9.895-5.465 0-9.896 4.43-9.896 9.895v5.705a4.954 4.954 0 0 1-4.949 4.949 4.954 4.954 0 0 1-4.949-4.949V0h9.537v13.855c0 18.553 15.093 33.646 33.645 33.646 18.553 0 33.646-15.093 33.646-33.646 0-18.552-15.093-33.645-33.646-33.645H0v-54.209a4.954 4.954 0 0 1 4.949-4.949 4.954 4.954 0 0 1 4.949 4.949v5.608c0 5.465 4.43 9.895 9.895 9.895s9.895-4.43 9.895-9.895v-5.608c0-13.641-11.098-24.739-24.739-24.739" style="fill:#0068b0;fill-opacity:1;fill-rule:nonzero;stroke:none" transform="translate(412.983 481.371)"/></g></g><text style="font-variant:normal;font-weight:700;font-stretch:normal;font-size:174.806px;font-family:Dosis;-inkscape-font-specification:Dosis-Bold;writing-mode:lr-tb;fill:#0068b0;fill-opacity:1;fill-rule:nonzero;stroke:none" transform="matrix(1.33333 0 0 1.33333 -327.73 1389.944)"><tspan x="0 43.177059 130.23039 206.09616 288.42975 331.60678 392.26443 483.86273 575.28619 666.70972 751.31573" y="0">localtunnel</tspan></text></svg>