<svg xmlns="http://www.w3.org/2000/svg" xmlns:xlink="http://www.w3.org/1999/xlink" xml:space="preserve" id="katman_1" width="637.973" height="131.63" x="0" y="0" version="1.0"><style id="style2" type="text/css">.st8{fill:#1d1d1b}</style><g id="Group_7" transform="translate(-98.578 -201.34)"><g id="g33"><g id="g31"><defs id="defs5"><path id="SVGID_1_" d="M235.87 330.73h-24.49c-1.87 0-3.38-1.52-3.38-3.38v-90.42c0-1.87 1.52-3.38 3.38-3.38h24.49c1.87 0 3.38 1.51 3.38 3.38v90.42c0 1.86-1.51 3.38-3.38 3.38zm-109.01-1.17 40.6-80.79c.84-1.67.17-3.7-1.5-4.54l-21.88-11c-1.67-.84-3.7-.17-4.54 1.5l-40.6 80.79c-.84 1.67-.17 3.7 1.5 4.54l21.88 11c1.67.83 3.7.16 4.54-1.5zm60.09-.32 17.37-88.06c.36-1.83-.82-3.6-2.65-3.97l-24.01-4.85c-1.83-.37-3.62.82-3.99 2.65v.01l-17.37 88.06c-.36 1.83.82 3.6 2.65 3.97l24.01 4.85c1.83.37 3.62-.82 3.99-2.65v-.01z"/></defs><clipPath id="SVGID_2_"><use xlink:href="#SVGID_1_" id="use7" width="100%" height="100%" x="0" y="0" style="overflow:visible"/></clipPath><g id="Group_6_9_" clip-path="url(#SVGID_2_)" style="clip-path:url(#SVGID_2_)"><g id="Group_5_9_"><g id="Group_4_9_"><g id="g26"><defs id="defs11"><path id="SVGID_3_" d="M90.01 223.75h157.78v116.77H90.01z"/></defs><clipPath id="SVGID_4_"><use xlink:href="#SVGID_3_" id="use13" width="100%" height="100%" x="0" y="0" style="overflow:visible"/></clipPath><g id="Group_3_9_" clip-path="url(#SVGID_4_)" style="clip-path:url(#SVGID_4_)"><g id="Group_2_9_"><g id="g22"><defs id="defs17"><path id="SVGID_5_" d="M90.01 223.75h157.78v116.77H90.01z"/></defs><clipPath id="SVGID_6_"><use xlink:href="#SVGID_5_" id="use19" width="100%" height="100%" x="0" y="0" style="overflow:visible"/></clipPath></g></g></g></g></g></g></g></g></g><g id="g72"><g id="g70"><defs id="defs36"><path id="SVGID_7_" d="M235.87 330.73h-24.49c-1.87 0-3.38-1.52-3.38-3.38v-90.42c0-1.87 1.52-3.38 3.38-3.38h24.49c1.87 0 3.38 1.51 3.38 3.38v90.42c0 1.86-1.51 3.38-3.38 3.38zm-109.01-1.17 40.6-80.79c.84-1.67.17-3.7-1.5-4.54l-21.88-11c-1.67-.84-3.7-.17-4.54 1.5l-40.6 80.79c-.84 1.67-.17 3.7 1.5 4.54l21.88 11c1.67.83 3.7.16 4.54-1.5zm60.09-.32 17.37-88.06c.36-1.83-.82-3.6-2.65-3.97l-24.01-4.85c-1.83-.37-3.62.82-3.99 2.65v.01l-17.37 88.06c-.36 1.83.82 3.6 2.65 3.97l24.01 4.85c1.83.37 3.62-.82 3.99-2.65v-.01z"/></defs><use xlink:href="#SVGID_7_" id="use38" width="100%" height="100%" x="0" y="0" style="overflow:visible;fill:#6c00cb"/><clipPath id="SVGID_8_"><use xlink:href="#SVGID_7_" id="use40" width="100%" height="100%" x="0" y="0" style="overflow:visible"/></clipPath><g id="Group_6_8_" clip-path="url(#SVGID_8_)" style="clip-path:url(#SVGID_8_)"><g id="Group_5_8_"><g id="Group_4_8_"><g id="g65"><defs id="defs44"><path id="SVGID_9_" d="M90.01 223.75h157.78v116.77H90.01z"/></defs><use xlink:href="#SVGID_9_" id="use46" width="100%" height="100%" x="0" y="0" style="overflow:visible;fill:#6c00cb"/><clipPath id="SVGID_10_"><use xlink:href="#SVGID_9_" id="use48" width="100%" height="100%" x="0" y="0" style="overflow:visible"/></clipPath><g id="Group_3_8_" clip-path="url(#SVGID_10_)" style="clip-path:url(#SVGID_10_)"><g id="Group_2_8_"><g id="g61"><defs id="defs52"><path id="SVGID_11_" d="M90.01 223.75h157.78v116.77H90.01z"/></defs><use xlink:href="#SVGID_11_" id="use54" width="100%" height="100%" x="0" y="0" style="overflow:visible;fill:#6c00cb"/><clipPath id="SVGID_12_"><use xlink:href="#SVGID_11_" id="use56" width="100%" height="100%" x="0" y="0" style="overflow:visible"/></clipPath><g id="Group_1_8_" clip-path="url(#SVGID_12_)" style="clip-path:url(#SVGID_12_)"><path id="Rectangle_1_8_" d="M89.53 222.95h158.32v118.13H89.53z" style="fill:#6c00cb"/></g></g></g></g></g></g></g></g></g></g><g id="g103"><g id="g101"><defs id="defs75"><path id="SVGID_13_" d="M235.87 330.73h-24.49c-1.87 0-3.38-1.52-3.38-3.38v-90.42c0-1.87 1.52-3.38 3.38-3.38h24.49c1.87 0 3.38 1.51 3.38 3.38v90.42c0 1.86-1.51 3.38-3.38 3.38zm-109.01-1.17 40.6-80.79c.84-1.67.17-3.7-1.5-4.54l-21.88-11c-1.67-.84-3.7-.17-4.54 1.5l-40.6 80.79c-.84 1.67-.17 3.7 1.5 4.54l21.88 11c1.67.83 3.7.16 4.54-1.5zm60.09-.32 17.37-88.06c.36-1.83-.82-3.6-2.65-3.97l-24.01-4.85c-1.83-.37-3.62.82-3.99 2.65v.01l-17.37 88.06c-.36 1.83.82 3.6 2.65 3.97l24.01 4.85c1.83.37 3.62-.82 3.99-2.65v-.01z"/></defs><clipPath id="SVGID_14_"><use xlink:href="#SVGID_13_" id="use77" width="100%" height="100%" x="0" y="0" style="overflow:visible"/></clipPath><g id="Group_6_7_" clip-path="url(#SVGID_14_)" style="clip-path:url(#SVGID_14_)"><g id="Group_5_7_"><g id="Group_4_7_"><g id="g96"><defs id="defs81"><path id="SVGID_15_" d="M90.01 223.75h157.78v116.77H90.01z"/></defs><clipPath id="SVGID_16_"><use xlink:href="#SVGID_15_" id="use83" width="100%" height="100%" x="0" y="0" style="overflow:visible"/></clipPath><g id="Group_3_7_" clip-path="url(#SVGID_16_)" style="clip-path:url(#SVGID_16_)"><g id="Group_2_7_"><g id="g92"><defs id="defs87"><path id="SVGID_17_" d="M90.01 223.75h157.78v116.77H90.01z"/></defs><clipPath id="SVGID_18_"><use xlink:href="#SVGID_17_" id="use89" width="100%" height="100%" x="0" y="0" style="overflow:visible"/></clipPath></g></g></g></g></g></g></g></g></g></g><path id="Path_2" d="M218.512 68.64v57.46c0 1.87-1.51 3.38-3.38 3.38h-24.83c-1.87 0-3.38-1.52-3.38-3.38V35.36c0-1.87 1.52-3.38 3.38-3.38h24.83c1.87 0 3.38 1.51 3.38 3.38v7.15c6.24-7.8 15.02-12.68 27.3-12.68 11.51 0 21.45 4.68 27.5 13.46 7.41-8.78 17.94-13.46 30.81-13.46 21.84 0 36.86 12.87 36.86 37.44v58.82c0 1.87-1.51 3.38-3.38 3.38h-24.83c-1.87 0-3.38-1.51-3.38-3.38v-52.2c0-10.73-6.05-15.99-14.24-15.99-6.83 0-12.29 4.29-15.41 10.73v57.46c0 1.87-1.51 3.38-3.38 3.38h-24.82c-1.87 0-3.38-1.52-3.38-3.38v-52.2c0-10.73-6.04-15.99-14.24-15.99-7.02.02-12.28 4.31-15.41 10.74z" class="st8"/><path id="Path_3" d="M382.502 131.44c-18.33 0-33.74-12.09-33.74-30.81 0-17.16 11.31-25.16 32.37-30.62l26.91-7.02c-.78-6.43-5.85-9.56-14.04-9.56-7.26 0-12.48 2.78-14.88 8.33a3.438 3.438 0 0 1-3.93 2.07l-21.33-5.07a3.385 3.385 0 0 1-2.52-4.09c.03-.13.07-.25.11-.37 6.13-16.57 23.14-25.25 43.72-25.25 27.69 0 43.68 13.07 43.68 36.08v60.97c0 1.87-1.51 3.38-3.38 3.38h-23.54a3.38 3.38 0 0 1-3.38-3.31l-.12-5.08-.19.19c-7.99 6.84-15.79 10.16-25.74 10.16zm7.99-24.38c4.1 0 7.21-1.17 11.89-3.9l5.46-3.31.19-15.8-14.04 3.9c-9.56 2.73-13.84 5.07-13.84 10.53.01 6.05 5.27 8.58 10.34 8.58z" class="st8"/><path id="Path_4" d="m489.302 83.47-9.56 8.78v33.86c0 1.87-1.51 3.38-3.38 3.38h-24.24c-1.87 0-3.38-1.51-3.38-3.38V3.38c0-1.87 1.51-3.38 3.38-3.38h24.24c1.87 0 3.38 1.51 3.38 3.38V58.9l28.28-26.02c.62-.58 1.44-.89 2.29-.89h29.93c1.87 0 3.38 1.51 3.38 3.38 0 .95-.4 1.86-1.1 2.5l-29.04 26.49 33.12 60.12a3.385 3.385 0 0 1-2.96 5.02h-28.3c-1.26 0-2.42-.7-3-1.82z" class="st8"/><path id="Path_5" d="M592.172 131.63c-27.11 0-51.87-16.97-51.87-51.29 0-32.37 23.79-51.1 49.92-51.1 27.11 0 46.8 18.92 47.58 48.75.09 3.15.14 5.35.17 6.91a3.374 3.374 0 0 1-3.33 3.42H571.492c.98 11.7 10.34 19.11 22.23 19.11 7.96.18 15.51-3.5 20.26-9.88a3.359 3.359 0 0 1 4.54-.75l15.76 10.55a3.423 3.423 0 0 1 .91 4.75l-.01.01c-8.43 12.45-22.35 19.52-43.01 19.52zm-20.08-62.4h34.13c-.19-11.12-8.39-15.99-16.97-15.99-8 0-16.19 4.68-17.16 15.99z" class="st8"/></svg>