<svg xmlns="http://www.w3.org/2000/svg" xmlns:xlink="http://www.w3.org/1999/xlink" xml:space="preserve" id="katman_1" width="140.672" height="99.675" x="0" y="0" version="1.0"><style id="style2" type="text/css">.st8{fill:#1d1d1b}</style><g id="Group_7" transform="translate(-98.578 -232.293)"><g id="g33"><g id="g31"><defs id="defs5"><path id="SVGID_1_" d="M235.87 330.73h-24.49c-1.87 0-3.38-1.52-3.38-3.38v-90.42c0-1.87 1.52-3.38 3.38-3.38h24.49c1.87 0 3.38 1.51 3.38 3.38v90.42c0 1.86-1.51 3.38-3.38 3.38zm-109.01-1.17 40.6-80.79c.84-1.67.17-3.7-1.5-4.54l-21.88-11c-1.67-.84-3.7-.17-4.54 1.5l-40.6 80.79c-.84 1.67-.17 3.7 1.5 4.54l21.88 11c1.67.83 3.7.16 4.54-1.5zm60.09-.32 17.37-88.06c.36-1.83-.82-3.6-2.65-3.97l-24.01-4.85c-1.83-.37-3.62.82-3.99 2.65v.01l-17.37 88.06c-.36 1.83.82 3.6 2.65 3.97l24.01 4.85c1.83.37 3.62-.82 3.99-2.65v-.01z"/></defs><clipPath id="SVGID_2_"><use xlink:href="#SVGID_1_" id="use7" width="100%" height="100%" x="0" y="0" style="overflow:visible"/></clipPath><g id="Group_6_9_" clip-path="url(#SVGID_2_)" style="clip-path:url(#SVGID_2_)"><g id="Group_5_9_"><g id="Group_4_9_"><g id="g26"><defs id="defs11"><path id="SVGID_3_" d="M90.01 223.75h157.78v116.77H90.01z"/></defs><clipPath id="SVGID_4_"><use xlink:href="#SVGID_3_" id="use13" width="100%" height="100%" x="0" y="0" style="overflow:visible"/></clipPath><g id="Group_3_9_" clip-path="url(#SVGID_4_)" style="clip-path:url(#SVGID_4_)"><g id="Group_2_9_"><g id="g22"><defs id="defs17"><path id="SVGID_5_" d="M90.01 223.75h157.78v116.77H90.01z"/></defs><clipPath id="SVGID_6_"><use xlink:href="#SVGID_5_" id="use19" width="100%" height="100%" x="0" y="0" style="overflow:visible"/></clipPath></g></g></g></g></g></g></g></g></g><g id="g72"><g id="g70"><defs id="defs36"><path id="SVGID_7_" d="M235.87 330.73h-24.49c-1.87 0-3.38-1.52-3.38-3.38v-90.42c0-1.87 1.52-3.38 3.38-3.38h24.49c1.87 0 3.38 1.51 3.38 3.38v90.42c0 1.86-1.51 3.38-3.38 3.38zm-109.01-1.17 40.6-80.79c.84-1.67.17-3.7-1.5-4.54l-21.88-11c-1.67-.84-3.7-.17-4.54 1.5l-40.6 80.79c-.84 1.67-.17 3.7 1.5 4.54l21.88 11c1.67.83 3.7.16 4.54-1.5zm60.09-.32 17.37-88.06c.36-1.83-.82-3.6-2.65-3.97l-24.01-4.85c-1.83-.37-3.62.82-3.99 2.65v.01l-17.37 88.06c-.36 1.83.82 3.6 2.65 3.97l24.01 4.85c1.83.37 3.62-.82 3.99-2.65v-.01z"/></defs><use xlink:href="#SVGID_7_" id="use38" width="100%" height="100%" x="0" y="0" style="overflow:visible;fill:#6c00cb"/><clipPath id="SVGID_8_"><use xlink:href="#SVGID_7_" id="use40" width="100%" height="100%" x="0" y="0" style="overflow:visible"/></clipPath><g id="Group_6_8_" clip-path="url(#SVGID_8_)" style="clip-path:url(#SVGID_8_)"><g id="Group_5_8_"><g id="Group_4_8_"><g id="g65"><defs id="defs44"><path id="SVGID_9_" d="M90.01 223.75h157.78v116.77H90.01z"/></defs><use xlink:href="#SVGID_9_" id="use46" width="100%" height="100%" x="0" y="0" style="overflow:visible;fill:#6c00cb"/><clipPath id="SVGID_10_"><use xlink:href="#SVGID_9_" id="use48" width="100%" height="100%" x="0" y="0" style="overflow:visible"/></clipPath><g id="Group_3_8_" clip-path="url(#SVGID_10_)" style="clip-path:url(#SVGID_10_)"><g id="Group_2_8_"><g id="g61"><defs id="defs52"><path id="SVGID_11_" d="M90.01 223.75h157.78v116.77H90.01z"/></defs><use xlink:href="#SVGID_11_" id="use54" width="100%" height="100%" x="0" y="0" style="overflow:visible;fill:#6c00cb"/><clipPath id="SVGID_12_"><use xlink:href="#SVGID_11_" id="use56" width="100%" height="100%" x="0" y="0" style="overflow:visible"/></clipPath><g id="Group_1_8_" clip-path="url(#SVGID_12_)" style="clip-path:url(#SVGID_12_)"><path id="Rectangle_1_8_" d="M89.53 222.95h158.32v118.13H89.53z" style="fill:#6c00cb"/></g></g></g></g></g></g></g></g></g></g><g id="g103"><g id="g101"><defs id="defs75"><path id="SVGID_13_" d="M235.87 330.73h-24.49c-1.87 0-3.38-1.52-3.38-3.38v-90.42c0-1.87 1.52-3.38 3.38-3.38h24.49c1.87 0 3.38 1.51 3.38 3.38v90.42c0 1.86-1.51 3.38-3.38 3.38zm-109.01-1.17 40.6-80.79c.84-1.67.17-3.7-1.5-4.54l-21.88-11c-1.67-.84-3.7-.17-4.54 1.5l-40.6 80.79c-.84 1.67-.17 3.7 1.5 4.54l21.88 11c1.67.83 3.7.16 4.54-1.5zm60.09-.32 17.37-88.06c.36-1.83-.82-3.6-2.65-3.97l-24.01-4.85c-1.83-.37-3.62.82-3.99 2.65v.01l-17.37 88.06c-.36 1.83.82 3.6 2.65 3.97l24.01 4.85c1.83.37 3.62-.82 3.99-2.65v-.01z"/></defs><clipPath id="SVGID_14_"><use xlink:href="#SVGID_13_" id="use77" width="100%" height="100%" x="0" y="0" style="overflow:visible"/></clipPath><g id="Group_6_7_" clip-path="url(#SVGID_14_)" style="clip-path:url(#SVGID_14_)"><g id="Group_5_7_"><g id="Group_4_7_"><g id="g96"><defs id="defs81"><path id="SVGID_15_" d="M90.01 223.75h157.78v116.77H90.01z"/></defs><clipPath id="SVGID_16_"><use xlink:href="#SVGID_15_" id="use83" width="100%" height="100%" x="0" y="0" style="overflow:visible"/></clipPath><g id="Group_3_7_" clip-path="url(#SVGID_16_)" style="clip-path:url(#SVGID_16_)"><g id="Group_2_7_"><g id="g92"><defs id="defs87"><path id="SVGID_17_" d="M90.01 223.75h157.78v116.77H90.01z"/></defs><clipPath id="SVGID_18_"><use xlink:href="#SVGID_17_" id="use89" width="100%" height="100%" x="0" y="0" style="overflow:visible"/></clipPath></g></g></g></g></g></g></g></g></g></g></svg>