<svg xmlns="http://www.w3.org/2000/svg" width="229" height="31"><g fill="none"><path fill="#FFF" d="M15.575 0c.796 0 1.532.42 1.93 1.105l3.758 9.244v10.444L15.574 6.19 4.868 24.581H0c.038-.091.081-.18.132-.268L13.645 1.105A2.23 2.23 0 0 1 15.575 0z" style="fill:#35495e;fill-opacity:1"/><path fill="#00DC82" d="M25.243 4.71c.797 0 1.533.42 1.93 1.104l10.853 18.634c.05.087.095.176.133.268h-4.872L25.244 10.9l-3.981 9.888v-10.43l2.052-4.544a2.232 2.232 0 0 1 1.929-1.105z"/><path fill="#FFF" d="M43.883 24.532V6.292h4.06l4.298 10.215a28.354 28.354 0 0 1 1.362 4.143 33.336 33.336 0 0 1 1.362-4.143l4.3-10.214h4.058v18.24h-3.284V15.96c0-1.442.053-2.901.16-4.378A62.477 62.477 0 0 1 58.65 15.7l-3.712 8.833h-2.67l-3.738-8.859a68.688 68.688 0 0 1-1.522-4.09 61.1 61.1 0 0 1 .16 4.377v8.572h-3.285zm28.18-13.341c1.14 0 2.146.209 3.018.626.89.4 1.575.972 2.056 1.72.499.729.748 1.58.748 2.553v8.442h-3.232v-1.954c-.284.66-.792 1.19-1.522 1.59-.712.382-1.548.573-2.51.573-.872 0-1.655-.165-2.35-.495-.676-.348-1.201-.817-1.575-1.408a3.804 3.804 0 0 1-.56-2.032c0-1.268.462-2.276 1.388-3.022.925-.747 2.145-1.12 3.658-1.12h2.483c.32 0 .561-.08.722-.235.177-.157.266-.374.266-.652a1.91 1.91 0 0 0-.747-1.563c-.48-.417-1.149-.626-2.003-.626-.837 0-1.513.218-2.03.652-.498.434-.765.964-.8 1.59h-2.938c.054-.87.33-1.65.828-2.346.498-.712 1.184-1.268 2.056-1.667.89-.417 1.905-.626 3.044-.626zm-.667 11.178c1.014 0 1.807-.312 2.376-.938.588-.625.881-1.441.881-2.449v-.208h-3.017c-.694 0-1.255.173-1.682.52-.428.348-.641.809-.641 1.382 0 .504.187.912.56 1.224.392.313.9.47 1.523.47zm14.083 2.371c-1.638 0-2.964-.408-3.98-1.224-.996-.834-1.53-1.954-1.601-3.361h2.99c.072.625.339 1.12.801 1.485.463.365 1.06.547 1.79.547.623 0 1.13-.13 1.522-.39.41-.279.614-.617.614-1.017 0-.382-.125-.677-.374-.886-.231-.226-.534-.382-.908-.469a16.26 16.26 0 0 0-1.522-.339c-.961-.173-1.745-.364-2.35-.573-.605-.208-1.13-.582-1.575-1.12-.427-.539-.641-1.303-.641-2.293 0-.747.205-1.416.614-2.007.427-.608 1.006-1.077 1.736-1.407.747-.33 1.575-.495 2.483-.495 1.567 0 2.848.391 3.846 1.173.996.764 1.53 1.789 1.602 3.074h-2.991a1.97 1.97 0 0 0-.828-1.354 2.607 2.607 0 0 0-1.549-.496c-.587 0-1.059.13-1.415.391a1.163 1.163 0 0 0-.534 1.017c0 .52.214.877.64 1.068.446.174 1.14.321 2.084.443.997.139 1.807.312 2.43.52.623.192 1.165.574 1.628 1.147.463.556.695 1.381.695 2.476 0 1.233-.48 2.223-1.442 2.97-.944.747-2.199 1.12-3.765 1.12zm8.973-17.3h3.285v3.96h3.738v2.684h-3.738v5.732c0 .66.17 1.164.507 1.511.338.33.82.495 1.442.495h1.79v2.71h-2.164c-1.495 0-2.679-.4-3.551-1.198-.872-.817-1.309-1.946-1.309-3.388v-5.862H91.81V11.4h2.643V7.44zm21.324 12.715c-.249 1.39-.952 2.501-2.11 3.335-1.156.834-2.563 1.25-4.218 1.25-1.407 0-2.635-.32-3.685-.964a6.548 6.548 0 0 1-2.377-2.527 7.21 7.21 0 0 1-.801-3.335c0-1.199.25-2.302.747-3.31a5.957 5.957 0 0 1 2.244-2.475c.997-.625 2.198-.938 3.605-.938 1.424 0 2.625.304 3.605.912.997.59 1.735 1.373 2.216 2.345.48.956.721 1.98.721 3.075 0 .382-.018.747-.053 1.094h-9.934c.125 1.06.516 1.902 1.175 2.528.658.625 1.504.938 2.537.938.836 0 1.522-.165 2.056-.495.534-.33.89-.808 1.068-1.433h3.204zm-6.595-6.567c-1.905 0-3.027.973-3.365 2.919h6.622c-.07-.869-.4-1.572-.988-2.11-.57-.54-1.326-.809-2.27-.809zm15.002.496c-.997 0-1.736.382-2.217 1.146-.462.747-.694 1.78-.694 3.1v6.202h-3.285V11.4h3.285v2.319c.338-.834.774-1.425 1.309-1.772.551-.365 1.264-.547 2.136-.547h1.575v2.684h-2.11zm7.285 10.448h-3.284V11.4h3.284v13.132zm-3.39-15.19v-3.57h3.524v3.57h-3.525zm6.338 15.19V11.4h3.285v2.032a3.826 3.826 0 0 1 1.655-1.641c.73-.4 1.576-.6 2.537-.6 1.513 0 2.724.487 3.632 1.46.926.955 1.388 2.206 1.388 3.752v8.13h-3.284V17.08c0-.903-.258-1.633-.774-2.189-.517-.573-1.193-.86-2.03-.86-.926 0-1.682.313-2.27.938-.57.626-.854 1.425-.854 2.398v7.165h-3.285zM159.6 11.4h3.285v13.862c0 1.372-.462 2.475-1.389 3.309-.925.851-2.145 1.277-3.658 1.277h-6.65v-2.554h6.197c.658 0 1.192-.217 1.602-.651.427-.435.64-1 .64-1.694v-1.876c-.338.504-.863.912-1.575 1.225a6.006 6.006 0 0 1-2.323.443c-1.336 0-2.484-.278-3.445-.834a5.726 5.726 0 0 1-2.216-2.397c-.499-1.025-.748-2.207-.748-3.544 0-1.338.25-2.519.748-3.544.516-1.025 1.246-1.815 2.19-2.37.96-.574 2.1-.86 3.417-.86.837 0 1.603.156 2.297.468.694.296 1.237.704 1.629 1.225V11.4zm-3.417 10.579c1.103 0 1.984-.365 2.643-1.095.677-.73 1.015-1.702 1.015-2.918 0-1.216-.338-2.189-1.015-2.918-.659-.73-1.54-1.095-2.643-1.095-1.086 0-1.959.365-2.617 1.095-.66.73-.988 1.702-.988 2.918 0 1.216.329 2.189.988 2.918.658.73 1.53 1.095 2.617 1.095z" style="fill:#35495e;fill-opacity:1"/><path fill="#00DC82" d="M172.184 24.532V6.292h3.791l6.222 9.876a40.182 40.182 0 0 1 2.136 3.856 41.129 41.129 0 0 1-.24-4.377V6.293h3.525v18.24H183.8l-6.222-9.85a36.626 36.626 0 0 1-2.11-3.856 45.37 45.37 0 0 1 .214 4.377v9.328h-3.498zm31.16-13.132v13.132h-3.284V22.5a3.98 3.98 0 0 1-1.655 1.667c-.73.383-1.576.574-2.537.574-.997 0-1.878-.218-2.644-.652a4.63 4.63 0 0 1-1.736-1.85c-.41-.782-.614-1.685-.614-2.71V11.4h3.258v7.453c0 .903.258 1.641.774 2.215.534.555 1.21.833 2.03.833.926 0 1.673-.312 2.243-.938.587-.625.881-1.424.881-2.397V11.4h3.284zm10.046 6.28 4.86 6.852h-3.47l-3.152-4.377-3.15 4.377h-3.499l4.86-6.853-4.486-6.28h3.578l2.697 3.779 2.67-3.778h3.606zm8.242-10.24h3.284v3.96h3.738v2.684h-3.738v5.732c0 .66.17 1.164.507 1.511.339.33.82.495 1.442.495h1.79v2.71h-2.163c-1.496 0-2.68-.4-3.552-1.198-.873-.817-1.308-1.946-1.308-3.388v-5.862h-2.644V11.4h2.644V7.44z"/></g></svg>