<svg xmlns="http://www.w3.org/2000/svg" width="194" height="31" fill="none"><path fill="#62A50A" fill-rule="evenodd" d="M7.388 12.144c1.088 2.39 3.552 3.606 5.504 2.717 1.95-.889 2.65-3.546 1.563-5.935-1.088-2.39-5.684-8.288-7.636-7.4-1.951.89-.52 8.229.569 10.618Z" clip-rule="evenodd"/><path fill="#62A50A" fill-rule="evenodd" d="M15.832 12.144c-1.088 2.39-3.552 3.606-5.504 2.717-1.95-.889-2.65-3.546-1.563-5.935 1.088-2.39 5.685-8.288 7.636-7.4 1.951.89.52 8.229-.569 10.618Z" clip-rule="evenodd"/><path fill="#79C90F" fill-rule="evenodd" d="M15.422 10.398c0 2.626-1.738 4.754-3.882 4.754s-3.882-2.129-3.882-4.754C7.658 7.773 9.396.5 11.54.5c2.145 0 3.883 7.272 3.883 9.898Z" clip-rule="evenodd"/><path fill="url(#a)" fill-rule="evenodd" d="M12.353 30.5c5.739 0 10.393-1.668 10.393-9.229 0-7.56-4.654-13.764-10.393-13.764-5.74 0-10.39 6.205-10.39 13.765 0 7.56 4.65 9.228 10.39 9.228Z" clip-rule="evenodd"/><path fill="#010101" d="M12.498 21.844c-.095 0-.192-.006-.29-.017-.646-.074-1.133-.35-1.45-.82a.208.208 0 0 1 .344-.231c.249.37.626.578 1.153.638.533.061.988-.07 1.394-.399a.207.207 0 1 1 .26.322 2.183 2.183 0 0 1-1.41.506Z"/><path fill="#ECB732" d="m8.989 27.224-1.852-1.927 1.306-1.388a.302.302 0 0 0-.44-.414l-1.284 1.367-1.79-1.863a.301.301 0 1 0-.435.418l1.811 1.885-.88.937a.302.302 0 0 0 .439.414l.86-.915 1.83 1.905a.301.301 0 1 0 .435-.419ZM20.137 22.99a.302.302 0 0 0-.426.009l-1.79 1.863-1.284-1.367a.301.301 0 1 0-.44.414l1.306 1.389-1.852 1.927a.302.302 0 0 0 .435.418l1.83-1.905.86.915a.3.3 0 0 0 .427.013.302.302 0 0 0 .013-.427l-.881-.937 1.81-1.885a.302.302 0 0 0-.008-.426ZM14.123 9.95a.285.285 0 0 0-.404 0l-1.33 1.33-1.33-1.33a.285.285 0 1 0-.404.403l1.33 1.33-.81.81a.285.285 0 1 0 .402.405l.811-.81.81.81a.285.285 0 0 0 .404 0 .285.285 0 0 0 0-.404l-.81-.81 1.33-1.33a.285.285 0 0 0 0-.405Z"/><path fill="#101217" d="M18.239 14.95s-3.653.384-4.059 1.624c-.406 1.24.316 3.404 2.639 3.584 2.322.18 4.193-.112 4.78-1.646.586-1.532.628-2.617.563-3.089-.09-.653-2.84-.676-3.923-.473ZM6.47 14.95c-1.082-.203-3.833-.18-3.923.474-.065.47-.023 1.556.563 3.09.587 1.532 2.458 1.825 4.78 1.645 2.322-.18 3.044-2.345 2.639-3.585-.406-1.24-4.059-1.623-4.059-1.623Z"/><path fill="#2E3442" d="M20.742 13.8c-1.556.046-5.704.993-6.944 1.308a4.715 4.715 0 0 1-1.443.154c-.34.021-.831.003-1.443-.154-1.24-.315-5.388-1.262-6.944-1.307-1.556-.045-2.796-.316-2.773.902.023 1.217 1.285 4.126 1.285 4.126s.677 1.555 2.232 1.894c1.556.338 4 .206 5.073-.7 1.15-.969 1.556-2.863 1.556-2.863s.183-.57 1.014-.53c.832-.04 1.015.53 1.015.53s.406 1.894 1.555 2.864c1.074.905 3.518 1.037 5.073.699 1.556-.339 2.232-1.894 2.232-1.894s1.263-2.909 1.285-4.127c.023-1.217-1.217-.946-2.773-.901ZM7.89 20.159c-2.322.18-4.193-.112-4.78-1.646-.586-1.532-.628-2.617-.563-3.089.09-.653 2.84-.676 3.923-.473 0 0 3.653.383 4.059 1.623.406 1.24-.316 3.405-2.639 3.585ZM21.6 18.512c-.587 1.533-2.458 1.827-4.78 1.646-2.322-.18-3.044-2.344-2.639-3.584.406-1.24 4.059-1.624 4.059-1.624 1.082-.203 3.833-.18 3.923.474.065.47.023 1.556-.563 3.09v-.002Z"/><path fill="#fff" d="M21.573 17.078c.218-.561.12-1.123-.22-1.255-.338-.13-.79.218-1.007.78-.217.562-.119 1.124.22 1.255.339.131.79-.218 1.007-.78ZM19.756 17.953c.142-.366.077-.732-.143-.817-.221-.086-.515.141-.657.507-.142.366-.077.732.143.818.221.085.515-.142.657-.508ZM20.352 18.332c.067-.174.024-.353-.097-.4-.122-.047-.275.056-.342.23-.067.174-.024.353.098.4.12.046.274-.056.341-.23Z" opacity=".2"/><path fill="#7B859B" d="M11.141 2.511 0 7.641v.248l8.92 1.915 13.118-5.13v-.249L11.141 2.511Z"/><path fill="#FFD908" d="M21.523 4.812a8.496 8.496 0 0 1 .24 4.37.405.405 0 0 1 .087.726c.045.05.084.109.117.175.1.205.131.48.071.768a.821.821 0 0 1-.193.365 1.262 1.262 0 0 1-.116.118 1.8 1.8 0 0 1-.163.128 2.238 2.238 0 0 1-.39.213s-.019-.018-.05-.053a2.257 2.257 0 0 1-.215-.287 1.636 1.636 0 0 1-.15-.308.837.837 0 0 1-.043-.453c.061-.293.207-.538.386-.684a.703.703 0 0 1 .179-.108l.007-.003a.405.405 0 0 1 .37-.618 8.287 8.287 0 0 0 .107-2.814 8.092 8.092 0 0 0-.358-1.526l.114-.009Z"/><path fill="#576073" d="M11.142 2.76 0 7.89l8.92 1.914 13.118-5.13-10.896-1.915Z"/><path fill="url(#b)" d="M4.41 12.688c.84-.469 3.45-1.876 7.22-2.16 5.39-.406 6.624.356 7.506.599.266.073.42.172.438.297l-2.736-5.788c-.354-.73-2.322-1.105-5.51-1.011-3.187.187-5.719 2.062-5.88 2.674l-1.478 5.86c-.02-.143.138-.303.44-.471Z"/><path fill="#fff" d="M38.516 8.187h4.49l3.808 9.287h.176l3.808-9.287h4.49v15h-3.53v-9.214h-.125l-3.603 9.119h-2.256l-3.604-9.17h-.124v9.265h-3.53v-15ZM60.72 23.378c-.717 0-1.354-.12-1.911-.36a2.978 2.978 0 0 1-1.311-1.098c-.317-.493-.476-1.11-.476-1.853 0-.625.11-1.152.33-1.582.22-.43.522-.779.908-1.047.385-.269.83-.471 1.333-.608a8.655 8.655 0 0 1 1.611-.286c.64-.058 1.155-.12 1.545-.183.391-.068.674-.163.85-.285a.616.616 0 0 0 .27-.535v-.037c0-.376-.128-.666-.387-.871-.259-.205-.608-.308-1.048-.308-.473 0-.854.103-1.142.308a1.355 1.355 0 0 0-.55.85l-3.303-.118c.098-.684.35-1.294.755-1.831.41-.542.971-.967 1.684-1.274.718-.313 1.58-.47 2.586-.47.718 0 1.38.086 1.985.257a4.92 4.92 0 0 1 1.582.733c.449.317.795.708 1.04 1.171.249.464.373.994.373 1.59v7.646h-3.369V21.62h-.088c-.2.38-.456.703-.769.967a3.066 3.066 0 0 1-1.091.593 4.635 4.635 0 0 1-1.406.198Zm1.107-2.344c.385 0 .732-.078 1.04-.234.312-.157.561-.372.747-.645.185-.278.278-.6.278-.967V18.12a2.125 2.125 0 0 1-.374.146 6.34 6.34 0 0 1-.468.125c-.171.039-.347.073-.528.102-.18.03-.354.057-.52.081a3.238 3.238 0 0 0-.864.25 1.364 1.364 0 0 0-.542.439 1.077 1.077 0 0 0-.183.63c0 .37.132.654.396.849.268.195.607.293 1.018.293ZM79.456 15.372l-3.289.088a1.227 1.227 0 0 0-.278-.622 1.498 1.498 0 0 0-.593-.432 2.022 2.022 0 0 0-.835-.162c-.415 0-.77.084-1.062.25-.288.165-.43.39-.425.673a.72.72 0 0 0 .263.572c.186.16.516.29.99.388l2.167.41c1.123.215 1.958.571 2.505 1.07.552.497.83 1.157.835 1.977-.005.771-.234 1.443-.688 2.014-.45.571-1.065 1.015-1.846 1.333-.781.312-1.675.469-2.68.469-1.607 0-2.874-.33-3.802-.99-.923-.663-1.45-1.552-1.582-2.665l3.538-.088c.078.41.28.723.607.938.328.214.745.322 1.253.322.459 0 .832-.086 1.12-.257.289-.17.435-.398.44-.68a.722.722 0 0 0-.337-.609c-.22-.156-.564-.278-1.033-.366l-1.963-.373c-1.127-.205-1.967-.584-2.52-1.136-.55-.556-.824-1.264-.82-2.124-.004-.752.196-1.394.601-1.926.405-.537.982-.947 1.729-1.23.747-.284 1.628-.425 2.644-.425 1.523 0 2.724.32 3.603.96.88.634 1.365 1.508 1.458 2.621ZM87.847 11.937v2.637H80.75v-2.637h7.097Zm-5.61-2.695h3.582V19.65c0 .22.034.398.102.534a.64.64 0 0 0 .315.286c.137.054.3.08.49.08.138 0 .281-.012.433-.036.156-.03.273-.054.351-.073l.542 2.585c-.17.049-.412.11-.725.183-.307.073-.676.12-1.106.14-.84.038-1.56-.06-2.16-.294-.596-.239-1.053-.61-1.37-1.113-.312-.503-.464-1.135-.454-1.897V9.242ZM94.813 23.4c-1.177 0-2.193-.232-3.047-.696a4.813 4.813 0 0 1-1.963-2c-.454-.869-.681-1.902-.681-3.098 0-1.162.23-2.177.688-3.047a4.97 4.97 0 0 1 1.941-2.036c.835-.488 1.819-.732 2.952-.732.8 0 1.533.124 2.197.373.664.25 1.238.618 1.721 1.106.484.489.86 1.092 1.128 1.81.269.712.403 1.53.403 2.453v.894h-9.778v-2.08h6.445a2.017 2.017 0 0 0-.27-1.019 1.84 1.84 0 0 0-.726-.695 2.093 2.093 0 0 0-1.047-.257c-.4 0-.76.09-1.077.271a1.993 1.993 0 0 0-.754.725 2.038 2.038 0 0 0-.293 1.033v2.117c0 .459.09.862.271 1.208.18.342.437.608.769.799.332.19.728.285 1.187.285.317 0 .605-.044.864-.132.258-.087.48-.217.666-.388.186-.17.325-.38.418-.63l3.288.096a4.066 4.066 0 0 1-.9 1.926c-.46.542-1.063.964-1.81 1.267-.747.298-1.611.447-2.592.447ZM101.981 23.187v-11.25h3.479v2.051h.117c.205-.742.54-1.294 1.004-1.655a2.534 2.534 0 0 1 1.618-.55c.166 0 .337.013.513.037.176.02.339.051.491.095v3.113a3.435 3.435 0 0 0-.674-.139 5.982 5.982 0 0 0-.733-.051c-.424 0-.808.095-1.149.285a2.058 2.058 0 0 0-.799.784c-.19.332-.285.723-.285 1.172v6.108h-3.582ZM110.662 23.187v-11.25h3.582v11.25h-3.582Zm1.794-12.56c-.503 0-.935-.167-1.296-.499-.361-.337-.542-.742-.542-1.215 0-.47.181-.87.542-1.202a1.833 1.833 0 0 1 1.296-.505c.508 0 .94.168 1.297.505.361.332.542.733.542 1.202 0 .473-.181.878-.542 1.215a1.835 1.835 0 0 1-1.297.498ZM120.105 16.771v6.416h-3.582v-11.25h3.406v2.066h.124a3.157 3.157 0 0 1 1.275-1.619c.6-.395 1.316-.593 2.146-.593.791 0 1.477.178 2.058.535.586.351 1.04.844 1.362 1.479.327.63.488 1.367.484 2.212v7.17h-3.582V16.72c.005-.625-.154-1.113-.476-1.465-.317-.351-.759-.527-1.326-.527-.376 0-.708.083-.996.249a1.65 1.65 0 0 0-.659.696c-.151.302-.229.669-.234 1.098ZM134.839 27.64c-1.069 0-1.985-.149-2.747-.446-.761-.298-1.359-.706-1.794-1.224a3.384 3.384 0 0 1-.784-1.757l3.391-.19c.064.229.181.429.352.6.176.17.403.302.681.395.283.093.615.14.996.14.601 0 1.096-.147 1.487-.44.395-.288.593-.793.593-1.516v-1.978h-.124a2.671 2.671 0 0 1-.645.93 3.061 3.061 0 0 1-1.076.645c-.425.156-.914.234-1.465.234-.821 0-1.573-.19-2.256-.57-.679-.387-1.223-.982-1.633-1.788-.406-.81-.608-1.853-.608-3.127 0-1.314.21-2.395.63-3.245.42-.854.969-1.487 1.648-1.897a4.208 4.208 0 0 1 2.204-.615c.591 0 1.096.102 1.516.307.425.2.774.46 1.048.777.273.317.48.647.622.989h.103v-1.927h3.566v11.294c0 .952-.239 1.756-.717 2.41-.479.654-1.148 1.15-2.007 1.487-.859.341-1.853.512-2.981.512Zm.11-7.214c.434 0 .805-.115 1.113-.344.308-.23.545-.56.711-.989.166-.43.249-.945.249-1.545 0-.61-.083-1.136-.249-1.575-.162-.444-.398-.786-.711-1.025-.308-.24-.679-.36-1.113-.36-.444 0-.82.123-1.128.367-.308.244-.542.588-.703 1.033-.156.44-.235.96-.235 1.56 0 .6.081 1.115.242 1.545.161.43.393.76.696.989.308.23.684.344 1.128.344Z" style="fill:#35495e;fill-opacity:1"/><path fill="#FFE56D" d="M145.196 23.187v-15h6.197c1.123 0 2.092.22 2.907.66a4.61 4.61 0 0 1 1.897 1.823c.445.777.667 1.68.667 2.71 0 1.035-.227 1.941-.681 2.717-.45.772-1.092 1.37-1.927 1.795-.835.425-1.826.637-2.973.637h-3.823v-2.856h3.149c.547 0 1.003-.095 1.37-.286.371-.19.651-.457.842-.798.19-.347.285-.75.285-1.209 0-.464-.095-.864-.285-1.2a1.92 1.92 0 0 0-.842-.792c-.372-.185-.828-.278-1.37-.278h-1.787v12.077h-3.626ZM158.651 23.187v-11.25h3.581v11.25h-3.581Zm1.794-12.56c-.503 0-.935-.167-1.296-.499-.361-.337-.542-.742-.542-1.215 0-.47.181-.87.542-1.202a1.833 1.833 0 0 1 1.296-.505c.508 0 .94.168 1.297.505.361.332.542.733.542 1.202 0 .473-.181.878-.542 1.215a1.835 1.835 0 0 1-1.297.498ZM168.093 16.771v6.416h-3.581v-11.25h3.406v2.066h.124a3.157 3.157 0 0 1 1.275-1.619c.6-.395 1.316-.593 2.146-.593.791 0 1.477.178 2.058.535.586.351 1.04.844 1.362 1.479.327.63.488 1.367.483 2.212v7.17h-3.581V16.72c.005-.625-.154-1.113-.476-1.465-.318-.351-.759-.527-1.326-.527-.376 0-.708.083-.996.249a1.65 1.65 0 0 0-.659.696c-.152.302-.23.669-.235 1.098ZM177.584 23.187v-11.25h3.581v11.25h-3.581Zm1.794-12.56c-.503 0-.935-.167-1.296-.499a1.601 1.601 0 0 1-.542-1.215c0-.47.18-.87.542-1.202a1.833 1.833 0 0 1 1.296-.505c.508 0 .94.168 1.297.505.361.332.542.733.542 1.202 0 .473-.181.878-.542 1.215a1.835 1.835 0 0 1-1.297.498ZM186.616 23.378c-.718 0-1.355-.12-1.911-.36a2.975 2.975 0 0 1-1.311-1.098c-.318-.493-.476-1.11-.476-1.853 0-.625.109-1.152.329-1.582.22-.43.523-.779.908-1.047.386-.269.83-.471 1.333-.608a8.653 8.653 0 0 1 1.612-.286c.639-.058 1.154-.12 1.545-.183.391-.068.674-.163.85-.285a.617.617 0 0 0 .271-.535v-.037c0-.376-.13-.666-.389-.871-.258-.205-.607-.308-1.047-.308-.474 0-.854.103-1.142.308a1.352 1.352 0 0 0-.55.85l-3.303-.118a3.912 3.912 0 0 1 .754-1.831c.411-.542.972-.967 1.685-1.274.718-.313 1.58-.47 2.585-.47.718 0 1.38.086 1.985.257.606.166 1.133.41 1.582.733.449.317.796.708 1.04 1.171.249.464.374.994.374 1.59v7.646h-3.369V21.62h-.088c-.2.38-.457.703-.769.967a3.071 3.071 0 0 1-1.092.593 4.63 4.63 0 0 1-1.406.198Zm1.106-2.344c.386 0 .733-.078 1.04-.234.313-.157.562-.372.747-.645a1.7 1.7 0 0 0 .279-.967V18.12a2.131 2.131 0 0 1-.374.146 6.386 6.386 0 0 1-.469.125c-.171.039-.346.073-.527.102-.181.03-.354.057-.52.081a3.232 3.232 0 0 0-.864.25 1.36 1.36 0 0 0-.542.439 1.077 1.077 0 0 0-.183.63c0 .37.131.654.395.849.269.195.608.293 1.018.293Z"/><defs><linearGradient id="a" x1="12.355" x2="12.355" y1="7.507" y2="30.5" gradientUnits="userSpaceOnUse"><stop stop-color="#FFE66D"/><stop offset="1" stop-color="#FFD66D"/></linearGradient><linearGradient id="b" x1="18.35" x2="4.233" y1="8.125" y2="9.673" gradientUnits="userSpaceOnUse"><stop stop-color="#7C879C"/><stop offset="1" stop-color="#626D83"/></linearGradient></defs></svg>