<svg xmlns="http://www.w3.org/2000/svg" width="369" height="415" fill="none"><path fill="url(#a)" fill-rule="evenodd" d="M171.948 149.622c21.63-7.072 21.958-31.104 13.176-65.54-8.782-34.435-37.622-61.556-44.981-59.153-7.358 2.402-19.578 42.961-10.796 77.397 8.782 34.435 43.023 43.613 42.601 47.296Z" clip-rule="evenodd"/><path fill="#2D6541" d="M325.581 95.091c2.87 6.103-22.066 57.71-68.73 65.98-46.664 8.27-63.251 17.98-63.251 17.98s30.463-68.238 60.798-88.513c30.335-20.274 68.32-1.547 71.183 4.553Z"/><path fill="url(#b)" d="M325.581 95.092a216.405 216.405 0 0 0-19.075 5.824 294.206 294.206 0 0 0-18.575 7.19c-6.095 2.628-12.121 5.419-18.01 8.46-5.895 3.032-11.713 6.221-17.336 9.731-1.432.839-2.813 1.748-4.212 2.638-1.394.899-2.803 1.765-4.156 2.716l-4.108 2.8-4.022 2.914c-5.33 3.927-10.528 8.06-15.47 12.475l-1.871 1.642c-.619.551-1.209 1.137-1.816 1.698l-3.615 3.414-3.495 3.543-1.744 1.773-1.678 1.838c-4.611 4.789-8.69 10.046-12.802 15.288l2.825-4.122 1.43-2.054 1.512-1.991 3.043-3.972 3.201-3.85 1.614-1.918 1.695-1.849 3.394-3.69 3.548-3.547c.597-.585 1.177-1.188 1.787-1.763l1.839-1.7c9.775-9.142 20.589-17.132 31.973-24.145 11.412-6.978 23.43-12.942 35.835-17.902a237.966 237.966 0 0 1 18.891-6.644 230.377 230.377 0 0 1 9.638-2.68c3.233-.825 6.478-1.574 9.766-2.145l-.006.028Z"/><path fill="url(#c)" d="M325.581 95.092a216.54 216.54 0 0 0-19.075 5.824 294.442 294.442 0 0 0-18.575 7.19c-6.095 2.628-12.121 5.419-18.01 8.46-5.895 3.032-11.713 6.221-17.336 9.731-1.432.839-2.813 1.748-4.212 2.638-1.394.899-2.803 1.765-4.156 2.716l-4.108 2.8-4.022 2.914c-5.33 3.927-10.527 8.06-15.47 12.475l-1.87 1.642c-.62.551-1.21 1.137-1.817 1.698l-3.615 3.414-3.495 3.543-1.744 1.773-1.678 1.838c-4.611 4.789-8.69 10.046-12.802 15.288 0 0 16.596-9.715 63.251-17.98 46.664-8.27 71.6-59.877 68.73-65.98l.004.016Z"/><path fill="url(#d)" fill-rule="evenodd" d="M242.188 35.74c-8.939-3.49-58.588 16.184-74.654 57.357-16.067 41.172 5.899 85.863 5.899 85.863s51.866-25.715 66.875-64.172c15.009-38.458 6.706-77.166 1.88-79.047Z" clip-rule="evenodd"/><path fill="#9DCF7B" d="M242.187 35.74c-5.001 4.587-9.809 9.37-14.371 14.375a227.934 227.934 0 0 0-13.071 15.51c-1.007 1.358-2.064 2.675-3.032 4.055l-2.916 4.132c-.956 1.391-1.84 2.827-2.756 4.24-.448.713-.923 1.413-1.352 2.137l-1.259 2.186-1.26 2.186-.633 1.093-.573 1.12-2.281 4.497c-.718 1.515-1.334 3.075-2.005 4.615-.322.777-.684 1.53-.965 2.324l-.875 2.379c-1.211 3.153-2.278 6.36-3.374 9.56-.538 1.606-1.027 3.222-1.544 4.833l-.765 2.418-.732 2.432c-2.006 6.463-3.744 13.013-5.511 19.557a833.738 833.738 0 0 0-4.931 19.733c-1.614 6.591-3.081 13.214-4.534 19.84a492.883 492.883 0 0 1 7.832-39.985c3.178-13.216 6.8-26.343 11.536-39.141l.893-2.398c.29-.798.672-1.577.997-2.368.691-1.565 1.338-3.162 2.077-4.71l2.349-4.571.591-1.138.651-1.103 1.307-2.206 1.315-2.203c.445-.728.941-1.423 1.404-2.14.953-1.413 1.868-2.857 2.86-4.247l3.02-4.132c1.011-1.378 2.109-2.68 3.157-4.02a191.01 191.01 0 0 1 28.751-28.86Z"/><path fill="url(#e)" d="M242.187 35.74c-5.001 4.587-9.809 9.37-14.371 14.375a227.935 227.935 0 0 0-13.071 15.51c-1.007 1.358-2.064 2.675-3.032 4.055l-2.916 4.132c-.956 1.391-1.84 2.826-2.756 4.24-.448.713-.923 1.413-1.352 2.137l-1.259 2.186-1.26 2.186-.633 1.092-.573 1.12-2.281 4.498c-.718 1.515-1.334 3.075-2.005 4.615-.323.777-.684 1.53-.966 2.323l-.874 2.38c-1.211 3.153-2.279 6.36-3.374 9.56-.539 1.606-1.027 3.222-1.544 4.833l-.765 2.418-.732 2.432c-2.006 6.463-3.744 13.013-5.511 19.556a836.19 836.19 0 0 0-4.931 19.733c-1.614 6.592-3.081 13.215-4.534 19.841 0 0 51.866-25.715 66.875-64.172 14.988-38.462 6.692-77.169 1.865-79.05Z"/><path fill="url(#f)" fill-rule="evenodd" d="M134.932 380.804c58.446 12.621 109.513 5.875 126.139-71.12 16.627-76.996-17.13-150.41-75.576-163.031-58.446-12.621-119.447 40.331-136.073 117.327-16.627 76.995 27.063 104.203 85.51 116.824Z" clip-rule="evenodd"/><path fill="#E2AD13" d="M185.516 146.657c-10.106-1.667-19.388 12.688-24.099 20.127-16.81 28.56-26.67 60.66-35.024 92.562-4.067 16.041-7.596 32.243-10.099 48.607-2.5 18.02-5.42 39.858.905 57.223 2.984 8.026 9.294 13.841 17.752 15.638-12.249-2.306-18.274-11.894-20.714-23.394-3.203-16.382-1.45-33.261.822-49.646 2.45-16.42 5.915-32.672 9.937-48.774 8.475-31.987 18.506-64.16 35.822-92.581 4.969-7.501 14.511-21.668 24.696-19.755l.002-.007Z"/><path fill="#fff" fill-opacity=".5" d="M185.516 146.659c-7.567-2.075-16.172 8.431-20.191 13.855-5.095 6.929-9.274 14.49-13.126 22.173-15.13 30.939-25.28 64.139-32.179 97.827-3.33 16.885-6.025 33.929-7.376 51.094 1.092-17.192 3.605-34.282 6.91-51.187 6.671-33.789 16.844-67.065 32.22-97.951 3.896-7.681 8.112-15.241 13.273-22.171 4.146-5.426 12.894-15.813 20.477-13.645l-.008.005Z"/><path fill="url(#g)" fill-rule="evenodd" d="M123.72 255.609c18.33 5.157 22.047 12.584 20.745 16.74-1.303 4.157-11.59 16.661-30.376 10.787-16.815-5.258-8.866-27.04-8.866-27.04 1.459-4.675 18.497-.487 18.497-.487Z" clip-rule="evenodd"/><path fill="url(#h)" fill-rule="evenodd" d="M144.465 272.349c.162-.51.238-1.067.233-1.657-2.512-2.272-6.808-4.598-13.663-6.527 0 0-13.579-3.337-14.743.385 0 0-5.076 13.962 3.541 19.863 15.141 1.996 23.478-8.354 24.632-12.064Z" clip-rule="evenodd"/><path fill="#fff" d="m133.32 282.738-27.312-7.779c-.553 1.927.129 4.66 5.799 7.302 8.747 3.953 17.647 2.356 21.513.477Z"/><path fill="#fff" fill-rule="evenodd" d="M144.613 269.754c-.715-4.217-5.943-9.931-20.894-14.138 0 0-16.92-4.155-18.479.44-.327 2.299-.359 4.183.364 4.413 1.993.622 36.003 10.939 38.116 10.115.266-.105.565-.401.886-.832l.007.002Z" clip-rule="evenodd"/><path fill="url(#i)" d="M125.995 256.284c16.36 5.115 19.711 12.087 18.469 16.065-1.241 3.979-11.59 16.661-30.376 10.787-16.814-5.257-8.865-27.04-8.865-27.04 1.459-4.674 18.497-.487 18.497-.487a75.23 75.23 0 0 1 2.275.675Zm1.073-3.433a83.305 83.305 0 0 0-2.373-.704l-.056-.012-.056-.012c-.183-.04-4.552-1.108-9.186-1.594-3.218-.334-11.725-1.222-13.575 4.414-.414 1.169-4.484 13.198.111 22.492 2.203 4.45 5.932 7.529 11.09 9.136 21.131 6.602 33.126-7.536 34.882-13.148.667-2.137 2.803-13.186-20.83-20.571l-.007-.001Z"/><path fill="#000" fill-opacity=".2" fill-rule="evenodd" d="M123.309 256.933c14.139 3.98 19.576 9.305 20.729 13.44.18-.153.371-.354.57-.628-.716-4.217-5.944-9.931-20.895-14.138 0 0-16.92-4.154-18.479.44-.034.258-.073.507-.096.752 2.753-3.652 18.165.125 18.165.125l.006.009Z" clip-rule="evenodd"/><path fill="url(#j)" fill-rule="evenodd" d="M90.796 198.648s13.176-11.292 22.331-1.75c9.155 9.543 15.589 39.148 18.421 56.672 2.833 17.523-55.711 2.048-55.711 2.048l14.959-56.97Z" clip-rule="evenodd"/><path fill="url(#k)" fill-rule="evenodd" d="M101.939 194.484s-14.558-.811-20.1 19.056c-5.54 19.866 15.052 27.735 20.467 29.478l-.367-48.534Z" clip-rule="evenodd"/><path fill="#fff" d="M115.817 218.651c3.458-9.999-.606-20.479-9.077-23.409-8.47-2.929-18.14 2.802-21.599 12.801-3.457 9.999.607 20.48 9.078 23.409 8.47 2.929 18.14-2.802 21.598-12.801Z"/><path fill="#CCC" fill-rule="evenodd" d="M112.628 199.073c2.747 4.626 3.422 10.873 1.324 16.941-3.462 9.997-13.134 15.731-21.604 12.798a14.11 14.11 0 0 1-5.766-3.799c1.78 2.998 4.422 5.319 7.757 6.474 8.47 2.933 18.142-2.802 21.604-12.799 2.54-7.333 1.024-14.932-3.308-19.613l-.007-.002Z" clip-rule="evenodd"/><path fill="#231F20" d="M107.823 214.184c2.21-6.391-.388-13.089-5.802-14.961-5.415-1.873-11.595 1.79-13.805 8.181-2.21 6.39.388 13.089 5.802 14.961 5.414 1.873 11.595-1.79 13.805-8.181Z"/><path fill="#fff" d="M105.962 211.546c2.103.1 3.903-1.83 4.02-4.311.117-2.48-1.493-4.571-3.596-4.671-2.103-.099-3.903 1.831-4.021 4.311-.117 2.481 1.493 4.572 3.597 4.671ZM97.844 206.799c.912.215 1.856-.482 2.109-1.557.253-1.074-.28-2.119-1.191-2.334-.911-.215-1.855.482-2.108 1.556-.254 1.075.28 2.12 1.19 2.335ZM99.415 210.5c.506.119 1.031-.268 1.171-.865.141-.597-.155-1.178-.662-1.298-.506-.119-1.03.268-1.171.865-.141.597.155 1.178.662 1.298Z"/><path fill="#E2AD13" d="M242.956 302.712c7.319-36.688 8.61-76.371-4.202-111.991-2.569-6.95-6.007-13.999-10.403-20.291-.818-.78-1.644-1.555-2.366-2.233a67.587 67.587 0 0 1 3.509 5.188c21.681 36.666 20.203 88.429 12.093 129.054-5.289 25.514-14.659 56.637-36.291 72.903-7.867 5.999-17.418 9.331-27.21 10.44 1.496-.008 3.083-.033 4.7-.089 8.294-1.432 16.266-4.538 23.052-9.623 22.239-16.385 31.609-47.406 37.118-73.358Z"/><path fill="url(#l)" fill-rule="evenodd" d="M169.917 218.893s16.094-13.797 27.278-2.131c11.184 11.666 19.045 47.82 22.497 69.224 3.451 21.403-68.048 2.497-68.048 2.497l18.273-69.59Z" clip-rule="evenodd"/><path fill="url(#m)" fill-rule="evenodd" d="M183.526 213.811s-17.78-.992-24.551 23.275c-6.771 24.266 18.383 33.878 24.997 36.006l-.446-59.281Z" clip-rule="evenodd"/><path fill="#fff" d="M200.481 243.319c4.224-12.214-.741-25.016-11.089-28.595-10.349-3.578-22.161 3.422-26.385 15.637-4.224 12.214.741 25.016 11.089 28.595 10.348 3.578 22.161-3.422 26.385-15.637Z"/><path fill="#CCC" fill-rule="evenodd" d="M196.579 219.413c3.349 5.654 4.177 13.273 1.611 20.689-4.228 12.217-16.034 19.212-26.39 15.637-2.752-.955-5.127-2.565-7.041-4.641 2.174 3.663 5.403 6.502 9.471 7.91 10.346 3.581 22.161-3.42 26.389-15.636 3.099-8.965 1.244-18.233-4.042-23.952l.002-.007Z" clip-rule="evenodd"/><path fill="#231F20" d="M190.718 237.871c2.7-7.806-.475-15.989-7.091-18.276-6.616-2.288-14.168 2.185-16.867 9.991-2.7 7.807.475 15.989 7.091 18.277 6.616 2.288 14.168-2.186 16.867-9.992Z"/><path fill="#fff" d="M188.43 234.66c2.567.121 4.765-2.238 4.908-5.27.144-3.032-1.822-5.589-4.389-5.71-2.568-.121-4.766 2.238-4.909 5.27-.143 3.032 1.822 5.588 4.39 5.71ZM180.769 230.99c.911.214 1.855-.482 2.109-1.557.253-1.074-.28-2.119-1.191-2.334-.911-.215-1.855.482-2.109 1.556-.253 1.075.28 2.12 1.191 2.335ZM182.339 234.693c.506.12 1.031-.268 1.172-.865.14-.597-.156-1.178-.662-1.297-.507-.12-1.031.268-1.172.865-.141.597.155 1.178.662 1.297Z"/><path fill="#9C620B" d="M196.381 161.574a2.147 2.147 0 0 0-1.908-2.377c-.712-.08-12.626-1.276-30.82 2.684-9.997-6.766-17.022-9.644-17.517-9.839a2.154 2.154 0 0 0-2.805 1.197 2.158 2.158 0 0 0 1.197 2.805c.101.044 5.394 2.217 13.312 7.231-6.958 1.824-14.659 4.393-22.878 7.998a2.16 2.16 0 0 0 .413 4.085 2.14 2.14 0 0 0 1.324-.133c9.594-4.213 18.468-6.934 26.052-8.689 6.641 4.621 14.482 10.914 22.436 19.203a2.162 2.162 0 0 0 3.048.063 2.155 2.155 0 0 0 .062-3.049 156.286 156.286 0 0 0-19.767-17.419 126.56 126.56 0 0 1 9.105-1.368c10.12-1.127 16.318-.487 16.376-.482a2.156 2.156 0 0 0 2.377-1.908l-.007-.002Z" opacity=".22"/><path fill="#3C4352" d="m111.182 141.507-52.368-34.068L194.62 78.164l138.884 95.709-75.012 2.946-147.311-35.312Z"/><path fill="url(#n)" d="M98.374 174.395s14.218-19.624 74.918-6.229 84.668 51.55 84.668 51.55l1.359-61.138s-25.774-33.379-74.884-40.577c-47.822-7.008-64.555 6.459-64.555 6.459l-21.5 49.936-.006-.001Z"/><path fill="#000" fill-opacity=".06" d="M213.084 183.197c28.886 16.114 44.649 37.571 44.649 37.571l1.42-61.808s-12.46-16.782-38.438-29.298l-7.631 53.535Z"/><path fill="#586174" d="m333.279 174.406-.333-5.274L194.7 73.564l-.567 4.642 139.146 96.2Z"/><path fill="#E7B61D" d="M307.566 220.733c-.042.523.668 1.177 1.095.614 1.338-1.762 2.293-3.728 3.418-5.615a48.59 48.59 0 0 1 3.721-5.363c2.593-3.262 5.689-5.886 8.95-8.517 3.273-2.64 6.11-5.464 8.046-9.132 1.7-3.22 2.69-6.822 2.832-10.393a24.628 24.628 0 0 0-.541-6.266c-.454-2.073-1.296-4.384-2.789-5.979-.356-.381-1.081-.409-1.028.271.072.882.414 1.68.629 2.533.224.901.437 1.811.631 2.719.383 1.805.531 3.692.444 5.538a24.255 24.255 0 0 1-2.66 10.025c-1.752 3.4-4.36 6.075-7.399 8.491-3.378 2.681-6.635 5.394-9.337 8.721a37.17 37.17 0 0 0-3.805 5.678 26.02 26.02 0 0 0-1.471 3.19c-.45 1.174-.641 2.234-.74 3.48l.004.005Z"/><path fill="#E7B61D" d="M315.131 247.994c-.819-2.14-2.464-6.874-3.725-13.247-1.723-8.825.297-12.588-2.174-13.035-2.254-.389-6.134 6.571-8.252 14.901-1.53 5.992-.682 10.706.061 13.283.121.413.546.664.997.596.248-.038.638-.254.657-.677.205.694.335 1.188 1.106 1.14.496-.031.836-.52.767-.984-.355-2.353-.976-8.063.444-12.453-.49 5.547.989 10.952 1.829 13.59.132.404.553.651.999.578l.025.002c.538-.093.887-.61.741-1.1-.786-2.634-2.987-9.621-1.359-17.731-.561 7.186 1.612 14.043 2.407 16.181.174.465.684.861 1.229.679h.005c.52-.184.82-.668.599-1.269-.752-2.044-2.484-7.921-2.279-12.945.096.415 2.426 8.652 4.064 13.126.144.391.566.623 1.003.545l.158-.029c.559-.1.897-.651.708-1.15l-.01-.001Zm-10.573-16.444c-1.185 3.829-3.089 10.298-2.09 16.547-1.625-7.649.272-12.269 2.09-16.547Z"/><path fill="#FFE34E" d="M311.378 220.188c-.83-1.378-2.697-1.822-4.169-.997-1.473.825-1.989 2.61-1.159 3.988.831 1.378 2.698 1.822 4.17.997 1.473-.825 1.989-2.61 1.158-3.988Z"/><path fill="#768196" d="M195.463 72.255 65.031 100.753l-5.996 5.508 135.864-29.394.564-4.612Z"/><path fill="#9C620B" d="M215.339 344.141c-10.1-4.249-17.725-10.039-23.463-16.047 11.237-10.018 16.755-19.38 17.094-19.961a2.165 2.165 0 0 0-.783-2.951 2.159 2.159 0 0 0-2.951.783c-.081.137-5.438 9.195-16.272 18.881-10.642-12.675-13.365-25.252-13.415-25.498a2.159 2.159 0 0 0-4.232.852c.175.862 2.999 14.16 14.282 27.518-4.834 3.946-10.567 7.867-17.227 11.205a2.159 2.159 0 1 0 1.933 3.861c7.079-3.542 13.131-7.674 18.207-11.825 6.103 6.396 14.272 12.569 25.152 17.155a2.16 2.16 0 0 0 2.825-1.156 2.153 2.153 0 0 0-1.149-2.824l-.001.007ZM70.686 314.54c-6.057-5.282-10.38-11.198-13.466-16.744 7.398-6.888 14.688-11.304 14.814-11.38a2.158 2.158 0 0 0-2.217-3.702c-.228.135-5.591 3.363-11.943 8.718a98.593 98.593 0 0 0-2.705 2.367c-4.392-9.309-5.318-16.743-5.338-16.924a2.165 2.165 0 0 0-2.385-1.906c-.014-.003-.031.008-.047.012a158.19 158.19 0 0 0-.895 7.453c.872 3.596 2.469 8.776 5.334 14.524a70.666 70.666 0 0 0-5.733 6.475c.157 2.168.398 4.325.737 6.436 2.044-3.194 4.532-6.196 7.143-8.915 3.253 5.589 7.722 11.478 13.852 16.827.286.246.618.413.962.488a2.161 2.161 0 0 0 2.085-.691 2.163 2.163 0 0 0-.21-3.048l.012.01Z" opacity=".22"/><path fill="#7B3B00" fill-rule="evenodd" d="M259.13 317.959a527.827 527.827 0 0 0 2.874-12.597c3.06-15.942 3.962-31.673 2.962-46.704-.282-3.91-.66-7.576-1.083-10.934l-.039-.333c.045 1.158 1.992 62.89-65.845 95.121-61.105 29.033-109.87 11.931-139.674-3.344a69.527 69.527 0 0 0 4.597 6.041c.07.089.147.172.225.255a75.32 75.32 0 0 0 1.415 1.593c.107.119.215.231.322.349.46.497.922.98 1.391 1.464.114.12.235.242.358.356.478.479.963.959 1.458 1.427.11.104.213.207.322.312a63.295 63.295 0 0 0 1.635 1.494c.069.059.13.116.198.175a83.598 83.598 0 0 0 6.023 4.826c.032.022.064.043.095.072.649.471 1.3.928 1.96 1.387.121.085.244.163.366.248.583.399 1.17.783 1.757 1.167l.472.301c.569.366 1.146.726 1.732 1.081.169.102.331.204.5.306.593.356 1.194.707 1.796 1.058.15.091.307.177.457.268.662.378 1.326.742 1.998 1.108.1.051.19.108.282.157a126.93 126.93 0 0 0 7.3 3.615c.135.058.27.117.397.174.684.309 1.376.613 2.07.911l.613.264c.626.268 1.262.53 1.904.794l.711.286c.622.252 1.246.497 1.87.743.245.096.483.185.727.282.645.249 1.294.485 1.94.728.225.085.451.163.675.248.717.258 1.434.516 2.16.769l.478.169a182.088 182.088 0 0 0 5.81 1.895c.807.248 1.615.496 2.433.731.248.076.505.146.754.222.671.197 1.344.386 2.024.577.298.086.604.167.904.247l1.918.524.968.254c.634.166 1.274.334 1.917.494.32.084.635.16.956.244.67.166 1.333.332 2.012.493l.875.211c.756.178 1.52.358 2.285.53.203.044.414.09.617.141.983.219 1.973.441 2.971.656l.106.023c56.235 12.122 105.615 6.27 124.037-62.882l.014.003Z" clip-rule="evenodd" opacity=".5" style="mix-blend-mode:overlay"/><ellipse cx="189.725" cy="273.21" fill="#FF6162" fill-opacity=".4" rx="19.12" ry="4.945" transform="rotate(-.89 189.725 273.21)"/><ellipse cx="79.234" cy="242.679" fill="#FF6162" fill-opacity=".4" rx="12.738" ry="4.086" transform="rotate(35.643 79.234 242.679)"/><path fill="#303644" d="M76.323 177.468c5.159 1.409 9.88 3.121 12.928 4.63.063.034.134.063.197.097 1.546.619 30.949 12.35 30.653 24.956-.049 2.168-.48 4.516-1.261 6.889-3.77 11.452-15.743 23.646-33.13 20.437-3.496-.647-6.84-1.382-9.982-2.236-15.24-4.18-25.733-10.977-26.853-23.072-.033-.38-.063-.772-.08-1.162l-.014-.432c-.304-12.465 1.506-21.495 3.287-26.842.477-1.432.948-2.598 1.384-3.497 1.827-3.827 12.617-2.518 22.413.101.154.039.313.086.466.125l-.008.006Z" opacity=".8"/><path fill="#851622" d="m54.338 231.21 4.864 3.175c.526.341 1.07.671 1.638.978l-4.864-3.175a23.906 23.906 0 0 1-1.638-.978Z"/><path fill="#222631" d="M139.917 213.682c-.842-.547-1.888-1.031-3.206-1.389a25.6 25.6 0 0 0-.736-.182c-.244-.078-.489-.15-.722-.213-.392-.11-.763-.187-1.13-.249-.121-.026-.232-.035-.348-.052-.239-.035-.478-.071-.713-.092-.13-.013-.256-.018-.382-.024-.209-.008-.418-.017-.616-.016-.12.003-.239 0-.36.009a11.43 11.43 0 0 0-.579.041c-.101.014-.208.02-.31.034a9.396 9.396 0 0 0-.621.108c-.059.016-.131.022-.191.038a8.056 8.056 0 0 0-.741.21c-.061.022-.115.046-.174.062-.137.048-.282.102-.413.152-.023.009-.047.025-.07.034a11.49 11.49 0 0 0-.76.368s-.015.003-.023.009c-.056.03-.106.069-.162.099-.144.082-.282.173-.413.258-.016.01-.032.021-.047.025-.066.042-.109.082-.168.126-.099.07-.191.142-.283.207l-.057.037c-.05.039-.085.074-.129.114-.084.066-.163.141-.241.209-.018.017-.042.033-.06.05-.035.035-.061.058-.09.094-.079.074-.15.144-.213.208l-.061.057-.048.06a3.82 3.82 0 0 0-.203.231c-.01.012-.028.029-.037.041-.002.007-.01.012-.018.018-.019.024-.03.042-.048.06-.03.042-.057.072-.078.103-.019.024-.02.03-.038.048-.001.006-.011.018-.019.024a.139.139 0 0 0-.021.03c-.012.026-.043.075-.076.132-.013.025-.033.056-.046.081-.031.05-.057.107-.099.169-.021.037-.045.081-.076.131-.044.075-.09.156-.142.237-.031.049-.056.1-.088.15-.065.112-.141.236-.218.368a.685.685 0 0 1-.074.117.437.437 0 0 1-.052.08c-.074.118-.149.243-.233.372-.031.05-.063.099-.096.155-.074.118-.148.236-.223.36l-.125.192c-.082.123-.167.259-.251.389a2.29 2.29 0 0 0-.116.186c-.125.191-.258.387-.392.591a.067.067 0 0 1-.019.024c-.143.208-.288.43-.441.658a3.317 3.317 0 0 1-.141.201c-.113.166-.225.332-.344.496-.06.086-.119.165-.179.25-.092.135-.19.269-.289.403-.131.189-.27.378-.409.573-.081.116-.168.231-.249.347-.157.213-.324.437-.49.655-.07.098-.146.194-.216.292a75.553 75.553 0 0 1-.831 1.074c-.231.295-.47.595-.718.901-.056.066-.113.138-.169.203a69.027 69.027 0 0 1-1.333 1.586l-.066.078a60.171 60.171 0 0 1-1.45 1.61c-.036.035-.065.071-.1.106-.398.421-.805.848-1.225 1.272-.098.099-.198.204-.303.301-.428.43-.861.851-1.309 1.276-.394.366-.802.73-1.209 1.093-.12.102-.241.21-.361.311-.31.271-.626.535-.949.797-.126.1-.247.208-.374.307-.321.256-.641.505-.967.752-.085.066-.169.133-.26.198-.41.307-.831.605-1.253.902-.115.081-.236.154-.352.235-.303.203-.606.406-.915.601-.154.101-.315.194-.468.288-.283.173-.564.338-.845.504-.152.087-.304.175-.455.255-.526.29-1.05.574-1.59.833-.43.204-.871.393-1.324.572-.253.101-.505.196-.764.289-.29.108-.586.207-.881.307-.264.085-.534.162-.803.239-.308.09-.614.173-.926.249-.274.069-.556.136-.843.195-.317.068-.64.133-.97.198-.286.052-.578.104-.877.153-.328.051-.662.101-1.003.149-.297.043-.6.078-.903.113l-1.035.1c-.308.027-.615.047-.922.067-.35.026-.704.036-1.066.052-.313.012-.625.024-.942.028-.361.009-.727.009-1.092.004-.316-.003-.64-.001-.955-.01a47.317 47.317 0 0 1-1.118-.037c-.322-.011-.643-.021-.963-.039-.376-.022-.756-.052-1.139-.076l-.962-.074c-.386-.039-.772-.077-1.164-.123-.317-.031-.64-.071-.955-.108-.398-.048-.794-.109-1.19-.164l-.937-.132c-.409-.064-.81-.133-1.216-.204-.307-.05-.606-.098-.911-.155a78.28 78.28 0 0 1-1.27-.25c-.284-.059-.568-.111-.85-.177-.472-.098-.941-.21-1.403-.32a12.382 12.382 0 0 1-.699-.16 72.018 72.018 0 0 1-2.084-.532c-5.426-1.473-10.524-3.466-14.642-5.704l4.863 3.178c4.118 2.237 9.215 4.237 14.643 5.704.692.186 1.386.366 2.083.532.235.056.47.105.699.159.469.112.933.215 1.403.32l.85.177a39.101 39.101 0 0 0 2.18.405c.408.071.815.142 1.218.205.313.051.628.088.936.131.397.055.792.116 1.19.164.323.039.64.07.956.108.384.045.777.085 1.163.123.324.033.644.05.963.075.38.03.761.06 1.145.077.32.017.641.028.961.046.377.015.747.029 1.119.036.322.005.639.007.955.01l1.098-.002a36.3 36.3 0 0 0 .942-.028c.362-.016.716-.026 1.066-.052.307-.02.614-.04.922-.067.352-.032.695-.058 1.042-.098.302-.035.599-.072.895-.108.34-.042.674-.091 1.009-.147.291-.045.583-.096.87-.156.329-.057.646-.124.971-.197.28-.061.562-.128.843-.196.312-.075.626-.164.932-.247.27-.077.539-.154.803-.239.303-.098.591-.199.881-.307.259-.093.511-.188.765-.289.1-.042.213-.075.313-.117.341-.147.681-.293 1.011-.455.54-.259 1.064-.543 1.589-.832.064-.036.127-.065.191-.101l.264-.155a21.9 21.9 0 0 0 .845-.504l.469-.288c.309-.195.612-.398.915-.601.098-.063.194-.12.285-.186l.074-.047c.42-.291.841-.589 1.251-.896.091-.065.177-.138.268-.203.326-.248.646-.496.959-.746.044-.04.092-.072.143-.111.084-.066.155-.136.238-.195.323-.263.632-.527.949-.798.12-.101.241-.209.361-.31.406-.357.813-.72 1.207-1.087a68.92 68.92 0 0 0 1.316-1.274l.303-.301c.42-.424.825-.844 1.224-1.266.009-.012.017-.017.027-.029a.355.355 0 0 0 .065-.078c.501-.54.987-1.076 1.453-1.617.019-.024.045-.047.064-.071.464-.534.905-1.058 1.333-1.586l.094-.113c.027-.03.048-.061.075-.09.246-.299.485-.599.716-.895.029-.036.056-.065.078-.103.26-.331.512-.657.755-.977l.224-.297c.167-.225.333-.442.49-.655.081-.116.167-.224.246-.334.14-.195.286-.389.417-.579.04-.054.081-.116.121-.171.052-.08.101-.147.16-.226l.182-.263c.112-.166.223-.325.334-.484l.151-.214c.152-.22.297-.442.439-.651a28.836 28.836 0 0 1 .413-.622c.042-.068.083-.129.124-.191.084-.13.168-.259.25-.382.042-.069.085-.137.126-.198.074-.118.146-.229.212-.341.033-.057.073-.111.106-.168.075-.124.148-.235.214-.347.022-.038.044-.075.064-.106l.004-.02a.448.448 0 0 0 .046-.082c.086-.143.163-.274.237-.392.032-.049.054-.087.078-.138l.153-.255c.023-.044.044-.075.066-.113l.109-.187.035-.063c.034-.063.066-.112.078-.138.003-.013.029-.036.041-.061.003-.014.021-.031.03-.043.021-.031.049-.067.08-.11.017-.017.028-.036.047-.06.018-.017.037-.041.055-.058.057-.072.13-.148.203-.231a4.353 4.353 0 0 1 .324-.332c.045-.047.096-.092.149-.144.071-.07.156-.136.24-.203l.188-.157c.086-.073.184-.137.283-.207l.216-.158c.131-.085.269-.175.413-.257.064-.036.114-.075.178-.11a6.54 6.54 0 0 1 .76-.368c.155-.066.316-.13.483-.186.061-.023.108-.048.168-.064.234-.077.482-.151.741-.21.059-.015.124-.023.191-.037.199-.043.411-.082.621-.109.101-.014.201-.021.309-.033.187-.018.38-.033.58-.048l.361-.009c.198-.001.407.008.616.016.126.005.251.011.382.024.228.019.467.055.713.092.114.024.233.028.348.052.365.069.743.147 1.13.249.24.064.478.134.722.213.256.054.498.111.736.182 1.311.357 2.363.842 3.206 1.389l-4.864-3.178-.006-.001Z"/><path fill="#303644" d="m206.683 213.076.704.197c9.735 2.711 19.448 6.992 18.645 11.074-.189.965-.508 2.177-.977 3.604-1.775 5.354-5.768 13.786-13.613 24.031-.09.122-.184.236-.271.351-.125.157-.249.314-.373.463-8.244 9.938-21.248 10.484-36.413 6.419l-.367-.098c-3.229-.879-6.462-1.935-9.764-3.139-16.459-6.008-19.013-22.16-15.184-33.591.795-2.37 1.865-4.542 3.145-6.375 7.44-10.661 39.113-5.769 40.777-5.512.069.007.139.008.215.017 3.457.259 8.442 1.19 13.489 2.562l-.013-.003Z" opacity=".8"/><mask id="o" width="80" height="54" x="153" y="209" maskUnits="userSpaceOnUse" style="mask-type:alpha"><path fill="#303644" d="M213.454 215.347c.306.108.501.177.689.245 9.518 3.383 18.904 8.333 17.817 12.361-.257.952-.659 2.142-1.227 3.536-2.146 5.233-6.718 13.389-15.26 23.095-.097.116-.199.223-.294.332-.136.149-.271.297-.404.438-8.918 9.37-21.924 9.019-36.762 3.908l-.358-.123c-3.158-1.102-6.309-2.381-9.517-3.812-15.992-7.144-17.407-23.473-12.787-34.641.958-2.315 2.177-4.414 3.582-6.158 8.166-10.149 39.409-3.073 41.05-2.702.068.012.138.018.213.032 3.429.498 8.335 1.772 13.272 3.493l-.014-.004Z" opacity=".8"/></mask><g fill="#fff" mask="url(#o)"><path fill-opacity=".2" d="m149.8 300.686 61.354-104.725 14.703-2.788-64.961 109.931-11.096-2.418Z"/><path fill-opacity=".1" d="m164.264 303.847 61.349-104.719 7.642-4.327-64.956 109.926-4.035-.88Z"/></g><path fill="#222631" d="m245.41 222.797.103-.387.097-.464.06-.283.016-.074c.047-.292.086-.579.116-.854l.001-.007c.023-.276.029-.535.027-.795-.003-.085-.008-.164-.012-.242a8.194 8.194 0 0 0-.033-.513c-.01-.086-.02-.173-.037-.26-.022-.16-.053-.314-.084-.468-.011-.051-.014-.101-.031-.154-.009-.023-.019-.046-.026-.076a5.7 5.7 0 0 0-.231-.709l.003-.013a2.866 2.866 0 0 0-.073-.156 6.347 6.347 0 0 0-.18-.382c-.006-.008-.009-.023-.015-.031a4.096 4.096 0 0 0-.183-.298 2.407 2.407 0 0 1-.093-.16l-.011-.017c-.096-.146-.207-.289-.317-.432l-.006-.008c-.033-.042-.068-.077-.103-.113a8.199 8.199 0 0 0-.255-.292c-.007-.001-.017-.018-.023-.026a33.686 33.686 0 0 1-.192-.188 10.4 10.4 0 0 0-.21-.205c-.014-.003-.025-.019-.03-.028a7.31 7.31 0 0 0-.354-.291l-.138-.114s-.013-.002-.012-.009a9.581 9.581 0 0 0-.545-.388l-4.861-3.189c.192.124.376.254.545.388.055.04.101.085.157.124.12.096.241.191.353.292.083.074.158.153.241.226.065.063.136.127.193.188.098.105.194.216.285.32.035.035.068.077.096.111.117.144.232.302.333.456.032.049.063.105.095.154.068.112.137.218.196.336.065.126.124.251.18.382.024.054.055.11.077.171.094.223.163.463.231.709a8.434 8.434 0 0 1 .135.696c.01.086.027.174.037.26.021.166.026.343.032.513.005.078.01.157.013.242.003.253-.004.519-.027.795l-.001.007a8.64 8.64 0 0 1-.117.854l-.074.35-.097.465c-.027.127-.069.259-.103.386a16.526 16.526 0 0 1-.377 1.221c-.143.413-.311.842-.493 1.274-.058.143-.126.297-.192.445-.123.283-.255.572-.387.868-.078.166-.155.333-.24.505-.14.294-.294.592-.443.898-.095.184-.183.369-.287.558-.084.166-.176.336-.268.507-.129.247-.266.492-.402.738-.092.17-.192.346-.293.522l-.436.766-.299.521-.491.825-.293.487c-.075.124-.157.248-.233.372-.34.548-.684 1.108-1.041 1.666-.085.137-.17.274-.262.409-.409.638-.831 1.274-1.256 1.923-.084.13-.175.259-.257.382-.38.567-.758 1.127-1.152 1.692-.09.128-.174.258-.263.38-.445.645-.897 1.288-1.348 1.925-.183.264-.37.52-.559.782l-.358.495c-.24.336-.486.671-.726 1.007-.079.11-.157.214-.237.323-.318.44-.642.878-.959 1.311-.087.115-.168.232-.256.347l-.706.948-.352.468c-.197.268-.4.528-.596.789-.127.17-.253.333-.379.497-.186.249-.371.491-.556.734-.126.163-.252.327-.369.485-.184.235-.36.473-.544.708-.116.152-.234.31-.349.454-.183.236-.367.472-.542.702-.107.139-.213.279-.319.411l-.588.756c-.077.096-.155.199-.232.296-.268.337-.528.669-.778.989-.058.073-.107.14-.164.212-.193.248-.393.494-.575.723l-.259.325c-.143.181-.287.362-.428.529-.096.121-.19.235-.277.35-.124.15-.239.294-.352.432-.086.109-.172.217-.257.319-.114.138-.219.27-.323.396-.077.097-.152.186-.227.276-.142.174-.276.343-.399.493-.011.018-.028.029-.039.048-.132.162-.254.305-.361.444a4.646 4.646 0 0 1-.057.073c-.104.126-.199.239-.275.336l-.085.101a4.046 4.046 0 0 1-.187.221l-.058.073c-.046.053-.085.101-.112.131-.019.024-.056.065-.094.114-.01.012-.028.029-.039.048a4.4 4.4 0 0 0-.131.155 1.211 1.211 0 0 1-.074.083c-.054.059-.112.131-.176.202a1.054 1.054 0 0 1-.091.1c-.1.106-.209.224-.33.36l-.002.014c-.11.117-.235.246-.364.388-.027.029-.061.057-.09.093-.106.104-.207.217-.323.333l-.17.168c-.098.099-.195.192-.294.297-.07.063-.141.132-.212.202-.098.099-.203.196-.308.294l-.131.12a32.213 32.213 0 0 1-.999.901c-.345.301-.712.603-1.094.917-.043.033-.078.068-.12.101-.331.268-.685.546-1.051.813-.077.062-.16.122-.243.182-.375.28-.758.558-1.162.839-.042.033-.09.058-.132.092-.354.242-.729.487-1.103.725-.09.058-.178.11-.268.169-.413.257-.84.512-1.279.758-.08.046-.159.086-.238.126-.455.256-.929.501-1.409.745l-.143.076a38.93 38.93 0 0 1-1.558.714l-.379.159c-.262.107-.524.214-.791.313-.145.054-.291.115-.443.167-.32.116-.654.229-.986.335-.098.029-.19.066-.287.095-.43.135-.865.261-1.304.373-.119.032-.237.056-.349.089-.327.079-.661.164-1 .233a8.6 8.6 0 0 1-.498.093c-.301.057-.593.108-.899.156l-.544.076a16.38 16.38 0 0 1-.909.105l-.546.055a45.77 45.77 0 0 1-.998.058c-.164.008-.321.017-.483.018-.494.009-.994.01-1.504-.012-4.804-.183-10.274-1.053-15.699-2.533-6.538-1.782-13.011-4.437-18.163-7.82l4.862 3.189c5.151 3.383 11.625 6.037 18.162 7.82 5.426 1.479 10.902 2.351 15.7 2.533.509.022 1.009.021 1.504.012.162-.001.319-.01.482-.018.334-.015.668-.029.998-.059.185-.01.367-.035.547-.054.301-.028.604-.063.909-.105l.544-.076c.305-.048.598-.1.898-.156.168-.028.331-.065.492-.094.338-.07.671-.148.999-.234.113-.032.231-.057.348-.082.441-.118.882-.244 1.312-.379.098-.028.19-.065.281-.096.332-.106.665-.219.987-.341.145-.054.292-.115.443-.167.269-.106.536-.205.798-.311.069-.028.137-.049.199-.078.061-.023.117-.053.18-.082a26.736 26.736 0 0 0 1.558-.714l.142-.076c.481-.244.955-.489 1.41-.745.048-.025.102-.049.151-.081a.6.6 0 0 0 .089-.052c.44-.252.865-.5 1.279-.758.089-.059.178-.11.267-.169.381-.237.75-.483 1.103-.725l.098-.064c.01-.012.025-.016.033-.021.404-.281.793-.558 1.169-.838.083-.06.159-.121.242-.181a53.246 53.246 0 0 0 1.171-.915 65.57 65.57 0 0 0 1.094-.916c.01-.012.025-.016.034-.028a33.704 33.704 0 0 0 1.037-.943c.017-.017.037-.042.061-.057.105-.098.203-.197.307-.288.071-.069.149-.137.22-.207.105-.097.195-.191.293-.29.061-.057.116-.116.177-.173.108-.111.206-.21.306-.316.036-.035.072-.076.108-.111.127-.135.252-.263.362-.381.001-.007.009-.012.019-.024.117-.123.218-.236.311-.343l.101-.112c.065-.071.119-.13.167-.19.027-.029.055-.059.075-.09.047-.053.092-.1.122-.143.018-.017.029-.036.047-.053a1.29 1.29 0 0 1 .092-.107c.028-.03.066-.078.113-.132.019-.024.036-.041.057-.072.056-.066.125-.157.208-.252.011-.018.027-.029.038-.048l.322-.389.001-.007c.123-.15.264-.317.409-.505.001-.007.01-.012.018-.017.096-.121.199-.247.305-.379.038-.048.085-.102.123-.15.057-.072.113-.138.171-.21.123-.15.246-.3.372-.464.067-.084.142-.174.211-.265l.409-.505c.076-.096.151-.186.228-.282.153-.193.316-.398.487-.608.067-.084.134-.169.209-.258.211-.265.431-.543.66-.825l.086-.109c.257-.318.519-.657.787-.995a57.775 57.775 0 0 0 .828-1.056c.097-.128.194-.255.298-.381.185-.242.376-.483.561-.726.108-.146.223-.29.338-.435.185-.242.37-.485.561-.726.118-.158.243-.315.36-.473.185-.242.371-.491.564-.739.126-.163.246-.328.371-.492.198-.268.402-.534.606-.801.116-.151.226-.304.343-.462.236-.316.473-.639.71-.962.079-.11.165-.218.245-.328.323-.431.641-.871.967-1.316.07-.098.148-.201.219-.305.248-.342.496-.684.745-1.032.118-.158.23-.324.348-.482.151-.215.31-.435.461-.649.031-.05.069-.098.1-.141.45-.636.903-1.28 1.348-1.924.091-.129.174-.259.265-.388.386-.565.772-1.124 1.143-1.686.084-.13.175-.259.258-.389.431-.641.848-1.284 1.255-1.916.086-.137.177-.272.263-.409.356-.558.705-1.11 1.039-1.659l.158-.248c.03-.043.053-.087.078-.138.098-.163.194-.318.283-.475.172-.28.337-.562.5-.837l.297-.507c.154-.263.3-.521.446-.779.1-.175.192-.346.284-.516.138-.253.274-.498.404-.745.09-.164.176-.336.267-.499l.137-.253c.058-.107.1-.204.157-.311a34.944 34.944 0 0 0 .683-1.404c.139-.294.264-.584.387-.867.044-.111.102-.218.145-.321l.046-.117c.184-.44.351-.868.493-1.275.071-.203.142-.406.198-.605.01-.047.019-.087.035-.133.049-.165.097-.324.137-.484l-.02-.004Z"/><path fill="url(#p)" d="M231.46 208.6c7.142 1.944 11.358 4.686 8.725 12.178-3.99 11.356-23.156 34.387-24.164 35.601-.537.646-10.804 12.969-25.545 12.412-4.803-.184-10.272-1.055-15.697-2.534-11.243-3.061-22.292-8.714-26.766-16.177-7.099-11.844-4.882-29.628-4.769-30.566.008-.272.152-5.4-6.538-7.221a22.66 22.66 0 0 0-.736-.182 15.51 15.51 0 0 0-.722-.215c-6.69-1.821-9.696 2.527-9.851 2.761-.473.841-9.473 16.778-22.61 23.111-8.28 3.987-20.943 3.191-32.186.129-5.424-1.479-10.521-3.479-14.638-5.723-12.631-6.896-13.682-22.296-13.737-23.101-.102-1.523-2.052-30.299 1.545-41.766 2.368-7.568 7.558-7.746 14.7-5.802 3.689 1.003 7.898 2.572 12.506 3.985 13.554 4.156 47.107 22.967 57.035 28.897 3.864 2.304 7.329 3.632 10.125 4.393.745.205 1.45.367 2.099.495.616.213 1.303.427 2.048.632 2.796.761 6.493 1.387 11.123 1.394 11.899.013 51.358 1.075 65.183 4.375 4.711 1.126 9.182 1.921 12.871 2.917l-.001.007Zm-20.01 43.314c7.842-10.235 11.834-18.664 13.607-24.006.477-1.43.787-2.635.976-3.599.804-4.085-8.91-8.357-18.644-11.067-.192-.054-.385-.109-.579-.156-5.168-1.397-10.157-2.336-13.608-2.595-.069-.007-.139-.008-.215-.017-1.67-.258-33.338-5.158-40.769 5.499-1.28 1.831-2.349 4.001-3.143 6.368-3.826 11.419-1.27 27.555 15.188 33.561 3.301 1.203 6.541 2.26 9.682 3.12.206.057.333.091.453.123 15.163 4.064 28.165 3.521 36.406-6.405.124-.15.248-.306.372-.463.095-.113.184-.235.271-.35m-125.76-17.415c17.384 3.21 29.353-8.975 33.119-20.406.782-2.377 1.211-4.716 1.259-6.881.294-12.593-29.105-24.324-30.652-24.935-.063-.035-.134-.064-.197-.098-3.04-1.506-7.762-3.217-12.8-4.594a19.811 19.811 0 0 0-.586-.158c-9.802-2.619-20.584-3.928-22.41-.106-.428.9-.905 2.064-1.382 3.494-1.78 5.341-3.587 14.36-3.281 26.811l.014.432c.015.396.04.78.08 1.16 1.116 12.081 11.608 18.873 26.593 22.984 3.409.924 6.75 1.665 10.241 2.304"/><defs><linearGradient id="a" x1="156.221" x2="157.047" y1="16.078" y2="150.668" gradientUnits="userSpaceOnUse"><stop stop-color="#5CA568"/><stop offset="1" stop-color="#05220A"/></linearGradient><linearGradient id="b" x1="254.419" x2="264.729" y1="105.791" y2="168.05" gradientUnits="userSpaceOnUse"><stop stop-color="#619C5D"/><stop offset="1" stop-color="#4FA257"/></linearGradient><linearGradient id="c" x1="350.087" x2="244.033" y1="96.749" y2="150.389" gradientUnits="userSpaceOnUse"><stop stop-color="#36744B"/><stop offset="1" stop-color="#4FA257"/></linearGradient><linearGradient id="d" x1="233.047" x2="166.651" y1="49.134" y2="173.933" gradientUnits="userSpaceOnUse"><stop stop-color="#2D6542"/><stop offset=".27" stop-color="#438554"/><stop offset=".55" stop-color="#55A062"/><stop offset=".81" stop-color="#61B06B"/><stop offset="1" stop-color="#65B66F"/></linearGradient><linearGradient id="e" x1="173.141" x2="254.396" y1="185.49" y2="41.673" gradientUnits="userSpaceOnUse"><stop stop-color="#3C7E4F"/><stop offset=".14" stop-color="#55985C"/><stop offset=".31" stop-color="#6DB169"/><stop offset=".46" stop-color="#7BC071"/><stop offset=".58" stop-color="#81C674"/><stop offset=".68" stop-color="#7CC171"/><stop offset=".78" stop-color="#70B46B"/><stop offset=".88" stop-color="#5B9F60"/><stop offset=".99" stop-color="#3F8150"/><stop offset="1" stop-color="#3C7E4F"/></linearGradient><linearGradient id="f" x1="184.412" x2="124.406" y1="189.362" y2="379.49" gradientUnits="userSpaceOnUse"><stop stop-color="#FFE24E"/><stop offset="1" stop-color="#D89B00"/></linearGradient><linearGradient id="g" x1="126.732" x2="118.548" y1="258.144" y2="284.331" gradientUnits="userSpaceOnUse"><stop stop-color="#D57675"/><stop offset="1" stop-color="#BC4C52"/></linearGradient><linearGradient id="h" x1="105.702" x2="139.649" y1="268.951" y2="273.842" gradientUnits="userSpaceOnUse"><stop stop-color="#BC4C52"/><stop offset="1" stop-color="#5E2A30"/></linearGradient><linearGradient id="i" x1="128.269" x2="119.151" y1="253.228" y2="284.762" gradientUnits="userSpaceOnUse"><stop stop-color="#FFE16F"/><stop offset="1" stop-color="#F7CC5D" stop-opacity="0"/></linearGradient><linearGradient id="j" x1="101.69" x2="103.425" y1="195.569" y2="245.811" gradientUnits="userSpaceOnUse"><stop stop-color="#FFF5C8"/><stop offset="1" stop-color="#FFC73D" stop-opacity="0"/></linearGradient><linearGradient id="k" x1="107.745" x2="90.028" y1="233.543" y2="208.302" gradientUnits="userSpaceOnUse"><stop stop-color="#FDE46D" stop-opacity="0"/><stop offset="1" stop-color="#D09A08"/></linearGradient><linearGradient id="l" x1="183.218" x2="185.34" y1="215.135" y2="276.5" gradientUnits="userSpaceOnUse"><stop stop-color="#FCF7BC"/><stop offset="1" stop-color="#FFC73D" stop-opacity="0"/></linearGradient><linearGradient id="m" x1="190.622" x2="168.975" y1="261.516" y2="230.686" gradientUnits="userSpaceOnUse"><stop stop-color="#FDE46D" stop-opacity="0"/><stop offset="1" stop-color="#CF9908"/></linearGradient><linearGradient id="n" x1="110.302" x2="253.596" y1="143.752" y2="192.768" gradientUnits="userSpaceOnUse"><stop stop-color="#768196"/><stop offset="1" stop-color="#576073"/></linearGradient><linearGradient id="p" x1="52.473" x2="208.666" y1="159.729" y2="265.304" gradientUnits="userSpaceOnUse"><stop stop-color="#465067"/><stop offset="1" stop-color="#2E3442"/></linearGradient></defs></svg>