<svg xmlns="http://www.w3.org/2000/svg" width="66" height="28" fill="none"><path fill="#2D2D2D" d="M.975.641v26.718h1.92V28H.238V0h2.657v.641H.975ZM8.373 9.11v1.353h.038c.36-.515.794-.915 1.302-1.198.508-.283 1.09-.425 1.746-.425.63 0 1.205.123 1.726.367.52.245.916.676 1.186 1.294a4.243 4.243 0 0 1 1.205-1.158c.508-.335 1.11-.503 1.804-.503.527 0 1.015.065 1.466.194.45.128.835.334 1.157.618.32.283.572.653.752 1.11.18.458.27 1.008.27 1.652v6.683h-2.739v-5.66c0-.334-.013-.65-.039-.946a2.015 2.015 0 0 0-.212-.773 1.29 1.29 0 0 0-.51-.521c-.226-.129-.531-.193-.917-.193s-.697.074-.935.222a1.61 1.61 0 0 0-.56.58 2.324 2.324 0 0 0-.27.81 6.186 6.186 0 0 0-.067.918v5.563h-2.739v-5.602c0-.296-.007-.589-.019-.878a2.47 2.47 0 0 0-.164-.802 1.235 1.235 0 0 0-.482-.59c-.225-.147-.556-.221-.993-.221-.13 0-.3.029-.512.087a1.697 1.697 0 0 0-.617.328c-.2.161-.37.393-.51.695-.142.303-.213.699-.213 1.188v5.795H5.788V9.11h2.585Z"/><path fill="#2D2D2D" fill-rule="evenodd" d="M23.86 9.555a3.285 3.285 0 0 0-1.08 1.024c-.284.425-.444.96-.483 1.603h2.739c.051-.54.232-.927.54-1.159.309-.232.733-.348 1.273-.348.244 0 .473.017.685.048.212.033.398.097.559.194.16.096.29.232.386.405.096.174.144.41.144.705.013.284-.07.5-.25.648-.18.148-.425.26-.733.337a7.303 7.303 0 0 1-1.061.174c-.399.039-.804.09-1.215.155-.412.065-.82.151-1.225.26a3.45 3.45 0 0 0-1.08.493c-.315.22-.572.512-.771.88-.2.366-.3.833-.3 1.4 0 .514.087.959.26 1.332.174.373.415.682.724.927s.669.425 1.08.54c.412.117.855.175 1.331.175.617 0 1.222-.09 1.813-.27a3.571 3.571 0 0 0 1.543-.947 4.032 4.032 0 0 0 .193.965h2.777c-.128-.205-.219-.515-.27-.927a10.41 10.41 0 0 1-.077-1.294V11.68c0-.605-.135-1.092-.405-1.459a2.777 2.777 0 0 0-1.041-.86 4.673 4.673 0 0 0-1.409-.414 11.196 11.196 0 0 0-1.523-.107c-.553 0-1.103.055-1.65.165a4.703 4.703 0 0 0-1.474.55Zm3.77 5.042c.2-.04.386-.087.56-.145.173-.058.318-.139.433-.242v1.024c0 .154-.016.36-.048.618s-.119.512-.26.763c-.142.25-.36.467-.656.647-.296.18-.713.27-1.253.27-.22 0-.431-.02-.637-.058a1.54 1.54 0 0 1-.54-.203 1.034 1.034 0 0 1-.366-.396 1.29 1.29 0 0 1-.136-.617c0-.258.045-.47.136-.638a1.24 1.24 0 0 1 .356-.415c.148-.11.322-.196.521-.26.2-.065.402-.117.608-.155.218-.039.437-.071.655-.097.219-.026.428-.058.627-.096Z" clip-rule="evenodd"/><path fill="#2D2D2D" d="M38.575 9.112v1.835H36.57v4.944c0 .464.077.773.231.927.154.155.463.232.926.232.154 0 .302-.006.443-.02a3.8 3.8 0 0 0 .405-.057v2.125a6.54 6.54 0 0 1-.771.077c-.283.012-.56.019-.83.019-.424 0-.826-.03-1.205-.087a2.83 2.83 0 0 1-1.003-.338 1.784 1.784 0 0 1-.684-.715c-.168-.308-.251-.714-.251-1.216v-5.891h-1.659V9.112h1.659V6.118h2.739v2.994h2.005ZM42.49 9.11v1.855h.04a3.42 3.42 0 0 1 1.273-1.536c.282-.186.584-.33.906-.434a3.269 3.269 0 0 1 1.002-.155c.18 0 .38.033.598.097v2.55a5.097 5.097 0 0 0-.462-.068c-.18-.02-.354-.029-.521-.029-.502 0-.926.084-1.273.251a2.206 2.206 0 0 0-.84.686c-.211.29-.363.627-.453 1.014-.09.386-.134.805-.134 1.255v4.5h-2.74V9.112h2.604Z"/><path fill="#2D2D2D" fill-rule="evenodd" d="M47.467 5.306v2.26h2.739v-2.26h-2.739Zm2.738 13.791V9.112h-2.738v9.985h2.738Z" clip-rule="evenodd"/><path fill="#2D2D2D" d="M51.632 9.11h3.124l1.755 2.608 1.736-2.607h3.028l-3.278 4.674 3.684 5.311h-3.125l-2.083-3.148-2.083 3.148h-3.066l3.587-5.253-3.28-4.732ZM65.025 27.359V.641h-1.92V0h2.657v28h-2.657v-.641h1.92Z"/></svg>