<svg xmlns="http://www.w3.org/2000/svg" xml:space="preserve" width="736" height="573" style="fill-rule:evenodd;clip-rule:evenodd;stroke-linecap:round"><path d="M36.788 389.146V86.649h68.572v12.575c-37.437 3.143-38.919 5.588-38.919 32.834v212.376c0 26.896.742 28.994 38.919 32.139v12.571H36.788v.002ZM145.725 389.146V86.649h68.573v12.575c-37.437 3.143-38.919 5.588-38.919 32.834v212.376c0 26.896.742 28.994 38.919 32.139v12.571h-68.573v.002ZM508.404 389.147v-12.573c37.065-3.146 38.92-5.242 38.92-32.488V131.708c0-27.245-1.854-29.341-38.92-32.484V86.649h68.573v302.498h-68.573ZM617.982 389.147v-12.573c37.063-3.146 38.918-5.242 38.918-32.488V131.708c0-27.245-1.854-29.341-38.918-32.484V86.649h68.571v302.498h-68.571Z" style="fill:#006697;fill-rule:nonzero"/><path d="M162.647 272.892c-4.659 15.826 11.188 28.896 24.93 30.471-5.139 5.35-12.865 5.041-18.95 8.609 10.123 23.785 40.177 29.039 62.263 22.084-18.86 16.998-34.881 38.835-39.004 64.104 1.054 1.41 4.699.842 6.771 1.231 22.802.212 44.3-10.735 61.556-25.237 6.97 17.194-12.719 25.237-26.287 27.268 15.182 21.4 43.549 7.621 53.681-11.57-1.873 13.865-3.702 27.793-6.846 41.443 24.149.088 45.251-16.111 53.014-38.897v-.085c3.548 13.384 1.502 28.128-4.416 40.316 8.388 5.957 26.771 1.871 33.04-5.537 6.813-8.053 12.099-19.422 15.695-29.238 6.849 13.9 14.79 28.193 15.886 43.826 25.994-4.807 33.474-35.326 31.882-57.301 13.821 20.668 33.218 40.234 57.606 46.832 7.847-25.914-3.084-54.479-18.635-75.628 8.562.5 19.662-.151 26.164 6.87 5.683 6.139 5.79 16.047 6.967 23.834 25.366-13.209 10.776-45.184-7.528-57.684 13.844 4.48 28.103 8.299 41.671 13.305 2.405-19.23-6.689-40.458-22.606-51.991 10.758 1.303 23.115 8.144 30.718 15.882 9.96-8.299 1.475-32.621-2.208-37.979-4.072-5.928-11.352-13.452-18.643-19.243 15.585-2.623 30.424-7.561 46.476-4.001-.564-21.185-12.428-31.073-26.47-38.781-7.414-1.887-13.873-5.137-21.545-6.156 22.804-9.063 49.362-21.096 60.941-44.321-23.925-11.638-52.801-11.426-77.646-1.403 3.247-26.169 19.868-22.708 37.093-21.242-7.808-23.409-36.623-21.444-52.706-10.288 7.405-10.12 12.628-26.152 21.544-34.472-22.683-7.842-50.047-1.222-66.056 18.376 2.812-14.699 9.237-30.841 21.36-40.536-18.044-19.052-45.358-1.157-58.721 14.772-.274-15.732-3.391-32.043 1.668-47.215-27.771-3.55-43.808 19.174-49.688 42.31-5.186-24.024-17.489-49.846-36.927-65.885-15.12 20.46-18.075 47.267-12.927 71.406-19.307-2.725-15.174-23.624-11.269-36.7-26.28 3.45-27.293 34.332-16.433 52.705-10.763-8.687-21.795-17.584-32.484-26.288-4.931 10.355-8.24 21.448-7.527 33.059-4.161-2.673-4.642-9.159-7.994-12.176-22.987 12.433-14.541 42.585-3.086 60.189-15.28-3.827-31.485-6.593-44.798-15.823-11.442 22.145 6.202 49.718 25.989 61.216-26.892-3.009-50.575 1.751-74.449 14.009 7.615 12.288 24.858 24.937 38.618 31.08-4.603 2.089-20.065-4.504-24.833-2.833.655 1.253 23.449 35.669 52.389 33.001-7.982 14.28-28.719 9.759-37.24.312" style="fill:#ffc200;fill-rule:nonzero"/><path d="M303.667 77.665c6.136 24.385 20.526 56.996 37.5 76.083M353.833 151.082c-2.419-20.66-3.396-57.697 2-79.917M204.833 196.415c18.738 10.288 51.357 19.404 71.667 24.667M275.167 233.082c-36.5 18.167-89.167 12.834-99.333 10.5M190.333 274.165c24.527.592 62.311-10.058 86.167-13.417M177.25 303.582c31.297 3.414 76.972-15.959 106.25-23.834M257.917 378.332c17.423-17.621 37.215-49.515 45.917-72.917M285.083 396.582c4.614-23.654 20.066-60.253 37.75-78.167M333.25 397.582c6.355-20.051 14.87-49.203 18.583-69.834M378 401.749c6.803-21.58 8.416-53.775 5.167-76.334M428.167 390.416c-3.225-20.68-17.265-52.991-26-72.001M468.5 357.749c-12.47-16.453-35.232-36.487-53-47.001M496.333 331.749c-19.364-7.184-48.596-23.02-62.5-39.334M514.833 292.416c-19.098-12.309-46.189-23.344-67-32.334M450.424 223.338c24.322 3.139 51.059 13.222 72.076 25.952M446.73 206.103c23.209-4.955 53.289-9.184 77.145-6.812M441.19 195.022c16.21-18.965 37.94-33.706 60.935-42.857M488.875 119.915c-14.346 22.679-40.244 46.902-66.042 56.5M442.812 101.978c-15.097 16.351-30.479 36.657-44.097 54.264M274.562 92.79c18.46 15.432 41.63 43.092 47.938 66.958M236.562 100.103c8.988 10.88 24.224 20.905 34.836 29.74 12.452 10.367 19.666 35.489 24.768 50.239M223.5 149.04c12.501 18.935 38.839 43.536 58.333 54.708M405.438 76.603c-15.587 19.427-27.24 51.375-33.938 75.146M222.167 337.748c20.728-8.072 55.646-26.372 73.333-40.333" style="fill:none;fill-rule:nonzero;stroke:#fff;stroke-width:3px"/><path d="M175.833 243.582c-5.167 0-7.167-2.167-10-2.667" style="fill:none;fill-rule:nonzero;stroke:#006697;stroke-width:3px;stroke-linecap:butt;stroke-miterlimit:10"/><circle cx="362" cy="239.081" r="88.333" style="fill:#8e7650;stroke:#fff;stroke-width:3px;stroke-linecap:butt"/><path d="M423.699 562.106h-24.35l-6.429-15.994h-34.246l-6.543 15.994h-24.348l34.873-78.862h26.283l34.76 78.862Zm-36.238-29.71-11.548-28.804-11.662 28.804h23.21Zm-70.306 29.71h-23.731v-78.862h23.731v78.862Zm-38.53-37.98c0 8.073-1.472 14.555-4.413 19.443-2.938 4.895-6.401 8.854-10.383 11.887-5.648 4.434-13.547 6.65-23.702 6.65h-42.513v-78.862h32.738c4.926 0 9.141.257 12.646.771 3.503.513 6.656 1.237 9.462 2.166 2.804.936 5.19 1.979 7.163 3.144 1.968 1.157 3.73 2.404 5.287 3.734 2.688 2.201 5.054 4.802 7.08 7.798 2.034 2.993 3.646 6.465 4.839 10.41 1.198 3.943 1.796 8.231 1.796 12.859Zm-24.187-1.024c0-6.406-1.224-11.398-3.669-14.98-2.445-3.583-5.382-5.979-8.813-7.191a31.181 31.181 0 0 0-10.489-1.818h-10.121v46.68h10.121c6.217 0 11.598-1.479 16.149-4.433 4.546-2.962 6.822-9.046 6.822-18.258Zm-72.801 39.004h-59.4v-78.862h58.433v15.865h-34.703v14.432h33.107v15.864h-33.107v16.839h35.67v15.862Zm-79.407 0H78.496V516.4l-21.461 26.461h-1.877L33.637 516.4v45.706H10.556v-78.862h21.547l24.249 29.582 24.36-29.582h21.518v78.862Zm623.826-.519h-23.729v-78.862h23.729v78.862Zm-34.199 0h-29.013l-30.149-36.93v36.93h-23.73v-78.862h23.73v35.305l28.559-35.305h25.828l-29.354 36.931 34.129 41.931Zm-102.902 0h-23.729v-78.862h23.729v78.862Zm-34.767-78.862-34.133 79.902h-13.768l-20.48-46.486-20.99 46.486h-13.882l-33.451-79.902h24.634l16.382 43.69 18.774-43.69h17.009l18.432 43.69 17.122-43.69h24.351Z" style="fill:#383838;fill-rule:nonzero"/></svg>