<svg xmlns="http://www.w3.org/2000/svg" width="3840" height="2160" style="shape-rendering:geometricPrecision;text-rendering:geometricPrecision;image-rendering:optimizeQuality;fill-rule:evenodd;clip-rule:evenodd"><path fill="#ff3f62" d="M1449.5 31.5c25.97-3.597 44.8 6.403 56.5 30 8.17 24.745 1.67 45.245-19.5 61.5-19.97 10.638-39.3 9.638-58-3-16.77-15.702-22.27-33.868-16.5-54.5 6.39-18.225 18.89-29.558 37.5-34Z" style="opacity:1"/><path fill="#ff3e61" d="M2038.5 89.5c38.17-3.174 68.33 11.493 90.5 44 19.05 35.949 17.05 70.949-6 105-30.59 33.595-66.43 43.095-107.5 28.5-40.35-19.528-59.69-50.861-58-94 6.19-41.253 29.69-68.42 70.5-81.5.33.333.67.667 1 1a361.22 361.22 0 0 1 9.5-3ZM1759.5 292.5c83.15-3.498 164.15 16.002 243 58.5 8.9 5.87 18.07 10.37 27.5 13.5a4706.04 4706.04 0 0 1 64-15c148.1-26.243 277.1 20.091 387 139 51.36 60.574 81.86 129.74 91.5 207.5 4.79 24.96 6.12 50.46 4 76.5.11 6.272 3.11 10.439 9 12.5 81.59 30.233 130.59 87.9 147 173 15.55 81.04-7.62 150.88-69.5 209.5a19.995 19.995 0 0 0-3.5 7.5c51.35 88.54 68.18 180.71 50.5 276.5-21.08 104.05-74.24 187.22-159.5 249.5-71.56 48.89-149.22 72.89-233 72-5.14 1.14-8.31 4.31-9.5 9.5-42.03 116.48-123.03 179.48-243 189-43.71 4.14-86.21-3.36-127.5-22.5-21.35-10.67-41.35-23.33-60-38-4.82-2.09-9.49-1.75-14 1-56.19 40.8-117.69 63.63-184.5 68.5-66.42 4.61-130.92-8.89-193.5-40.5-111.41-62.68-175.07-157.85-191-285.5 2.88-11.54-1.29-19.2-12.5-23-48.43-8.74-92.6-28.24-132.5-58.5-84.77-65.72-129.43-151.55-134-257.5.12-9.21.12-18.38 0-27.5 4.68-85 37.85-158.5 99.5-220.5 2.54-2.45 4.04-5.45 4.5-9a884.982 884.982 0 0 1-23.5-51c-31.4-89.337-25.4-175.67 18-259 46.8-82.474 116.46-133.807 209-154 11.38-2.518 20.38-8.518 27-18 77.05-166.993 205.72-260.66 386-281 7.65-1.047 15.48-2.047 23.5-3Z" style="opacity:1"/><path fill="#ff3f61" d="M1248.5 369.5c29.8-3.519 53.63 6.815 71.5 31 14.99 26.067 14.66 52.401-1 79-20.3 25.622-45.47 35.122-75.5 28.5-32.81-9.995-50.81-32.161-54-66.5.99-38.373 20.66-62.373 59-72ZM2715.5 585.5c40.64-2.056 69.14 15.944 85.5 54 9.66 31.856 1.83 60.023-23.5 84.5-26.06 19.237-54.06 23.237-84 12-37.69-20.835-52.52-51.002-44.5-90.5 7.67-25.336 23.51-43.503 47.5-54.5 6.34-2.289 12.67-4.123 19-5.5Z" style="opacity:1"/><path fill="#fefffe" d="M1967.5 681.5c30.4-.689 57.4 9.145 81 29.5 10.67 10 21.33 20 32 30 15.33 10.211 30 9.211 44-3 28.44-15.013 58.27-21.513 89.5-19.5 83.65 1.985 129.81 44.485 138.5 127.5-.05 20.052-2.89 40.218-8.5 60.5a842.66 842.66 0 0 1-31 87c-21.73 49.78-43.73 99.45-66 149-22.27 49.21-40.6 99.88-55 152-6.04 23.71-7.71 47.71-5 72 5.34 26.34 21.17 42.5 47.5 48.5 29.02 5.23 58.02 10.56 87 16 35.92 10.71 50.09 34.21 42.5 70.5-6.28 17.61-18.45 29.11-36.5 34.5-23.37 7.62-46.87 10.79-70.5 9.5-44.17-1.7-87-10.2-128.5-25.5-55.86-25.87-91.36-68.7-106.5-128.5-7.52-30-6.85-60.34 2-91a446.086 446.086 0 0 1 18-44c39.39-83.12 79.06-166.12 119-249a529.648 529.648 0 0 0 21-54c5.1-34.226-9.4-49.393-43.5-45.5-11.28 4.237-20.78 11.07-28.5 20.5l-6 8a3857.167 3857.167 0 0 0-55 104c-51.65 101.97-103.32 203.97-155 306-31.02 55.12-75.85 70.62-134.5 46.5-15.59-10.84-23.93-25.84-25-45 .75-15.54 4.25-31.04 10.5-46.5a24023.1 24023.1 0 0 0 108-272c7.28-20.09 7.61-40.089 1-60-12.97-23.883-32.47-31.717-58.5-23.5-14.89 6.561-25.39 17.394-31.5 32.5-53.28 132.89-106.28 265.89-159 399-8.22 20.67-17.22 41-27 61-21.29 39.22-54.46 59.72-99.5 61.5-44.46 2.25-83.46-11.08-117-40-35.81-34.77-49.64-76.93-41.5-126.5a8389.528 8389.528 0 0 1 112-366 2615.692 2615.692 0 0 1 44-121c9.08-23.277 20.41-45.277 34-66 41.22-50.852 94.56-75.519 160-74 15.15 2.272 29.65 6.772 43.5 13.5a2537.233 2537.233 0 0 1 86 41c12.27 3.892 24.6 3.559 37-1a118.19 118.19 0 0 0 18-10 651.971 651.971 0 0 0 46-40c19.58-16.128 41.92-25.628 67-28.5Z" style="opacity:1"/><path fill="#ff3f62" d="M2968.5 867.5c27.58-1.322 44.58 11.844 51 39.5.83 24.394-10.67 40.561-34.5 48.5-18.14 2.817-33.47-3.183-46-18-14.65-25.057-9.82-46.39 14.5-64a106.38 106.38 0 0 1 15-6Z" style="opacity:1"/><path fill="#ff3e61" d="M904.5 941.5c3.959.745 8.126.745 12.5 0 41.41 4.762 69.577 27.262 84.5 67.5 9.37 39.22-1.964 72.55-34 100-33.257 22.66-67.923 24.66-104 6-37.72-27.07-51.553-62.23-41.5-105.5 12.02-37.739 37.02-59.739 75-66 2.607-.623 5.107-1.29 7.5-2Z" style="opacity:1"/><path fill="#ff3f61" d="M2853.5 1133.5c35.95-2.47 58.62 14.03 68 49.5 2.5 36.24-13.67 58.74-48.5 67.5-29.92 2.86-51.58-9.47-65-37-9.25-30.57-.42-54.73 26.5-72.5 6.22-3.12 12.55-5.62 19-7.5Z" style="opacity:1"/><path fill="#ff4062" d="M1184.5 1691.5c27.22-1.53 44.56 10.97 52 37.5 1.16 26.9-11.67 43.74-38.5 50.5-26.01.72-42.51-11.78-49.5-37.5-.9-26.03 11.1-42.86 36-50.5Z" style="opacity:1"/><path fill="#ff3e61" d="M2436.5 1833.5c50.96-1.57 85.63 22.26 104 71.5 7.45 30.01 1.29 58.84-18.5 86.5-25.83 28.63-55.83 40.3-90 35-33.45-5.27-58.45-23.61-75-55-16.01-37.6-10.68-72.93 16-106 17.37-18.27 38.54-28.94 63.5-32Z" style="opacity:1"/><path fill="#ff3f61" d="M1858.5 2007.5c20.34-1.44 38.17 5.9 53.5 22 14.66 18.99 17.66 39.66 9 62-17.3 31.67-43.47 42.5-78.5 32.5-30.01-14.63-42.35-38.29-37-71 8.82-26.02 26.49-41.19 53-45.5Z" style="opacity:1"/></svg>