<svg xmlns="http://www.w3.org/2000/svg" width="3840" height="2160" style="shape-rendering:geometricPrecision;text-rendering:geometricPrecision;image-rendering:optimizeQuality;fill-rule:evenodd;clip-rule:evenodd"><path fill="#ed1c40" d="M503.5 332.5c26.18-2.924 41.18 8.576 45 34.5-3.374 26.714-18.374 38.381-45 35-22.3-8.43-30.466-24.264-24.5-47.5 4.926-11.1 13.092-18.433 24.5-22Z" style="opacity:.989"/><path fill="#ed1c40" d="M924.5 373.5c44.732-.769 69.732 21.065 75 65.5-2.127 32.27-18.46 53.603-49 64-32.793 6.513-57.959-4.32-75.5-32.5-15.333-36.516-6.833-66.016 25.5-88.5 7.796-3.763 15.796-6.596 24-8.5Z" style="opacity:.994"/><path fill="#ed1c40" d="M720.5 518.5c69.401-3.067 133.734 13.433 193 49.5a91.567 91.567 0 0 0 6.5 1.5c126.05-37.153 233.38-7.153 322 90 47.73 58.527 69.9 125.693 66.5 201.5a65.6 65.6 0 0 1 2 5.5c72.78 27.839 110.44 80.839 113 159-.87 45.72-18.03 84.06-51.5 115-1.63 1.95-2.8 4.12-3.5 6.5a375.693 375.693 0 0 1 30.5 72.5c23.04 95.49 3.71 181.15-58 257-57.59 64.12-129.75 96.62-216.5 97.5-1.37.4-2.71.9-4 1.5a567.22 567.22 0 0 1-23.5 50c-33.11 52.17-80.61 82-142.5 89.5-53.69 6-101.357-8-143-42-3.667-2-7.333-2-11 0-74.564 51.84-154.898 62.84-241 33-87.561-36.25-141.394-100.75-161.5-193.5a2582.21 2582.21 0 0 1-5-35 15.815 15.815 0 0 0-5.5-3.5c-69.194-14.99-122.361-52.49-159.5-112.5-32.832-60.17-40.498-123.17-23-189 12.023-39.4 32.69-73.4 62-102 1.545-1.71 2.378-3.71 2.5-6-4.472-9.62-8.972-19.28-13.5-29-28.53-74.422-21.197-145.088 22-212 34.99-48.93 82.157-79.43 141.5-91.5 6.639-2.303 11.806-6.469 15.5-12.5 56.297-121.741 151.464-188.741 285.5-201Z" style="opacity:.999"/><path fill="#ed1c40" d="M367.5 572.5c27.925.435 45.425 14.102 52.5 41 3.23 31.406-10.27 51.24-40.5 59.5-35.116 2.115-55.116-14.218-60-49 1.874-30.049 17.874-47.215 48-51.5Z" style="opacity:.992"/><path fill="#ed1c40" d="M2911.5 705.5c15.4.398 30.73 2.898 46 7.5 7.61 4.375 12.45 10.875 14.5 19.5a673.733 673.733 0 0 1 2 48 17.785 17.785 0 0 0 4.5 5.5l92 12c8.24 1.243 13.74 5.743 16.5 13.5 2.78 9.827 1.78 19.161-3 28a25.5 25.5 0 0 1-6.5 5.5 491.49 491.49 0 0 1-97 24c-4.34 1.01-7.51 3.51-9.5 7.5a65.146 65.146 0 0 0-1.5 13.5c.17 35.017.17 71.351 0 109 .5 18.82 1.67 37.65 3.5 56.5 2.37 17.15 7.37 33.49 15 49 9.63 15.33 23.47 21.17 41.5 17.5 31.44-4.8 59.44-17.14 84-37 10.49-9.15 16.66-20.65 18.5-34.5 1.3-39.74 3.64-79.403 7-119 .99-11.641 6.99-18.974 18-22h52c7.79.77 15.62 1.604 23.5 2.5 13.93 5.508 20.93 15.842 21 31-5.14 53.504-9.97 107-14.5 160.5 1.8 13.79 8.96 23.62 21.5 29.5 29.45 10.98 49.28 1.82 59.5-27.5 5.76-16.29 10.1-32.96 13-50 5.33-36.59 9.99-73.252 14-110 7.36-17.69 20.19-23.19 38.5-16.5 7.47 3.417 11.63 9.25 12.5 17.5.67 6.333.67 12.667 0 19-4.52 34.98-8.85 69.98-13 105-3.82 21.18 3.68 36.68 22.5 46.5 14.4 5.28 29.23 8.78 44.5 10.5 14.9-1.23 24.9-8.9 30-23 2.52-7.81 4.19-15.81 5-24 2.59-29.98 4.92-59.98 7-90 .53-30.625 12.03-56.125 34.5-76.5 13.18-9.507 27.84-15.507 44-18 9.18-1.46 18.35-2.627 27.5-3.5 11.77.102 24.27.936 37.5 2.5 46.54 9.205 74.37 37.038 83.5 83.5 6.42 67.48-17.75 120.81-72.5 160a26.087 26.087 0 0 0-5 7c3.81 3.07 8.14 4.74 13 5 27.48-.79 53.81-6.63 79-17.5 12.67-6.67 25.33-13.33 38-20 13.24-4.75 16.74-.58 10.5 12.5-5.65 14.99-14.48 27.82-26.5 38.5-27.81 23.39-59.98 35.55-96.5 36.5-28.57-1.51-57.9-3.51-88-6-4-.22-7.34 1.11-10 4a417.09 417.09 0 0 0-11 48c-6.17 37.55-11.51 75.21-16 113a700.989 700.989 0 0 1-13 65c-5.68 17.34-17.68 27.01-36 29-7.12-.56-12.45-3.89-16-10-3.36-8.4-5.69-17.07-7-26a783.92 783.92 0 0 1-1-74c4.88-50.73 10.38-101.4 16.5-152 .45-7.72-3.22-11.89-11-12.5-24.7-4.87-49.36-9.87-74-15-8.67-.8-16.67 1.2-24 6-9.37 9.04-19.04 17.7-29 26-23.56 18.56-50.22 25.56-80 21-35.68-2.42-64.51-17.59-86.5-45.5a416.3 416.3 0 0 1-21.5-37.5c-2-.67-4-.67-6 0a747.647 747.647 0 0 1-79 37c-47.73 13.53-87.9 1.7-120.5-35.5l-20-26c-13.57 20.91-29.4 40.08-47.5 57.5-43.47 38.12-93.8 52.45-151 43-9.27-2.2-18.27-5.2-27-9a462.608 462.608 0 0 0-43-19.5c-2.13.02-4.13.52-6 1.5a928.436 928.436 0 0 1-50 29c-29.4 14.35-60.4 20.35-93 18-32.71-5.35-60.71-19.69-84-43a17.977 17.977 0 0 0-7.5-3.5c-2.79.59-5.29 1.76-7.5 3.5-26.92 22.3-57.25 38.63-91 49-47.02 16.45-95.35 23.45-145 21-42.97-6.71-73.14-29.88-90.5-69.5-8.9-24.7-7.9-49.03 3-73 26.86-58.25 53.53-116.582 80-175 .95-5.19 1.79-10.357 2.5-15.5-1.72-13.59-9.72-18.923-24-16a36.04 36.04 0 0 0-7 4 259.748 259.748 0 0 0-15.5 21.5c-38.18 73.69-75.84 147.69-113 222-17.83 26.42-41.66 33.59-71.5 21.5-12.11-8.76-16.61-20.59-13.5-35.5 1.18-7.55 3.18-14.88 6-22 16.67-42 33.33-84 50-126a195.165 195.165 0 0 0 10-31c1.85-12.098-1.31-22.598-9.5-31.5-11.98-6.005-23.14-4.505-33.5 4.5a31.345 31.345 0 0 0-5 8c-31.78 81.56-64.11 162.89-97 244-13.53 35.53-39.36 51.36-77.5 47.5-40.03-5.03-64.53-27.2-73.5-66.5-.67-7.33-.67-14.67 0-22a3864.46 3864.46 0 0 1 83-267c7.44-19.548 17.44-37.548 30-54 19.92-18.793 43.59-29.459 71-32 15.69 1.119 30.52 5.286 44.5 12.5a297.046 297.046 0 0 0 42 19c9.78.962 18.45-1.704 26-8a1026.905 1026.905 0 0 1 33-28c21.37-11.242 42.7-11.242 64 0 9.93 9.95 20.59 18.95 32 27 3 .667 6 .667 9 0a247.24 247.24 0 0 0 19-9c32.22-10.639 62.89-7.306 92 10 24.12 26.603 30.62 57.103 19.5 91.5a20993.748 20993.748 0 0 1-62 151 660.204 660.204 0 0 0-24 78c-1.78 12.53-.11 24.53 5 36 7.26 8.38 16.42 13.21 27.5 14.5 20.24 2.51 40.24 1.18 60-4a482.096 482.096 0 0 0 93-33c4.78-1.77 7.78-5.11 9-10l-1.5-4.5c-17.82-28.64-32.15-58.97-43-91-6.89-25.26-7.22-50.589-1-76 7.72-27.391 24.89-46.224 51.5-56.5 35.23-14.088 65.39-6.922 90.5 21.5 33.22 37.998 40.56 80.66 22 128a5282.46 5282.46 0 0 0-20.5 54c.08 1.8.58 3.47 1.5 5 28.19 28.01 62.03 44.68 101.5 50 16.39-.3 30.89-5.63 43.5-16 1.46-2.87 1.79-5.87 1-9-26.51-34.5-41.84-73.5-46-117-1.88-24.85.78-49.182 8-73 8.37-21.693 24.21-33.526 47.5-35.5 28.49-3.368 55.16 1.966 80 16 32.83 26.53 45.33 60.697 37.5 102.5-2.53 11.06-6.2 21.73-11 32a388.33 388.33 0 0 1-24 39c-2.25 6.44-.42 11.61 5.5 15.5 37.32 28.19 77.98 33.86 122 17 30.84-13.18 50.67-36.01 59.5-68.5 5.92-22.16 9.08-44.66 9.5-67.5-.74-38.18-1.91-77.68-3.5-118.5a11.381 11.381 0 0 0-1.5-3.5 16.242 16.242 0 0 0-8 0 2156.42 2156.42 0 0 1-111 19.5c-14.55-.383-23.05-7.716-25.5-22a1418.82 1418.82 0 0 0-7.5-74.5c.54-6.574 1.7-13.074 3.5-19.5 3.97-7.246 10.13-11.413 18.5-12.5 35.66-.265 71.49.902 107.5 3.5 4.08-.35 8.24-1.517 12.5-3.5 2.44-2.707 3.94-5.873 4.5-9.5a937.83 937.83 0 0 1 4-50c2.4-6.944 7.24-10.611 14.5-11Zm723 268c11.51-.666 20.01 4.001 25.5 14 4.98 15.55 4.32 30.88-2 46-15.53 33.19-38.03 60.69-67.5 82.5-4.26 2.98-8.93 4.31-14 4-3.44-1.39-5.61-3.89-6.5-7.5 2.29-36.17 11.63-70.5 28-103 6.26-12.6 15.09-23.1 26.5-31.5 3.32-1.83 6.65-3.33 10-4.5Zm-1205 4c12.84-.008 21.34 5.992 25.5 18 3.79 9.35 5.46 19.02 5 29-3.03 16.43-9.53 31.26-19.5 44.5-2 .67-4 .67-6 0-7.57-9.3-12.9-19.8-16-31.5-5.09-15.63-7.26-31.63-6.5-48 3.74-7.117 9.58-11.117 17.5-12Zm241 0c9.38-.894 16.88 2.44 22.5 10 8.61 13.05 11.61 27.38 9 43-1.74 15.63-7.9 29.13-18.5 40.5-4.83 2.01-8.33.51-10.5-4.5-11.54-18.78-18.37-39.11-20.5-61-.97-14.112 5.03-23.445 18-28Z" style="opacity:.995"/><path fill="#ed1c40" d="M1404.5 727.5c35.12-2.377 57.29 13.29 66.5 47 2.67 24.022-5.83 42.855-25.5 56.5-29.33 14.587-54.83 9.754-76.5-14.5-16.93-28.943-13.09-54.777 11.5-77.5 7.43-5.218 15.43-9.051 24-11.5Z" style="opacity:.994"/><path fill="#fffefe" d="M870.5 795.5c21.531-1.322 40.864 4.511 58 17.5l27 25c5.699 4.129 12.032 5.462 19 4a274.209 274.209 0 0 1 28-14c28.61-8.34 57.28-8.34 86 0 25.16 7.824 42.66 23.991 52.5 48.5 10.59 26.727 11.25 53.727 2 81a776.325 776.325 0 0 1-21 59c-18.47 42.42-37.14 84.75-56 127a650.52 650.52 0 0 0-32 94c-4.47 18.71-4.47 37.38 0 56 6.58 14.89 18.08 23.39 34.5 25.5 18.67 3.33 37.33 6.67 56 10 28.07 7.3 38.9 25.13 32.5 53.5-4.96 10.96-13.12 18.46-24.5 22.5-12.51 4.39-25.35 6.89-38.5 7.5-30.38-.21-60.88-4.71-91.5-13.5-50.928-17.93-81.428-53.43-91.5-106.5-3.824-22.68-1.49-44.68 7-66a12312.435 12312.435 0 0 1 90-190 567.149 567.149 0 0 0 18-43c2.46-9.6 1.79-18.933-2-28-12.67-11.48-25.835-11.98-39.5-1.5a101.553 101.553 0 0 0-11.5 12.5 5384.72 5384.72 0 0 0-46 87 31305.587 31305.587 0 0 1-107 211c-18.461 30.81-45.294 42.31-80.5 34.5-24.247-7.64-34.414-24.14-30.5-49.5 1.39-7.17 3.39-14.17 6-21a31325.563 31325.563 0 0 0 74-185c5.797-13.45 8.13-27.45 7-42-4.191-20.533-16.691-30.033-37.5-28.5-14.536 3.533-24.369 12.366-29.5 26.5a77434.401 77434.401 0 0 1-116 291c-6.515 19.26-15.849 36.93-28 53-12.343 13.26-27.51 21.42-45.5 24.5-42.569 6.62-78.402-5.88-107.5-37.5-17.608-23.1-24.274-49.1-20-78a5767.241 5767.241 0 0 1 85-277 1821.08 1821.08 0 0 1 29-78c22.206-58.54 64.539-89.874 127-94 15.379-.209 29.879 3.291 43.5 10.5a1079.432 1079.432 0 0 1 56 27c12.93 4.905 25.263 3.571 37-4a233.623 233.623 0 0 0 34-29c13.659-11.831 29.326-19.331 47-22.5Z" style="opacity:1"/><path fill="#ed1c40" d="M1586.5 928.5c14.22-1.639 25.38 3.361 33.5 15 7.88 16.32 5.04 30.487-8.5 42.5-16.84 9.296-31.68 6.796-44.5-7.5-11.01-23.628-4.51-40.294 19.5-50Z" style="opacity:.988"/><path fill="#ed1c40" d="M110.5 981.5c39.605-2.463 65.105 15.203 76.5 53 4.347 33.14-8.153 57.64-37.5 73.5-34.806 13.09-62.973 4.59-84.5-25.5-13.759-26.16-12.425-51.5 4-76 11.045-13.1 24.878-21.433 41.5-25Z" style="opacity:.994"/><path fill="#ed1c40" d="M1507.5 1117.5c27.92.09 43.92 13.93 48 41.5-.78 22.15-12.12 36.15-34 42-24.45 2.52-40.95-7.65-49.5-30.5-3.45-28.03 8.38-45.69 35.5-53Z" style="opacity:.991"/><path fill="#ed1c40" d="M316.5 1515.5c24.828-.01 36.995 12.33 36.5 37-3.056 13.39-11.223 21.89-24.5 25.5-19.368 2.24-31.868-5.93-37.5-24.5-1.557-19.58 6.943-32.25 25.5-38Z" style="opacity:.988"/><path fill="#ed1c40" d="M1212.5 1616.5c41.24 2.07 65.4 23.41 72.5 64 .46 34.26-15.04 58.09-46.5 71.5-36.08 9.42-64.25-1.41-84.5-32.5-15.01-32.79-9.51-61.62 16.5-86.5 12.42-9.72 26.42-15.22 42-16.5Z" style="opacity:.994"/><path fill="#ed1c40" d="M792.5 1741.5c26.669-2.77 43.836 8.57 51.5 34 2.885 25.74-7.948 42.57-32.5 50.5-26.367 3.91-43.867-6.59-52.5-31.5-3.608-27.19 7.559-44.86 33.5-53Z" style="opacity:.991"/></svg>