<svg xmlns="http://www.w3.org/2000/svg" xml:space="preserve" id="Layer_1" x="0" y="0" style="enable-background:new 0 0 512 512" version="1.1" viewBox="0 0 512 512"><style>.st1{fill:#fff}</style><path d="M453 384.4 268.8 490.9c-7.9 4.6-17.7 4.6-25.6 0L59 384.4c-7.9-4.6-12.8-13.1-12.8-22V149.6c0-9.2 4.9-17.4 12.8-22L243.2 21.1c7.9-4.6 17.7-4.6 25.6 0L453 127.8c7.9 4.6 12.8 13.1 12.8 22v212.8c-.3 9-5.1 17.4-12.8 22v-.2z" style="fill-rule:evenodd;clip-rule:evenodd;fill:#8d6748"/><path d="M255.7 57.8c2.5 0 5 .8 7.2 2L422 151.7c4.4 2.6 7.1 7.4 7.2 12.5V348c0 5.1-2.7 9.9-7.2 12.5l-159.1 91.8c-2.3 1.3-4.5 2-7.2 2-2.5 0-5-.7-7.2-2l-159-91.8c-4.4-2.6-7.1-7.4-7.2-12.5V164.3c0-5.1 2.7-9.9 7.2-12.5L248.6 60c2.3-1.4 4.9-2.2 7.1-2.2m0-7.6c-3.8 0-7.7 1.1-11 3.1L85.6 145.1c-6.8 3.9-11 11.1-11 18.9v183.7c0 7.9 4.1 15.1 11 18.9l159.1 91.9c3.3 2 7.2 3.1 11 3.1s7.7-1.1 11-3.1l159.1-91.8c6.8-3.9 11-11.1 11-18.9V164c0-7.9-4.1-15.1-11-18.9L266.7 53.2c-3.3-2-7.1-3-11-3zM278.5 164c0-1.3-1.1-2.6-2.6-2.6h-48.1c-1.3 0-2.6 1.1-2.6 2.6 0 8.7 1.3 38.6 14.1 53.2.5.5 1.1.8 1.8.8h21.4c.7 0 1.3-.3 1.8-.8 12.8-14.3 14.1-44.2 14.2-53.2zm-18.9 46.6h-15.1c-.7 0-1.3-.3-1.8-.8-8.7-10.1-9.7-30.7-10-37.9 0-1.3 1.1-2.6 2.6-2.6H269c1.3 0 2.6 1.1 2.6 2.6 0 7.2-1.3 27.4-10 37.9-.8.5-1.3.8-2 .8zm-2.9-54.3s9.2-5.4 3.6-15.1c-3.3-5.1-4.9-9.5-3.6-11.3-3.3 4.1-9 8.4-2.8 17.6 2.1 2.4 3.1 7.3 2.8 8.8zm-10.1.8s6.1-3.6 2.3-10.1c-2.3-3.3-3.3-6.4-2.3-7.4-2.3 2.8-5.9 5.6-1.8 12 1.3 1.2 1.8 4.5 1.8 5.5z" class="st1"/><path d="M267.4 186.8c-1.1 6.9-3.1 14.8-7.4 20-.5.5-1.1.8-1.5.8h-12.8c-.5 0-1.3-.3-1.5-.8-3.1-3.8-5.1-9-6.4-14.3 0 0 14.8 2 23.3-1.1 6-2.4 6.3-4.6 6.3-4.6zM99.3 228.2h9.5l15.6 24.1 15.6-24.1h9.5v51.2h-9v-36.6l-16.1 24.1h-.3l-15.8-23.8v36.6h-9v-51.5zm96.5 52c-3.7 0-7.3-.7-10.7-2-3.2-1.3-6.1-3.2-8.4-5.6-2.4-2.4-4.2-5.3-5.4-8.4-1.3-3.1-2-6.8-2-10.1v-.3c0-3.6.8-6.9 2-10.1 1.3-3.1 3.1-5.9 5.6-8.4 2.4-2.4 5.3-4.4 8.4-5.6 3.3-1.5 6.9-2 10.7-2 3.7 0 7.3.7 10.7 2 3.2 1.3 6.1 3.2 8.4 5.6 2.4 2.4 4.2 5.3 5.4 8.4 1.3 3.1 2 6.8 2 10.1v.3c0 3.6-.8 6.9-2 10.1-1.3 3.1-3.1 5.9-5.6 8.4-2.4 2.4-5.3 4.4-8.4 5.6-3.3 1.4-6.9 2-10.7 2zm0-8.2c2.6 0 4.9-.5 6.9-1.5s3.8-2.3 5.4-3.8c1.5-1.5 2.6-3.6 3.6-5.6.8-2.2 1.2-4.6 1.3-6.9v-.3c0-2.6-.5-4.9-1.3-7.2-.8-2.2-2-4.2-3.6-5.9-1.6-1.6-3.4-2.9-5.4-3.8-2-1.1-4.3-1.5-6.9-1.5-2.4 0-4.8.5-6.9 1.5-2 1-3.8 2.3-5.4 3.8-1.5 1.5-2.6 3.6-3.6 5.6-.8 2.2-1.2 4.6-1.3 6.9v.3c0 2.6.5 4.9 1.3 7.2.8 2.2 2 4.2 3.6 5.9 1.6 1.6 3.4 2.9 5.4 3.8 2.1 1 4.5 1.5 6.9 1.5zm70.1 8.2c-3.5 0-7-.7-10.2-2-3.1-1.3-5.9-3.3-8.2-5.6-2.4-2.4-4.2-5.3-5.4-8.4-1.3-3.3-2-6.8-2-10.1v-.3c0-3.6.8-7.2 2-10.1 1.3-3.1 3.1-6 5.4-8.4 2.4-2.4 5.3-4.4 8.4-5.6 3.4-1.4 7.1-2.1 10.7-2 2.3 0 4.3.3 6.4.5l5.4 1.5c1.5.8 3.1 1.5 4.3 2.6l3.8 3.3-5.9 6.8c-1.9-1.8-4.1-3.3-6.4-4.5-2.5-1.2-5.2-1.9-7.9-1.8-2.3 0-4.6.5-6.7 1.5-2 1-3.8 2.3-5.4 3.8-1.5 1.5-2.6 3.6-3.6 5.6-.8 2.2-1.2 4.6-1.3 6.9v.3c0 2.6.5 4.9 1.3 7.2.8 2.2 2 4.2 3.6 5.9 1.5 1.5 3.3 3.1 5.4 3.8 2 .8 4.3 1.5 6.8 1.5 3.1 0 5.9-.5 7.9-1.8 2.4-1.4 4.6-3.1 6.7-4.9l5.9 5.9c-1.3 1.5-2.6 2.6-4.1 3.8-1.5 1.3-3.1 2-4.5 2.8-1.7.9-3.5 1.5-5.4 1.8-2.3.5-4.5.5-6.9.5l-.1-.5zm38.8-52h9v21.2h24.6v-21.2h9v51.2h-9V258h-24.5v21.4h-9l-.1-51.2zm82.2-.2h8.2l22.5 51.4h-9.5L403 267h-24.1l-5.4 12.4h-9.2l22.6-51.4zm12.7 31.2-8.7-20.5-8.7 20.5h17.4zM92.8 295.5h326.4v2.8H92.8v-2.8zm326.4-96.2H280.4c0 1.1-.3 1.8-.3 2.8H419v-2.8h.2zm-326.2 0v2.8h130.7c0-1.1-.3-1.8-.3-2.8H93z" class="st1"/></svg>