<svg xmlns="http://www.w3.org/2000/svg" width="500" height="200" fill="none"><path fill="#EA4B71" fill-rule="evenodd" d="M239 83c-11.183 0-20.58-7.649-23.244-18h-27.508a12 12 0 0 0-11.836 10.027l-.987 5.919A23.945 23.945 0 0 1 167.626 95a23.945 23.945 0 0 1 7.799 14.054l.987 5.919A12 12 0 0 0 188.248 125h3.508c2.664-10.351 12.061-18 23.244-18 13.255 0 24 10.745 24 24s-10.745 24-24 24c-11.183 0-20.58-7.649-23.244-18h-3.508c-11.732 0-21.744-8.482-23.673-20.054l-.987-5.919A12 12 0 0 0 151.752 101h-9.508c-2.664 10.351-12.061 18-23.244 18s-20.58-7.649-23.244-18H82.244C79.58 111.351 70.183 119 59 119c-13.255 0-24-10.745-24-24s10.745-24 24-24c11.183 0 20.58 7.649 23.244 18h13.512C98.42 78.649 107.817 71 119 71s20.58 7.649 23.244 18h9.508a12 12 0 0 0 11.836-10.027l.987-5.919C166.504 61.482 176.516 53 188.248 53h27.508C218.42 42.649 227.817 35 239 35c13.255 0 24 10.745 24 24s-10.745 24-24 24zm0-12c6.627 0 12-5.373 12-12s-5.373-12-12-12-12 5.373-12 12 5.373 12 12 12zM59 107c6.627 0 12-5.373 12-12s-5.373-12-12-12-12 5.373-12 12 5.373 12 12 12zm72-12c0 6.627-5.373 12-12 12s-12-5.373-12-12 5.373-12 12-12 12 5.373 12 12zm96 36c0 6.627-5.373 12-12 12s-12-5.373-12-12 5.373-12 12-12 12 5.373 12 12z" clip-rule="evenodd"/><path fill="#101330" fill-rule="evenodd" d="M407.017 86.887v-.571c4.187-2.097 8.374-5.719 8.374-12.867 0-10.294-8.469-16.489-20.173-16.489-11.99 0-20.554 6.576-20.554 16.679 0 6.863 3.996 10.58 8.374 12.677v.571c-4.853 1.716-10.658 6.863-10.658 15.441 0 10.388 8.564 17.632 22.743 17.632 14.178 0 22.457-7.244 22.457-17.632 0-8.578-5.71-13.63-10.563-15.441zm-11.894-21.158c4.758 0 8.278 3.049 8.278 8.196s-3.616 8.197-8.278 8.197c-4.663 0-8.565-3.05-8.565-8.197 0-5.242 3.712-8.196 8.565-8.196zm0 45.081c-5.52 0-9.992-3.526-9.992-9.531 0-5.432 3.711-9.531 9.896-9.531 6.091 0 9.802 4.003 9.802 9.722 0 5.814-4.282 9.34-9.706 9.34z" clip-rule="evenodd"/><path fill="#101330" d="M432.26 119.007h12.18V93.178c0-8.483 5.139-12.2 10.943-12.2 5.71 0 10.182 3.813 10.182 11.628v26.401h12.18V90.128c0-12.486-7.232-19.729-18.555-19.729-7.137 0-11.134 2.859-13.989 6.576h-.761l-1.047-5.623H432.26v47.655zM324.44 119.007h-12.18V71.352h11.133l1.047 5.623h.761c2.855-3.717 6.852-6.576 13.989-6.576 11.323 0 18.555 7.243 18.555 19.729v28.879h-12.18V92.606c0-7.815-4.472-11.628-10.182-11.628-5.804 0-10.943 3.717-10.943 12.2v25.829z"/></svg>