<svg xmlns="http://www.w3.org/2000/svg" width="321" height="75"><defs><radialGradient id="a" cx="65.599%" cy="0%" r="169.036%" fx="65.599%" fy="0%" gradientTransform="matrix(-.5183 .5916 -.38031 -.80624 .996 -.388)"><stop offset="0%" stop-color="#2A6CBE"/><stop offset="38.688%" stop-color="#2062BC"/><stop offset="49.182%" stop-color="#1F5FBC"/><stop offset="66.583%" stop-color="#1C5ABD"/><stop offset="85.354%" stop-color="#1956BC"/><stop offset="100%" stop-color="#1851BE"/></radialGradient></defs><g fill="none"><path fill="#000306" stroke="#000306" stroke-width=".275" d="M196.81 21c14.882 0 25.447 8.727 25.674 25.846.007.516-.022 1.273-.087 2.273a2 2 0 0 1-1.996 1.87h-40.29c0 6.645 3.613 14.287 17.267 14.287 7.71 0 15.247-2.348 22.61-7.042l.566-.366a1.5 1.5 0 0 1 2.31 1.076c.267 2.218.14 3.64-.38 4.265C221.452 64.451 211.902 74 197.378 74 181.588 74 170 62.877 170 47.39 170 32.343 181.02 21 196.81 21ZM163.927 1a2 2 0 0 1 2 2l.001 42.127c.048.685.072 1.379.072 2.08C166 62.534 154.46 74 139 74c-15.573 0-27-11.467-27-26.792 0-15.326 11.427-26.792 27-26.792 6.981 0 13.163 2.338 17.844 6.314V5.542A4.542 4.542 0 0 1 161.385 1h2.542ZM82 21c15.46 0 27 11.342 27 26.5S97.46 74 82 74c-15.573 0-27-11.342-27-26.5S66.427 21 82 21Zm-53.676 0C42.61 21 51 30.165 51 42.78V68.5a3.5 3.5 0 0 1-3.5 3.5h-4.25a2 2 0 0 1-2-2V43.535c0-8.195-4.422-13.91-13.946-13.91-16.222 0-16.547 7.155-16.553 16.058V72H3a2 2 0 0 1-2-2V36.293C1 25.393 20.161 21 28.324 21ZM82 29.724c-10.195 0-17.365 7.743-17.365 17.776 0 9.815 7.17 17.776 17.365 17.776 10.195 0 17.365-7.961 17.365-17.776 0-10.033-7.17-17.776-17.365-17.776Zm57-.488c-10.195 0-17.365 7.828-17.365 17.972 0 9.923 7.17 17.972 17.365 17.972 10.195 0 17.365-8.05 17.365-17.972 0-10.144-7.17-17.972-17.365-17.972Zm57.81.488c-9.088 0-15.336 5.235-16.586 13.087h32.036c-1.25-7.852-6.816-13.087-15.45-13.087Z"/><path fill="url(#a)" d="M277 19v38.73c-.007 6.451-.11 10.894-.11 15.27h-21.24C242.961 73 236 67.06 236 57.726c0-6.249 3.558-10.8 9.128-12.652-4.564-1.928-7.349-6.248-7.349-11.571 0-8.64 6.885-14.503 18.953-14.503H277Zm22.268 0c12.068 0 18.953 5.863 18.953 14.503 0 5.323-2.785 9.643-7.35 11.571 5.57 1.852 9.129 6.403 9.129 12.652C320 67.06 313.038 73 300.35 73h-21.24c0-4.376-.103-8.819-.11-15.27V19h20.268Zm-33.176 30.857H256.5c-6.343 0-9.515 2.392-9.515 7.097 0 4.937 2.94 7.406 8.741 7.406h5.029c4.022 0 5.337-1.929 5.337-7.791v-6.712Zm33.408 0h-9.592v6.712c0 5.862 1.315 7.791 5.337 7.791h5.029c5.801 0 8.741-2.469 8.741-7.406 0-4.705-3.172-7.097-9.515-7.097ZM266.17 27.64h-8.82c-5.646 0-8.586 2.546-8.586 6.866s2.94 6.865 8.587 6.865h8.819V27.64Zm32.48 0h-8.82v13.731h8.82c5.646 0 8.586-2.545 8.586-6.865s-2.94-6.866-8.587-6.866Z" transform="translate(1 1)"/></g></svg>