<svg xmlns="http://www.w3.org/2000/svg" width="84" height="54"><defs><radialGradient id="a" cx="233.402" cy="23.697" r="113.845" fx="233.402" fy="23.697" gradientTransform="scale(1.24722 .80178)" gradientUnits="userSpaceOnUse"><stop offset="0%" stop-color="#2A6CBE"/><stop offset="38.688%" stop-color="#2062BC"/><stop offset="49.182%" stop-color="#1F5FBC"/><stop offset="66.583%" stop-color="#1C5ABD"/><stop offset="85.354%" stop-color="#1956BC"/><stop offset="100%" stop-color="#1851BE"/></radialGradient></defs><path fill="url(#a)" d="M277 19v38.73c-.007 6.451-.11 10.894-.11 15.27h-21.24C242.961 73 236 67.06 236 57.726c0-6.249 3.558-10.8 9.128-12.652-4.564-1.928-7.349-6.248-7.349-11.571 0-8.64 6.885-14.503 18.953-14.503zm22.268 0c12.068 0 18.953 5.863 18.953 14.503 0 5.323-2.785 9.643-7.35 11.571 5.57 1.852 9.129 6.403 9.129 12.652C320 67.06 313.038 73 300.351 73h-21.24c0-4.376-.104-8.819-.11-15.27L279 19Zm-33.176 30.857H256.5c-6.343 0-9.515 2.392-9.515 7.097 0 4.937 2.94 7.406 8.741 7.406h5.029c4.022 0 5.337-1.929 5.337-7.791zm33.408 0h-9.592v6.712c0 5.862 1.315 7.791 5.337 7.791h5.029c5.801 0 8.741-2.469 8.741-7.406 0-4.705-3.172-7.097-9.515-7.097zM266.17 27.64h-8.82c-5.646 0-8.586 2.546-8.586 6.866s2.94 6.865 8.587 6.865h8.819zm32.48 0h-8.82v13.731h8.82c5.646 0 8.586-2.545 8.586-6.865s-2.94-6.866-8.587-6.866z" style="fill:url(#a)" transform="translate(-236 -19)"/></svg>