<svg xmlns="http://www.w3.org/2000/svg" width="28.105" height="32.938"><path d="M1.016 0h4.168a3.44 3.44 0 0 1 2.382.965l12.786 12.32v9.2L7.754 10.452v21.992L1.129 25.77A3.876 3.876 0 0 1 0 23.03L.023.996C.023.45.47 0 1.016 0Zm0 0" style="fill:#05b88a;fill-opacity:1;fill-rule:nonzero;stroke:none"/><path d="M27.09 32.938h-4.164c-.89 0-1.746-.344-2.387-.961L7.754 19.657v-9.204l12.598 12.031V.488l6.628 6.68a3.89 3.89 0 0 1 1.125 2.746l-.023 22.027c0 .551-.445.997-.992.997zm0 0" style="fill:#fff;fill-opacity:1;fill-rule:nonzero;stroke:none"/></svg>