<svg xmlns="http://www.w3.org/2000/svg" width="172" height="33"><path d="M1.016 0h4.168a3.44 3.44 0 0 1 2.382.965l12.786 12.32v9.2L7.754 10.452v21.992L1.129 25.77A3.876 3.876 0 0 1 0 23.03L.023.996C.023.45.47 0 1.016 0Zm0 0" style="stroke:none;fill-rule:nonzero;fill:#06ba8a;fill-opacity:1"/><path d="M27.09 32.938h-4.164c-.89 0-1.746-.344-2.387-.961L7.754 19.657v-9.204l12.598 12.031V.488l6.628 6.68a3.89 3.89 0 0 1 1.125 2.746l-.023 22.027c0 .551-.445.997-.992.997ZM43.04 25.867V13.754l7.343 12.113h3.777V7.453h-3.762v12.14L43.04 7.454h-3.777v18.414Zm18.608.254c1.586 0 2.825-.55 3.723-1.644l.102 1.39h3.422V12.184h-3.649v9.687c-.46.86-1.308 1.293-2.543 1.293-1.289 0-1.937-.719-1.937-2.14v-8.84h-3.637v8.968c.02 1.625.41 2.864 1.18 3.703.765.844 1.879 1.266 3.34 1.266Zm12.77-.254 2.418-4.3 2.43 4.3h3.902l-4.043-6.98L83 12.184h-3.887l-2.289 4.086-2.238-4.086h-3.902l3.859 6.703-4.035 6.98Zm14.953.254c.754 0 1.488-.11 2.2-.328V23.02a5.427 5.427 0 0 1-1.071.093c-.543 0-.91-.113-1.102-.332-.199-.218-.293-.582-.293-1.086v-6.832h2.329v-2.68h-2.329V8.82H85.47v3.364H83.48v2.68h1.989v7.374c.05 2.586 1.351 3.883 3.902 3.883Zm0 0" style="stroke:none;fill-rule:nonzero;fill:#fff;fill-opacity:1"/><path d="M101.883 25.867V13.754l7.347 12.113h3.778V7.453h-3.766v12.14l-7.36-12.14h-3.777v18.414Zm18.27.254c1.41 0 2.554-.492 3.433-1.48.078.488.2.894.367 1.226h3.676v-.215c-.356-.664-.531-1.648-.543-2.949v-5.93c0-1.535-.492-2.726-1.48-3.574-.985-.844-2.317-1.27-3.993-1.27-1.11 0-2.105.192-2.996.575-.887.383-1.574.914-2.062 1.586-.485.676-.73 1.41-.73 2.203h3.636c0-.516.172-.918.52-1.215.347-.293.832-.441 1.44-.441.7 0 1.208.191 1.532.566.324.383.484.887.484 1.52v.785h-1.671c-2.024.008-3.57.398-4.641 1.176-1.07.773-1.602 1.886-1.602 3.34 0 1.18.438 2.156 1.317 2.933.875.777 1.98 1.164 3.312 1.164Zm.792-2.797c-.554 0-.992-.148-1.308-.445-.32-.293-.477-.668-.477-1.121l.012-.219c.117-1.262 1.086-1.894 2.906-1.894h1.36V22a2.363 2.363 0 0 1-1.008.965 3.09 3.09 0 0 1-1.485.36Zm13.555 2.797c.754 0 1.488-.11 2.203-.328V23.02a5.512 5.512 0 0 1-1.07.093c-.547 0-.918-.113-1.11-.332-.191-.218-.289-.582-.289-1.086v-6.832h2.328v-2.68h-2.328V8.82h-3.636v3.364h-1.989v2.68h1.989v7.374c.05 2.586 1.351 3.883 3.902 3.883Zm6.102-15.582c.613 0 1.105-.18 1.476-.531.375-.352.563-.813.563-1.367 0-.547-.188-.996-.555-1.356-.367-.351-.863-.527-1.484-.527-.63 0-1.125.176-1.489.527-.367.36-.547.809-.547 1.356 0 .554.184 1.015.555 1.367.375.351.867.531 1.48.531Zm1.824 15.328V12.184h-3.649v13.683Zm8.883.254c1.964 0 3.53-.637 4.695-1.902 1.168-1.27 1.75-2.957 1.75-5.055l-.024-.937c-.136-1.938-.785-3.473-1.945-4.602-1.164-1.133-2.66-1.695-4.5-1.695-1.293 0-2.426.289-3.406.87-.977.583-1.723 1.407-2.242 2.47-.524 1.062-.782 2.273-.782 3.628v.168c0 2.172.583 3.891 1.754 5.157 1.172 1.265 2.739 1.898 4.7 1.898Zm0-2.95c-.903 0-1.598-.343-2.09-1.03-.485-.684-.727-1.68-.727-2.977 0-1.46.242-2.535.727-3.23.492-.696 1.176-1.047 2.066-1.047.899 0 1.594.351 2.09 1.054.496.7.742 1.684.742 2.957 0 1.493-.246 2.579-.742 3.258-.496.676-1.184 1.016-2.066 1.016Zm12.246 2.696V16.22c.511-.88 1.28-1.317 2.304-1.317.778 0 1.336.172 1.672.528.336.347.504.91.504 1.683v8.754h3.637v-8.84c-.016-1.695-.379-2.968-1.082-3.82-.707-.852-1.781-1.277-3.223-1.277-1.637 0-2.941.613-3.914 1.832l-.113-1.578h-3.422v13.683Zm0 0" style="stroke:none;fill-rule:nonzero;fill:#06ba8a;fill-opacity:1"/></svg>