<svg xmlns="http://www.w3.org/2000/svg" xml:space="preserve" width="1400mm" height="1400mm" viewBox="0 0 1400 1400"><defs><linearGradient id="d"><stop offset="0" style="stop-color:#000;stop-opacity:1"/><stop offset="1" stop-opacity="0"/></linearGradient><linearGradient id="c"><stop offset="0" stop-color="#2d3335"/><stop offset=".5" stop-color="#4c464a"/><stop offset="1" stop-color="#384042"/></linearGradient><linearGradient id="a"><stop offset="0"/><stop offset="1" stop-opacity="0"/></linearGradient><linearGradient id="b"><stop offset="0" stop-color="#fff"/><stop offset="1" stop-color="#fff" stop-opacity="0"/></linearGradient><linearGradient id="f" x1="210.17" x2="9" y1="72.064" y2="-213.25" gradientTransform="matrix(1 -.08088 0 1 0 203.06)" gradientUnits="userSpaceOnUse"><stop offset="0"/><stop offset="1" stop-opacity="0"/></linearGradient><radialGradient id="e" cx="128" cy="86" r="47" gradientTransform="matrix(.80254 .77986 .80254 -.82522 -10.402 73.423)" gradientUnits="userSpaceOnUse"><stop offset="0" stop-color="#d0e9f2" stop-opacity="0"/><stop offset=".839" stop-color="#d0e9f2" stop-opacity="0"/><stop offset=".943" stop-color="#d0e9f2" stop-opacity=".282"/><stop offset="1" stop-color="#d0e9f2"/></radialGradient><radialGradient id="g" cx="128" cy="86" r="47" gradientTransform="matrix(.80254 .77986 .80254 -.82522 -10.402 73.423)" gradientUnits="userSpaceOnUse"><stop offset="0" stop-color="#d0e9f2" stop-opacity="0"/><stop offset=".839" stop-color="#d0e9f2" stop-opacity="0"/><stop offset=".943" stop-color="#d0e9f2" stop-opacity=".282"/><stop offset="1" stop-color="#d0e9f2"/></radialGradient></defs><path d="M-193.082-124.459s-2.529 2.723-17.119 6.225-21.398 4.475-21.398 4.475-14.395-7.004-24.51-8.95c-10.116-1.945-18.676-1.556-19.26-1.361 0 0 5.837 10.115 9.144 21.593 3.307 11.477 4.863 19.842 4.863 19.842s-4.28 9.921-6.42 19.259c-2.14 9.337-4.474 17.896-4.474 17.896s4.474 12.45 7.198 23.343c2.723 10.894 2.918 18.87 2.918 18.87s-3.113 7.976-5.836 18.87c-2.724 10.893-3.89 23.927-3.89 23.927s1.91-.408 5.779-.465a9.019 9.019 0 0 1 .87-9.02 9.019 9.019 0 0 1 2.409-6.435l49.474-49.478a9.019 9.019 0 0 1 6.926-2.604 9.019 9.019 0 0 1 4.734-1.131l3.516-3.516c-7.263-11.158-11.678-24.361-11.678-38.593 0-20.512 8.807-39.074 22.82-52.101-3.55-.454-6.066-.646-6.066-.646zm15.165 111.796-3.439 3.439a9.018 9.018 0 0 1-1.433 5.216 9.019 9.019 0 0 1-2.593 6.09l-42.436 42.436c1.886.379 3.222.654 3.222.654s9.921-2.14 18.675-4.864c8.754-2.723 12.644-5.058 12.644-5.058s4.28.39 17.508 4.864c13.228 4.474 22.76 6.613 22.76 6.613s10.115-2.14 20.231-4.473c10.116-2.335 20.62-6.225 20.62-6.225s-.583-3.891 3.308-19.065c3.89-15.173 6.808-21.787 6.808-21.787s-.214-1.615-.908-5.357c-10.51 6.139-22.708 9.667-35.688 9.667-14.53 0-27.98-4.605-39.28-12.15zm-31.5 1.691c-.024-.014.435.385 1.867.479l.124-.046a9.019 9.019 0 0 1-1.99-.433zm7.697.31c-.69.39-1.427.688-2.194.885l-42.08 42.08a9.018 9.018 0 0 1-.456 2.018c.287.305.568.61.857.916.437.053.87.138 1.296.254l42.786-42.785a9.019 9.019 0 0 1 1.035-2.596 9.079 9.079 0 0 1-.13-.388 9.018 9.018 0 0 1-1.113-.384z" style="fill:#7ecf74;fill-opacity:1;stroke-width:.778121" transform="matrix(6.25637 0 0 6.25637 1827.563 970.81)"/><path d="M-138.638-133.892c-34.235 0-62.18 27.945-62.18 62.18 0 15.046 5.399 28.875 14.355 39.652l-13.216 13.216a53.873 53.873 0 0 0-2.717-2.169l-2.336 2.337c-.764-.464-1.512-.769-2.223-.816l-49.476 49.477c.46.62.955 1.248 1.471 1.88l-3.317 3.006c3.736 4.191 7.775 8.351 11.64 12.45l3.71-3.512a88.082 88.082 0 0 0 1.69 1.374l49.478-49.477c-.19-.76-.5-1.473-.886-2.155l2.406-2.406a31.55 31.55 0 0 0-1.83-2.41l13.152-13.151c10.866 9.272 24.94 14.885 40.28 14.885 34.234 0 62.18-27.945 62.18-62.18s-27.946-62.18-62.18-62.18zm0 8.953A53.228 53.228 0 0 1-85.41-71.711a53.228 53.228 0 0 1-53.229 53.229 53.228 53.228 0 0 1-53.228-53.229 53.228 53.228 0 0 1 53.228-53.228z" style="color:#000;fill:#000;fill-opacity:1;stroke-width:18.0356;stroke-linecap:round;stroke-linejoin:round;-inkscape-stroke:none;paint-order:markers stroke fill" transform="matrix(6.25637 0 0 6.25637 1827.563 970.81)"/></svg>