<svg xmlns="http://www.w3.org/2000/svg" xmlns:xlink="http://www.w3.org/1999/xlink" width="256" height="256"><defs><linearGradient id="c"><stop offset="0" stop-color="#2d3335"/><stop offset=".5" stop-color="#4c464a"/><stop offset="1" stop-color="#384042"/></linearGradient><linearGradient id="a"><stop offset="0"/><stop offset="1" stop-opacity="0"/></linearGradient><linearGradient xlink:href="#a" id="y" x1="94.25" x2="9" y1="-94.672" y2="-179.97" gradientUnits="userSpaceOnUse"/><linearGradient xlink:href="#a" id="z" x1="50.75" x2="35.75" y1="-114.44" y2="-30.438" gradientUnits="userSpaceOnUse"/><linearGradient xlink:href="#a" id="A" x1="77.625" x2="115.25" y1="-163.12" y2="-74.625" gradientUnits="userSpaceOnUse"/><linearGradient xlink:href="#a" id="B" x1="56.5" x2="125.72" y1="-50.438" y2="7.063" gradientUnits="userSpaceOnUse"/><linearGradient xlink:href="#a" id="C" x1="35" x2="180.75" y1="-163.3" y2="-146.8" gradientUnits="userSpaceOnUse"/><linearGradient xlink:href="#a" id="D" x1="57" x2="179" y1="-141.11" y2="-41.609" gradientUnits="userSpaceOnUse"/><linearGradient xlink:href="#a" id="E" x1="156" x2="208.25" y1="-26.5" y2="39.75" gradientUnits="userSpaceOnUse"/><linearGradient xlink:href="#a" id="F" x1="142.75" x2="235" y1="-169.3" y2="-77.297" gradientUnits="userSpaceOnUse"/><linearGradient xlink:href="#b" id="q" x1="214.25" x2="166.5" y1="-161.36" y2="-113.72" gradientUnits="userSpaceOnUse"/><linearGradient id="b"><stop offset="0" stop-color="#fff"/><stop offset="1" stop-color="#fff" stop-opacity="0"/></linearGradient><linearGradient xlink:href="#b" id="r" x1="53.25" x2="57.656" y1="-126.5" y2="-62.469" gradientUnits="userSpaceOnUse"/><linearGradient xlink:href="#b" id="s" x1="39.5" x2="75.719" y1="6.625" y2="-17.125" gradientUnits="userSpaceOnUse"/><linearGradient xlink:href="#b" id="t" x1="102" x2="85.312" y1="-162.34" y2="-121.44" gradientUnits="userSpaceOnUse"/><linearGradient xlink:href="#b" id="u" x1="117.75" x2="63.5" y1="-78.094" y2="-14.75" gradientUnits="userSpaceOnUse"/><linearGradient xlink:href="#b" id="v" x1="180.69" x2="133.94" y1="-125.12" y2="-60.75" gradientUnits="userSpaceOnUse"/><linearGradient xlink:href="#b" id="w" x1="170.75" x2="130.22" y1="-23.5" y2="33.375" gradientUnits="userSpaceOnUse"/><linearGradient xlink:href="#b" id="x" x1="213.5" x2="181.75" y1="-76" y2="-5.656" gradientUnits="userSpaceOnUse"/><linearGradient id="I" x1="120" x2="136" y1="186.5" y2="186.5" gradientTransform="rotate(45 82.305 72.063) scale(1.21895)" gradientUnits="userSpaceOnUse"><stop offset="0" stop-color="#f9e295"/><stop offset=".125" stop-color="#f7dd84"/><stop offset=".206" stop-color="#fff"/><stop offset=".301" stop-color="#f4ce51"/><stop offset=".341" stop-color="#f9e7aa"/><stop offset="1" stop-color="#efbb0e"/></linearGradient><linearGradient id="N" x1="123" x2="133" y1="150.38" y2="150.38" gradientTransform="rotate(-135 302.68 -30.797) scale(2.43785 -2.15747)" gradientUnits="userSpaceOnUse"><stop offset="0" stop-color="#2d3335"/><stop offset=".5" stop-color="#4c464a"/><stop offset="1" stop-color="#384042"/></linearGradient><linearGradient id="M" x1="120" x2="136" y1="186.5" y2="186.5" gradientTransform="rotate(45 180.887 112.9) scale(1.21895)" gradientUnits="userSpaceOnUse"><stop offset="0" stop-color="#f9e295"/><stop offset=".125" stop-color="#f7dd84"/><stop offset=".206" stop-color="#fff"/><stop offset=".301" stop-color="#f4ce51"/><stop offset=".341" stop-color="#f9e7aa"/><stop offset="1" stop-color="#efbb0e"/></linearGradient><linearGradient xlink:href="#c" id="L" x1="123" x2="133" y1="150.38" y2="150.38" gradientTransform="scale(-1.21895 1.21895) rotate(-45 -20.398 401.636)" gradientUnits="userSpaceOnUse"/><linearGradient xlink:href="#c" id="K" x1="128" x2="130.88" y1="134.36" y2="143.36" gradientTransform="rotate(45 180.887 112.9) scale(1.21895)" gradientUnits="userSpaceOnUse"/><linearGradient xlink:href="#a" id="O" x1="108" x2="133" y1="167.73" y2="150.38" gradientTransform="rotate(-135 302.68 -30.797) scale(2.43785 -2.15747)" gradientUnits="userSpaceOnUse"/><linearGradient id="P" x1="126.64" x2="179.96" y1="29.815" y2="137.2" gradientTransform="translate(16.398 6.007) scale(.8757)" gradientUnits="userSpaceOnUse"><stop offset="0" stop-color="#fff"/><stop offset="1" stop-color="#fff" stop-opacity="0"/></linearGradient><linearGradient id="S" x1="126.64" x2="179.96" y1="29.815" y2="137.2" gradientTransform="matrix(-.44043 .17374 .17269 -.37878 258.232 122.843)" gradientUnits="userSpaceOnUse"><stop offset="0" stop-color="#fff"/><stop offset="1" stop-color="#fff" stop-opacity="0"/></linearGradient><linearGradient id="p" x1="210.17" x2="9" y1="72.064" y2="-213.25" gradientTransform="translate(0 192)" gradientUnits="userSpaceOnUse"><stop offset="0"/><stop offset="1" stop-opacity="0"/></linearGradient><linearGradient id="g" x1="122" x2="122" y1="245.45" y2="4.302" gradientUnits="userSpaceOnUse"><stop offset="0"/><stop offset="1" stop-opacity="0"/></linearGradient><linearGradient id="e" x1="210.17" x2="9" y1="72.064" y2="-213.25" gradientTransform="matrix(1 -.08088 0 1 0 203.06)" gradientUnits="userSpaceOnUse"><stop offset="0"/><stop offset="1" stop-opacity="0"/></linearGradient><clipPath id="j" clipPathUnits="userSpaceOnUse"><path fill="#ceeeab" d="M9 12.25s7.5 13 11.75 27.75S27 65.5 27 65.5s-5.5 12.75-8.25 24.75-5.75 23-5.75 23 5.75 16 9.25 30S26 167.5 26 167.5s-4 10.25-7.5 24.25-5 30.75-5 30.75 9.25-2 28.5 1.25 32.25 6 32.25 6 12.75-2.75 24-6.25 16.25-6.5 16.25-6.5 5.5.5 22.5 6.25 29.25 8.5 29.25 8.5 13-2.75 26-5.75 26.5-8 26.5-8-.75-5 4.25-24.5 8.75-28 8.75-28-.5-4.5-3.75-19.75S218 116 218 116s1.75-10.5 6.75-23.75S235 65.5 235 65.5s-4.75-15.25-7.5-29.75S219.25 10 219.25 10 195 19 187.5 20.5s-21 5.25-21 5.25-9.75-4.25-22-8.5-29.75-5.5-29.75-5.5-3.25 3.5-22 8-27.5 5.75-27.5 5.75-18.5-9-31.5-11.5-24-2-24.75-1.75z"/></clipPath><clipPath id="k" clipPathUnits="userSpaceOnUse"><path fill="#ceeeab" d="M9 12.25s7.5 13 11.75 27.75S27 65.5 27 65.5s-5.5 12.75-8.25 24.75-5.75 23-5.75 23 5.75 16 9.25 30S26 167.5 26 167.5s-4 10.25-7.5 24.25-5 30.75-5 30.75 9.25-2 28.5 1.25 32.25 6 32.25 6 12.75-2.75 24-6.25 16.25-6.5 16.25-6.5 5.5.5 22.5 6.25 29.25 8.5 29.25 8.5 13-2.75 26-5.75 26.5-8 26.5-8-.75-5 4.25-24.5 8.75-28 8.75-28-.5-4.5-3.75-19.75S218 116 218 116s1.75-10.5 6.75-23.75S235 65.5 235 65.5s-4.75-15.25-7.5-29.75S219.25 10 219.25 10 195 19 187.5 20.5s-21 5.25-21 5.25-9.75-4.25-22-8.5-29.75-5.5-29.75-5.5-3.25 3.5-22 8-27.5 5.75-27.5 5.75-18.5-9-31.5-11.5-24-2-24.75-1.75z"/></clipPath><clipPath id="i" clipPathUnits="userSpaceOnUse"><path fill="#ceeeab" d="M9 12.25s7.5 13 11.75 27.75S27 65.5 27 65.5s-5.5 12.75-8.25 24.75-5.75 23-5.75 23 5.75 16 9.25 30S26 167.5 26 167.5s-4 10.25-7.5 24.25-5 30.75-5 30.75 9.25-2 28.5 1.25 32.25 6 32.25 6 12.75-2.75 24-6.25 16.25-6.5 16.25-6.5 5.5.5 22.5 6.25 29.25 8.5 29.25 8.5 13-2.75 26-5.75 26.5-8 26.5-8-.75-5 4.25-24.5 8.75-28 8.75-28-.5-4.5-3.75-19.75S218 116 218 116s1.75-10.5 6.75-23.75S235 65.5 235 65.5s-4.75-15.25-7.5-29.75S219.25 10 219.25 10 195 19 187.5 20.5s-21 5.25-21 5.25-9.75-4.25-22-8.5-29.75-5.5-29.75-5.5-3.25 3.5-22 8-27.5 5.75-27.5 5.75-18.5-9-31.5-11.5-24-2-24.75-1.75z"/></clipPath><clipPath id="m" clipPathUnits="userSpaceOnUse"><path fill="#ceeeab" d="M9 12.25s7.5 13 11.75 27.75S27 65.5 27 65.5s-5.5 12.75-8.25 24.75-5.75 23-5.75 23 5.75 16 9.25 30S26 167.5 26 167.5s-4 10.25-7.5 24.25-5 30.75-5 30.75 9.25-2 28.5 1.25 32.25 6 32.25 6 12.75-2.75 24-6.25 16.25-6.5 16.25-6.5 5.5.5 22.5 6.25 29.25 8.5 29.25 8.5 13-2.75 26-5.75 26.5-8 26.5-8-.75-5 4.25-24.5 8.75-28 8.75-28-.5-4.5-3.75-19.75S218 116 218 116s1.75-10.5 6.75-23.75S235 65.5 235 65.5s-4.75-15.25-7.5-29.75S219.25 10 219.25 10 195 19 187.5 20.5s-21 5.25-21 5.25-9.75-4.25-22-8.5-29.75-5.5-29.75-5.5-3.25 3.5-22 8-27.5 5.75-27.5 5.75-18.5-9-31.5-11.5-24-2-24.75-1.75z"/></clipPath><clipPath id="n" clipPathUnits="userSpaceOnUse"><path fill="#ceeeab" d="M9 12.25s7.5 13 11.75 27.75S27 65.5 27 65.5s-5.5 12.75-8.25 24.75-5.75 23-5.75 23 5.75 16 9.25 30S26 167.5 26 167.5s-4 10.25-7.5 24.25-5 30.75-5 30.75 9.25-2 28.5 1.25 32.25 6 32.25 6 12.75-2.75 24-6.25 16.25-6.5 16.25-6.5 5.5.5 22.5 6.25 29.25 8.5 29.25 8.5 13-2.75 26-5.75 26.5-8 26.5-8-.75-5 4.25-24.5 8.75-28 8.75-28-.5-4.5-3.75-19.75S218 116 218 116s1.75-10.5 6.75-23.75S235 65.5 235 65.5s-4.75-15.25-7.5-29.75S219.25 10 219.25 10 195 19 187.5 20.5s-21 5.25-21 5.25-9.75-4.25-22-8.5-29.75-5.5-29.75-5.5-3.25 3.5-22 8-27.5 5.75-27.5 5.75-18.5-9-31.5-11.5-24-2-24.75-1.75z"/></clipPath><clipPath id="o" clipPathUnits="userSpaceOnUse"><path fill="#ceeeab" d="M9 12.25s7.5 13 11.75 27.75S27 65.5 27 65.5s-5.5 12.75-8.25 24.75-5.75 23-5.75 23 5.75 16 9.25 30S26 167.5 26 167.5s-4 10.25-7.5 24.25-5 30.75-5 30.75 9.25-2 28.5 1.25 32.25 6 32.25 6 12.75-2.75 24-6.25 16.25-6.5 16.25-6.5 5.5.5 22.5 6.25 29.25 8.5 29.25 8.5 13-2.75 26-5.75 26.5-8 26.5-8-.75-5 4.25-24.5 8.75-28 8.75-28-.5-4.5-3.75-19.75S218 116 218 116s1.75-10.5 6.75-23.75S235 65.5 235 65.5s-4.75-15.25-7.5-29.75S219.25 10 219.25 10 195 19 187.5 20.5s-21 5.25-21 5.25-9.75-4.25-22-8.5-29.75-5.5-29.75-5.5-3.25 3.5-22 8-27.5 5.75-27.5 5.75-18.5-9-31.5-11.5-24-2-24.75-1.75z"/></clipPath><clipPath id="l" clipPathUnits="userSpaceOnUse"><path fill="url(#d)" d="M123.62 141.06c20.832 20.243 54.607 19.289 75.439-2.132s20.832-55.196 0-75.439-54.607-19.289-75.439 2.132-20.832 55.196 0 75.439z"/></clipPath><clipPath id="G" clipPathUnits="userSpaceOnUse"><path fill="url(#e)" d="M9 22.578s7.5 12.393 11.75 26.8C25 63.784 27 74.373 27 74.373s-5.5 13.195-8.25 25.417C16 112.01 13 123.25 13 123.25s5.75 15.535 9.25 29.252S26 176.449 26 176.449s-4 10.574-7.5 24.857-5 31.154-5 31.154 9.25-2.748 28.5-1.055 32.25 3.392 32.25 3.392 12.75-3.782 24-8.191 16.25-7.815 16.25-7.815 5.5.055 22.5 4.43c17 4.376 29.25 6.135 29.25 6.135s13-3.802 26-7.853 26.5-10.143 26.5-10.143-.75-4.94 4.25-24.844 8.75-28.708 8.75-28.708-.514-4.455-3.75-19.447c-1.75-8.108-2.25-4.068-2.25-4.068s16.264-26.155 16.5-40.334c.25-15.02-7.25-36.413-7.25-36.413s-4.75-14.866-7.5-29.143c-2.75-14.278-8.25-25.083-8.25-25.083S195 14.281 187.5 16.388c-7.5 2.107-21 6.948-21 6.948s-9.75-3.461-22-6.72c-12.25-3.26-29.75-3.094-29.75-3.094s-3.25 3.763-22 9.78c-18.75 6.016-27.5 7.973-27.5 7.973s-18.5-7.504-31.5-8.952-24-.06-24.75.252z" opacity=".039"/></clipPath><radialGradient id="J" cx="128" cy="86" r="47" gradientTransform="scale(1.24488 -1.24488) rotate(-45 -58.821 -2.366)" gradientUnits="userSpaceOnUse"><stop offset="0" stop-color="#d0e9f2" stop-opacity="0"/><stop offset=".839" stop-color="#d0e9f2" stop-opacity="0"/><stop offset=".943" stop-color="#d0e9f2" stop-opacity=".282"/><stop offset="1" stop-color="#d0e9f2"/></radialGradient><radialGradient id="R" cx="159.61" cy="72.588" r="38.417" gradientTransform="matrix(1.06179 0 0 .73484 -26.67 38.602)" gradientUnits="userSpaceOnUse"><stop offset="0" stop-color="#fff"/><stop offset=".5" stop-color="#fff" stop-opacity=".93"/><stop offset="1" stop-color="#fff" stop-opacity="0"/></radialGradient><radialGradient id="Q" cx="159.61" cy="72.588" r="38.417" gradientTransform="matrix(1.06179 0 0 .73484 -26.296 39.729)" gradientUnits="userSpaceOnUse"><stop offset="0" stop-color="#fff"/><stop offset="1" stop-color="#fff" stop-opacity="0"/></radialGradient><radialGradient id="d" cx="128" cy="86" r="47" gradientTransform="matrix(.80254 .77986 .80254 -.82522 -10.402 73.423)" gradientUnits="userSpaceOnUse"><stop offset="0" stop-color="#d0e9f2" stop-opacity="0"/><stop offset=".839" stop-color="#d0e9f2" stop-opacity="0"/><stop offset=".943" stop-color="#d0e9f2" stop-opacity=".282"/><stop offset="1" stop-color="#d0e9f2"/></radialGradient><filter id="H"><feGaussianBlur stdDeviation="4.287"/></filter><filter id="f"><feGaussianBlur stdDeviation="6.311"/></filter><filter id="h"><feGaussianBlur stdDeviation="4.457"/></filter></defs><path fill="#2d3335" d="M174.28 35.875c-17.6 0-35.19 6.639-48.72 19.906-.16.164-.33.303-.5.469-22.05 22.056-26.206 55.25-12.47 81.5l-2.28 1.63c2.25 4.23 4.94 8.3 8.1 12.12l-13.32 13.34c-1.34-.58-2.78-1.03-4.56-1.37l-2.842 2.84c-1.11-.48-2.139-.81-3.063-.87L30.5 229.56c-.037 1.1.226 2.19.656 3.28l-.531.54-1.094 1.09c.716 3.74 2.011 6.82 5.469 10.28 3.458 3.46 6.42 4.63 10.281 5.47l1.094-1.1.719-.71c1.088.46 2.13.78 3.094.84l64.122-64.13c-.24-.97-.62-1.93-1.03-2.9l3-3c-.25-1.73-.68-3.2-1.31-4.6l13.28-13.28c3.82 3.16 7.89 5.85 12.13 8.1l1.62-2.28c26.25 13.74 59.44 9.58 81.5-12.47.17-.17.31-.34.47-.5 26.69-27.22 26.55-70.923-.47-97.94-13.59-13.59-31.41-20.375-49.22-20.375Zm-.5 3.281c.11.002.21-.002.31 0a67.89 67.89 0 0 1 5.72.375c.1.01.19.021.28.031l.29.032c.14.017.29.044.43.062.9.11 1.8.228 2.69.375.62.102 1.23.224 1.84.344.35.066.69.116 1.04.187.72.153 1.43.324 2.15.5.31.077.63.138.94.219.07.019.14.043.22.063.95.253 1.89.516 2.84.812.07.023.15.04.22.063.95.3 1.91.625 2.84.969.06.019.11.042.16.062.95.352 1.9.728 2.84 1.125.06.022.11.041.16.063.94.4 1.88.836 2.81 1.281l.13.062c.93.451 1.86.91 2.78 1.407.03.017.06.044.09.062.93.503 1.84 1.013 2.75 1.562.03.02.06.044.1.063.9.551 1.8 1.122 2.68 1.719.55.369 1.09.769 1.63 1.156.36.261.73.512 1.09.781.02.014.05.018.06.031.88.656 1.75 1.36 2.6 2.063a70.875 70.875 0 0 1 5.06 4.594c1.62 1.62 3.14 3.3 4.56 5.031.01.011.03.02.03.031.71.855 1.41 1.715 2.07 2.594.28.379.54.773.81 1.156.37.517.74 1.038 1.09 1.563.02.024.05.038.07.062.59.89 1.16 1.778 1.71 2.688.02.032.05.061.07.094a75.45 75.45 0 0 1 1.56 2.75c.02.032.04.06.06.093.5.921.96 1.844 1.41 2.781l.06.126c.45.929.88 1.868 1.28 2.812l.06.156c.4.936.78 1.895 1.13 2.844l.06.156c.35.949.67 1.885.97 2.844l.06.219c.3.941.56 1.894.82 2.843l.06.219c.08.31.14.627.22.938.17.72.35 1.432.5 2.156.07.342.12.688.18 1.031.12.617.25 1.225.35 1.844.15.893.26 1.791.37 2.688.02.145.05.291.07.437l.03.281.03.282c.1.952.19 1.912.25 2.872.06.94.11 1.9.12 2.85.01.1 0 .2 0 .31.02 1.05.01 2.1-.03 3.15-.03.94-.08 1.86-.15 2.79-.01.12-.02.25-.04.37-.07.92-.16 1.84-.28 2.75-.12.96-.27 1.93-.43 2.88-.02.08-.02.16-.04.25-.02.12-.03.25-.06.37-.16.91-.36 1.82-.56 2.72-.03.13-.06.27-.09.41a86.1 86.1 0 0 1-.69 2.65c-.17.59-.35 1.17-.53 1.75-.18.57-.34 1.13-.53 1.69-.3.86-.61 1.71-.94 2.56-.06.16-.13.32-.19.47-.04.11-.08.23-.12.34-.36.88-.73 1.73-1.13 2.6-.38.82-.77 1.63-1.19 2.44-.08.15-.16.31-.25.46-.41.8-.83 1.6-1.28 2.38-.09.17-.18.34-.28.5-.2.34-.42.66-.62 1-.37.59-.75 1.17-1.13 1.75 0 .01.01.02 0 .03-.49.75-1 1.49-1.53 2.22-.46.64-.95 1.25-1.44 1.87-.19.26-.36.53-.56.79l-.41.5c-.16.2-.33.39-.5.59-.55.67-1.13 1.32-1.72 1.97-.6.67-1.23 1.35-1.87 2-.16.16-.31.34-.47.5-21.13 21.13-52.26 24.49-77.19 11.15l.13-.18c-3.71-1.9-7.26-4.14-10.63-6.78-.54-.43-1.06-.87-1.59-1.32-.51-.43-1.03-.86-1.53-1.31-.09-.08-.19-.16-.28-.25a86.97 86.97 0 0 1-2.41-2.31c-.79-.8-1.56-1.59-2.31-2.41-.09-.09-.17-.19-.25-.28-.45-.5-.88-1.02-1.31-1.53-.45-.53-.89-1.05-1.32-1.59a65.831 65.831 0 0 1-6.78-10.63l-.19.13c-13.33-24.93-9.97-56.061 11.16-77.191.16-.163.34-.308.5-.469.65-.64 1.33-1.269 2-1.875.65-.588 1.3-1.162 1.97-1.719.27-.227.54-.465.81-.687.35-.278.72-.512 1.06-.782.63-.483 1.24-.98 1.88-1.437.74-.53 1.5-1.036 2.25-1.531.58-.383 1.16-.764 1.75-1.125.45-.274.89-.551 1.34-.813.69-.395 1.37-.757 2.07-1.125a61.343 61.343 0 0 1 3.37-1.687c.87-.397 1.72-.769 2.59-1.125.16-.062.32-.096.47-.157.97-.384 1.93-.758 2.91-1.093.56-.192 1.12-.356 1.69-.532.58-.181 1.16-.367 1.75-.531.88-.246 1.77-.48 2.65-.687.07-.017.15-.015.22-.032.42-.095.84-.193 1.25-.281.67-.141 1.36-.287 2.03-.406.09-.015.17-.017.25-.031.95-.164 1.92-.317 2.88-.438a65.183 65.183 0 0 1 9.06-.5z" filter="url(#f)" opacity=".7" transform="matrix(.8757 .0601 0 .7432 16.398 38.332)"/><path fill="url(#g)" d="M9 17.25s7.5 11 11.75 25.75S27 68.5 27 68.5s-5.5 12.75-8.25 24.75-5.75 25-5.75 25 5.75 16 9.25 30S26 170.5 26 170.5s-4 10.25-7.5 24.25-5 30.75-5 30.75 9.25-2 28.5 1.25 32.25 6 32.25 6 12.75-2.75 24-6.25 16.25-6.5 16.25-6.5 5.5.5 22.5 6.25 29.25 8.5 29.25 8.5 13-2.75 26-5.75 26.5-8 26.5-8-.75-5 4.25-24.5 8.75-28 8.75-28-.5-2.5-3.75-17.75S218 121 218 121s1.75-12.5 6.75-25.75S235 68.5 235 68.5s-4.75-15.25-7.5-29.75S219.25 15 219.25 15 195 24 187.5 25.5s-21 5.25-21 5.25-9.75-4.25-22-8.5-29.75-5.5-29.75-5.5-3.25 3.5-22 8-27.5 5.75-27.5 5.75-18.5-9-31.5-11.5-24-2-24.75-1.75z" filter="url(#h)" opacity=".5" transform="matrix(.8757 0 0 .74134 16.398 38.986)"/><path fill="#ceeeab" d="M24.28 16.735s6.567 11.384 10.289 24.3 5.473 22.33 5.473 22.33-4.817 11.166-7.225 21.674-5.035 20.141-5.035 20.141 5.035 14.011 8.1 26.271 3.284 21.236 3.284 21.236-3.503 8.976-6.568 21.236-4.378 26.927-4.378 26.927 8.1-1.75 24.957 1.095S81.42 207.2 81.42 207.2s11.165-2.408 21.016-5.473 14.23-5.692 14.23-5.692 4.817.438 19.704 5.473 25.614 7.444 25.614 7.444 11.384-2.408 22.768-5.036 23.206-7.005 23.206-7.005-.657-4.379 3.722-21.455 7.662-24.52 7.662-24.52-.438-3.94-3.284-17.294-8.757-26.053-8.757-26.053 1.533-9.194 5.911-20.797 8.976-23.425 8.976-23.425-4.16-13.355-6.567-26.052-7.225-22.55-7.225-22.55-21.236 7.882-27.803 9.195-18.39 4.598-18.39 4.598-8.538-3.722-19.266-7.444-26.052-4.816-26.052-4.816-2.846 3.065-19.265 7.005-24.082 5.036-24.082 5.036-16.2-7.882-27.584-10.071-21.017-1.751-21.674-1.532Z"/><g clip-path="url(#i)" transform="translate(16.398 6.007) scale(.8757)"><path fill="#a6dd8b" d="m110.75 5.5-4.25 7c-.75 9-2.25 13.75-8.5 16.5s-12.25 3.5-11 7.5 13 9.25 14.25 13 8.25 1.75 11 7 2 15.25-3.75 17.25-17.5.5-20.25 9.5-4.75 10.5-9 12.75-7.25 10.5-3.5 16.5 12.25-1.25 15-6.5S98 97.25 98 97.25h23.75l59-1.75 3.25-3.75s3.25 4 2.75 8.75-3.75 14.75.25 17.25 19.5-2 24-7-4.75-28.25-10.5-29.5-18.5-1.75-17-7 11.75 4.5 17.25 3.25 16.75-21 12-25.25-24.25-5.25-25.75-8 21-8 22.25-11-2.5-7.25-6.25-8.5S189 41 182 40.5s-20 5.75-17.25 11.5-6 11-14.5 6.5-24.75-13-21.75-24S150 15.75 150 15.75zM97.188 112.72c-1.595.15-4.469 4.69-4.938 7.03-.5 2.5-3.25 6.75-3.5 12.25s4.75 6.75 8.75 6.5 2.75-6.75 2-15c-.25 0-.5-10.25-2-10.75-.094-.03-.206-.04-.312-.03zm92.722 51.66c-6.34.29-6.63 7.46-7.41 8.87-1.25 2.25 2.25 13.75 2 18s-4.75 5.25-9.5 9.75.5 16 11.25 31l44.75 1.25-1-35s4.75-4.25-20.75-24.25c-9.56-7.5-15.54-9.8-19.34-9.62zM39.94 180.91c-4.03-.11-8.282 5.71-9.688 7.59-1.5 2-6.25 5-17 9.5l-14.5 34.25 53 4.25s1.75-11-4.25-15.75-17.25-5.75-18.25-13.25 9.25-10 13.75-14.25 2-11.25-2.25-12.25a3.728 3.728 0 0 0-.812-.09z"/></g><path fill="#aac3e7" d="M155.223 80.743c-4.169-.013-7.908.848-10.097 2.764-7.006 6.13-30.65.656-42.472 6.13s-11.603 33.276-12.916 38.968-15.325 18.171-17.514 20.58-11.603 6.348-17.076 7.443-11.166 6.348-13.574 9.632c-1.77 2.417-6.485 5.649-8.866 7.199-.04.157-.07.306-.11.464-.117.464-.216.945-.328 1.427 4.36-1.41 9.79-7.163 14.558-11.936 5.474-5.473 17.514-6.786 24.301-10.07s12.479-17.295 23.206-20.798 18.609 10.29 21.236 16.2 1.532 11.166 3.284 14.887 9.632 10.29 10.07 11.822-4.378 5.692-5.473 7.444-9.195 6.13-10.29 7.662c-.849 1.182-1.68 5.929-2.022 8.074.359-.149.657-.272.98-.412.43-2.215 1.332-6.2 2.575-7.443 1.752-1.751 9.852-3.94 10.946-7.444s6.13-5.692 6.13-5.692 2.408 3.503 14.012 12.26c7.732 5.841 11.173 13.6 12.618 18.145.587.149 1.34.359 1.778.464-1.068-3.783-4.238-14.222-7.829-18.17-4.378-4.817-16.2-9.415-19.922-19.266s-21.455-29.993-15.325-35.247 14.45-3.503 24.958 6.568 40.5 5.035 50.571 3.283c8.714-1.515 18.241 13.03 20.938 22.795.517-1.83.981-3.503 1.445-5.035-1.523-1.682-3.231-4.046-4.65-7.251-3.283-7.444-10.508-11.603-10.508-11.603s7.662-4.379 12.917-6.787a16.45 16.45 0 0 0 3.669-2.33c-.14-.674-.228-1.094-.386-1.83l-.078-.385c-4.177 4.87-16.849 8.424-18.968 9.58-2.408 1.314-15.982 2.627-31.306 3.941s-23.425-6.568-29.993-12.917-11.384-31.525-2.627-33.276 17.514 12.04 26.27 14.887 18.828-13.793 17.296-23.644c-1.05-6.773-12.26-11.056-21.428-11.083zm-46.71 11.63c1.112.001 5.131 1.396 5.744 2.08 1.97 2.19 1.752 6.349 0 7.006s-11.165 7.005-9.195 12.478 1.533 15.763-3.064 15.763-7.006 0-8.757-2.19-1.752-10.508 0-17.294 3.064-13.136 7.005-15.982c2.71-1.956 5.806-1.863 8.267-1.86zm11.9 64.01c.176.008 1.673 3.073 4.134 6.156 2.627 3.283 2.846 7.224 2.846 7.224s-3.722-4.16-5.254-7.005-1.752-6.35-1.752-6.35c0-.026.018-.026.026-.026z"/><path fill="none" stroke="#6d7f42" stroke-linecap="round" stroke-linejoin="round" stroke-width=".8757" d="M123.89 69.277c5.473.437 10.727-1.97 9.414-5.692s-10.946-6.35-11.603-2.628 1.751 9.195 2.189 8.32zm-12.26-13.574c-7.443-4.816-7.443-6.349-6.13-7.005s8.976 4.378 11.165 7.005-1.97 1.752-5.035 0z" opacity=".387"/><g fill="none" stroke="#6d7f42" clip-path="url(#j)" transform="translate(16.398 6.007) scale(.8757)"><path stroke-linecap="round" stroke-linejoin="round" d="M15.75 151.25c33-2.5 38.25-3.5 36.25-10.25s-8.75-23.5-23-22.5-22.75-6.75-22.75-6.75" opacity=".387"/><path d="M17.5 177.25c18.25-10 28.75-8.5 35-11.5s13.25-5.75 15.75-9.5 5.75-11.5 5.75-18-3.5-36 3.25-43.5 17.25-26 26-23.25 12.25 9.75 22 9.5S147 77 149.5 68.75s-15.75-16-16-23 5.5-14.25 20.25-17 23.5-11.5 23.5-11.5" opacity=".387"/><path stroke-linecap="round" stroke-linejoin="round" d="M14.5 161c15.25-1.5 22.25 3.5 31.5 1.75s13.25-3 17.75-5.75 6-3.75 6.25-6.5 1-12.5-3-22S54.5 97 58.75 89.75 64 68.25 74.5 65.25 95.5 59 102.25 64s12.75 14.25 20 14.5S134 77 136.75 74s4.5-10.25 1.75-13.75-15.5-5.5-17.25-9.5-10.75-17-.25-26.75 36.25-8.25 36.25-8.25" opacity=".387"/><path stroke-linecap="round" stroke-linejoin="round" d="M21.25 159c13.75 1 21.5 4.25 33.5-.5s13.5-5.25 13.75-8.75-.25-15.75-3-20-13-13.75-15.75-24.25.25-41 8.5-48.25 32-7.25 37.5-10.5 5.25-16.75 13-24.5 27-12.25 27-12.25M190 18.5c11.75 5 39 9.75 47.25 40.25M9.75 214c19-12.5 36-1.25 49-4s38.25-37.25 46-37 5.5-11.75 8.5-13.25 5.5 6 11.75 8 24.5-2.75 23.5-5.75-7-7.75-5.5-8.5 8.5 5 12.75 3.5 43.75-1 48.5-13.5 21.5-13.5 21.5-13.5M77.5 233.5c13.5-11.5 23.25-25 28.5-27s12.75-3.75 15.75-8 2.5-10.75 5.25-12 3.75 5.75 8.75 6 36.75-5 42.75-11.75 32.25-12.5 32.5-14.5-1-4.75.25-5.5 24.75-6 24.75-6M168.75 236c9-13.75 20.5-41 29.5-42s10.25-2.5 12.5-4.25 17 2.25 17 2.25" opacity=".387"/></g><g fill="none" stroke="#d38484" stroke-linecap="round" stroke-width="2" clip-path="url(#k)" transform="translate(16.398 6.007) scale(.8757)"><path d="m57.75 20-8.5 28.25 18 6.25L75 90.75 54 113l9 10.5L51 135l.5 4.5L71.75 164l14-6.75 20.5 18.5L95.75 204l10.25 8.5-2.75 13"/><path d="m105.75 212.25 12.5-27.75 11-7 27.5 15.75 20.5-3.75-.25-15.75-10.25-6 12.75-26.25 5.75-3.75 38.75-10"/></g><g clip-path="url(#l)" transform="matrix(1.09682 .031 0 1.09682 -7.955 -27.57)"><path fill="#ceeeab" d="M9 12.25s7.5 13 11.75 27.75S27 65.5 27 65.5s-5.5 12.75-8.25 24.75-5.75 23-5.75 23 5.75 16 9.25 30S26 167.5 26 167.5s-4 10.25-7.5 24.25-5 30.75-5 30.75 9.25-2 28.5 1.25 32.25 6 32.25 6 12.75-2.75 24-6.25 16.25-6.5 16.25-6.5 5.5.5 22.5 6.25 29.25 8.5 29.25 8.5 13-2.75 26-5.75 26.5-8 26.5-8-.75-5 4.25-24.5 8.75-28 8.75-28-.5-4.5-3.75-19.75S218 116 218 116s1.75-10.5 6.75-23.75S235 65.5 235 65.5s-4.75-15.25-7.5-29.75S219.25 10 219.25 10 195 19 187.5 20.5s-21 5.25-21 5.25-9.75-4.25-22-8.5-29.75-5.5-29.75-5.5-3.25 3.5-22 8-27.5 5.75-27.5 5.75-18.5-9-31.5-11.5-24-2-24.75-1.75z"/><g clip-path="url(#m)"><path fill="#a6dd8b" d="m110.75 5.5-4.25 7c-.75 9-2.25 13.75-8.5 16.5s-12.25 3.5-11 7.5 13 9.25 14.25 13 8.25 1.75 11 7 2 15.25-3.75 17.25-17.5.5-20.25 9.5-4.75 10.5-9 12.75-7.25 10.5-3.5 16.5 12.25-1.25 15-6.5S98 97.25 98 97.25h23.75l59-1.75 3.25-3.75s3.25 4 2.75 8.75-3.75 14.75.25 17.25 19.5-2 24-7-4.75-28.25-10.5-29.5-18.5-1.75-17-7 11.75 4.5 17.25 3.25 16.75-21 12-25.25-24.25-5.25-25.75-8 21-8 22.25-11-2.5-7.25-6.25-8.5S189 41 182 40.5s-20 5.75-17.25 11.5-6 11-14.5 6.5-24.75-13-21.75-24S150 15.75 150 15.75zM97.188 112.72c-1.595.15-4.469 4.69-4.938 7.03-.5 2.5-3.25 6.75-3.5 12.25s4.75 6.75 8.75 6.5 2.75-6.75 2-15c-.25 0-.5-10.25-2-10.75-.094-.03-.206-.04-.312-.03zm92.722 51.66c-6.34.29-6.63 7.46-7.41 8.87-1.25 2.25 2.25 13.75 2 18s-4.75 5.25-9.5 9.75.5 16 11.25 31l44.75 1.25-1-35s4.75-4.25-20.75-24.25c-9.56-7.5-15.54-9.8-19.34-9.62zM39.94 180.91c-4.03-.11-8.282 5.71-9.688 7.59-1.5 2-6.25 5-17 9.5l-14.5 34.25 53 4.25s1.75-11-4.25-15.75-17.25-5.75-18.25-13.25 9.25-10 13.75-14.25 2-11.25-2.25-12.25a3.728 3.728 0 0 0-.812-.09z"/></g><path fill="#aac3e7" d="M158.53 85.344c-4.76-.015-9.03.968-11.53 3.156-8 7-35 .75-48.5 7s-13.25 38-14.75 44.5-17.5 20.75-20 23.5-13.25 7.25-19.5 8.5-12.75 7.25-15.5 11c-2.021 2.76-7.406 6.45-10.125 8.22-.046.18-.079.35-.125.53-.134.53-.247 1.08-.375 1.63 4.98-1.61 11.18-8.18 16.625-13.63 6.25-6.25 20-7.75 27.75-11.5S76.75 148.5 89 144.5s21.25 11.75 24.25 18.5 1.75 12.75 3.75 17 11 11.75 11.5 13.5-5 6.5-6.25 8.5-10.5 7-11.75 8.75c-.97 1.35-1.92 6.77-2.31 9.22.41-.17.75-.31 1.12-.47.49-2.53 1.52-7.08 2.94-8.5 2-2 11.25-4.5 12.5-8.5s7-6.5 7-6.5 2.75 4 16 14c8.83 6.67 12.76 15.53 14.41 20.72.67.17 1.53.41 2.03.53-1.22-4.32-4.84-16.24-8.94-20.75-5-5.5-18.5-10.75-22.75-22S108 154.25 115 148.25s16.5-4 28.5 7.5 46.25 5.75 57.75 3.75c9.95-1.73 20.83 14.88 23.91 26.03.59-2.09 1.12-4 1.65-5.75-1.74-1.92-3.69-4.62-5.31-8.28-3.75-8.5-12-13.25-12-13.25s8.75-5 14.75-7.75c1.62-.74 3.01-1.68 4.19-2.66-.16-.77-.26-1.25-.44-2.09l-.09-.44c-4.77 5.56-19.24 9.62-21.66 10.94-2.75 1.5-18.25 3-35.75 4.5s-26.75-7.5-34.25-14.75-13-36-3-38 20 13.75 30 17 21.5-15.75 19.75-27c-1.2-7.734-14-12.625-24.47-12.656zm-53.34 13.281c1.27.001 5.86 1.595 6.56 2.375 2.25 2.5 2 7.25 0 8s-12.75 8-10.5 14.25 1.75 18-3.5 18-8 0-10-2.5-2-12 0-19.75 3.5-15 8-18.25c3.094-2.234 6.63-2.128 9.44-2.125zm13.59 73.095c.2.01 1.91 3.51 4.72 7.03 3 3.75 3.25 8.25 3.25 8.25s-4.25-4.75-6-8-2-7.25-2-7.25c0-.03.02-.03.03-.03z"/><path fill="none" stroke="#6d7f42" stroke-linecap="round" stroke-linejoin="round" d="M122.75 72.25c6.25.5 12.25-2.25 10.75-6.5s-12.5-7.25-13.25-3 2 10.5 2.5 9.5zm-14-15.5c-8.5-5.5-8.5-7.25-7-8s10.25 5 12.75 8-2.25 2-5.75 0z" opacity=".387"/><g fill="none" stroke="#6d7f42" clip-path="url(#n)"><path stroke-linecap="round" stroke-linejoin="round" d="M15.75 151.25c33-2.5 38.25-3.5 36.25-10.25s-8.75-23.5-23-22.5-22.75-6.75-22.75-6.75" opacity=".387"/><path d="M17.5 177.25c18.25-10 28.75-8.5 35-11.5s13.25-5.75 15.75-9.5 5.75-11.5 5.75-18-3.5-36 3.25-43.5 17.25-26 26-23.25 12.25 9.75 22 9.5S147 77 149.5 68.75s-15.75-16-16-23 5.5-14.25 20.25-17 23.5-11.5 23.5-11.5" opacity=".387"/><path stroke-linecap="round" stroke-linejoin="round" d="M14.5 161c15.25-1.5 22.25 3.5 31.5 1.75s13.25-3 17.75-5.75 6-3.75 6.25-6.5 1-12.5-3-22S54.5 97 58.75 89.75 64 68.25 74.5 65.25 95.5 59 102.25 64s12.75 14.25 20 14.5S134 77 136.75 74s4.5-10.25 1.75-13.75-15.5-5.5-17.25-9.5-10.75-17-.25-26.75 36.25-8.25 36.25-8.25" opacity=".387"/><path stroke-linecap="round" stroke-linejoin="round" d="M21.25 159c13.75 1 21.5 4.25 33.5-.5s13.5-5.25 13.75-8.75-.25-15.75-3-20-13-13.75-15.75-24.25.25-41 8.5-48.25 32-7.25 37.5-10.5 5.25-16.75 13-24.5 27-12.25 27-12.25M190 18.5c11.75 5 39 9.75 47.25 40.25M9.75 214c19-12.5 36-1.25 49-4s38.25-37.25 46-37 5.5-11.75 8.5-13.25 5.5 6 11.75 8 24.5-2.75 23.5-5.75-7-7.75-5.5-8.5 8.5 5 12.75 3.5 43.75-1 48.5-13.5 21.5-13.5 21.5-13.5M77.5 233.5c13.5-11.5 23.25-25 28.5-27s12.75-3.75 15.75-8 2.5-10.75 5.25-12 3.75 5.75 8.75 6 36.75-5 42.75-11.75 32.25-12.5 32.5-14.5-1-4.75.25-5.5 24.75-6 24.75-6M168.75 236c9-13.75 20.5-41 29.5-42s10.25-2.5 12.5-4.25 17 2.25 17 2.25" opacity=".387"/></g><g fill="none" stroke="#d38484" stroke-linecap="round" stroke-width="2" clip-path="url(#o)"><path d="m57.75 20-8.5 28.25 18 6.25L75 90.75 54 113l9 10.5L51 135l.5 4.5L71.75 164l14-6.75 20.5 18.5L95.75 204l10.25 8.5-2.75 13"/><path d="m105.75 212.25 12.5-27.75 11-7 27.5 15.75 20.5-3.75-.25-15.75-10.25-6 12.75-26.25 5.75-3.75 38.75-10"/></g><path fill="url(#p)" d="M9 12.25s7.5 13 11.75 27.75S27 65.5 27 65.5s-5.5 12.75-8.25 24.75-5.75 23-5.75 23 5.75 16 9.25 30S26 167.5 26 167.5s-4 10.25-7.5 24.25-5 30.75-5 30.75 9.25-2 28.5 1.25 32.25 6 32.25 6 12.75-2.75 24-6.25 16.25-6.5 16.25-6.5 5.5.5 22.5 6.25 29.25 8.5 29.25 8.5 13-2.75 26-5.75 26.5-8 26.5-8-.75-5 4.25-24.5 8.75-28 8.75-28-.5-4.5-3.75-19.75S218 116 218 116s1.75-10.5 6.75-23.75S235 65.5 235 65.5s-4.75-15.25-7.5-29.75S219.25 10 219.25 10 195 19 187.5 20.5s-21 5.25-21 5.25-9.75-4.25-22-8.5-29.75-5.5-29.75-5.5-3.25 3.5-22 8-27.5 5.75-27.5 5.75-18.5-9-31.5-11.5-24-2-24.75-1.75z" opacity=".039"/><g opacity=".27"><path fill="url(#q)" d="M219.25-182s-24.25 9-31.75 10.5-21 5.25-21 5.25c4.92-1.36 11.44 45.39 14.25 52.25l-.06.28c11.81-4.07 51.21-4.77 54.31-12.78 0 0-4.75-15.25-7.5-29.75S219.25-182 219.25-182z" transform="translate(0 192)"/><path fill="url(#r)" d="M27-126.5s-5.5 12.75-8.25 24.75-5.75 23-5.75 23l50.625 16.281 15.781-58.911z" transform="translate(0 192)"/><path fill="url(#s)" d="M26-24.5S22-14.25 18.5-.25s-5 30.75-5 30.75.147-.045.438-.094c2.033-.338 11.218-1.5 28.062 1.344 19.25 3.25 32.25 6 32.25 6l1.469-52.5-.75.125z" transform="translate(0 192)"/><path fill="url(#t)" d="M114.75-180.25s-3.25 3.5-22 8-27.5 5.75-27.5 5.75c5.182 14.7 12.03 29.27 14.25 44.75l-.094.31 48.034-3.94 1.12.26c-3.36-13.33-7.79-54.6-13.81-55.13z" transform="translate(0 192)"/><path fill="url(#u)" d="M117.59-78.094 63.969-62.375l-.344-.094L63.5-62l12.25 46.5-.031.75 49.471-8.875.53.187.03-.062-8.25-54.25z" transform="translate(0 192)"/><path fill="url(#v)" d="M128.56-125.12c.24.92.47 1.74.69 2.37l-11.66 44.656.1-.031L169.5-60.75l11.19-52.97c-.36.12-.7.25-1 .38z" transform="translate(0 192)"/><path fill="url(#w)" d="M125.53-23.5 114.5 25s5.5.5 22.5 6.25c2.12.719 4.16 1.406 6.12 2.031 1.97.626 3.86 1.186 5.63 1.719 10.62 3.199 17.5 4.75 17.5 4.75l12.72-45.406c-.51.182-1.02.38-1.53.562L125.53-23.5z" transform="translate(0 192)"/><path fill="url(#x)" d="M218-76c-15.67 6.288-31.7 11.15-48.06 15.406l-.44-.156 9.5 55-.03.094c17.84-6.36 35.38-13.387 52.78-20.844 0 0-.5-4.5-3.75-19.75S218-76 218-76z" transform="translate(0 192)"/></g><g opacity=".043"><path fill="url(#y)" d="M13.719-179.97c-1.106 0-1.972.03-2.719.06-.445.02-.855.04-1.156.07-.03 0-.066-.01-.094 0-.398.03-.656.06-.75.09 0 0 7.5 13 11.75 27.75S27-126.5 27-126.5l51.469 5.12.937-.06.094-.31c-2.22-15.48-9.068-30.05-14.25-44.75 0 0-18.5-9-31.5-11.5-1.018-.2-2.01-.37-3-.53-.596-.1-1.167-.2-1.75-.28-.237-.04-.453-.06-.688-.1a98.772 98.772 0 0 0-3.812-.46c-.735-.08-1.395-.13-2.094-.19-.685-.06-1.353-.11-2-.16-.992-.07-1.89-.12-2.781-.15-1.456-.07-2.769-.1-3.906-.1z" transform="translate(0 192)"/><path fill="url(#z)" d="M13-78.75s5.75 16 9.25 30S26-24.5 26-24.5l48.969 9.875.75-.125.031-.75L63.5-62l.125-.469z" transform="translate(0 192)"/><path fill="url(#A)" d="m127.44-125.38-47.971 4h-.063L63.625-62.469l.344.094 53.621-15.719 11.66-44.656c-.22-.63-.45-1.45-.69-2.37z" transform="translate(0 192)"/><path fill="url(#B)" d="M125.19-23.625 75.719-14.75l-1.469 52.5S87 35 98.25 31.5 114.5 25 114.5 25l11.22-48.438z" transform="translate(0 192)"/><path fill="url(#C)" d="M114.75-180.25c6.02.53 10.45 41.8 13.81 55.13l51.13 11.78c.3-.13.64-.26 1-.38l.06-.28c-2.81-6.86-9.33-53.61-14.25-52.25 0 0-.61-.25-1.72-.72-3.32-1.39-11.09-4.59-20.28-7.78-12.25-4.25-29.75-5.5-29.75-5.5z" transform="translate(0 192)"/><path fill="url(#D)" d="m117.69-78.125-.1.031-.09.344 8.25 53.25-.22 1 51.91 18.406c.51-.181 1.02-.38 1.53-.562l.03-.094-9.5-55z" transform="translate(0 192)"/><path fill="url(#E)" d="M231.75-26.5c-17.4 7.457-34.94 14.484-52.78 20.844L166.25 39.75s13-2.75 26-5.75 26.5-8 26.5-8S218 21 223 1.5s8.75-28 8.75-28z" transform="translate(0 192)"/><path fill="url(#F)" d="M235-126.5c-3.1 8.01-42.5 8.71-54.31 12.78L169.5-60.75l.44.156C186.3-64.85 202.33-69.712 218-76c0 0 1.75-10.5 6.75-23.75S235-126.5 235-126.5z" transform="translate(0 192)"/></g></g><path fill="#2d3335" d="M174.28 35.875c-17.6 0-35.19 6.639-48.72 19.906-.16.164-.33.303-.5.469-22.05 22.056-26.206 55.25-12.47 81.5l-2.28 1.63c2.25 4.23 4.94 8.3 8.1 12.12l-13.32 13.34c-1.34-.58-2.78-1.03-4.56-1.37l-2.842 2.84c-1.11-.48-2.139-.81-3.063-.87L30.5 229.56c-.037 1.1.226 2.19.656 3.28l-.531.54-1.094 1.09c.716 3.74 2.011 6.82 5.469 10.28 3.458 3.46 6.42 4.63 10.281 5.47l1.094-1.1.719-.71c1.088.46 2.13.78 3.094.84l64.122-64.13c-.24-.97-.62-1.93-1.03-2.9l3-3c-.25-1.73-.68-3.2-1.31-4.6l13.28-13.28c3.82 3.16 7.89 5.85 12.13 8.1l1.62-2.28c26.25 13.74 59.44 9.58 81.5-12.47.17-.17.31-.34.47-.5 26.69-27.22 26.55-70.923-.47-97.94-13.59-13.59-31.41-20.375-49.22-20.375Zm-.5 3.281c.11.002.21-.002.31 0a67.89 67.89 0 0 1 5.72.375c.1.01.19.021.28.031l.29.032c.14.017.29.044.43.062.9.11 1.8.228 2.69.375.62.102 1.23.224 1.84.344.35.066.69.116 1.04.187.72.153 1.43.324 2.15.5.31.077.63.138.94.219.07.019.14.043.22.063.95.253 1.89.516 2.84.812.07.023.15.04.22.063.95.3 1.91.625 2.84.969.06.019.11.042.16.062.95.352 1.9.728 2.84 1.125.06.022.11.041.16.063.94.4 1.88.836 2.81 1.281l.13.062c.93.451 1.86.91 2.78 1.407.03.017.06.044.09.062.93.503 1.84 1.013 2.75 1.562.03.02.06.044.1.063.9.551 1.8 1.122 2.68 1.719.55.369 1.09.769 1.63 1.156.36.261.73.512 1.09.781.02.014.05.018.06.031.88.656 1.75 1.36 2.6 2.063a70.875 70.875 0 0 1 5.06 4.594c1.62 1.62 3.14 3.3 4.56 5.031.01.011.03.02.03.031.71.855 1.41 1.715 2.07 2.594.28.379.54.773.81 1.156.37.517.74 1.038 1.09 1.563.02.024.05.038.07.062.59.89 1.16 1.778 1.71 2.688.02.032.05.061.07.094a75.45 75.45 0 0 1 1.56 2.75c.02.032.04.06.06.093.5.921.96 1.844 1.41 2.781l.06.126c.45.929.88 1.868 1.28 2.812l.06.156c.4.936.78 1.895 1.13 2.844l.06.156c.35.949.67 1.885.97 2.844l.06.219c.3.941.56 1.894.82 2.843l.06.219c.08.31.14.627.22.938.17.72.35 1.432.5 2.156.07.342.12.688.18 1.031.12.617.25 1.225.35 1.844.15.893.26 1.791.37 2.688.02.145.05.291.07.437l.03.281.03.282c.1.952.19 1.912.25 2.872.06.94.11 1.9.12 2.85.01.1 0 .2 0 .31.02 1.05.01 2.1-.03 3.15-.03.94-.08 1.86-.15 2.79-.01.12-.02.25-.04.37-.07.92-.16 1.84-.28 2.75-.12.96-.27 1.93-.43 2.88-.02.08-.02.16-.04.25-.02.12-.03.25-.06.37-.16.91-.36 1.82-.56 2.72-.03.13-.06.27-.09.41a86.1 86.1 0 0 1-.69 2.65c-.17.59-.35 1.17-.53 1.75-.18.57-.34 1.13-.53 1.69-.3.86-.61 1.71-.94 2.56-.06.16-.13.32-.19.47-.04.11-.08.23-.12.34-.36.88-.73 1.73-1.13 2.6-.38.82-.77 1.63-1.19 2.44-.08.15-.16.31-.25.46-.41.8-.83 1.6-1.28 2.38-.09.17-.18.34-.28.5-.2.34-.42.66-.62 1-.37.59-.75 1.17-1.13 1.75 0 .01.01.02 0 .03-.49.75-1 1.49-1.53 2.22-.46.64-.95 1.25-1.44 1.87-.19.26-.36.53-.56.79l-.41.5c-.16.2-.33.39-.5.59-.55.67-1.13 1.32-1.72 1.97-.6.67-1.23 1.35-1.87 2-.16.16-.31.34-.47.5-21.13 21.13-52.26 24.49-77.19 11.15l.13-.18c-3.71-1.9-7.26-4.14-10.63-6.78-.54-.43-1.06-.87-1.59-1.32-.51-.43-1.03-.86-1.53-1.31-.09-.08-.19-.16-.28-.25a86.97 86.97 0 0 1-2.41-2.31c-.79-.8-1.56-1.59-2.31-2.41-.09-.09-.17-.19-.25-.28-.45-.5-.88-1.02-1.31-1.53-.45-.53-.89-1.05-1.32-1.59a65.831 65.831 0 0 1-6.78-10.63l-.19.13c-13.33-24.93-9.97-56.061 11.16-77.191.16-.163.34-.308.5-.469.65-.64 1.33-1.269 2-1.875.65-.588 1.3-1.162 1.97-1.719.27-.227.54-.465.81-.687.35-.278.72-.512 1.06-.782.63-.483 1.24-.98 1.88-1.437.74-.53 1.5-1.036 2.25-1.531.58-.383 1.16-.764 1.75-1.125.45-.274.89-.551 1.34-.813.69-.395 1.37-.757 2.07-1.125a61.343 61.343 0 0 1 3.37-1.687c.87-.397 1.72-.769 2.59-1.125.16-.062.32-.096.47-.157.97-.384 1.93-.758 2.91-1.093.56-.192 1.12-.356 1.69-.532.58-.181 1.16-.367 1.75-.531.88-.246 1.77-.48 2.65-.687.07-.017.15-.015.22-.032.42-.095.84-.193 1.25-.281.67-.141 1.36-.287 2.03-.406.09-.015.17-.017.25-.031.95-.164 1.92-.317 2.88-.438a65.183 65.183 0 0 1 9.06-.5z" clip-path="url(#G)" filter="url(#H)" transform="matrix(.8757 .07083 0 .8757 16.398 -3.675)"/><path fill="url(#I)" d="m58.44 213.951-4.21 3.985c-4.384-4.65-8.966-9.37-13.205-14.125l3.933-3.564c5.98 5.718 7.77 7.47 13.482 13.704z"/><path fill="#2d3335" d="M125.913 132.713c-23.798-23.802-23.798-62.395 0-86.197 23.802-23.801 62.394-23.801 86.195 0 23.802 23.802 23.802 62.395 0 86.197-23.801 23.801-62.393 23.801-86.195 0zm2.592-2.593c22.847 22.856 59.031 23.714 81.878.867 22.856-22.855 21.99-59.036-.858-81.886-22.847-22.848-59.03-23.711-81.887-.861-22.847 22.85-21.989 59.033.867 81.88z"/><path fill="#9eaaac" d="M125.913 132.713c-23.798-23.802-23.798-62.395 0-86.197.149-.145.29-.288.438-.431-23.372 23.834-23.229 62.108.43 85.76 23.652 23.662 61.929 23.802 85.757.43-.14.149-.28.289-.43.438-23.801 23.801-62.393 23.801-86.195 0zm2.154-84.904c.15-.146.29-.287.438-.431 22.847-22.85 59.031-21.988 81.878.862 22.856 22.85 23.714 59.033.867 81.88l-.438.438c22.41-22.873 21.42-58.751-1.287-81.457-22.707-22.704-58.584-23.699-81.458-1.292Z"/><path fill="#d0e9f2" fill-opacity=".476" d="M127.638 130.987c22.856 22.847 59.898 22.847 82.745 0 22.856-22.855 22.856-59.898 0-82.747-22.847-22.85-59.889-22.85-82.745 0-22.847 22.85-22.847 59.892 0 82.747z"/><path fill="url(#J)" d="M127.638 130.987c22.856 22.847 59.898 22.847 82.745 0 22.856-22.855 22.856-59.898 0-82.747-22.847-22.85-59.889-22.85-82.745 0-22.847 22.85-22.847 59.892 0 82.747z"/><path fill="url(#K)" d="m118.023 115.715-5.035 3.582a63.354 63.354 0 0 0 11.209 15.132 63.354 63.354 0 0 0 15.132 11.209l3.582-5.035a57.397 57.397 0 0 1-14.406-10.483 57.397 57.397 0 0 1-10.482-14.405z"/><path fill="url(#L)" d="M125.703 132.923a19.539 19.539 0 0 1 3.608 5.009l-22.952 22.952a19.53 19.53 0 0 1-5.008-3.608 19.5 19.5 0 0 1-3.608-5.009l22.951-22.952a19.538 19.538 0 0 1 5.009 3.608z"/><path fill="url(#M)" d="M118.216 154.202 60.357 212.06c-3.489-1.918-5.107-2.627-8.135-5.657-3.028-3.03-3.737-4.641-5.656-8.135l57.857-57.858c4.431 3.284 10.614 9.107 13.793 13.792z"/><path fill="url(#N)" d="M109.03 149.727c3.03 3.03 6.506 5.833 7.46 9.65L60.358 215.51c-5.707-4.518-12.746-11.2-17.239-17.242l56.133-56.133c3.057.202 6.705 4.519 9.735 7.549z"/><path fill="url(#O)" d="M108.81 149.938c3.03 3.03 6.726 5.622 7.68 9.44L60.358 215.51c-6.898-6.05-10.331-9.309-17.239-17.242l56.133-56.133c3.057.202 6.495 4.773 9.525 7.803z" opacity=".596"/><path fill="url(#P)" d="M131.264 47.209c35.606-28.174 68.418-11.146 68.112 4.644-.307 15.79-49.539 61.612-66.878 57.899-17.338-3.713-22.286-46.753-1.234-62.543z" opacity=".604"/><text xml:space="preserve" x="101.345" y="77.708" fill="url(#Q)" stroke-width=".876" font-family="Monospace" font-size="17.339" font-weight="700" opacity=".461" transform="rotate(-8.9)"><tspan x="101.345" y="77.708">01011001</tspan><tspan x="101.345" y="99.381">00110101</tspan><tspan x="101.345" y="121.055">10010011</tspan></text><text xml:space="preserve" x="100.97" y="76.582" fill="url(#R)" stroke-width=".876" font-family="Monospace" font-size="17.339" font-weight="700" transform="rotate(-8.9)"><tspan x="100.97" y="76.582">01011001</tspan><tspan x="100.97" y="98.255">00110101</tspan><tspan x="100.97" y="119.928">10010011</tspan></text><path fill="url(#S)" d="M208.58 127.809c-23.46 19.248-36.614 18.398-33.339 11.506 3.267-6.891 37.06-36.481 45.055-38.312 7.987-1.832 1.988 15.798-11.717 26.806z" opacity=".765"/><g fill="#333"><path d="M158.765 79.337s-1.242-2.524-1.665-3.363c-2.822-5.594-2.761-5.891-5.614-6.267-.798-.105-1.211-.206-1.211-.602v-1.77l.24-.173c5.154-.006 16.621-.006 16.621-.006l.44.145v1.763c0 .403-.288.61-.873.61l-1.205.172c-3.045.237-2.548 1.482-.524 5.512l19.21 39.302.656.18 17.054-40.474c.592-1.63.5-2.788-.26-3.468-.765-.663-1.303-1.056-3.28-1.137l-1.6-.081a.939.939 0 0 1-.562-.203.583.583 0 0 1-.267-.49V67.3l.244-.172h19.267l.196.172v1.685c0 .457-.26.687-.775.687-2.524.112-4.395.66-5.607 1.638-1.214.985-2.162 2.341-2.842 4.104 0 0-15.684 35.899-21.05 47.83-2.054 3.911-4.074 3.553-5.85-.112-3.753-7.728-14.32-31.174-14.32-31.174z"/><path d="m171.067 87.929-13.351 26.802-.532-.138s-14.492-30.56-18.688-40.782c-.437-1.059-.633-1.844-.633-2.328 0-1.038.937-1.6 2.812-1.678l2.186-.091c.579 0 .873-.224.873-.687v-1.679l-.196-.172s-17.359-.02-20.946 0l-.196.172v1.763c0 .318.403.515 1.211.603 2.203.118 3.651.47 4.349 1.055.693.593 1.427 2.088 2.402 4.42 5.269 12.655 16.462 35.238 21.913 48.1 1.57 3.512 3.543 4.057 5.939-.109 4.148-7.694 15.045-30.63 15.045-30.63l-2.188-4.621z"/></g></svg>