<svg xmlns="http://www.w3.org/2000/svg" width="580" height="572" version="1.0" viewBox="0 0 435 429"><path d="M2.6 2.2c-.3 1.3-.6 97.1-.6 213 0 167.5.3 210.8 1.2 211.5 1.9 1.2 424.6 1.2 428.6 0l3.2-1V214.3c0-149.6-.3-211.2-1.1-210.8-.6.4-1.3-.2-1.6-1.4l-.5-2.1H3.2l-.6 2.2zM53.8 19c2.1 1.9 2.2 3 2.2 15.7C56 52.9 57 52 37.9 52c-12.1 0-15-.3-16.3-1.6C20.3 49.2 20 46.3 20 35c0-18.5-.5-18 18-18 12.3 0 13.8.2 15.8 2zm71.2 2c1.4 2.7 2 25.7.7 29.5-.6 1.6-1.5 3.3-2.1 3.7-.6.4-7.2.8-14.7.8-17.9 0-17.3.6-17.7-17.7C90.7 18.2 89.9 19 109 19c13.9 0 15 .1 16 2zm70.4-.4c1.3 1.3 1.6 4.2 1.6 16.4v14.9l-3 1.6c-2.1 1.1-6.1 1.5-14.8 1.5-10.6 0-12.2-.2-14.6-2.1-2.6-2-2.6-2.1-2.6-16.1 0-18.7-.9-17.8 17.6-17.8 11.6 0 14.5.3 15.8 1.6zm70.1.6 2.5 1.1v14.8c0 12.1-.3 15-1.6 16.3-1.3 1.3-4.2 1.6-16.3 1.6-10.1 0-15.1-.4-15.9-1.2-.8-.8-1.2-5.9-1.2-16.5 0-13.4.2-15.3 1.8-16.2 2.4-1.5 27.5-1.4 30.7.1zm72.2 1.1c.4.5.8 7.6.8 15.9 0 13.7-.2 15.1-1.9 16.4-2.9 2.1-29.8 2-31.6-.1-.8-.9-1.2-6.3-1.3-16-.2-18.7-1.3-17.7 18.5-17.3 8 .2 15 .7 15.5 1.1zm71.3.7c.5.8 1 7.7 1 15.2 0 18.4.6 17.8-17.8 17.8-19 0-18.2.8-18.2-17.1 0-18.9-.8-18.1 19.1-17.7 12 .2 15.2.6 15.9 1.8zm-262 82c8 1.9 9.8 2.6 20 7.3 11.7 5.5 24.7 16.8 33.2 28.8 13.2 18.7 19.4 39.4 20.5 68.5 1.2 31.4-6.2 58.7-21.5 79.4-9.7 13.2-19.9 21.6-33.8 28.1-10.4 5-15.9 6.5-29.4 8.4-16.4 2.3-23.9 1.9-43-2.3-21.7-4.7-43-20.3-55.7-40.7-2-3.2-8.3-16.5-8.3-17.5 0-.5-.6-2.4-1.4-4.2-.7-1.8-1.9-4.9-2.5-6.8-1.8-5.1-5.1-31.3-5.1-40 0-9.8 2.8-31.6 4.6-35.8.8-1.8 1.4-4.1 1.4-5 0-3 3.7-12.6 8.1-20.9 7-13.2 18.6-26.6 29.2-33.6 9.6-6.3 23.3-12.7 27.3-12.7 1.4 0 3.5-.5 4.7-1.2 5.8-3.1 38.6-3 51.7.2zm217-.4c15.1 3 28.6 6.7 31.8 8.7.8.6 1.2 4.5 1.2 13.8 0 14.7 0 14.7-8.2 11-2.4-1.1-6.1-2.6-8.3-3.4-2.2-.8-5.8-2.2-8-3-10.2-3.8-19.8-5.2-36.5-5.2-18.3.1-24.8 1.5-34.4 7.5-6.6 4.2-8.1 5.8-11.2 12-2.3 4.5-2.9 7.1-3.2 14-.3 7.4 0 9.3 2.1 14.1 4.6 10.4 14.7 16 36.7 20.4 35.2 7 43.1 9.5 60.3 19.2 1.1.6 4.8 4 8.1 7.6 10.3 10.9 15.6 24.9 15.6 41.5 0 5-.6 11-1.5 13.8-.8 2.7-1.5 5.7-1.5 6.6 0 3.8-6.3 14.8-11.9 20.9-5.6 6.2-16.5 13.6-22 15.1-1.4.4-5.3 1.6-8.6 2.8-11.2 4-34.3 5.8-50.7 4.1-16.2-1.7-24-3.4-43.8-9.2-12.6-3.7-12-2.7-12-18.9 0-9.8.3-14 1.1-14 .7 0 5 1.8 9.8 4.1 14.9 7 17.6 8.1 26.6 10.5 30.6 8.1 59.5 4.6 73.5-8.8 5.2-5 6.6-7.3 8.6-13.7 3.1-10.3 1-23.7-5-32-7.3-9.9-17.1-14.1-45.6-19.6-4.7-.9-10.8-2.3-13.6-3.1-2.8-.8-5.8-1.4-6.6-1.4-1.6 0-14.7-4.9-20.8-7.8-9.4-4.5-20.1-15.1-23.9-23.7-4.7-10.6-6.3-26.7-3.6-37.7 2-8.3 4.3-14.6 6.2-16.9.7-.8 1.3-2.1 1.3-2.8 0-.6 3.3-4.4 7.3-8.4 8.5-8.5 17.2-13.3 31.7-17.5 3-.8 8.9-1.9 13-2.3 10.7-1 37.2 0 46 1.7zM54.4 377.2c1.3 1.8 1.6 5.1 1.6 15.5 0 17.9.6 17.3-18 17.3s-18 .6-18-17.3c0-18.5-.9-17.7 18-17.7 14.2 0 15 .1 16.4 2.2zm70.6-.7c1.8 2.2 2.1 26.1.4 30.2l-1.3 3.3h-14.8c-8.1 0-15.5-.5-16.3-1-1.2-.8-1.5-3.7-1.5-16 0-13.9.2-15.3 1.9-16.6 2.9-2.1 29.8-2 31.6.1zm69.4-.5 2.6 1v15.4c0 14.3-.1 15.6-1.9 16.6-1.1.5-8.2 1-15.9 1-18.3 0-17.6.7-17.3-17.8.2-10.9.5-14 1.8-15.4 1.4-1.6 3.5-1.8 14.9-1.8 7.3 0 14.4.4 15.8 1zm71.9.8c1.4 1.5 1.7 4.4 1.8 16.1 0 12.7-.1 14.4-1.8 15.7-2.2 1.6-28.3 2-31.4.4-1.7-1-1.9-2.3-1.9-16.5 0-13.6.2-15.5 1.8-16.4.9-.6 8-1.1 15.8-1.1 12.4 0 14.3.2 15.7 1.8zm70.8-.1c1.1 1.2 1.4 5.3 1.4 16 0 13.2-.2 14.6-1.9 15.9-1.5 1-5.5 1.4-16.3 1.4-13.7 0-14.3-.1-15.4-2.3-1.7-3-1.6-29.2.1-31.2 1-1.2 4.3-1.5 16-1.5 12.5 0 15 .3 16.1 1.7zm70.7-.1c2.1 1.4 2.2 2.2 2.2 15.5 0 18.6.7 17.9-18 17.9-18.6 0-18 .6-18-17.5s-.6-17.5 17.8-17.5c10.8 0 14.2.3 16 1.6z"/><path d="M107 126.9c-21.9 3.9-39.8 20.5-49.3 45.6-3.4 8.8-6.7 29.7-6.7 41.5 0 18.7 5 41.6 11.6 53.7 10.3 18.7 25.9 30.6 44.8 33.9 10.1 1.7 15.9 1.7 26.1 0 9.9-1.8 15.2-3.7 22-8.1 17.7-11.3 29.9-33.3 33.4-60.6 2.6-19.7.1-46.2-5.7-61.4-6.8-17.8-16.1-29.4-31-38.3-2.9-1.8-5.8-3.2-6.6-3.2-.7 0-3.1-.7-5.1-1.6-4.4-1.8-26.2-2.8-33.5-1.5z"/></svg>