<svg xmlns="http://www.w3.org/2000/svg" width="2314.667" height="685.333" version="1.0" viewBox="0 0 1736 514"><path d="M228 1.1c-38.2 4.3-78 18.4-108.9 38.5C64.2 75.5 27.8 124 10 185.5c-11.7 40.3-13.1 85.9-4 127.9 15.2 69.8 62.2 132.8 125.6 168.3 26.2 14.7 59.7 25.8 90.4 30 18.2 2.4 56.8 2.5 71.8 0 36.5-5.9 64.9-15.9 92.8-32.4C467.7 431.1 514 349.7 514 255.4c0-50.5-14.3-98.2-41.8-139.4-11.6-17.4-20.1-27.8-33.7-41.6C399 34.7 346.4 9 290.1 2 272.6-.1 242.8-.6 228 1.1zm57.2 40.5c97.6 12.5 174.9 90.3 187.3 188.4 3.2 25 1.3 55.7-5 80.7-15.1 59.8-56.6 111.4-112.3 139.7-86.4 43.7-188.2 26-255.5-44.4-33.3-34.7-53.5-78.9-58.8-128.5-1.6-14.8-.6-41.7 2-56.5 8.9-50 32.6-92.7 70-126.3 31.8-28.6 72.6-47.3 115.7-53.1 14-2 41.6-1.9 56.6 0z"/><path d="M349.5 100c-.3.9 1 4.6 3 8.4 2.8 5.3 3.5 7.9 3.5 12.2 0 5.3-3.3 15.4-5 15.4-.4 0-1.2-1.1-1.8-2.5-2.7-5.9-13.3-7.1-16.9-1.9-2 2.9-3 3.8-9 9-6.3 5.3-7.5 12-4.8 25.1l.7 3.1-4.3-1c-2.4-.5-7.2-.7-10.5-.4l-6.1.6-5.2-7.9-5.3-8 1.2-11.5c1.9-18.5-.6-20.2-3.4-2.3-2.1 13.1-2 16.3.9 24.1 1.4 3.7 2.5 6.9 2.5 7.1 0 .8-8.2-3.5-10.2-5.2-.9-.9-3.5-7-5.8-13.7-4.3-12.8-5.5-15.5-6.6-14.4-1.1 1.2 5.4 28.7 7.6 31.8l2 2.9-2.8-.9c-5.1-1.4-7.3-3-16-11.9-8.8-9-11.7-9.7-6.1-1.4 7.7 11.2 14.6 17 25.1 21.2 6.1 2.5 8.7 4.6 7.2 6.1-.5.4-15.4-1.7-34.4-5-58.4-10.2-81.8-12.4-125.5-12.3-29.8.2-46.2 1.3-49.5 3.3-2.5 1.5.5 5.6 8.2 11.3 13 9.5 26.6 17.7 39.1 23.7 23.2 11.1 37 14.5 58.7 14.5 16.2 0 13.2.9 34.1-10.2 6.7-3.5 6.7-3.5 36.9-6.5 16.7-1.6 30.6-2.6 31.1-2.1.4.4 2 3.4 3.4 6.6l2.5 5.8-2.2-.8c-1.3-.4-5.7-.8-9.8-.8-10 0-16.7 3.3-32 15.8-26.2 21.3-43.7 42.1-62.2 73.7-9 15.3-27.8 53.6-27.8 56.6 0 1.6 4.8-.5 30-13 42.4-21 68.5-39.7 91.8-65.9 23.8-26.8 28.6-37.4 23.8-52.4l-.7-2.2 5.8 2.5c3.2 1.4 6.2 2.9 6.7 3.4.4.4.1 8.1-.8 17.2-.9 8.9-2 21.6-2.6 28.1-1.2 13.7-3.5 21.3-9.1 30.3-5.4 8.5-6.9 13.9-6.9 24.9 0 9.8 3.4 29.7 7.3 42 5 16.3 28.3 56.8 36.7 63.8 4.2 3.6 5.7 3.4 7-1 1.8-6.2 3.2-38.5 2.6-58.3-1.3-37.8-3.8-60.4-12.2-111-3-17.9-5.4-33.7-5.4-35.3 0-5.3 2.5-2.6 7.4 7.8 4.8 10.4 4.9 10.4 14.5 18 5.3 4.1 9.9 7.5 10.4 7.5 2.2 0-.2-3.3-7.4-10.2-6.1-5.8-8.5-8.8-10-12.8l-2-5.2 3.1 2.2c3.3 2.4 30.4 8.9 31.7 7.7 1.2-1.2-1.3-2.4-14.9-6.9l-12.7-4.2-2.7-4.9c-1.4-2.6-2.4-5.1-2.1-5.4.3-.3 4 .6 8.1 2 8.1 2.7 10.3 2.7 27.4-.4 11-2 8.4-3.1-6.5-2.7l-13.9.3-7.1-4.9-7.1-4.8.1-10.5c0-10.1.1-10.4 2.1-9.8 1.2.3 5.1.9 8.8 1.2 8.5.7 14.6-1.9 18.6-8.1 1.5-2.2 3.1-4.3 3.7-4.5.5-.2 2.2-1.7 3.7-3.2 4.5-4.5 3.2-12.8-2.6-15.9-1.4-.7-2.6-1.6-2.6-1.9 0-.9 14.1-6.1 16.3-6.1.9 0 5.3 1.8 9.7 4 4.4 2.2 8.6 4 9.5 4 4.2 0-.7-4.3-9.7-8.5-7.3-3.4-13.1-3.3-22.1.6l-7.2 3-2.5-3.3c-3-4-8.4-9.5-12.7-12.8l-3.2-2.5 2.9-7c3.8-9.2 3.8-14.7.1-22.8-3.6-7.9-6.7-11.9-7.6-9.7zM626.1 136.6c-5.7.8-14.4 2.8-19.3 4.4-19.1 6.4-28.6 16.3-32.3 33.6-2.1 10.1-2.2 138.6 0 148.7 5.4 25.4 21.8 35.8 63 39.8 13.2 1.3 42.5.7 56.5-1.1 23.6-3 40.2-11.7 47.3-24.8 6.2-11.5 6.2-10.9 6.2-87.2 0-74.6-.1-75.9-5.2-86.8-3.5-7.4-10.9-14.5-19.6-18.6-14.8-7.1-31.6-9.6-63.7-9.5-13.3.1-26.8.7-32.9 1.5zm61.9 22c16.6 2.6 24.8 7.5 29.3 17.2 2.2 4.7 2.2 4.8 2.2 73.7 0 77 .4 72.1-7.1 80.5-10.4 11.4-52.6 16-84.3 9.1-14.9-3.3-21.1-7.7-25.4-18.1l-2.2-5.5V250c0-59 .2-66 1.7-71 4.3-13.8 14.9-19.4 41.8-22 10.8-1.1 32.5-.3 44 1.6zM1159 135.6c-21.6 2.6-32.9 5.6-41.6 11.2-9.8 6.3-15.7 15.2-18.4 27.2-1.7 7.9-2.6 184.5-.9 186.6 1.6 2 24.1 2 25.8.1.7-1 1.2-13.9 1.3-41.3l.3-39.9h117l.3 39.9c.1 27.4.6 40.3 1.3 41.3 1.7 1.9 24.2 1.9 25.8-.1.9-1.1 1.1-23.7.8-91.8-.4-101.2-.2-98-7.6-109.5-7.4-11.5-19.3-18-40.1-21.9-6.1-1.2-15.8-1.7-34.5-1.9-14.3-.2-27.6-.1-29.5.1zm51 22.5c16 2.1 24.7 7 29.5 16.3l3 6v74.1l-56.5.3c-31.1.1-57.5 0-58.8-.3l-2.3-.6.3-36.7c.3-34.7.4-36.9 2.4-41.2 5.4-11.8 15.7-16.7 39-18.9 10.6-1 32.7-.5 43.4 1zM1379 135.7c-33.8 3.2-48.5 9-58.1 23-6.1 8.8-7.2 13.8-7.7 35.7-.5 23 .5 28.8 6.8 38.4 4.3 6.7 9 10.9 16.9 15 8.4 4.3 13.9 5.6 58.1 12.7 22.3 3.6 42.7 7.3 45.4 8.3 6.5 2.3 12.9 8 15.4 14 2.8 6.5 3.7 17.8 2.3 28.7-2.6 19-7.7 23.8-30.1 28.6-19.2 4.1-49.4 2.9-68.8-2.7-6-1.7-12.4-6.9-15.2-12.4-2.7-5.3-4-14-4-27.1 0-6.8-.4-11.9-1-12.1-.5-.2-6.6-.2-13.5 0l-12.5.3v15.2c0 17 .8 23.5 4 31.9 2.6 7.1 10.2 15.6 17.3 19.7 6.6 3.7 18.9 7.6 29.7 9.3 11.7 1.8 59.5 1.8 71-.1 31.3-5.1 46.5-17.8 50-41.9 1.5-10.4 1.2-34.7-.5-42-3.7-15.7-13.9-26.1-31.1-31.7-4.5-1.5-25.4-5.4-50.3-9.5-23.4-3.9-44.8-7.7-47.4-8.6-7.1-2.3-12.1-7.6-14.2-14.8-1.4-4.8-1.6-8.4-1.2-19 .3-7.2 1.1-14.9 1.9-17.1 1.9-5.8 9.2-12.8 15.8-15.3 24.7-9.1 75.9-6.8 90.1 4.1 6.6 5 9 10.8 10.1 24.6.5 6.4 1.2 11.9 1.7 12.4.4.4 6.4.6 13.2.5l12.4-.3.3-9.4c.4-11.7-1.8-23.6-5.8-31.7-7.6-15.4-25.1-23.6-56.5-26.3-11.1-1-36.3-1.2-44.5-.4zM791.4 138.2c-.5.7-.7 41.6-.6 90.8.4 96.7.4 97.4 5.8 108.3 3.4 7.1 10.7 14.4 17.9 18.1 12.1 6.1 32.1 9.2 53 8.3 22.5-1 35.5-5.8 47.8-17.8l6.8-6.6 6.7 6.7c7.8 7.8 17.3 12.8 29.7 15.7 6.3 1.4 11.9 1.8 26 1.7 20.5 0 33.1-2.1 44.2-7.4 7.5-3.5 15.1-10.8 18.8-18 5.4-10.7 5.4-11 5.5-108.8.1-49.6-.2-90.7-.5-91.2-.9-1.5-23.8-1.3-25.3.2-.9.9-1.2 21.4-1.2 86.3 0 53.7-.4 87.3-1 91.4-2.5 15.1-9.4 21.1-28.5 24.6-14.6 2.8-35.8.8-46-4.2-5-2.5-9.4-7.4-11.8-13.2l-2.2-5.6-.3-88.9c-.2-62.4-.6-89.4-1.4-90.3-1.5-1.9-24.1-1.8-25.7 0-.7 1-1.1 27.8-1.3 90.8l-.3 89.4-2.4 5.3c-3 6.6-9.4 12.3-16.3 14.6-9.2 3-23.5 4.1-35.6 2.8-14.8-1.5-20.6-3.6-26.4-9.3-8.7-8.7-8.2-3-8.8-104.9l-.5-89.5-12.7-.3c-9.4-.2-12.8.1-13.4 1zM1529.7 137.7c-.4.3-.7 50.7-.7 111.9V361l2.3.5c1.2.3 7.2.5 13.2.3l11-.3.3-30.9c.1-20.8.6-31.4 1.3-32.3.9-1 9.2-1.3 42.3-1.3 40.8 0 51.7-.6 63.2-3.5 19.6-5 33.3-18.9 37.6-38 1.9-8.5 1.8-68.5-.1-77-2.2-9.8-5.9-16.4-13-23.5-10.3-10.2-21.9-14.9-41.2-17-10.4-1.1-115.2-1.4-116.2-.3zm114.6 22.7c16.1 3.1 25.8 11.7 28.6 25.6.7 3 1.5 13.6 1.8 23.5.6 20.5-.7 36.8-3.8 45-2.3 6.1-8 12.5-13.8 15.5-9.6 4.8-13.2 5.2-56.2 5.7-29.6.4-41.2.2-42.7-.6l-2.2-1.2v-56.8c0-31.2.3-57.1.7-57.4.3-.4 18.5-.7 40.4-.7 30.4 0 41.5.3 47.2 1.4zM1675 330c0 1.7.6 2 5 2h5v15c0 14.3.1 15 2 15s2-.7 2-15v-15h5.6c4.7 0 5.5-.3 5.2-1.8-.3-1.5-1.8-1.7-12.6-2-11.7-.2-12.2-.2-12.2 1.8zM1704 345c0 16.3.1 17 2 17s2-.7 2.1-14.3v-14.2l4.8 13.5c4.2 12.1 5 13.5 7.1 13.5 2 0 2.7-1.4 6.9-13.5l4.6-13.5.3 14.2c.2 13.5.4 14.3 2.2 14.3 1.9 0 2-.7 2-17v-17h-6.9l-4.3 13c-2.3 7.1-4.5 13-4.8 13-.3 0-2.5-5.9-4.8-13l-4.3-13h-6.9v17z"/></svg>