<svg xmlns="http://www.w3.org/2000/svg" xml:space="preserve" id="Layer_1" x="0" y="0" style="enable-background:new 0 0 1680 385" version="1.1" viewBox="0 0 1680 385"><style>.st1{fill:#222c31}</style><switch><g><path d="M206 0c11.1 2 22.4 3.3 33.3 6 75.2 18.6 132.2 82.4 142.8 159.4 14.1 102.4-52.5 196-154 216.3-7.3 1.5-14.8 2.3-22.2 3.4h-102c0-64.5 0-129 .1-193.4 0-4.3.4-8.7 1.1-12.9 6.6-43.3 46.1-76 89.4-74.3 45.7 1.9 82.4 37.2 85.3 82.2 4.3 66.8-63.7 113.7-124.6 85.9-1.3-.6-2.6-1.1-4.5-1.8 0 20.5-.1 40.3.2 60.1 0 1.2 2.3 3 3.8 3.4 19.5 5.6 39.4 6.7 59.4 3.5 84.6-13.6 139.2-93.9 120.9-177.3-16.9-77.2-94.1-127.7-171-112-69.6 14-118.2 73.4-118.4 144.6-.1 62.3 0 124.6 0 186.9 0 1.7.2 3.3.4 5H0V178c.6-3.9 1.3-7.8 1.8-11.8C12.4 88.5 69.1 24.9 145.2 5.9 156 3.2 167.1 1.9 178 0h28z" style="fill:#e6461a"/><path d="M1680 272h-31.7v-22.9c-.1-29.5 0-59-.3-88.5-.3-23.1-17.7-43.9-40.3-48.6-31-6.5-62.5 18.6-62.6 50.4-.1 34.5.1 69 .2 103.5v6.2h-30.8V88.9h30.5V99c10-8.9 20.6-14.4 32.6-17.4 47.2-11.9 96.6 22.8 101.4 71.2.1 1.4.6 2.9.9 4.3.1 38.2.1 76.6.1 114.9zM481.8 251.5v91.4h-30.6c-.1-1.3-.3-2.6-.3-3.9 0-53.2-.2-106.3.1-159.5.3-48.1 34-88.7 81-98.2 56.5-11.4 111.8 28.3 119.2 85.5 7.3 56.4-31.5 107-88.1 113.8-29.7 3.5-55.3-6.7-77.3-26.5-1-.9-1.5-2.5-2.3-3.8-.6.4-1.1.8-1.7 1.2zm69.9-1.1c38.7-.1 69.6-31.3 69.6-70.1-.1-38.7-31.4-70-69.9-69.8-38.6.2-69.6 31.4-69.5 70.2-.1 38.6 31.1 69.8 69.8 69.7zM1127.7 221.3c14.8 22.6 46.1 33.8 73.8 26.4 16.9-4.5 30.4-14.2 40.1-28.7 9.7-14.5 13.3-30.7 11.2-48.4h30.6c5.5 38.7-17.6 89.2-69.4 105.7-49 15.6-101.9-8.4-122.6-55.5-20.8-47.3-2.5-102.8 42.6-128.5 46.7-26.6 99-9.2 123.4 19.9-43.2 36.3-86.3 72.6-129.7 109.1zm-13-29.5c31.1-26.1 61.3-51.5 91.8-77.2-23.3-9.7-53-3.2-71.9 15.7-16.6 16.7-22.9 37-19.9 61.5zM864 272.1h-30.9v-18.9c-1.6 1.3-2.5 2-3.3 2.7-57.3 49.6-145.6 22-164.2-51.3C648.5 137 704.1 72.7 773.4 79.7c51 5.2 90 47.7 90.5 98.9.3 30 .1 60 .1 90v3.5zM693.5 180c-.1 38.4 31 69.9 69.2 70.1 38.6.1 70.3-30.8 70.4-68.8.1-39.7-30.7-71.1-69.6-71.1-38.6-.2-69.9 31.1-70 69.8zM1295.3 180c.1-55.6 45.3-100.8 100.7-100.8 55.6 0 101 45.7 100.7 101.3-.3 55.7-45.4 100.6-101 100.5-55.4-.1-100.5-45.4-100.4-101zm100.6 70c38.6 0 70-31.2 70-69.8.1-38.5-31.3-70.1-69.7-70.2-38.5-.1-70 31.3-70.1 69.8 0 38.7 31.3 70.2 69.8 70.2zM873.8 88.3h17.7V17.5h31v70.8h46.2v30.9h-46.1V272h-30.8v-6c0-47-.1-94 .1-141 0-4.5-1.1-6.3-5.8-5.8-3.9.4-7.9.1-12.2.1-.1-10.4-.1-20.3-.1-31zM1015.5 115.1c14.7-13.2 31.5-22.3 50.9-25.7 6.8-1.2 13.8-1.3 21.2-2v28.4c0 3.5-2.6 2.9-4.6 2.9-15.4.2-29.2 5.1-41.1 14.6-17.3 13.7-26.7 31.7-27 53.9-.3 26.3-.1 52.7-.1 79v5.8h-30.5V88.7h29.9v25.8c.5.2.9.4 1.3.6z" class="st1"/></g></switch></svg>