<svg xmlns="http://www.w3.org/2000/svg" width="12.221" height="12.495" viewBox="0 0 3.234 3.306"><path fill="red" d="M1.442.087c-.265.226.027.71.145.94.215.422.497.86.879 1.185.112.096.25.198.417.194a.382.382 0 0 0 .34-.254c.09-.268-.404-.2-.56-.176-.463.071-.916.226-1.347.386-.392.146-.806.309-1.134.55-.086.063-.186.152-.182.257.005.102.176.133.264.136.393.017.673-.33.847-.588.384-.571.595-1.263.706-1.913.037-.213.084-.465.017-.677-.058-.184-.256-.14-.392-.04-.131.098.04.15.14.076.024-.018-.025-.007-.01.002.017.01.035.066.042.096.032.147.012.304-.007.45-.057.457-.19.912-.366 1.345-.139.341-.322.801-.675 1.025-.092.059-.22.084-.32.023-.018-.012-.015-.024-.01-.034a.395.395 0 0 1 .1-.092c.323-.238.76-.388 1.148-.527.402-.144.838-.294 1.275-.331.074-.007.225-.014.24.04.005.021-.01.062-.03.081-.02.018.02-.002-.006-.001-.03 0-.063-.015-.089-.026-.187-.082-.33-.247-.452-.388a4.607 4.607 0 0 1-.452-.628A3.662 3.662 0 0 1 1.646.55 1.226 1.226 0 0 1 1.58.287.35.35 0 0 1 1.578.2c.002-.02.024-.053.004-.037.123-.105-.044-.157-.14-.076z"/></svg>