<svg xmlns="http://www.w3.org/2000/svg" width="35" height="40" fill="none"><path fill="#41B883" d="m25.574 18.046-2.708-.602 2.106 3.008v9.324l7.221-6.016V13.534l-3.31 1.203-3.31 3.309ZM8.725 18.046l2.708-.602-2.106 3.008v9.324l-7.22-6.016V13.534l3.309 1.203 3.31 3.309Z"/><path fill="#41B883" fill-rule="evenodd" d="m10.23 21.053 2.406-3.609 1.505.903h6.017l1.505-.903 2.407 3.61v13.534l-1.806 2.707-2.106 2.105h-6.017l-2.106-2.105-1.805-2.707V21.053Z" clip-rule="evenodd"/><path fill="#41B883" d="m24.972 35.49 3.912-3.91v-3.91l-3.912 3.309v4.511ZM9.327 35.49l-3.911-3.91v-3.91l3.911 3.309v4.511Z"/><path fill="#455C71" fill-rule="evenodd" d="M21.06 0h-.902v5.799l1.656-4.01L21.061 0Zm-1.484 7.208-.621.311V0H17.75v11.628l1.825-4.42Zm-1.825 7.04 4.61-11.163 1.107 2.63-3.61 11.428H17.75v-2.895Zm-1.203-2.576V0h-1.204v7.52l-.5-.251 1.704 4.403ZM14.14 5.454V0h-.903l-.63 1.495 1.533 3.959ZM12.05 2.822l4.498 11.62v2.701h-1.805L10.83 5.715l1.219-2.893Z" clip-rule="evenodd"/><path fill="#41B883" fill-rule="evenodd" d="m1.805 12.331 12.938 4.813h.3l-3.91-11.43L0 4.813l1.805 7.52Zm30.99 0-12.938 4.813h-.3l3.61-11.43L34.6 4.813l-1.805 7.52Z" clip-rule="evenodd"/><path fill="#455C71" d="m24.07 4.812 6.318-.601L26.176 0h-4.212l2.106 4.812ZM10.23 4.812 3.91 4.211 8.123 0h4.213l-2.107 4.812ZM4.7 5.2l6.5.5 3.9 11.45h-.4l-4.2-1.55L4.7 5.2ZM29.8 5.2l-6.7.5-3.7 11.45.5-.01 3.9-1.44 6-10.5ZM12.1 18.2l.5-.8 1.7.8h6l1.3-.8.6.8-5.05 8.6-5.05-8.6Z"/><path fill="#41B883" fill-rule="evenodd" d="m12.03 0 5.091 13.154L22.553 0H12.03Z" clip-rule="evenodd"/></svg>