<svg xmlns="http://www.w3.org/2000/svg" width="170.668" height="170.171" preserveAspectRatio="xMidYMid"><path fill="#1c3aa9" d="M170.668 84.966a86.934 86.934 0 0 0-.088-3.653V12.251l-19.092 19.093C135.86 12.217 112.09 0 85.463 0 57.754 0 33.137 13.226 17.576 33.71L48.87 65.333A41.463 41.463 0 0 1 61.548 51.11c5.464-4.263 13.205-7.75 23.914-7.75 1.294 0 2.293.152 3.026.436 13.269 1.048 24.77 8.37 31.541 18.998L97.877 84.946c28.059-.11 59.756-.174 72.788.015"/><path fill="#4285f4" d="M84.966.003a87.114 87.114 0 0 0-3.653.087H12.251l19.093 19.093C12.217 34.809 0 58.581 0 85.207c0 27.71 13.226 52.327 33.71 67.888L65.333 121.8a41.463 41.463 0 0 1-14.224-12.678c-4.263-5.463-7.75-13.205-7.75-23.914 0-1.293.152-2.292.436-3.026 1.048-13.268 8.37-24.769 18.998-31.54l22.152 22.152c-.11-28.06-.175-59.757.015-72.789"/><path fill="#ababab" d="M.003 85.205c.004 1.224.032 2.441.087 3.653v69.062l19.093-19.093c15.626 19.127 39.398 31.344 66.024 31.344 27.71 0 52.327-13.226 67.888-33.71L121.8 104.838a41.463 41.463 0 0 1-12.678 14.224c-5.463 4.263-13.205 7.75-23.914 7.75-1.293 0-2.292-.152-3.026-.437-13.268-1.047-24.769-8.37-31.54-18.997l22.152-22.153c-28.06.11-59.757.175-72.789-.014"/></svg>