<svg xmlns="http://www.w3.org/2000/svg" width="62" height="55.088" fill="none"><path fill="#d53f8c" fill-rule="evenodd" d="M59 42.129V13.683L12 3.28V51.86Zm1.405 2.772A2 2 0 0 0 62 42.943V12.88a2 2 0 0 0-1.568-1.953l-49-10.844A2 2 0 0 0 9 2.035v51.053a2 2 0 0 0 2.406 1.958z" clip-rule="evenodd"/><path fill="#f2e142" d="M0 12.146a2 2 0 0 1 1.595-1.959l49-10.145A2 2 0 0 1 53 2.001v51.052a2 2 0 0 1-2.432 1.953l-49-10.844A2 2 0 0 1 0 42.209Z"/><path fill="#d53f8c" d="M12 2.574v49.995H9V2.574Z"/><path fill="#fff" d="M77.295 37.447h2.985V25.153c0-2.63 2.074-4.553 4.908-4.553.796 0 1.618.152 1.82.202v-3.035a28.685 28.685 0 0 0-1.568-.05c-2.327 0-4.35 1.315-5.059 3.237h-.202V18.02h-2.884z"/></svg>