<svg xmlns="http://www.w3.org/2000/svg" width="500" height="110"><path fill="#900" d="M0 0h500v110H0z"/><path fill="#510000" d="M35.336 69.617q.356 3.046 1.543 4.272 2.057 2.255 7.752 2.255 3.323.039 5.301-.989 1.938-.989 1.938-2.967 0-1.859-1.582-2.887-1.622-.95-11.748-3.402-7.318-1.82-10.324-4.549-3.045-2.65-3.006-7.753 0-5.933 4.707-10.284 4.668-4.272 13.172-4.272 8.069 0 13.171 3.204 5.024 3.283 5.815 11.155H50.802q-.237-2.176-1.226-3.442-1.899-2.294-6.329-2.294-3.679.04-5.221 1.147-1.622 1.147-1.582 2.69 0 1.978 1.661 2.808 1.661.95 11.748 3.125 6.684 1.622 10.086 4.786 3.323 3.283 3.323 8.109 0 6.408-4.747 10.442-4.826 4.114-14.754 4.075-10.205.039-14.991-4.312-4.865-4.272-4.865-10.917z"/><path fill="#FFF" d="M35.336 62.866q.356 3.046 1.543 4.272 2.057 2.255 7.752 2.255 3.323.039 5.301-.989 1.938-.989 1.938-2.967 0-1.859-1.582-2.887-1.622-.949-11.748-3.402-7.318-1.819-10.324-4.549-3.045-2.65-3.006-7.752 0-5.933 4.707-10.284 4.668-4.272 13.172-4.272 8.069 0 13.171 3.204 5.024 3.283 5.815 11.154H50.802q-.237-2.176-1.226-3.441-1.899-2.294-6.329-2.294-3.679.039-5.221 1.147-1.622 1.147-1.582 2.689 0 1.978 1.661 2.809 1.661.949 11.748 3.125 6.684 1.621 10.086 4.786 3.323 3.283 3.323 8.108 0 6.408-4.747 10.443-4.826 4.113-14.754 4.074-10.205.039-14.991-4.312-4.865-4.271-4.865-10.917z"/><path fill="#510000" d="M96.057 54.742q-.316-2.373-1.622-4.351-1.938-2.61-5.893-2.61-5.736.039-7.792 5.656-1.148 3.046-1.108 7.99-.04 4.746 1.108 7.634 2.017 5.419 7.594 5.379 3.955 0 5.617-2.136 1.661-2.136 2.017-5.537h11.51q-.435 5.181-3.718 9.73-5.34 7.436-15.703 7.397-10.403 0-15.308-6.171-4.944-6.17-4.904-16.019 0-11.076 5.419-17.286 5.379-6.17 14.951-6.17 8.109.039 13.291 3.639 5.142 3.678 6.091 12.855z"/><path fill="#FFF" d="M96.057 47.992q-.316-2.374-1.622-4.352-1.938-2.61-5.893-2.61-5.736.039-7.792 5.656-1.148 3.046-1.108 7.99-.04 4.747 1.108 7.634 2.017 5.419 7.594 5.38 3.955 0 5.617-2.136 1.661-2.136 2.017-5.538h11.51q-.435 5.182-3.718 9.731-5.34 7.436-15.703 7.396-10.403 0-15.308-6.17-4.944-6.171-4.904-16.02 0-11.075 5.419-17.285 5.379-6.171 14.951-6.171 8.109.04 13.291 3.639 5.142 3.679 6.091 12.856z"/><path fill="#510000" d="M147.17 40.564q3.244 1.384 5.34 4.232 1.741 2.453 2.176 4.945.395 2.61.395 8.346v25.315h-11.51V57.177q0-3.481-1.187-5.617-1.543-3.006-5.854-3.006-4.47 0-6.764 2.967-2.334 3.045-2.334 8.543v23.338h-11.233V25.296h11.233v20.608q2.413-3.718 5.696-5.261 3.204-1.463 6.764-1.463 3.956.039 7.278 1.384z"/><path fill="#FFF" d="M147.17 33.813q3.244 1.385 5.34 4.233 1.741 2.452 2.176 4.944.395 2.611.395 8.346v25.315h-11.51V50.426q0-3.481-1.187-5.617-1.543-3.006-5.854-3.006-4.47 0-6.764 2.967-2.334 3.046-2.334 8.544v23.337h-11.233V18.545h11.233v20.608q2.413-3.718 5.696-5.261 3.204-1.463 6.764-1.463 3.956.039 7.278 1.384z"/><path fill="#510000" d="M178.902 50.888q-2.215 2.452-2.729 6.645h17.522q-.316-4.43-2.689-6.803-2.453-2.295-6.052-2.295-3.916.04-6.052 2.453zm15.743-9.731q4.311 2.057 7.119 6.369 2.492 3.876 3.283 8.899.396 2.967.356 8.544h-29.507q.197 6.487 4.074 9.098 2.294 1.621 5.617 1.621 3.441 0 5.656-1.977 1.187-1.068 2.096-2.967h11.511q-.435 3.877-3.995 7.792-5.538 6.29-15.506 6.29-8.267 0-14.516-5.301-6.29-5.26-6.29-17.246 0-11.154 5.696-17.166 5.617-5.973 14.715-5.973 5.34 0 9.691 2.017z"/><path fill="#FFF" d="M178.902 44.137q-2.215 2.452-2.729 6.645h17.522q-.316-4.43-2.689-6.803-2.453-2.294-6.052-2.294-3.916.039-6.052 2.452zm15.743-9.73q4.311 2.056 7.119 6.368 2.492 3.876 3.283 8.9.396 2.966.356 8.544h-29.507q.197 6.486 4.074 9.097 2.294 1.622 5.617 1.622 3.441 0 5.656-1.978 1.187-1.068 2.096-2.967h11.511q-.435 3.877-3.995 7.793-5.538 6.289-15.506 6.289-8.267 0-14.516-5.3-6.29-5.261-6.29-17.246 0-11.155 5.696-17.167 5.617-5.973 14.715-5.973 5.34 0 9.691 2.018z"/><path fill="#510000" d="M266.88 40.445q2.769 1.147 5.024 3.877 1.78 2.294 2.452 5.537.396 2.215.396 6.369l-.08 27.174h-11.55V55.951q-.039-2.413-.791-4.035-1.503-3.006-5.537-3.006-4.707.04-6.448 3.876-.909 2.097-.909 4.945v25.671h-11.353V57.731q-.039-3.837-.791-5.578-1.424-3.124-5.577-3.124-4.826 0-6.487 3.124-.91 1.82-.91 5.301v25.948h-11.431V40.366h10.957v6.289q2.057-3.362 3.955-4.786 3.244-2.531 8.504-2.531 4.905 0 7.99 2.175 2.413 2.057 3.719 5.182 2.175-3.797 5.498-5.577 3.48-1.78 7.752-1.78 2.809 0 5.617 1.107z"/><path fill="#FFF" d="M266.88 33.695q2.769 1.147 5.024 3.876 1.78 2.294 2.452 5.538.396 2.215.396 6.368l-.08 27.174h-11.55V49.2q-.039-2.413-.791-4.034-1.503-3.007-5.537-3.007-4.707.04-6.448 3.877-.909 2.096-.909 4.944v25.671h-11.353V50.98q-.039-3.837-.791-5.577-1.424-3.125-5.577-3.125-4.826 0-6.487 3.125-.91 1.819-.91 5.3v25.948h-11.431V33.616h10.957v6.289q2.057-3.362 3.955-4.786 3.244-2.532 8.504-2.532 4.905 0 7.99 2.176 2.413 2.056 3.719 5.181 2.175-3.797 5.498-5.577 3.48-1.78 7.752-1.78 2.809 0 5.617 1.108z"/><path fill="#510000" d="M309.907 62.418q-1.068.673-2.136 1.068-1.147.435-3.006.791l-2.531.475q-3.56.672-5.103 1.542-2.611 1.543-2.611 4.787 0 2.927 1.622 4.153 1.543 1.305 3.877 1.305 3.599 0 6.724-2.136 3.006-2.136 3.164-7.792zm-6.843-5.261q3.086-.395 4.47-.989 2.413-.988 2.413-3.203 0-2.651-1.82-3.679-1.859-.989-5.419-.989-3.995.04-5.656 1.978-1.187 1.503-1.582 3.955h-10.878q.356-5.616 3.165-9.295 4.43-5.696 15.347-5.696 7.041.04 12.578 2.808 5.498 2.848 5.498 10.601v19.777q0 2.097.079 4.984.119 2.255.673 3.006.514.792 1.661 1.306v1.661h-12.262q-.554-1.305-.712-2.452-.198-1.108-.316-2.611-2.374 2.571-5.38 4.312-3.678 2.096-8.227 2.096-5.894.039-9.651-3.362-3.877-3.323-3.837-9.454 0-7.95 6.131-11.51 3.362-1.938 9.888-2.769z"/><path fill="#FFF" d="M309.907 55.667q-1.068.673-2.136 1.068-1.147.435-3.006.791l-2.531.475q-3.56.673-5.103 1.543-2.611 1.542-2.611 4.786 0 2.927 1.622 4.153 1.543 1.305 3.877 1.305 3.599 0 6.724-2.136 3.006-2.135 3.164-7.792zm-6.843-5.26q3.086-.396 4.47-.989 2.413-.989 2.413-3.204 0-2.65-1.82-3.679-1.859-.989-5.419-.989-3.995.04-5.656 1.978-1.187 1.503-1.582 3.956h-10.878q.356-5.617 3.165-9.296 4.43-5.696 15.347-5.696 7.041.04 12.578 2.809 5.498 2.848 5.498 10.6v19.778q0 2.096.079 4.984.119 2.254.673 3.006.514.791 1.661 1.305v1.661h-12.262q-.554-1.305-.712-2.452-.198-1.108-.316-2.611-2.374 2.571-5.38 4.312-3.678 2.096-8.227 2.096-5.894.04-9.651-3.362-3.877-3.322-3.837-9.453 0-7.951 6.131-11.511 3.362-1.938 9.888-2.769z"/><path fill="#510000" d="M331.552 71.614h11.985v11.788h-11.985z"/><path fill="#FFF" d="M331.552 64.864h11.985v11.787h-11.985z"/><path fill="#510000" d="M387.509 71.911q2.65-3.481 2.65-10.007 0-6.448-2.65-10.008-2.69-3.48-7.595-3.48-4.944 0-7.594 3.48-2.69 3.56-2.69 10.008 0 6.526 2.69 10.007 2.65 3.52 7.594 3.52 4.905 0 7.595-3.52zm9.018 6.21q-5.498 6.764-16.573 6.764-11.115 0-16.574-6.764-5.458-6.685-5.458-16.217 0-9.296 5.458-16.178 5.459-6.804 16.574-6.843 11.075.039 16.573 6.843 5.459 6.882 5.459 16.178 0 9.532-5.459 16.217z"/><path fill="#FFF" d="M387.509 65.16q2.65-3.48 2.65-10.007 0-6.447-2.65-10.007-2.69-3.481-7.595-3.481-4.944 0-7.594 3.481-2.69 3.56-2.69 10.007 0 6.527 2.69 10.007 2.65 3.521 7.594 3.521 4.905 0 7.595-3.521zm9.018 6.21q-5.498 6.764-16.573 6.764-11.115 0-16.574-6.764-5.458-6.684-5.458-16.217 0-9.295 5.458-16.178 5.459-6.803 16.574-6.843 11.075.04 16.573 6.843 5.459 6.883 5.459 16.178 0 9.533-5.459 16.217z"/><path fill="#510000" d="M430.355 39.259q.158.079.949.079v11.55q-1.068-.079-1.898-.158-.831-.04-1.345-.04-6.843 0-9.137 4.43-1.306 2.532-1.306 7.674v20.608h-11.352V40.287h10.759v7.515q2.571-4.271 4.549-5.893 3.125-2.65 8.227-2.65h.554z"/><path fill="#FFF" d="M430.355 32.508q.158.079.949.079v11.55q-1.068-.079-1.898-.158-.831-.04-1.345-.04-6.843 0-9.137 4.43-1.306 2.532-1.306 7.674v20.608h-11.352V33.536h10.759v7.516q2.571-4.272 4.549-5.894 3.125-2.65 8.227-2.65h.554z"/><path fill="#510000" d="M460.483 71.12q2.729-2.966 2.729-9.493-.039-6.091-2.571-9.335-2.65-3.204-6.961-3.204-5.934 0-8.188 5.577-1.187 3.007-1.187 7.318 0 3.797 1.266 6.685 2.294 5.458 8.227 5.458 3.956.04 6.685-3.006zm-3.837-30.892q4.074 1.74 6.645 6.25v-6.211h10.957v40.9q-.04 8.386-2.808 12.578-4.826 7.318-18.512 7.278-8.267.04-13.488-3.243-5.261-3.204-5.775-9.691h12.262q.474 1.978 1.542 2.848 1.78 1.543 6.131 1.543 6.052.039 8.149-4.075 1.345-2.61 1.345-8.781v-2.768q-1.662 2.808-3.481 4.153-3.402 2.571-8.742 2.571-8.346.039-13.251-5.854-4.984-5.815-4.984-15.783-.039-9.572 4.787-16.177 4.786-6.527 13.567-6.527 3.204 0 5.656.989z"/><path fill="#FFF" d="M460.483 64.369q2.729-2.966 2.729-9.493-.039-6.091-2.571-9.335-2.65-3.203-6.961-3.203-5.934 0-8.188 5.577-1.187 3.006-1.187 7.317 0 3.798 1.266 6.685 2.294 5.459 8.227 5.459 3.956.039 6.685-3.007zm-3.837-30.892q4.074 1.741 6.645 6.25v-6.21h10.957v40.899q-.04 8.386-2.808 12.579-4.826 7.317-18.512 7.278-8.267.039-13.488-3.244-5.261-3.204-5.775-9.691h12.262q.474 1.978 1.542 2.848 1.78 1.543 6.131 1.543 6.052.04 8.149-4.074 1.345-2.611 1.345-8.781v-2.769q-1.662 2.808-3.481 4.153-3.402 2.571-8.742 2.571-8.346.04-13.251-5.854-4.984-5.814-4.984-15.782-.039-9.572 4.787-16.178 4.786-6.527 13.567-6.527 3.204 0 5.656.989z"/></svg>