<svg xmlns="http://www.w3.org/2000/svg" viewBox="0 0 24 24"><path d="M-.058 0h24.205v24.147H-.058z" style="font-variation-settings:normal;opacity:1;vector-effect:none;fill:#000;fill-opacity:1;fill-rule:evenodd;stroke-width:1;stroke-linecap:butt;stroke-linejoin:miter;stroke-miterlimit:4;stroke-dasharray:none;stroke-dashoffset:0;stroke-opacity:1;stop-color:#000;stop-opacity:1"/><g style="display:inline"><path d="M1.714 2.857A1.71 1.71 0 0 0 0 4.571v6.858c0 .95.765 1.714 1.714 1.714a1.71 1.71 0 0 0 1.715-1.714V4.57a1.71 1.71 0 0 0-1.715-1.714Z" style="display:inline;fill:#ffc934;fill-opacity:1"/><path d="M1.714 16.571A1.71 1.71 0 0 0 0 18.286v1.143c0 .95.765 1.714 1.714 1.714a1.71 1.71 0 0 0 1.715-1.714v-1.143a1.71 1.71 0 0 0-1.715-1.715Z" style="display:inline;fill:#000;fill-opacity:1"/><path d="M1.714 16.571A1.71 1.71 0 0 0 0 18.286v1.143c0 .95.765 1.714 1.714 1.714a1.71 1.71 0 0 0 1.715-1.714v-1.143a1.71 1.71 0 0 0-1.715-1.715Z" style="display:inline;fill:#ff7d32;fill-opacity:1"/><path d="M8.571 2.857a1.71 1.71 0 0 0-1.714 1.714v1.143c0 .95.765 1.715 1.714 1.715a1.71 1.71 0 0 0 1.715-1.715V4.571A1.71 1.71 0 0 0 8.57 2.857Z" style="display:inline;fill:#2daf6e;fill-opacity:1"/><path d="M8.571 10.857a1.71 1.71 0 0 0-1.714 1.714v6.858c0 .95.765 1.714 1.714 1.714a1.71 1.71 0 0 0 1.715-1.714V12.57a1.71 1.71 0 0 0-1.715-1.714Z" style="display:inline;fill:#e11e64;fill-opacity:1"/><path d="M15.429 2.857a1.71 1.71 0 0 0-1.715 1.714V19.43c0 .95.765 1.714 1.715 1.714a1.71 1.71 0 0 0 1.714-1.714V4.57a1.71 1.71 0 0 0-1.714-1.714Z" style="display:inline;fill:#007d96;fill-opacity:1"/><path d="M22.286 2.857a1.71 1.71 0 0 0-1.715 1.714v6.858c0 .95.765 1.714 1.715 1.714A1.71 1.71 0 0 0 24 11.429V4.57a1.71 1.71 0 0 0-1.714-1.714Z" style="display:inline;fill:#e11e64;fill-opacity:1"/><path d="M22.286 16.571a1.71 1.71 0 0 0-1.715 1.715v1.143c0 .95.765 1.714 1.715 1.714A1.71 1.71 0 0 0 24 19.429v-1.143a1.71 1.71 0 0 0-1.714-1.715z" style="display:inline;fill:#553cbe;fill-opacity:1"/></g></svg>