<svg xmlns="http://www.w3.org/2000/svg" xml:space="preserve" overflow="visible" viewBox="0 0 221.025 265.366"><text y="210" fill-opacity="0" font-family="Trebuchet" font-size="48" font-weight="bold">Semantic <tspan x="45" y="250" letter-spacing="4">Web</tspan></text><g image-rendering="optimizeQuality" shape-rendering="geometricPrecision" text-rendering="geometricPrecision"><g fill="#005A9C"><path d="m107.185 223.804-14.027 41.563h-5.657l-8.415-24.188-8.626 24.188h-5.704l-13.745-41.563h10.122l6.732 22.75 7.714-22.75h6.99l7.573 22.75 7.037-22.75h10.006zM132.587 252.304h-16.766c.326 1.837 1.129 3.338 2.408 4.503s2.729 1.747 4.35 1.747c2.838 0 5.973-1.007 9.402-3.021v6.621c-1.23.813-2.721 1.553-4.471 2.217-1.75.663-3.98.996-6.688.996-2.926 0-5.416-.69-7.471-2.071s-3.592-3.255-4.611-5.622-1.529-5.05-1.529-8.048c0-2.959.51-5.607 1.529-7.945s2.555-4.172 4.609-5.504c2.055-1.331 4.545-1.997 7.471-1.997 1.93 0 3.793.526 5.592 1.579 1.797 1.053 3.275 2.775 4.436 5.166 1.158 2.392 1.738 5.477 1.738 9.255v2.124zm-7.875-5.25c0-1.918-.379-3.449-1.137-4.595-.76-1.145-1.85-1.718-3.273-1.718-1.408 0-2.545.583-3.412 1.747-.869 1.165-1.303 2.687-1.303 4.565h9.125zM163.546 249.97c0 3.494-.537 6.392-1.611 8.69-1.074 2.3-2.443 3.992-4.109 5.078-1.666 1.085-3.363 1.628-5.092 1.628-1.246 0-2.324-.183-3.234-.548-.912-.365-1.621-.76-2.127-1.185s-1.031-.934-1.576-1.526v2.696h-8.375v-41h8.375v12.681c.623-.61 1.48-1.147 2.57-1.61s2.35-.695 3.783-.695c1.914 0 3.604.439 5.068 1.316 1.463.877 2.658 2.065 3.584 3.563s1.615 3.179 2.066 5.042.678 3.82.678 5.87zm-8.875-.238c0-2.583-.459-4.55-1.375-5.901s-2.002-2.027-3.26-2.027-2.672.642-4.24 1.923v11.51c1.18 1.42 2.594 2.13 4.24 2.13 1.039 0 2.072-.537 3.098-1.612 1.026-1.075 1.537-3.083 1.537-6.023z"/></g><path fill="#86BA0C" d="M118.161 17.833C165.051 38.963 175.276 0 175.276 0s-8.906 48.871-50.02 68.834c-8.377 4.073-13.579 6.256-13.579 6.256L44.325 42.259l67.353-27.62c-.001 0-1.626-.46 6.483 3.194z"/><path fill="#EF7C00" d="m103.829 160.953-62.756-33.976V56.906l62.756 31.899z"/><path fill="#BD1789" d="m117.944 160.953 62.752-33.976V56.906l-62.752 31.899z"/><g fill="#005A9C"><path d="M23.875 200.056c0 2.57-.518 4.794-1.551 6.672s-2.476 3.316-4.325 4.314c-1.85.997-3.972 1.497-6.365 1.497-.668 0-1.488-.055-2.46-.163-.972-.109-2.262-.41-3.87-.905-1.609-.494-3.284-1.227-5.024-2.196V199.2c1.631 1.281 3.235 2.346 4.813 3.193a10.542 10.542 0 0 0 5.069 1.271c1.662 0 2.738-.35 3.229-1.05.489-.699.734-1.355.734-1.967 0-1.104-.422-2.035-1.264-2.794s-2.066-1.543-3.673-2.352c-1.769-.946-3.319-1.977-4.653-3.091s-2.423-2.51-3.268-4.187C.422 186.548 0 184.565 0 182.277c0-2.209.427-4.205 1.282-5.99.854-1.785 2.16-3.21 3.917-4.275 1.756-1.064 3.901-1.598 6.435-1.598 1.803 0 3.47.223 5.001.666 1.531.444 2.794.942 3.789 1.495.994.553 1.679.987 2.052 1.303v9.616c-1.324-1.202-2.799-2.276-4.426-3.223s-3.366-1.42-5.219-1.42c-1.215 0-2.094.296-2.639.888s-.817 1.32-.817 2.188c0 .809.272 1.509.818 2.101s1.521 1.311 2.926 2.158c2.488 1.479 4.479 2.81 5.973 3.992 1.493 1.184 2.664 2.549 3.512 4.097s1.271 3.474 1.271 5.781zM53.529 199.477H36.762c.327 1.837 1.13 3.338 2.409 4.503 1.278 1.165 2.729 1.747 4.35 1.747 2.838 0 5.972-1.007 9.402-3.021v6.621c-1.23.813-2.721 1.553-4.471 2.217-1.751.663-3.98.996-6.688.996-2.926 0-5.416-.69-7.471-2.071s-3.591-3.255-4.61-5.622-1.529-5.05-1.529-8.048c0-2.959.509-5.607 1.528-7.945s2.556-4.172 4.61-5.504c2.055-1.331 4.545-1.997 7.471-1.997 1.93 0 3.793.526 5.591 1.579 1.797 1.053 3.275 2.775 4.436 5.166 1.159 2.392 1.739 5.477 1.739 9.255v2.124zm-7.875-5.25c0-1.918-.38-3.449-1.138-4.595-.759-1.145-1.85-1.718-3.272-1.718-1.408 0-2.546.583-3.413 1.747-.868 1.165-1.302 2.687-1.302 4.565h9.125zM100.06 211.977h-8.375v-16.028c0-2.125-.278-3.715-.835-4.768s-1.438-1.579-2.644-1.579c-1.176 0-2.139.448-2.891 1.344s-1.504 2.021-2.256 3.379v17.652h-8.375v-16.028c0-2.027-.259-3.592-.775-4.693-.518-1.102-1.434-1.653-2.75-1.653-.627 0-1.202.158-1.728.473s-.952.669-1.281 1.063-.729.974-1.198 1.741-.768 1.25-.893 1.446v17.652h-8.375v-30.125h8.375v4.367c1.263-1.701 2.549-2.938 3.859-3.71 1.31-.771 2.822-1.157 4.537-1.157.811 0 1.583.095 2.315.282s1.454.509 2.164.964c.709.455 1.353 1.079 1.93 1.87.576.791 1.036 1.711 1.38 2.76 1.355-1.938 2.763-3.402 4.22-4.392s3.136-1.484 5.038-1.484c1.901 0 3.495.483 4.782 1.448 1.285.966 2.236 2.36 2.852 4.183.615 1.823.924 4.035.924 6.637v18.356zM129.744 210.494a31.987 31.987 0 0 1-3.4 1.482c-1.041.374-2.291.563-3.752.563-1.383 0-2.346-.312-2.889-.934s-.932-1.378-1.164-2.268a12.62 12.62 0 0 1-3.02 2.298c-1.109.602-2.561.903-4.354.903-1.732 0-3.133-.38-4.201-1.138-1.069-.758-1.818-1.714-2.247-2.866a10.108 10.108 0 0 1-.644-3.562c0-1.852.37-3.383 1.111-4.595a8.925 8.925 0 0 1 2.985-2.97c1.248-.769 2.903-1.566 4.965-2.395 1.17-.473 2.055-.832 2.656-1.078s1.049-.438 1.346-.576c.297-.138.609-.315.938-.532 0-1.456-.234-2.598-.703-3.424s-1.484-1.24-3.045-1.24c-1.843 0-3.553.513-5.129 1.538-1.577 1.025-3.021 2.346-4.333 3.962v-8.178a14.85 14.85 0 0 1 3.387-2.335 16.805 16.805 0 0 1 3.808-1.354 18.311 18.311 0 0 1 4.02-.446c3.441 0 6.029.844 7.766 2.529s2.605 4.008 2.605 6.966v11.624c0 1.104.08 1.928.244 2.47.164.543.465.813.9.813.529 0 1.246-.285 2.15-.857v5.6zm-11.67-5.771v-7.121c-2.018 1.024-3.49 1.945-4.42 2.763s-1.394 1.925-1.394 3.323c0 1.004.232 1.772.697 2.304.466.532 1.005.798 1.618.798.582 0 1.162-.201 1.736-.604a15.47 15.47 0 0 0 1.763-1.463zM158.441 211.977h-8.375v-16.206c0-1.652-.215-3.094-.646-4.324-.432-1.229-1.375-1.845-2.832-1.845-.689 0-1.297.163-1.82.487a5.578 5.578 0 0 0-1.41 1.254 12.702 12.702 0 0 0-1.047 1.477c-.281.473-.572.974-.869 1.505v17.652h-8.375v-30.125h8.375v4.367c1.324-1.801 2.654-3.062 3.986-3.784 1.334-.722 2.818-1.083 4.455-1.083 5.705 0 8.559 4.316 8.559 12.947v17.678zM182.312 210.251c-.873.535-2.078 1.051-3.613 1.546-1.535.494-3.004.742-4.406.742-6.02 0-9.029-3.757-9.029-11.271v-12.042h-3.811v-1.858l11.234-14.517h.951v9h8.041v7.375h-8.041v9.658c0 1.126.055 2.034.164 2.726s.416 1.269.924 1.732c.506.465 1.273.696 2.303.696 1.34 0 3.1-.709 5.283-2.129v8.342zM194.843 211.977h-8.375v-30.125h8.375v30.125zm-.672-37.08c0 1.239-.35 2.291-1.045 3.156s-1.523 1.298-2.482 1.298c-.65 0-1.242-.196-1.775-.59-.533-.393-.955-.929-1.264-1.607-.309-.678-.463-1.431-.463-2.257 0-1.219.34-2.271 1.02-3.156.682-.885 1.508-1.327 2.482-1.327.959 0 1.787.442 2.482 1.327s1.045 1.938 1.045 3.156zM221.025 210.607c-.701.337-1.441.649-2.221.937s-1.656.524-2.631.713c-.975.188-2.037.282-3.189.282-2.604 0-4.807-.558-6.609-1.672s-3.191-2.515-4.168-4.201c-.975-1.687-1.65-3.408-2.025-5.164s-.561-3.304-.561-4.646c0-1.341.189-2.89.572-4.646s1.051-3.452 2.002-5.089c.953-1.637 2.33-3.008 4.133-4.113 1.803-1.104 4.021-1.657 6.656-1.657 1.76 0 3.193.159 4.301.476 1.105.317 2.229.743 3.365 1.278v8.402c-2.742-1.104-4.885-1.656-6.428-1.656-1.496 0-2.824.569-3.986 1.707-1.16 1.139-1.74 2.904-1.74 5.299 0 1.59.287 2.929.863 4.018.576 1.09 1.309 1.89 2.197 2.399s1.777.765 2.666.765c.842 0 1.799-.157 2.875-.473s2.385-.769 3.928-1.36v8.401z"/></g></g></svg>