<svg xmlns="http://www.w3.org/2000/svg" viewBox="0 0 830.198 335"><defs><style>.cls-2{fill:#164eaf}</style></defs><g id="Icon_with_wordmark_2" data-name="Icon with wordmark 2"><g id="Icon-2" data-name="Icon"><path d="M266.832 305H108.169L28.842 167.5 108.169 30h158.663l79.326 137.5zm-150-15h141.336l70.674-122.5L258.168 45H116.832L46.159 167.5z" style="fill:#788cc7"/><circle cx="112.5" cy="37.5" r="37.5" class="cls-2"/><circle cx="262.5" cy="37.5" r="37.5" class="cls-2"/><circle cx="37.5" cy="167.5" r="37.5" class="cls-2"/><circle cx="337.5" cy="167.5" r="37.5" class="cls-2"/><circle cx="112.5" cy="297.5" r="37.5" class="cls-2"/><circle cx="262.5" cy="297.5" r="37.5" class="cls-2"/><circle cx="187.5" cy="167.5" r="75" style="fill:#ffb30f"/></g><path id="MediaWiki_wordmark" d="m474.388 241.661-.083-58.5h-8.614l-21.983 38.776-22.384-38.777H412.7v58.5h9.985v-38.267l18.542 31.564h4.655l18.518-32.075.08 38.775h9.9zm53.061-22.061a25.339 25.339 0 0 0-2.784-12.076 20.065 20.065 0 0 0-7.73-8.1 21.909 21.909 0 0 0-11.233-2.884 22.47 22.47 0 0 0-11.432 2.925 20.681 20.681 0 0 0-7.932 8.148 24.044 24.044 0 0 0-2.859 11.741 23.683 23.683 0 0 0 2.939 11.829 20.626 20.626 0 0 0 8.35 8.147 28.044 28.044 0 0 0 22.463 1.086 18.2 18.2 0 0 0 7.316-5.452l-5.392-6.419a15.384 15.384 0 0 1-11.675 4.847 14.794 14.794 0 0 1-9.3-2.884 12.205 12.205 0 0 1-4.631-7.814H527.3q.159-2 .16-3.093zm-21.74-14.709a11.737 11.737 0 0 1 8.214 3.009 12.481 12.481 0 0 1 3.945 7.856h-24.4a12.622 12.622 0 0 1 4.067-7.9 11.875 11.875 0 0 1 8.172-2.967zm61.837-25.247v22.906a15.738 15.738 0 0 0-6.039-4.523 19.792 19.792 0 0 0-7.81-1.5 22 22 0 0 0-11.153 2.842 20.135 20.135 0 0 0-7.769 8.033 26.836 26.836 0 0 0 0 23.942 20.052 20.052 0 0 0 7.769 8.064 21.982 21.982 0 0 0 11.153 2.842 20.177 20.177 0 0 0 8.092-1.586 15.622 15.622 0 0 0 6.158-4.763v5.765h9.653v-62.024zM554.9 233.3a12.564 12.564 0 0 1-6.526-1.712 12.172 12.172 0 0 1-4.589-4.887 16.819 16.819 0 0 1 0-14.706 12.181 12.181 0 0 1 4.586-4.891 13.268 13.268 0 0 1 13.042 0 12.186 12.186 0 0 1 4.6 4.891 16.839 16.839 0 0 1 0 14.709 12.174 12.174 0 0 1-4.589 4.888 12.573 12.573 0 0 1-6.523 1.712zm34.3 8.349h10.065v-44.612H589.2v44.624zm38.08-45.117a34.943 34.943 0 0 0-10.064 1.419 24.074 24.074 0 0 0-8.13 4.095l3.945 7.6a17.319 17.319 0 0 1 5.914-3.26 22.358 22.358 0 0 1 7.125-1.169 11.389 11.389 0 0 1 8 2.508 9.333 9.333 0 0 1 2.7 7.188v.668h-11.091a20.817 20.817 0 0 0-13.568 3.635 12 12 0 0 0-4.307 9.65 12.413 12.413 0 0 0 1.973 6.9 13.17 13.17 0 0 0 5.594 4.755 19.594 19.594 0 0 0 8.454 1.712 19.961 19.961 0 0 0 8.252-1.545 11.827 11.827 0 0 0 5.274-4.47v5.43h9.5V215.5a18.648 18.648 0 0 0-5.034-14.264 20.473 20.473 0 0 0-14.535-4.72zm-1.367 38.107a9.694 9.694 0 0 1-6.039-1.669 5.394 5.394 0 0 1-2.175-4.523q0-5.931 8.7-5.935h10.388v5.18a9.694 9.694 0 0 1-4.147 5.138 12.627 12.627 0 0 1-6.725 1.8zm105.567-51.486-14.414 44.718L702.8 183.16h-9.651l-14.573 44.46-14.006-44.46H653.7l18.682 58.5h11.188l14.173-43.288 13.916 43.288h11.111l18.689-58.5h-9.984zm16.35 58.5h10.07v-44.616h-10.077v44.624zm54.108 0h12.228l-19.645-25.907 17.958-18.706H800.4l-20.852 20.056v-37.454h-10.065v62.019h10.065v-11.783l7.486-7.355zm16.747 0h10.065v-44.616h-10.061v44.624zM594.278 191.1a6.47 6.47 0 0 0 4.627-1.719 5.564 5.564 0 0 0 1.813-4.216 4.9 4.9 0 0 0-1.851-3.9 6.894 6.894 0 0 0-4.589-1.559 6.69 6.69 0 0 0-4.588 1.635 5.386 5.386 0 0 0 0 8.127 6.68 6.68 0 0 0 4.588 1.635zm158.621 0a6.479 6.479 0 0 0 4.627-1.719 5.565 5.565 0 0 0 1.813-4.209 4.9 4.9 0 0 0-1.855-3.91 6.889 6.889 0 0 0-4.588-1.559 6.692 6.692 0 0 0-4.589 1.635 5.386 5.386 0 0 0 0 8.127 6.681 6.681 0 0 0 4.593 1.635zm70.855 0a6.479 6.479 0 0 0 4.631-1.708 5.57 5.57 0 0 0 1.812-4.217 4.9 4.9 0 0 0-1.854-3.913 6.894 6.894 0 0 0-4.589-1.559 6.683 6.683 0 0 0-4.589 1.635 5.38 5.38 0 0 0 0 8.127 6.671 6.671 0 0 0 4.589 1.635z" data-name="MediaWiki wordmark"/><path id="Semantic_wordmark" d="M423.334 160.97A28.2 28.2 0 0 1 412.7 155l4-9.884a30.7 30.7 0 0 0 9.388 5.431 31.3 31.3 0 0 0 11.167 2.105q6.941 0 10.367-2.448a7.574 7.574 0 0 0 3.426-6.459 6.56 6.56 0 0 0-1.913-4.845 13.188 13.188 0 0 0-4.85-2.986q-2.935-1.076-8.009-2.447a86.631 86.631 0 0 1-11.522-3.72 19.073 19.073 0 0 1-7.564-5.822q-3.16-3.966-3.16-10.72a19.63 19.63 0 0 1 2.8-10.327 19.424 19.424 0 0 1 8.453-7.388 31.51 31.51 0 0 1 13.837-2.743 40.916 40.916 0 0 1 11.212 1.567 29.636 29.636 0 0 1 9.521 4.5l-3.649 9.887a34.385 34.385 0 0 0-8.541-4.014 29.29 29.29 0 0 0-8.632-1.369q-6.853 0-10.189 2.544a8.079 8.079 0 0 0-3.337 6.754 6.388 6.388 0 0 0 1.913 4.8 13.5 13.5 0 0 0 4.851 2.936q2.935 1.078 8.008 2.447a78.775 78.775 0 0 1 11.389 3.672 19.6 19.6 0 0 1 7.609 5.824q3.158 3.915 3.158 10.571a18.748 18.748 0 0 1-11.3 17.618 31.81 31.81 0 0 1-13.882 2.742 43.591 43.591 0 0 1-13.917-2.256zm92.5-20.779h-37.491a14.553 14.553 0 0 0 5.144 9.2 15.823 15.823 0 0 0 10.335 3.4 16.629 16.629 0 0 0 12.973-5.709l5.995 7.578a20.386 20.386 0 0 1-8.142 6.4 29.585 29.585 0 0 1-24.963-1.279 23.6 23.6 0 0 1-9.26-9.6 29.207 29.207 0 0 1-3.266-13.926 29.685 29.685 0 0 1 3.176-13.828 23.567 23.567 0 0 1 21.519-13.041 22.827 22.827 0 0 1 21.071 12.942 31.323 31.323 0 0 1 3.086 14.223q0 1.278-.179 3.64zm-33.061-17.47a15.186 15.186 0 0 0-4.518 9.3h27.111a15.017 15.017 0 0 0-4.384-9.25 12.617 12.617 0 0 0-9.126-3.544 12.765 12.765 0 0 0-9.085 3.494zm117.458-7.5q5.347 5.831 5.348 17.5v30.506h-11.331v-28.918q0-6.977-2.808-10.518a9.7 9.7 0 0 0-8.067-3.538 11.317 11.317 0 0 0-9.156 4.138q-3.444 4.139-3.442 11.814v27.017h-11.329v-28.913q0-6.977-2.81-10.518a9.7 9.7 0 0 0-8.067-3.538 11.344 11.344 0 0 0-9.2 4.087q-3.4 4.089-3.4 11.865v27.017h-11.327v-53.836h10.786v7.379a17.814 17.814 0 0 1 6.8-5.485 21.274 21.274 0 0 1 9.065-1.894 20.237 20.237 0 0 1 9.652 2.243 16.287 16.287 0 0 1 6.66 6.631 20.536 20.536 0 0 1 7.706-6.531 23.088 23.088 0 0 1 10.422-2.343q9.149 0 14.496 5.832zm50.753-.271q5.592 5.559 5.592 16.781v31.494h-10.56v-7.087a13.37 13.37 0 0 1-5.859 5.267 21.088 21.088 0 0 1-9.172 1.82 20.742 20.742 0 0 1-9.395-2.017 14.9 14.9 0 0 1-6.219-5.611 15.267 15.267 0 0 1-2.191-8.119 14.5 14.5 0 0 1 4.786-11.368q4.788-4.282 15.077-4.282h12.347v-.786q0-5.512-3-8.464t-8.9-2.953a23.529 23.529 0 0 0-7.918 1.375 19.012 19.012 0 0 0-6.572 3.837l-4.383-8.956a26.213 26.213 0 0 1 9.036-4.822 36.843 36.843 0 0 1 11.184-1.673q10.554 0 16.145 5.561zm-10.2 37.2a11.32 11.32 0 0 0 4.607-6.053V140h-11.542q-9.666 0-9.665 6.988a6.5 6.5 0 0 0 2.416 5.312 10.33 10.33 0 0 0 6.708 1.968 13.436 13.436 0 0 0 7.475-2.118zm69.926-36.915q5.495 5.855 5.5 17.353v30.34h-11.271v-28.755q0-6.939-2.974-10.46t-8.472-3.519a12.394 12.394 0 0 0-9.827 4.115q-3.606 4.116-3.6 11.847v26.772H668.8v-53.542h10.726v7.436a17.781 17.781 0 0 1 7.03-5.553 23.3 23.3 0 0 1 9.556-1.883q9.099 0 14.597 5.849zm45.97 44.448a12.724 12.724 0 0 1-4.78 2.655 19.732 19.732 0 0 1-5.941.884q-7.864 0-12.154-4.52t-4.288-13.172v-26.314h-7.863v-9.83h7.863V92.745h11.17v16.641h12.777v9.83h-12.778v26.018a8.855 8.855 0 0 0 1.7 5.849 6.065 6.065 0 0 0 4.914 2.017 9.216 9.216 0 0 0 6.256-2.162zm8.839-57.11a6.034 6.034 0 0 1 0-8.183 5.309 5.309 0 0 1 3.963-1.645 5.456 5.456 0 0 1 3.964 1.568 5.292 5.292 0 0 1 1.6 3.939 6.07 6.07 0 0 1-1.563 4.243 5.158 5.158 0 0 1-4 1.722 5.312 5.312 0 0 1-3.965-1.644zm-1.6 6.813h11.123v53.836h-11.123zm32.547 50.392a24.078 24.078 0 0 1-9.216-9.6 30.851 30.851 0 0 1 0-27.805 24.28 24.28 0 0 1 9.17-9.545 25.9 25.9 0 0 1 13.378-3.445 23.9 23.9 0 0 1 12.391 3.148 19.714 19.714 0 0 1 8.009 9.056l-8.589 5.512a14.361 14.361 0 0 0-5.146-5.463 13.058 13.058 0 0 0-6.755-1.821 13.5 13.5 0 0 0-10.38 4.478q-4.114 4.482-4.114 11.959t4.07 11.958a13.454 13.454 0 0 0 10.424 4.478 13.067 13.067 0 0 0 6.755-1.82 14.328 14.328 0 0 0 5.146-5.464l8.589 5.512a20.516 20.516 0 0 1-8.1 9.1 23.4 23.4 0 0 1-12.3 3.2 25.963 25.963 0 0 1-13.332-3.438z" data-name="Semantic wordmark"/></g></svg>