<svg xmlns="http://www.w3.org/2000/svg" xml:space="preserve" width="265.175" height="81.334" overflow="visible"><text x="-143.488" y="75" fill-opacity="0" font-family="Trebuchet" font-size="83" letter-spacing="-12">W3C</text><text x="81.512" y="40" fill-opacity="0" font-family="Trebuchet" font-size="43" font-weight="bold">Semantic <tspan x="81.512" y="78" letter-spacing="4">Web</tspan></text><g image-rendering="optimizeQuality" shape-rendering="geometricPrecision" text-rendering="geometricPrecision"><path fill="#005a9c" d="M102.787 32.33c0 1.916-.427 3.573-1.278 4.974-.853 1.4-2.041 2.472-3.566 3.216-1.525.744-3.275 1.116-5.249 1.116-.552 0-1.229-.041-2.029-.122-.801-.082-1.865-.307-3.191-.676-1.326-.369-2.707-.915-4.143-1.64v-7.52a28.244 28.244 0 0 0 3.982 2.384 9.48 9.48 0 0 0 4.195.948c1.376 0 2.267-.26 2.672-.78.404-.52.607-1.007.607-1.461 0-.82-.35-1.513-1.048-2.077-.698-.563-1.713-1.146-3.044-1.747-1.462-.705-2.744-1.473-3.847-2.303a9.888 9.888 0 0 1-2.701-3.117c-.699-1.248-1.048-2.725-1.048-4.429 0-1.645.353-3.132 1.058-4.462.705-1.329 1.781-2.391 3.23-3.184 1.449-.793 3.219-1.19 5.309-1.19 1.486 0 2.861.167 4.125.499 1.263.332 2.305.705 3.125 1.118.82.414 1.384.738 1.692.975v7.185a21.5 21.5 0 0 0-3.645-2.404 9.085 9.085 0 0 0-4.298-1.06c-1 0-1.725.22-2.174.659-.449.439-.673.981-.673 1.626 0 .602.226 1.121.679 1.561.452.439 1.261.975 2.425 1.604 2.044 1.1 3.679 2.088 4.905 2.967 1.226.879 2.188 1.894 2.884 3.044.696 1.15 1.046 2.582 1.046 4.296zm24.496-.382h-13.871c.271 1.359.935 2.47 1.992 3.332 1.057.862 2.256 1.293 3.598 1.293 2.347 0 4.938-.745 7.775-2.235v4.91c-1.018.604-2.251 1.153-3.699 1.647-1.449.493-3.294.74-5.534.74-2.422 0-4.482-.515-6.182-1.544-1.7-1.029-2.972-2.426-3.815-4.191-.844-1.765-1.265-3.765-1.265-6 0-2.205.422-4.18 1.266-5.923.844-1.742 2.115-3.11 3.815-4.103 1.699-.992 3.76-1.489 6.182-1.489 1.598 0 3.14.395 4.627 1.182 1.487.788 2.711 2.077 3.671 3.866.959 1.789 1.439 4.098 1.439 6.924v1.591zm-6.563-3.938c0-1.443-.313-2.596-.936-3.457-.623-.861-1.52-1.293-2.689-1.293-1.157 0-2.093.438-2.806 1.314-.713.877-1.069 2.021-1.069 3.436zm44.817 13.25h-6.938V29.261c0-1.591-.229-2.78-.684-3.568-.455-.788-1.177-1.183-2.164-1.183-.963 0-1.752.336-2.367 1.006-.616.67-1.232 1.514-1.848 2.529V41.26h-6.938V29.261c0-1.518-.212-2.688-.636-3.514-.424-.824-1.174-1.237-2.251-1.237-.514 0-.984.118-1.414.354-.43.236-.779.501-1.049.796-.27.295-.597.729-.981 1.304a79.96 79.96 0 0 1-.731 1.082V41.26h-6.938v-22.5h6.938v3.238c1.039-1.263 2.099-2.181 3.177-2.754 1.078-.572 2.324-.859 3.736-.859.667 0 1.303.07 1.906.21a6.47 6.47 0 0 1 1.781.716c.584.338 1.113.8 1.588 1.388a7.083 7.083 0 0 1 1.137 2.049c1.117-1.439 2.275-2.526 3.476-3.261 1.201-.735 2.584-1.102 4.15-1.102 1.566 0 2.879.361 3.938 1.082 1.059.722 1.842 1.764 2.35 3.125.507 1.361.761 3.014.761 4.956V41.26Zm24.443-1.159a27.71 27.71 0 0 1-2.813 1.112c-.861.28-1.895.422-3.102.422-1.144 0-1.94-.233-2.39-.7a3.998 3.998 0 0 1-.963-1.7 10.333 10.333 0 0 1-2.481 1.723c-.91.452-2.103.678-3.577.678-1.424 0-2.574-.283-3.452-.849-.879-.566-1.494-1.279-1.847-2.14a6.94 6.94 0 0 1-.528-2.658c0-1.383.304-2.526.913-3.431.609-.905 1.427-1.643 2.452-2.217 1.025-.573 2.385-1.169 4.077-1.787.961-.353 1.688-.621 2.183-.805.493-.184.861-.326 1.105-.43.243-.104.5-.235.77-.397 0-1.084-.192-1.935-.577-2.551-.385-.615-1.219-.924-2.5-.924a8.146 8.146 0 0 0-4.213 1.147c-1.295.766-2.481 1.751-3.558 2.956v-6.093a12.296 12.296 0 0 1 2.791-1.735c1-.449 2.046-.785 3.137-1.006a16.634 16.634 0 0 1 3.312-.332c2.836 0 4.969.628 6.399 1.883 1.43 1.255 2.146 2.983 2.146 5.185v8.653c0 .822.067 1.436.202 1.839.135.404.382.605.741.605.436 0 1.026-.213 1.771-.64v4.192zm-9.653-4.317V30.51c-1.648.76-2.852 1.442-3.611 2.048-.76.606-1.139 1.428-1.139 2.465 0 .745.189 1.314.569 1.709.38.395.821.591 1.323.591.476 0 .948-.149 1.419-.45.471-.301.95-.664 1.439-1.089zm33.312 5.476h-6.938V29.128c0-1.237-.177-2.316-.529-3.237-.354-.92-1.126-1.381-2.318-1.381-.564 0-1.063.122-1.492.365a4.525 4.525 0 0 0-1.154.938c-.34.382-.626.752-.856 1.105-.231.354-.469.729-.712 1.126V41.26h-6.938v-22.5h6.938v3.238c1.091-1.336 2.186-2.272 3.283-2.809 1.097-.537 2.32-.805 3.669-.805 4.698 0 7.048 3.224 7.048 9.671V41.26Zm19.602-1.324c-.719.397-1.711.78-2.976 1.147s-2.475.552-3.63.552c-4.984 0-7.477-2.79-7.477-8.37v-8.942h-3.139v-1.401l9.288-10.849h.788v6.688h6.624v5.563h-6.624v7.172c0 .836.045 1.511.135 2.024.09.513.343.942.761 1.287.417.345 1.049.517 1.896.517 1.104 0 2.555-.529 4.353-1.589v6.201zm10.355 1.324h-6.938v-22.5h6.938zm-.558-27.645c0 .928-.289 1.715-.865 2.362-.576.647-1.262.971-2.056.971a2.59 2.59 0 0 1-1.47-.441 3.07 3.07 0 0 1-1.048-1.202 3.696 3.696 0 0 1-.384-1.689c0-.912.281-1.699.846-2.361.563-.662 1.249-.993 2.056-.993.794 0 1.479.331 2.056.993.577.662.865 1.448.865 2.36zm22.137 26.586c-.578.25-1.188.482-1.829.695-.643.214-1.364.39-2.167.53-.803.139-1.679.209-2.628.209-2.145 0-3.953-.415-5.427-1.246-1.475-.83-2.61-1.874-3.407-3.132-.797-1.258-1.349-2.541-1.654-3.85-.307-1.309-.459-2.464-.459-3.464s.156-2.154.469-3.463c.313-1.309.857-2.573 1.636-3.794.777-1.221 1.903-2.242 3.378-3.066 1.474-.823 3.295-1.235 5.465-1.235 1.45 0 2.631.118 3.543.354.911.235 1.836.552 2.773.948v6.246c-2.26-.823-4.025-1.235-5.296-1.235-1.232 0-2.327.427-3.283 1.278-.957.853-1.435 2.175-1.435 3.968 0 1.191.237 2.194.712 3.01.475.816 1.078 1.414 1.811 1.796.731.383 1.463.573 2.195.573.693 0 1.482-.117 2.368-.353a46.803 46.803 0 0 0 3.235-1.016zm-137.806 7.361L115.814 78.5h-4.66l-6.932-18-7.105 18h-4.699L81.096 47.562h8.338L94.98 64.5l6.354-16.938h5.758l6.239 16.938 5.796-16.938zm21.012 21.25h-13.87c.271 1.359.935 2.47 1.992 3.332 1.057.862 2.256 1.293 3.598 1.293 2.347 0 4.938-.745 7.775-2.235v4.91c-1.018.604-2.251 1.153-3.699 1.647-1.449.493-3.294.74-5.534.74-2.422 0-4.482-.515-6.182-1.544-1.7-1.029-2.972-2.426-3.815-4.191-.844-1.765-1.265-3.765-1.265-6 0-2.205.422-4.18 1.266-5.923.844-1.742 2.115-3.11 3.815-4.103 1.699-.992 3.76-1.489 6.182-1.489 1.598 0 3.14.395 4.627 1.182 1.487.788 2.711 2.077 3.671 3.866.959 1.789 1.439 4.098 1.439 6.924zm-6.562-3.938c0-1.443-.313-2.596-.936-3.457-.623-.861-1.52-1.293-2.689-1.293-1.157 0-2.093.438-2.806 1.314-.713.877-1.069 2.021-1.069 3.436zm32 2.13c0 2.609-.443 4.771-1.328 6.488-.885 1.717-2.014 2.98-3.387 3.791-1.373.811-2.771 1.216-4.195 1.216-1.026 0-1.915-.138-2.665-.411-.75-.273-1.334-.57-1.751-.889a13.47 13.47 0 0 1-1.299-1.145v2.069h-6.938V47.562h6.938v9.407c.513-.455 1.218-.855 2.116-1.201.898-.346 1.938-.519 3.118-.519 1.578 0 2.97.327 4.176.979a8.345 8.345 0 0 1 2.953 2.652 12.153 12.153 0 0 1 1.703 3.754c.372 1.387.559 2.845.559 4.37zm-7.25-.176c0-1.92-.381-3.382-1.143-4.386s-1.664-1.506-2.709-1.506c-1.046 0-2.221.477-3.523 1.429v8.551c.98 1.056 2.154 1.583 3.523 1.583.864 0 1.723-.399 2.574-1.198.851-.799 1.278-2.289 1.278-4.473z"/><path fill="#86ba0c" d="M38.953 9.013C62.649 19.689 67.816 0 67.816 0s-4.502 24.695-25.279 34.785c-4.231 2.057-6.859 3.159-6.859 3.159L1.642 21.355 35.677 7.398s-.821-.232 3.276 1.615z"/><path fill="#ef7c00" d="M31.71 81.334 0 64.165V28.756l31.71 16.119z"/><path fill="#bd1789" d="m38.844 81.334 31.711-17.169V28.756L38.844 44.875z"/></g></svg>