<svg xmlns="http://www.w3.org/2000/svg" width="797.198" height="345.858" preserveAspectRatio="xMidYMid" viewBox="0 -55.5 255.103 110.675"><defs><linearGradient id="a" x1="329.891" x2="329.891" y1="0" y2="35.42" gradientTransform="scale(.31984 3.12654)" gradientUnits="userSpaceOnUse"><stop offset="0%" stop-color="#F6871F"/><stop offset="23.93%" stop-color="#F57E20"/><stop offset="62.62%" stop-color="#F36621"/><stop offset="100%" stop-color="#F04923"/></linearGradient><linearGradient id="b" x1="301.295" x2="301.295" y1="0" y2="34.861" gradientTransform="scale(.3148 3.17662)" gradientUnits="userSpaceOnUse"><stop offset="0%" stop-color="#F6871F"/><stop offset="23.93%" stop-color="#F57E20"/><stop offset="62.62%" stop-color="#F36621"/><stop offset="100%" stop-color="#F04923"/></linearGradient><linearGradient id="c" x1="237.21" x2="237.21" y1="0" y2="34.437" gradientTransform="scale(.31097 3.21577)" gradientUnits="userSpaceOnUse"><stop offset="0%" stop-color="#F6871F"/><stop offset="23.93%" stop-color="#F57E20"/><stop offset="62.62%" stop-color="#F36621"/><stop offset="100%" stop-color="#F04923"/></linearGradient><linearGradient id="d" x1="272.748" x2="272.748" y1="0" y2="34.214" gradientTransform="scale(.30895 3.23678)" gradientUnits="userSpaceOnUse"><stop offset="0%" stop-color="#F6871F"/><stop offset="23.93%" stop-color="#F57E20"/><stop offset="62.62%" stop-color="#F36621"/><stop offset="100%" stop-color="#F04923"/></linearGradient><linearGradient id="e" x1="88.368" x2="88.368" y1="0" y2="40.835" gradientTransform="scale(.36874 2.7119)" gradientUnits="userSpaceOnUse"><stop offset="0%" stop-color="#F6871F"/><stop offset="23.93%" stop-color="#F57E20"/><stop offset="62.62%" stop-color="#F36621"/><stop offset="100%" stop-color="#F04923"/></linearGradient><linearGradient id="f" x1="378.476" x2="378.476" y1="0" y2="34.018" gradientTransform="scale(.30718 3.25543)" gradientUnits="userSpaceOnUse"><stop offset="0%" stop-color="#F6871F"/><stop offset="23.93%" stop-color="#F57E20"/><stop offset="62.62%" stop-color="#F36621"/><stop offset="100%" stop-color="#F04923"/></linearGradient><linearGradient id="g" x1="114.545" x2="114.545" y1="0" y2="41.336" gradientTransform="scale(.37327 2.67903)" gradientUnits="userSpaceOnUse"><stop offset="0%" stop-color="#F6871F"/><stop offset="23.93%" stop-color="#F57E20"/><stop offset="62.62%" stop-color="#F36621"/><stop offset="100%" stop-color="#F04923"/></linearGradient><linearGradient id="h" x1="159.575" x2="159.575" y1="0" y2="36.788" gradientTransform="scale(.3322 3.01027)" gradientUnits="userSpaceOnUse"><stop offset="0%" stop-color="#F6871F"/><stop offset="23.93%" stop-color="#F57E20"/><stop offset="62.62%" stop-color="#F36621"/><stop offset="100%" stop-color="#F04923"/></linearGradient><linearGradient id="i" x1="199.111" x2="199.111" y1="0" y2="35.144" gradientTransform="scale(.31735 3.1511)" gradientUnits="userSpaceOnUse"><stop offset="0%" stop-color="#F6871F"/><stop offset="23.93%" stop-color="#F57E20"/><stop offset="62.62%" stop-color="#F36621"/><stop offset="100%" stop-color="#F04923"/></linearGradient><linearGradient id="j" x1="410.696" x2="410.696" y1="0" y2="34.233" gradientTransform="scale(.30913 3.23491)" gradientUnits="userSpaceOnUse"><stop offset="0%" stop-color="#F6871F"/><stop offset="23.93%" stop-color="#F57E20"/><stop offset="62.62%" stop-color="#F36621"/><stop offset="100%" stop-color="#F04923"/></linearGradient><linearGradient id="k" x1="6.804" x2="6.804" y1="0" y2="49.77" gradientTransform="scale(.44943 2.22504)" gradientUnits="userSpaceOnUse"><stop offset="0%" stop-color="#F6871F"/><stop offset="23.93%" stop-color="#F57E20"/><stop offset="62.62%" stop-color="#F36621"/><stop offset="100%" stop-color="#F04923"/></linearGradient><linearGradient id="l" x1="31.218" x2="31.218" y1="0" y2="44.296" gradientTransform="scale(.4 2.5)" gradientUnits="userSpaceOnUse"><stop offset="0%" stop-color="#F6871F"/><stop offset="23.93%" stop-color="#F57E20"/><stop offset="62.62%" stop-color="#F36621"/><stop offset="100%" stop-color="#F04923"/></linearGradient><linearGradient id="m" x1="60.772" x2="60.772" y1="0" y2="40.991" gradientTransform="scale(.37015 2.70161)" gradientUnits="userSpaceOnUse"><stop offset="0%" stop-color="#F6871F"/><stop offset="23.93%" stop-color="#F57E20"/><stop offset="62.62%" stop-color="#F36621"/><stop offset="100%" stop-color="#F04923"/></linearGradient><linearGradient id="n" x1="185.045" x2="185.045" y1="0" y2="116.032" gradientTransform="scale(1.04924 .95307)" gradientUnits="userSpaceOnUse"><stop offset="0%" stop-color="#F7941E"/><stop offset="0%" stop-color="#F68B1F"/><stop offset="0%" stop-color="#F6871F"/><stop offset="24.02%" stop-color="#F57E20"/><stop offset="63.06%" stop-color="#F36621"/><stop offset="100%" stop-color="#F04923"/></linearGradient></defs><path fill="url(#a)" d="m109.97 81.482-1.494-54.487c0-1.694-1.394-2.989-2.988-2.989-1.693 0-2.988 1.295-2.988 2.989l-1.395 54.487 1.395 26.197c0 1.694 1.394 2.989 2.988 2.989 1.693 0 2.988-1.295 2.988-2.989z" style="fill:url(#a)" transform="translate(0 -55.5)"/><path fill="url(#b)" d="m99.212 81.482-1.693-56.58a2.784 2.784 0 0 0-2.789-2.788 2.784 2.784 0 0 0-2.79 2.789l-1.493 56.48 1.494 26.396a2.784 2.784 0 0 0 2.789 2.79 2.784 2.784 0 0 0 2.79-2.79z" style="fill:url(#b)" transform="translate(0 -55.5)"/><path fill="url(#c)" d="M76.003 25.301c-.1-1.295-1.096-2.39-2.39-2.39-1.295 0-2.292.996-2.391 2.39l-1.694 56.081 1.694 26.795c0 1.295 1.096 2.291 2.39 2.291 1.295 0 2.292-.996 2.391-2.39l1.992-26.796z" style="fill:url(#c)" transform="translate(0 -55.5)"/><path fill="url(#d)" d="M86.761 23.409c0-1.395-1.195-2.59-2.59-2.59a2.572 2.572 0 0 0-2.59 2.59l-1.593 57.973 1.593 26.596c0 1.395 1.196 2.59 2.59 2.59 1.395 0 2.49-1.096 2.59-2.59l1.793-26.596z" style="fill:url(#d)" transform="translate(0 -55.5)"/><path fill="url(#e)" d="M32.473 109.87c.797 0 1.395-.597 1.494-1.493l2.59-26.995-2.59-27.89c-.1-.798-.697-1.495-1.494-1.495s-1.394.598-1.494 1.494l-2.291 27.891 2.291 26.995c0 .896.697 1.494 1.494 1.494z" style="fill:url(#e)" transform="translate(0 -55.5)"/><path fill="url(#f)" d="m120.828 81.482-1.395-64.747c0-1.096-.597-2.092-1.494-2.69-.498-.299-1.095-.598-1.793-.598-.597 0-1.195.2-1.793.499-.896.597-1.494 1.593-1.494 2.689v.598l-1.195 64.15 1.195 25.998v.1c0 .696.299 1.394.797 1.892.598.697 1.494 1.195 2.49 1.195.897 0 1.694-.398 2.291-.896.598-.598.996-1.395.996-2.291l.1-2.59z" style="fill:url(#f)" transform="translate(0 -55.5)"/><path fill="url(#g)" d="M44.327 55.483c-.1-.996-.797-1.693-1.694-1.693-.896 0-1.693.697-1.693 1.693l-2.092 25.9 2.092 27.193c.1.996.797 1.693 1.693 1.693.897 0 1.694-.697 1.694-1.693l2.39-27.194Z" style="fill:url(#g)" transform="translate(0 -55.5)"/><path fill="url(#h)" d="M52.893 37.354c-.996 0-1.892.797-1.892 1.893l-1.992 42.135L51 108.576c.1 1.096.896 1.892 1.892 1.892.996 0 1.893-.796 1.893-1.892l2.291-27.194-2.291-42.135c0-.996-.897-1.893-1.893-1.893z" style="fill:url(#h)" transform="translate(0 -55.5)"/><path fill="url(#i)" d="m65.245 108.576 2.092-27.094-2.092-51.798c-.1-1.195-.996-2.092-2.191-2.092-1.196 0-2.092.897-2.192 2.092L58.97 81.482l1.892 27.094c0 1.195.996 2.092 2.192 2.092 1.195.1 2.092-.897 2.191-2.092z" style="fill:url(#i)" transform="translate(0 -55.5)"/><path fill="url(#j)" d="M128.697 7.87a3.44 3.44 0 0 0-1.793-.499c-.797 0-1.593.299-2.191.797-.797.598-1.295 1.594-1.295 2.69v.398l-1.395 70.325.698 12.95.697 12.65c0 1.893 1.594 3.387 3.486 3.387 1.893 0 3.387-1.594 3.487-3.486l1.494-25.6-1.494-70.624c-.1-1.295-.698-2.391-1.694-2.989z" style="fill:url(#j)" transform="translate(0 -55.5)"/><path fill="url(#k)" d="M2.889 96.324c.498 0 .896-.399.996-.996l2.191-13.946-2.191-14.145c-.1-.597-.498-.996-.996-.996a.998.998 0 0 0-.996.996L0 81.382l1.893 13.946c0 .597.498.996.996.996z" style="fill:url(#k)" transform="translate(0 -55.5)"/><path fill="url(#l)" d="M12.352 104.79c.498 0 .996-.398 1.095-.995l2.89-22.413-2.89-22.91c-.1-.598-.498-.997-1.095-.997-.498 0-.996.399-1.096.997l-2.49 22.91 2.49 22.413c.1.597.498.996 1.096.996z" style="fill:url(#l)" transform="translate(0 -55.5)"/><path fill="url(#m)" d="M22.313 108.875c.697 0 1.195-.498 1.295-1.295l2.69-26.198-2.69-27.194c-.1-.697-.598-1.295-1.295-1.295s-1.195.498-1.295 1.295l-2.39 27.194 2.39 26.198c.1.697.598 1.295 1.295 1.295z" style="fill:url(#m)" transform="translate(0 -55.5)"/><path fill="url(#n)" d="M223.626 48.012c-4.283 0-8.367.897-12.152 2.391C208.984 22.213 185.276 0 156.389 0a55.07 55.07 0 0 0-20.022 3.785c-2.39.897-2.988 1.893-2.988 3.686v99.511c0 1.893 1.494 3.387 3.387 3.586h86.96c17.332 0 31.377-13.846 31.377-31.178-.1-17.332-14.144-31.378-31.477-31.378z" style="fill:url(#n)" transform="translate(0 -55.5)"/></svg>