<svg xmlns="http://www.w3.org/2000/svg" width="800" height="300" version="1.0" viewBox="0 0 600 225"><defs><clipPath id="a"><path d="M35.25 0h529.5C584.219 0 600 15.781 600 35.25v154.5c0 19.469-15.781 35.25-35.25 35.25H35.25C15.781 225 0 209.219 0 189.75V35.25C0 15.781 15.781 0 35.25 0Zm0 0"/></clipPath><clipPath id="c"><path d="M8.91 8.91h582.18v207.18H8.91Zm0 0"/></clipPath><clipPath id="d"><path d="M44.16 8.91h511.68c19.465 0 35.25 15.785 35.25 35.25v136.68c0 19.465-15.785 35.25-35.25 35.25H44.16c-19.465 0-35.25-15.785-35.25-35.25V44.16c0-19.465 15.785-35.25 35.25-35.25Zm0 0"/></clipPath><clipPath id="e"><path d="M40.79 51.078h510.987v118.899H40.79Zm0 0"/></clipPath><clipPath id="f"><path d="M195 74h356.777v42H195Zm0 0"/></clipPath><clipPath id="g"><path d="M40.79 51.078H179v118.899H40.79Zm0 0"/></clipPath><linearGradient id="b" x1="0" x2="256" y1="0" y2="0" gradientTransform="matrix(2.34375 0 0 .8789 0 0)" gradientUnits="userSpaceOnUse"><stop offset="0" stop-color="#0DA833"/><stop offset=".008" stop-color="#0DA833"/><stop offset=".016" stop-color="#0DA734"/><stop offset=".023" stop-color="#0DA635"/><stop offset=".031" stop-color="#0DA536"/><stop offset=".039" stop-color="#0DA537"/><stop offset=".047" stop-color="#0EA437"/><stop offset=".055" stop-color="#0EA338"/><stop offset=".063" stop-color="#0EA239"/><stop offset=".07" stop-color="#0EA23A"/><stop offset=".078" stop-color="#0EA13A"/><stop offset=".086" stop-color="#0EA03B"/><stop offset=".094" stop-color="#0E9F3C"/><stop offset=".102" stop-color="#0E9F3D"/><stop offset=".109" stop-color="#0E9E3E"/><stop offset=".117" stop-color="#0E9D3E"/><stop offset=".125" stop-color="#0F9D3F"/><stop offset=".133" stop-color="#0F9C40"/><stop offset=".141" stop-color="#0F9B41"/><stop offset=".148" stop-color="#0F9A42"/><stop offset=".156" stop-color="#0F9A42"/><stop offset=".164" stop-color="#0F9943"/><stop offset=".172" stop-color="#0F9844"/><stop offset=".18" stop-color="#0F9745"/><stop offset=".188" stop-color="#0F9746"/><stop offset=".195" stop-color="#0F9646"/><stop offset=".203" stop-color="#109547"/><stop offset=".211" stop-color="#109448"/><stop offset=".219" stop-color="#109449"/><stop offset=".227" stop-color="#109349"/><stop offset=".234" stop-color="#10924A"/><stop offset=".242" stop-color="#10914B"/><stop offset=".25" stop-color="#10914C"/><stop offset=".258" stop-color="#10904D"/><stop offset=".266" stop-color="#108F4D"/><stop offset=".273" stop-color="#118E4E"/><stop offset=".281" stop-color="#118E4F"/><stop offset=".289" stop-color="#118D50"/><stop offset=".297" stop-color="#118C51"/><stop offset=".305" stop-color="#118B51"/><stop offset=".313" stop-color="#118B52"/><stop offset=".32" stop-color="#118A53"/><stop offset=".328" stop-color="#118954"/><stop offset=".336" stop-color="#185"/><stop offset=".344" stop-color="#185"/><stop offset=".352" stop-color="#128756"/><stop offset=".359" stop-color="#128657"/><stop offset=".367" stop-color="#128558"/><stop offset=".375" stop-color="#128558"/><stop offset=".383" stop-color="#128459"/><stop offset=".391" stop-color="#12835A"/><stop offset=".398" stop-color="#12835B"/><stop offset=".406" stop-color="#12825C"/><stop offset=".414" stop-color="#12815C"/><stop offset=".422" stop-color="#12805D"/><stop offset=".43" stop-color="#13805E"/><stop offset=".438" stop-color="#137F5F"/><stop offset=".445" stop-color="#137E60"/><stop offset=".453" stop-color="#137D60"/><stop offset=".461" stop-color="#137D61"/><stop offset=".469" stop-color="#137C62"/><stop offset=".477" stop-color="#137B63"/><stop offset=".484" stop-color="#137A64"/><stop offset=".492" stop-color="#137A64"/><stop offset=".5" stop-color="#137965"/><stop offset=".508" stop-color="#147866"/><stop offset=".516" stop-color="#147767"/><stop offset=".523" stop-color="#147767"/><stop offset=".531" stop-color="#147668"/><stop offset=".539" stop-color="#147569"/><stop offset=".547" stop-color="#14746A"/><stop offset=".555" stop-color="#14746B"/><stop offset=".563" stop-color="#14736B"/><stop offset=".57" stop-color="#14726C"/><stop offset=".578" stop-color="#14716D"/><stop offset=".586" stop-color="#15716E"/><stop offset=".594" stop-color="#15706F"/><stop offset=".602" stop-color="#156F6F"/><stop offset=".609" stop-color="#156E70"/><stop offset=".617" stop-color="#156E71"/><stop offset=".625" stop-color="#156D72"/><stop offset=".633" stop-color="#156C73"/><stop offset=".641" stop-color="#156B73"/><stop offset=".648" stop-color="#156B74"/><stop offset=".656" stop-color="#156A75"/><stop offset=".664" stop-color="#166976"/><stop offset=".672" stop-color="#166976"/><stop offset=".68" stop-color="#166877"/><stop offset=".688" stop-color="#166778"/><stop offset=".695" stop-color="#166679"/><stop offset=".703" stop-color="#16667A"/><stop offset=".711" stop-color="#16657A"/><stop offset=".719" stop-color="#16647B"/><stop offset=".727" stop-color="#16637C"/><stop offset=".734" stop-color="#17637D"/><stop offset=".742" stop-color="#17627E"/><stop offset=".75" stop-color="#17617E"/><stop offset=".758" stop-color="#17607F"/><stop offset=".766" stop-color="#176080"/><stop offset=".773" stop-color="#175F81"/><stop offset=".781" stop-color="#175E81"/><stop offset=".789" stop-color="#175D82"/><stop offset=".797" stop-color="#175D83"/><stop offset=".805" stop-color="#175C84"/><stop offset=".813" stop-color="#185B85"/><stop offset=".82" stop-color="#185A85"/><stop offset=".828" stop-color="#185A86"/><stop offset=".836" stop-color="#185987"/><stop offset=".844" stop-color="#185888"/><stop offset=".852" stop-color="#185789"/><stop offset=".859" stop-color="#185789"/><stop offset=".867" stop-color="#18568A"/><stop offset=".875" stop-color="#18558B"/><stop offset=".883" stop-color="#18548C"/><stop offset=".891" stop-color="#19548D"/><stop offset=".898" stop-color="#19538D"/><stop offset=".906" stop-color="#19528E"/><stop offset=".914" stop-color="#19518F"/><stop offset=".922" stop-color="#195190"/><stop offset=".93" stop-color="#195090"/><stop offset=".938" stop-color="#194F91"/><stop offset=".945" stop-color="#194F92"/><stop offset=".953" stop-color="#194E93"/><stop offset=".961" stop-color="#194D94"/><stop offset=".969" stop-color="#1A4C94"/><stop offset=".977" stop-color="#1A4C95"/><stop offset=".984" stop-color="#1A4B96"/><stop offset=".992" stop-color="#1A4A97"/><stop offset="1" stop-color="#1A4998"/></linearGradient></defs><g clip-path="url(#a)"><path fill="url(#b)" d="M-60-22.5h720v270H-60z"/></g><g clip-path="url(#c)"><g clip-path="url(#d)"><path fill="#fff" d="M8.91 8.91h582.18v207.18H8.91Zm0 0"/></g></g><g clip-path="url(#e)"><path fill="#fff" d="M40.79 51.078h510.987v118.899H40.79Zm0 0"/></g><g clip-path="url(#f)"><path fill="#12796b" fill-rule="evenodd" d="M211.184 115.758c-3.118 0-6.141-.445-9.043-1.332-2.914-.887-5.211-2.07-6.907-3.535l2.61-5.832c1.664 1.316 3.695 2.379 6.097 3.21 2.407.836 4.825 1.25 7.258 1.25 3.008 0 5.254-.48 6.73-1.449 1.493-.968 2.231-2.23 2.231-3.816 0-1.156-.418-2.113-1.25-2.863-.832-.754-1.879-1.344-3.144-1.762-1.274-.418-2.996-.902-5.2-1.453-3.078-.723-5.574-1.465-7.484-2.192a12.442 12.442 0 0 1-4.918-3.437c-1.371-1.563-2.055-3.672-2.055-6.332 0-2.23.606-4.274 1.828-6.102 1.208-1.828 3.036-3.281 5.497-4.367 2.445-1.078 5.441-1.613 8.988-1.613 2.473 0 4.89.308 7.281.926 2.39.617 4.45 1.504 6.18 2.66l-2.363 5.836a23.409 23.409 0 0 0-5.551-2.368c-1.918-.539-3.79-.804-5.602-.804-2.969 0-5.172.496-6.61 1.504-1.452.996-2.163 2.324-2.163 3.992 0 1.156.418 2.098 1.25 2.836.82.738 1.879 1.305 3.156 1.734 1.277.43 2.996.914 5.2 1.45 3.01.699 5.468 1.413 7.405 2.163a12.656 12.656 0 0 1 4.942 3.442c1.371 1.547 2.058 3.629 2.058 6.25 0 2.234-.605 4.262-1.828 6.078-1.21 1.813-3.05 3.25-5.523 4.34-2.457 1.09-5.469 1.613-9.016 1.613Zm34.586-34.692h-13.41v-6.355h34.331v6.355h-13.41v34.114h-7.511Zm53.945 24.746H279.48l-3.988 9.368h-7.742l18.207-40.47h7.402l18.262 40.47h-7.86Zm-2.485-5.902-7.632-17.687-7.578 17.687Zm58.637-25.215v40.473h-6.18l-22.32-27.406v27.406h-7.457V74.695h6.18l22.305 27.407V74.695Zm14 0h17.684c4.324 0 8.156.848 11.5 2.516 3.355 1.68 5.953 4.043 7.804 7.11 1.856 3.062 2.77 6.597 2.77 10.617 0 4.019-.926 7.539-2.77 10.605-1.851 3.062-4.449 5.43-7.804 7.11-3.344 1.679-7.176 2.515-11.5 2.515h-17.684Zm17.348 34.114c2.969 0 5.574-.563 7.832-1.707 2.242-1.141 3.992-2.754 5.2-4.852 1.222-2.098 1.827-4.543 1.827-7.313 0-2.769-.605-5.214-1.828-7.312-1.207-2.098-2.945-3.723-5.2-4.852-2.257-1.128-4.862-1.707-7.831-1.707h-9.824v27.758h9.824Zm59.21-3.012h-20.234l-3.992 9.371h-7.738l18.207-40.473h7.402l18.258 40.473h-7.86Zm-2.488-5.899-7.628-17.687-7.579 17.687Zm49.153 15.254-8.266-11.855c-.347.043-.86.055-1.554.055h-9.141v11.789h-7.508V74.668h16.649c3.507 0 6.554.578 9.164 1.734 2.605 1.157 4.593 2.809 5.976 4.973 1.387 2.164 2.082 4.719 2.082 7.688 0 2.972-.738 5.671-2.23 7.863-1.477 2.207-3.614 3.832-6.383 4.922l9.312 13.293h-8.086Zm-.176-26.074c0-2.582-.844-4.57-2.539-5.953-1.695-1.387-4.18-2.086-7.457-2.086h-8.79v16.129h8.79c3.266 0 5.75-.7 7.457-2.11 1.695-1.41 2.54-3.398 2.54-5.98Zm19.094-14.394h17.68c4.316 0 8.144.843 11.5 2.511 3.347 1.68 5.957 4.047 7.812 7.11 1.852 3.066 2.766 6.601 2.766 10.62 0 4.016-.926 7.54-2.766 10.602-1.844 3.067-4.45 5.434-7.813 7.114-3.355 1.68-7.183 2.511-11.5 2.511h-17.68Zm17.344 34.113c2.972 0 5.578-.567 7.832-1.707 2.261-1.145 3.992-2.758 5.203-4.852 1.21-2.097 1.812-4.547 1.812-7.312 0-2.77-.601-5.215-1.812-7.313-1.211-2.097-2.942-3.722-5.203-4.851-2.254-1.13-4.86-1.707-7.832-1.707h-9.82v27.754h9.82Zm0 0"/></g><path fill="#12796b" fill-rule="evenodd" d="m276 127.277-6.422 19.383h-3.816l-4.793-14.344-4.867 14.344h-3.84l-6.426-19.383h3.738l4.809 14.73 5.012-14.73h3.32l4.902 14.813 4.945-14.813Zm28.902 16.371v3.024H290.38v-19.383h14.148v3.012H293.98v5.039h9.352v2.972h-9.352v5.348h10.938Zm29.172-7.07c1.074.348 1.922.942 2.551 1.762.633.82.941 1.84.941 3.062 0 1.68-.644 2.973-1.933 3.887-1.29.914-3.172 1.371-5.645 1.371h-9.633v-19.383h9.082c2.286 0 4.043.442 5.293 1.344 1.239.899 1.856 2.125 1.856 3.695 0 .954-.23 1.801-.672 2.54a4.492 4.492 0 0 1-1.828 1.722Zm-10.133-6.48v5.336h5.094c1.262 0 2.215-.227 2.887-.672.672-.442 1.008-1.114 1.008-1.973 0-.863-.336-1.547-1.008-2.004-.672-.445-1.637-.672-2.887-.672h-5.094Zm5.805 13.738c2.781 0 4.18-.926 4.18-2.797 0-1.867-1.399-2.793-4.18-2.793h-5.805v5.59Zm40.297-16.559v19.383h-3.602v-8.308h-10.023v8.308h-3.602v-19.383h3.602v7.996h10.023v-7.996Zm25.687 19.664c-1.976 0-3.746-.43-5.335-1.293-1.582-.859-2.832-2.043-3.73-3.574-.919-1.52-1.36-3.226-1.36-5.105 0-1.883.441-3.59 1.36-5.11.897-1.52 2.147-2.714 3.73-3.574 1.59-.86 3.375-1.289 5.335-1.289 1.965 0 3.75.43 5.348 1.29 1.586.859 2.836 2.042 3.738 3.562.899 1.52 1.356 3.226 1.356 5.12 0 1.895-.457 3.614-1.356 5.122-.902 1.515-2.152 2.7-3.738 3.558-1.582.864-3.371 1.293-5.348 1.293Zm0-3.16c1.293 0 2.461-.293 3.48-.87a6.23 6.23 0 0 0 2.435-2.434c.59-1.036.886-2.207.886-3.508 0-1.305-.297-2.461-.886-3.496a6.308 6.308 0 0 0-2.434-2.434c-1.02-.578-2.188-.871-3.48-.871-1.29 0-2.458.293-3.481.871a6.324 6.324 0 0 0-2.43 2.434c-.593 1.047-.886 2.218-.886 3.496 0 1.277.293 2.457.886 3.508a6.246 6.246 0 0 0 2.43 2.433c1.035.578 2.191.871 3.48.871Zm34.735 3.16c-1.977 0-3.762-.43-5.348-1.293-1.586-.859-2.836-2.043-3.734-3.574-.903-1.52-1.36-3.226-1.36-5.105 0-1.883.446-3.59 1.36-5.11.898-1.52 2.148-2.714 3.734-3.574 1.586-.86 3.371-1.289 5.348-1.289 1.973 0 3.762.43 5.332 1.29 1.59.859 2.836 2.042 3.738 3.562.899 1.52 1.356 3.226 1.356 5.12 0 1.895-.457 3.614-1.356 5.122-.902 1.515-2.148 2.7-3.738 3.558-1.582.864-3.36 1.293-5.332 1.293Zm0-3.16c1.289 0 2.457-.293 3.476-.87a6.294 6.294 0 0 0 2.45-2.434c.59-1.036.882-2.207.882-3.508 0-1.305-.293-2.461-.882-3.496-.594-1.036-1.399-1.856-2.45-2.434-1.03-.578-2.187-.871-3.476-.871-1.29 0-2.461.293-3.48.871a6.337 6.337 0 0 0-2.446 2.434 7.141 7.141 0 0 0-.887 3.496c0 1.277.293 2.457.887 3.508a6.259 6.259 0 0 0 2.445 2.433c1.02.578 2.192.871 3.48.871Zm32.351-5.226-3.074 3.156v4.96h-3.601V127.29h3.601v9.95l9.578-9.95h4.047l-8.144 8.672 8.64 10.71h-4.207l-6.84-8.105Zm30.528 8.386a15.19 15.19 0 0 1-4.34-.632c-1.383-.43-2.484-.98-3.305-1.692l1.238-2.797c.793.633 1.758 1.14 2.915 1.532a10.79 10.79 0 0 0 3.48.593c1.438 0 2.512-.23 3.227-.699.71-.457 1.058-1.078 1.058-1.828 0-.55-.199-1.008-.59-1.371-.39-.363-.902-.645-1.504-.848-.605-.203-1.437-.43-2.488-.699-1.476-.348-2.672-.7-3.586-1.047a5.893 5.893 0 0 1-2.351-1.656c-.657-.75-.98-1.758-.98-3.035 0-1.063.296-2.043.87-2.918.582-.875 1.465-1.574 2.637-2.098 1.168-.512 2.605-.766 4.3-.766 1.18 0 2.352.149 3.493.446 1.14.293 2.121.722 2.969 1.277l-1.13 2.793a11.728 11.728 0 0 0-2.66-1.14 9.873 9.873 0 0 0-2.671-.391c-1.43 0-2.488.242-3.172.71-.7.473-1.035 1.118-1.035 1.91 0 .552.203 1.009.59 1.356.39.352.902.633 1.503.836.606.2 1.442.43 2.489.684 1.437.336 2.62.687 3.547 1.035a6.058 6.058 0 0 1 2.363 1.656c.66.739.98 1.73.98 2.996 0 1.075-.28 2.043-.859 2.903-.578.875-1.465 1.558-2.648 2.082-1.18.512-2.618.781-4.313.781Zm0 0"/><g clip-path="url(#g)"><path fill="#12796b" fill-rule="evenodd" d="m58.848 140.262 8.129 14.086h16.257l8.125-14.086-5.87-10.176c4.515-7.824 9.03-15.645 13.542-23.453l-2.254-3.914-2.257-3.91-10.387-17.996 12.644-21.91h25.285l12.645 21.91-5.871 10.171 4.512 7.825 10.386-17.996-17.172-29.735H92.246L75.09 80.797l8.574 14.867 6.313 10.953c-3.762 6.52-7.524 13.04-11.286 19.543H66.95l-8.129 14.086Zm54.187-45.364H101.29L93.16 80.813l8.13-14.086h16.257l8.129 14.085-5.871 10.172 11.289 19.543h29.8l17.157 29.735-17.156 29.73h-34.317l-8.574-14.867-1.813-3.129h9.028l5.875 10.172h25.285l12.644-21.906-12.644-21.91h-29.8l-13.544-23.47Zm-25.289 67.27c4.973-8.602 9.93-17.215 14.902-25.82h27.075l5.87-10.172h16.259l8.128 14.086-8.128 14.086h-16.258l-5.871-10.176h-22.559l-14.902 25.82H57.945l-17.156-29.73 17.156-29.719H78.72l-4.516 7.82H62.461l-12.645 21.91 12.645 21.91h25.285Zm0 0"/></g></svg>