<svg xmlns="http://www.w3.org/2000/svg" width="1000" height="1000" version="1.0" viewBox="0 0 750 750"><defs><clipPath id="a"><path d="M100 478h552.95v66H100Zm0 0"/></clipPath><clipPath id="b"><path d="M375.02 724.074c-192.778 0-349.051-156.277-349.051-349.054 0-192.778 156.273-349.051 349.05-349.051 192.778 0 349.055 156.273 349.055 349.05 0 192.778-156.277 349.055-349.054 349.055ZM375.02 0C167.902 0 0 167.902 0 375.02c0 207.12 167.902 375.023 375.02 375.023 207.12 0 375.023-167.902 375.023-375.023C750.043 167.902 582.141 0 375.02 0Zm0 0"/></clipPath><clipPath id="d"><path d="M223 148h304v263H223Zm0 0"/></clipPath><clipPath id="e"><path d="M412.785 148.566h-75.57l-18.918 32.711-18.914 32.758 18.914 32.711 13.933 24.129-4.98 8.629-9.922 17.21-9.965 17.255H281.48l-17.902 31.004 17.902 31.05h35.848l17.902-31.05-12.964-22.422 9.964-17.211 9.965-17.207 4.938-8.63 4.984-8.628-4.984-8.578-4.98-8.629-22.887-39.633 27.867-48.258h55.734l27.867 48.258-12.964 22.422 9.964 17.211 3.97-6.922 18.913-32.71-18.914-32.759Zm-19.883 113.73-9.922-17.257h-25.882l-4.98-8.582-9.966-17.254-2.953-5.168 17.899-31.05h35.804l17.899 31.05-12.918 22.422 9.965 17.211 9.922 17.207 4.98 8.629h65.652l18.918 32.758 18.871 32.71-18.87 32.758-18.919 32.711h-75.617l-18.867-32.71-4.016-6.922h19.887l12.961 22.421h55.688l27.867-48.257-27.868-48.258h-65.652l-4.98-8.582-4.938-8.63Zm39.77 51.673h35.848l17.902 31.004-17.902 31.05h-35.848l-12.918-22.421h-49.738l-13.934 24.128-18.867 32.711h-75.617l-18.918-32.71-18.871-32.758 18.87-32.711 18.919-32.758h45.765l-9.965 17.21h-25.836l-27.867 48.259 27.868 48.257h55.687l22.883-39.628 4.98-8.63 4.985-8.628h59.656l7.98-13.793Zm0 0" clip-rule="evenodd"/></clipPath><linearGradient id="c" x1="517.678" x2="93.633" y1="666.334" y2="-55.04" gradientTransform="matrix(1.2269 0 0 1.2269 0 0)" gradientUnits="userSpaceOnUse"><stop offset="0" stop-color="#18548C"/><stop offset=".008" stop-color="#18548B"/><stop offset=".016" stop-color="#18548B"/><stop offset=".023" stop-color="#18558A"/><stop offset=".031" stop-color="#18558A"/><stop offset=".039" stop-color="#185689"/><stop offset=".047" stop-color="#185788"/><stop offset=".055" stop-color="#185788"/><stop offset=".063" stop-color="#185887"/><stop offset=".07" stop-color="#185887"/><stop offset=".078" stop-color="#185986"/><stop offset=".086" stop-color="#185986"/><stop offset=".094" stop-color="#185A85"/><stop offset=".102" stop-color="#185A84"/><stop offset=".109" stop-color="#175B84"/><stop offset=".117" stop-color="#175B83"/><stop offset=".125" stop-color="#175C83"/><stop offset=".133" stop-color="#175C82"/><stop offset=".141" stop-color="#175D82"/><stop offset=".148" stop-color="#175E81"/><stop offset=".156" stop-color="#175E80"/><stop offset=".164" stop-color="#175F80"/><stop offset=".172" stop-color="#175F7F"/><stop offset=".18" stop-color="#17607F"/><stop offset=".188" stop-color="#17607E"/><stop offset=".195" stop-color="#17617E"/><stop offset=".203" stop-color="#17617D"/><stop offset=".211" stop-color="#16627C"/><stop offset=".219" stop-color="#16627C"/><stop offset=".227" stop-color="#16637B"/><stop offset=".234" stop-color="#16647B"/><stop offset=".242" stop-color="#16647A"/><stop offset=".25" stop-color="#16657A"/><stop offset=".258" stop-color="#166579"/><stop offset=".266" stop-color="#166678"/><stop offset=".273" stop-color="#166678"/><stop offset=".281" stop-color="#166777"/><stop offset=".289" stop-color="#166777"/><stop offset=".297" stop-color="#166876"/><stop offset=".305" stop-color="#166876"/><stop offset=".313" stop-color="#166975"/><stop offset=".32" stop-color="#156974"/><stop offset=".328" stop-color="#156A74"/><stop offset=".336" stop-color="#156B73"/><stop offset=".344" stop-color="#156B73"/><stop offset=".352" stop-color="#156C72"/><stop offset=".359" stop-color="#156C72"/><stop offset=".367" stop-color="#156D71"/><stop offset=".37" stop-color="#156D70"/><stop offset=".375" stop-color="#156D70"/><stop offset=".383" stop-color="#156E70"/><stop offset=".391" stop-color="#156E6F"/><stop offset=".398" stop-color="#156F6F"/><stop offset=".406" stop-color="#156F6E"/><stop offset=".414" stop-color="#15706E"/><stop offset=".422" stop-color="#15706D"/><stop offset=".43" stop-color="#14716C"/><stop offset=".438" stop-color="#14726C"/><stop offset=".445" stop-color="#14726B"/><stop offset=".453" stop-color="#14736B"/><stop offset=".461" stop-color="#14736A"/><stop offset=".469" stop-color="#14746A"/><stop offset=".477" stop-color="#147469"/><stop offset=".484" stop-color="#147568"/><stop offset=".492" stop-color="#147568"/><stop offset=".5" stop-color="#147667"/><stop offset=".508" stop-color="#147667"/><stop offset=".516" stop-color="#147766"/><stop offset=".523" stop-color="#147766"/><stop offset=".531" stop-color="#147865"/><stop offset=".539" stop-color="#137964"/><stop offset=".547" stop-color="#137964"/><stop offset=".555" stop-color="#137A63"/><stop offset=".563" stop-color="#137A63"/><stop offset=".57" stop-color="#137B62"/><stop offset=".578" stop-color="#137B62"/><stop offset=".586" stop-color="#137C61"/><stop offset=".594" stop-color="#137C60"/><stop offset=".602" stop-color="#137D60"/><stop offset=".609" stop-color="#137D5F"/><stop offset=".617" stop-color="#137E5F"/><stop offset=".625" stop-color="#137E5E"/><stop offset=".63" stop-color="#137F5E"/><stop offset=".633" stop-color="#137F5D"/><stop offset=".641" stop-color="#12805D"/><stop offset=".648" stop-color="#12805C"/><stop offset=".656" stop-color="#12815C"/><stop offset=".664" stop-color="#12815B"/><stop offset=".672" stop-color="#12825B"/><stop offset=".68" stop-color="#12825A"/><stop offset=".688" stop-color="#12835A"/><stop offset=".695" stop-color="#128359"/><stop offset=".703" stop-color="#128458"/><stop offset=".711" stop-color="#128458"/><stop offset=".719" stop-color="#128557"/><stop offset=".727" stop-color="#128557"/><stop offset=".734" stop-color="#128656"/><stop offset=".742" stop-color="#128756"/><stop offset=".75" stop-color="#118755"/><stop offset=".758" stop-color="#118854"/><stop offset=".766" stop-color="#118854"/><stop offset=".773" stop-color="#118953"/><stop offset=".781" stop-color="#118953"/><stop offset=".789" stop-color="#118A52"/><stop offset=".797" stop-color="#118A51"/><stop offset=".805" stop-color="#118B51"/><stop offset=".813" stop-color="#118B50"/><stop offset=".82" stop-color="#118C50"/><stop offset=".828" stop-color="#118C4F"/><stop offset=".836" stop-color="#118D4F"/><stop offset=".844" stop-color="#118E4E"/><stop offset=".852" stop-color="#118E4D"/><stop offset=".859" stop-color="#108F4D"/><stop offset=".867" stop-color="#108F4C"/><stop offset=".875" stop-color="#10904C"/><stop offset=".883" stop-color="#10904B"/><stop offset=".891" stop-color="#10914B"/><stop offset=".898" stop-color="#10914A"/><stop offset=".906" stop-color="#109249"/><stop offset=".914" stop-color="#109249"/><stop offset=".922" stop-color="#109348"/><stop offset=".93" stop-color="#109448"/><stop offset=".938" stop-color="#109447"/><stop offset=".945" stop-color="#109547"/><stop offset=".953" stop-color="#109546"/><stop offset=".961" stop-color="#0F9645"/><stop offset=".969" stop-color="#0F9645"/><stop offset=".977" stop-color="#0F9744"/><stop offset=".984" stop-color="#0F9744"/><stop offset=".992" stop-color="#0F9843"/><stop offset="1" stop-color="#0F9843"/></linearGradient><linearGradient id="f" x1="4064.04" x2="4064.04" y1="6902" y2="1226" gradientTransform="matrix(.04614 0 0 .04614 187.5 92.004)" gradientUnits="userSpaceOnUse"><stop offset="0" stop-color="#1A4898"/><stop offset=".008" stop-color="#1A4898"/><stop offset=".016" stop-color="#1A4997"/><stop offset=".023" stop-color="#1A4996"/><stop offset=".031" stop-color="#1A4A96"/><stop offset=".039" stop-color="#1A4B95"/><stop offset=".047" stop-color="#1A4C94"/><stop offset=".055" stop-color="#194C93"/><stop offset=".063" stop-color="#194D92"/><stop offset=".07" stop-color="#194E92"/><stop offset=".078" stop-color="#194F91"/><stop offset=".086" stop-color="#194F90"/><stop offset=".094" stop-color="#19508F"/><stop offset=".102" stop-color="#19518E"/><stop offset=".109" stop-color="#19528E"/><stop offset=".117" stop-color="#19528D"/><stop offset=".125" stop-color="#18538C"/><stop offset=".133" stop-color="#18548B"/><stop offset=".141" stop-color="#18558A"/><stop offset=".148" stop-color="#18558A"/><stop offset=".156" stop-color="#185689"/><stop offset=".164" stop-color="#185788"/><stop offset=".172" stop-color="#185887"/><stop offset=".18" stop-color="#185886"/><stop offset=".188" stop-color="#185986"/><stop offset=".195" stop-color="#185A85"/><stop offset=".203" stop-color="#175B84"/><stop offset=".211" stop-color="#175B83"/><stop offset=".219" stop-color="#175C82"/><stop offset=".227" stop-color="#175D82"/><stop offset=".234" stop-color="#175E81"/><stop offset=".242" stop-color="#175F80"/><stop offset=".25" stop-color="#175F7F"/><stop offset=".258" stop-color="#17607E"/><stop offset=".266" stop-color="#17617E"/><stop offset=".273" stop-color="#17627D"/><stop offset=".281" stop-color="#16627C"/><stop offset=".289" stop-color="#16637B"/><stop offset=".297" stop-color="#16647A"/><stop offset=".305" stop-color="#16657A"/><stop offset=".313" stop-color="#166579"/><stop offset=".32" stop-color="#166678"/><stop offset=".328" stop-color="#166777"/><stop offset=".336" stop-color="#166876"/><stop offset=".344" stop-color="#166876"/><stop offset=".352" stop-color="#166975"/><stop offset=".359" stop-color="#156A74"/><stop offset=".367" stop-color="#156B73"/><stop offset=".375" stop-color="#156B72"/><stop offset=".383" stop-color="#156C72"/><stop offset=".391" stop-color="#156D71"/><stop offset=".398" stop-color="#156E70"/><stop offset=".406" stop-color="#156E6F"/><stop offset=".414" stop-color="#156F6E"/><stop offset=".422" stop-color="#15706E"/><stop offset=".43" stop-color="#15716D"/><stop offset=".438" stop-color="#14716C"/><stop offset=".445" stop-color="#14726B"/><stop offset=".453" stop-color="#14736A"/><stop offset=".461" stop-color="#14746A"/><stop offset=".469" stop-color="#147469"/><stop offset=".477" stop-color="#147568"/><stop offset=".484" stop-color="#147667"/><stop offset=".492" stop-color="#147766"/><stop offset=".5" stop-color="#147766"/><stop offset=".508" stop-color="#137865"/><stop offset=".516" stop-color="#137964"/><stop offset=".523" stop-color="#137A63"/><stop offset=".531" stop-color="#137A62"/><stop offset=".539" stop-color="#137B62"/><stop offset=".547" stop-color="#137C61"/><stop offset=".555" stop-color="#137D60"/><stop offset=".563" stop-color="#137D5F"/><stop offset=".57" stop-color="#137E5E"/><stop offset=".578" stop-color="#137F5E"/><stop offset=".586" stop-color="#12805D"/><stop offset=".594" stop-color="#12805C"/><stop offset=".602" stop-color="#12815B"/><stop offset=".609" stop-color="#12825A"/><stop offset=".617" stop-color="#12835A"/><stop offset=".625" stop-color="#128359"/><stop offset=".633" stop-color="#128458"/><stop offset=".641" stop-color="#128557"/><stop offset=".648" stop-color="#128656"/><stop offset=".656" stop-color="#128656"/><stop offset=".664" stop-color="#118755"/><stop offset=".672" stop-color="#118854"/><stop offset=".68" stop-color="#118953"/><stop offset=".688" stop-color="#118952"/><stop offset=".695" stop-color="#118A52"/><stop offset=".703" stop-color="#118B51"/><stop offset=".711" stop-color="#118C50"/><stop offset=".719" stop-color="#118D4F"/><stop offset=".727" stop-color="#118D4E"/><stop offset=".734" stop-color="#118E4E"/><stop offset=".742" stop-color="#108F4D"/><stop offset=".75" stop-color="#10904C"/><stop offset=".758" stop-color="#10904B"/><stop offset=".766" stop-color="#10914A"/><stop offset=".773" stop-color="#10924A"/><stop offset=".781" stop-color="#109349"/><stop offset=".789" stop-color="#109348"/><stop offset=".797" stop-color="#109447"/><stop offset=".805" stop-color="#109546"/><stop offset=".813" stop-color="#109646"/><stop offset=".82" stop-color="#0F9645"/><stop offset=".828" stop-color="#0F9744"/><stop offset=".836" stop-color="#0F9843"/><stop offset=".844" stop-color="#0F9942"/><stop offset=".852" stop-color="#0F9942"/><stop offset=".859" stop-color="#0F9A41"/><stop offset=".867" stop-color="#0F9B40"/><stop offset=".875" stop-color="#0F9C3F"/><stop offset=".883" stop-color="#0F9C3E"/><stop offset=".891" stop-color="#0E9D3E"/><stop offset=".898" stop-color="#0E9E3D"/><stop offset=".906" stop-color="#0E9F3C"/><stop offset=".914" stop-color="#0E9F3B"/><stop offset=".922" stop-color="#0EA03A"/><stop offset=".93" stop-color="#0EA13A"/><stop offset=".938" stop-color="#0EA239"/><stop offset=".945" stop-color="#0EA238"/><stop offset=".953" stop-color="#0EA337"/><stop offset=".961" stop-color="#0EA436"/><stop offset=".969" stop-color="#0DA536"/><stop offset=".977" stop-color="#0DA535"/><stop offset=".984" stop-color="#0DA634"/><stop offset=".992" stop-color="#0DA733"/><stop offset="1" stop-color="#0DA832"/></linearGradient></defs><g clip-path="url(#a)" transform="translate(0 -24)"><path fill="#1a4898" fill-rule="evenodd" d="M124.738 543.11c-4.832 0-9.52-.688-14.023-2.063-4.52-1.379-8.086-3.211-10.711-5.485l4.043-9.046c2.586 2.043 5.73 3.691 9.46 4.984 3.731 1.29 7.481 1.938 11.255 1.938 4.668 0 8.144-.75 10.437-2.254 2.313-1.5 3.461-3.457 3.461-5.918 0-1.793-.648-3.274-1.937-4.442-1.293-1.164-2.918-2.082-4.88-2.73-1.976-.645-4.644-1.395-8.062-2.25-4.773-1.125-8.648-2.274-11.605-3.399-2.961-1.144-5.504-2.918-7.63-5.336-2.124-2.418-3.187-5.691-3.187-9.816 0-3.461.938-6.629 2.836-9.465 1.875-2.836 4.707-5.086 8.52-6.773 3.793-1.668 8.441-2.504 13.941-2.504 3.836 0 7.586.48 11.293 1.441 3.711.957 6.899 2.332 9.586 4.125l-3.668 9.047c-2.75-1.605-5.605-2.836-8.605-3.668-2.98-.836-5.875-1.25-8.688-1.25-4.605 0-8.023.77-10.254 2.332-2.25 1.543-3.355 3.61-3.355 6.192 0 1.792.648 3.253 1.941 4.398 1.27 1.148 2.914 2.023 4.895 2.691 1.98.664 4.648 1.414 8.062 2.25 4.668 1.082 8.485 2.188 11.485 3.356 3 1.168 5.543 2.941 7.668 5.336 2.125 2.398 3.187 5.629 3.187 9.695 0 3.457-.937 6.606-2.832 9.422-1.879 2.812-4.73 5.043-8.566 6.73-3.813 1.688-8.48 2.504-13.98 2.504zm53.637-53.801h-20.797v-9.86h53.242v9.86h-20.797v52.902h-11.648Zm83.664 38.375h-31.383l-6.187 14.527h-12.004l28.234-62.762h11.485l28.316 62.762h-12.188zm-3.855-9.153-11.836-27.43-11.754 27.43zm90.933-39.105v62.765h-9.582l-34.613-42.504v42.504h-11.563v-62.765h9.582l34.594 42.504v-42.504zm21.715 0h27.422c6.707 0 12.652 1.316 17.836 3.898 5.21 2.606 9.234 6.278 12.105 11.028 2.88 4.753 4.297 10.234 4.297 16.468 0 6.23-1.437 11.696-4.297 16.446-2.87 4.754-6.894 8.422-12.105 11.027-5.184 2.605-11.13 3.898-17.836 3.898h-27.422zm26.902 52.906c4.606 0 8.649-.875 12.149-2.648 3.48-1.77 6.187-4.274 8.062-7.524 1.899-3.254 2.832-7.047 2.832-11.34s-.933-8.09-2.832-11.34c-1.875-3.253-4.566-5.773-8.062-7.523-3.5-1.754-7.543-2.648-12.149-2.648H382.5v43.043h15.234zm91.828-4.668h-31.378l-6.192 14.527h-12l28.235-62.765h11.48l28.316 62.765h-12.187zm-3.855-9.152-11.832-27.434-11.754 27.434zm76.227 23.66-12.817-18.387c-.539.063-1.332.082-2.414.082h-14.172v18.281h-11.648v-62.761h25.82c5.438 0 10.168.894 14.211 2.687 4.043 1.793 7.125 4.356 9.27 7.715 2.148 3.356 3.23 7.316 3.23 11.922 0 4.605-1.144 8.797-3.46 12.195-2.29 3.418-5.606 5.942-9.9 7.63l14.446 20.612h-12.543zm-.274-40.442c0-4-1.308-7.085-3.937-9.234-2.625-2.144-6.48-3.23-11.567-3.23h-13.625v25.015h13.625c5.067 0 8.922-1.086 11.567-3.273 2.629-2.188 3.937-5.274 3.937-9.278zm29.613-22.324h27.422c6.688 0 12.625 1.313 17.836 3.899 5.188 2.605 9.23 6.273 12.11 11.027 2.87 4.754 4.289 10.234 4.289 16.469 0 6.23-1.438 11.691-4.29 16.445-2.859 4.754-6.898 8.422-12.109 11.027-5.21 2.606-11.148 3.899-17.836 3.899h-27.422zm26.899 52.907c4.605 0 8.648-.875 12.148-2.649 3.504-1.773 6.192-4.273 8.067-7.523 1.875-3.254 2.812-7.047 2.812-11.34 0-4.297-.937-8.09-2.812-11.34-1.875-3.254-4.563-5.773-8.067-7.527-3.5-1.75-7.543-2.645-12.148-2.645h-15.23v43.043h15.23zm0 0"/></g><path fill="#1a4898" fill-rule="evenodd" d="M225.262 536.973 215.3 567.03h-5.918l-7.438-22.242-7.543 22.242h-5.96l-9.962-30.058h5.793l7.461 22.847 7.774-22.847h5.144l7.606 22.972 7.668-22.972zm44.82 25.39v4.688h-22.523v-30.059H269.5v4.672h-16.36v7.816h14.505v4.606H253.14v8.297h16.964zm45.238-10.965c1.668.543 2.98 1.457 3.961 2.73.98 1.27 1.457 2.856 1.457 4.755 0 2.605-1 4.605-3 6.023-2 1.418-4.918 2.125-8.75 2.125h-14.941v-30.058h14.086c3.543 0 6.273.687 8.21 2.086 1.919 1.394 2.876 3.293 2.876 5.73 0 1.48-.356 2.793-1.043 3.941a7.009 7.009 0 0 1-2.832 2.668zm-15.71-10.046v8.273h7.898c1.957 0 3.437-.352 4.48-1.043 1.043-.687 1.563-1.727 1.563-3.062 0-1.332-.52-2.399-1.563-3.106-1.043-.687-2.543-1.043-4.48-1.043h-7.899zm9.003 21.3c4.313 0 6.48-1.437 6.48-4.336 0-2.894-2.167-4.332-6.48-4.332h-9.004v8.668zm62.489-25.68v30.06h-5.582v-12.884h-15.543v12.883h-5.59v-30.058h5.59v12.402h15.543v-12.402zm39.843 30.497c-3.066 0-5.812-.668-8.273-2-2.457-1.336-4.395-3.168-5.79-5.547-1.421-2.356-2.109-5-2.109-7.918s.688-5.566 2.11-7.922c1.394-2.355 3.332-4.21 5.789-5.547 2.46-1.332 5.23-2 8.273-2 3.043 0 5.813.668 8.293 2 2.457 1.336 4.399 3.168 5.797 5.524 1.39 2.355 2.102 5.004 2.102 7.945 0 2.937-.711 5.605-2.102 7.941-1.398 2.356-3.34 4.188-5.797 5.524-2.457 1.332-5.23 2-8.293 2zm0-4.899c2 0 3.813-.457 5.399-1.355 1.605-.895 2.855-2.145 3.77-3.774.917-1.601 1.374-3.418 1.374-5.437 0-2.024-.457-3.816-1.375-5.422-.914-1.605-2.164-2.875-3.77-3.773-1.585-.895-3.398-1.356-5.398-1.356-2 0-3.812.461-5.398 1.356-1.602.898-2.852 2.168-3.77 3.773-.918 1.625-1.375 3.441-1.375 5.422 0 1.98.457 3.812 1.375 5.437.918 1.63 2.168 2.88 3.77 3.774 1.605.898 3.398 1.355 5.398 1.355zm53.867 4.899c-3.066 0-5.835-.668-8.292-2-2.461-1.336-4.399-3.168-5.797-5.547-1.395-2.356-2.106-5-2.106-7.918s.692-5.566 2.106-7.922c1.398-2.355 3.336-4.21 5.797-5.547 2.457-1.332 5.226-2 8.292-2 3.06 0 5.833.668 8.27 2 2.461 1.336 4.398 3.168 5.793 5.524 1.398 2.355 2.105 5.004 2.105 7.945 0 2.937-.707 5.605-2.105 7.941-1.395 2.356-3.332 4.188-5.793 5.524-2.457 1.332-5.21 2-8.27 2zm0-4.899c2 0 3.813-.457 5.395-1.355A9.704 9.704 0 0 0 474 557.44c.918-1.601 1.375-3.418 1.375-5.437 0-2.024-.457-3.816-1.375-5.422-.918-1.605-2.168-2.875-3.793-3.773-1.605-.895-3.395-1.356-5.395-1.356-2 0-3.816.461-5.398 1.356a9.861 9.861 0 0 0-3.793 3.773c-.894 1.625-1.375 3.441-1.375 5.422 0 1.98.457 3.812 1.375 5.437a9.678 9.678 0 0 0 3.793 3.774c1.582.898 3.398 1.355 5.398 1.355zm50.172-8.11-4.77 4.9v7.69h-5.581v-30.058h5.582v15.426l14.855-15.426h6.278l-12.633 13.446 13.402 16.613h-6.523l-10.61-12.567zm47.344 13.009c-2.308 0-4.539-.332-6.73-.98-2.141-.665-3.852-1.52-5.125-2.626l1.918-4.336c1.23.98 2.73 1.774 4.523 2.375 1.793.606 3.582.918 5.398.918 2.227 0 3.895-.355 5-1.082 1.102-.71 1.645-1.668 1.645-2.836 0-.855-.312-1.562-.918-2.125-.601-.566-1.394-1.004-2.332-1.316-.937-.313-2.23-.664-3.855-1.082-2.293-.543-4.145-1.086-5.567-1.625-1.414-.543-2.62-1.399-3.644-2.567-1.02-1.167-1.524-2.73-1.524-4.71 0-1.645.461-3.168 1.356-4.524.898-1.351 2.273-2.437 4.086-3.25 1.812-.793 4.043-1.187 6.668-1.187 1.832 0 3.648.226 5.418.687 1.77.457 3.292 1.125 4.605 1.98l-1.75 4.337a17.974 17.974 0 0 0-4.129-1.774c-1.414-.394-2.812-.605-4.144-.605-2.211 0-3.856.375-4.918 1.105-1.082.73-1.606 1.73-1.606 2.961 0 .855.317 1.563.918 2.105.606.543 1.399.981 2.332 1.293.938.313 2.234.668 3.856 1.063 2.23.52 4.066 1.062 5.503 1.605a9.435 9.435 0 0 1 3.665 2.563c1.023 1.148 1.523 2.691 1.523 4.648 0 1.668-.438 3.168-1.332 4.504-.898 1.356-2.273 2.418-4.11 3.23-1.828.794-4.058 1.208-6.687 1.208zm0 0"/><g clip-path="url(#b)"><path fill="url(#c)" d="M-75-75h900v900H-75z"/></g><g clip-path="url(#d)" transform="translate(0 -33)"><g clip-path="url(#e)"><path fill="url(#f)" d="M223.809 148.566v261.875H526.19V148.566zm0 0" style="fill:url(#f)"/></g></g></svg>