<svg xmlns="http://www.w3.org/2000/svg" xml:space="preserve" width="307.2" height="307.2" style="shape-rendering:geometricPrecision;text-rendering:geometricPrecision;image-rendering:optimizeQuality;fill-rule:evenodd;clip-rule:evenodd" viewBox="0 0 8128 8128"><defs><linearGradient id="a" x1="4064.04" x2="4064.04" y1="6878.09" y2="1226.38" gradientUnits="userSpaceOnUse"><stop offset="0" style="stop-opacity:1;stop-color:#1a4898"/><stop offset="1" style="stop-opacity:1;stop-color:#0da832"/></linearGradient></defs><path d="M0 0h8128v8128H0z" style="fill:none"/><path d="M4883 1226H3245l-410 709-410 710 410 709 302 523-108 187-215 373-216 374h-561l-388 672 388 673h777l388-673-281-486 216-373 216-373 107-187 108-187-108-186-108-187-496-859 604-1046h1208l604 1046-281 486 216 373 86-150 410-709-410-710-410-709zm-431 2465-215-374h-561l-108-186-216-374-64-112 388-673h776l388 673-280 486 216 373 215 373 108 187h1423l410 710 409 709-409 710-410 709H4883l-409-709-87-150h431l281 486h1207l604-1046-604-1046H4883l-108-186-107-187-216-373zm862 1120h777l388 672-388 673h-777l-280-486H3956l-302 523-409 709H1606l-410-709-409-710 409-709 410-710h992l-216 373h-560l-604 1046 604 1046h1207l496-859 108-187 108-187h1293l173-299 107-186z" style="fill:url(#a)"/></svg>