<svg xmlns="http://www.w3.org/2000/svg" xmlns:xlink="http://www.w3.org/1999/xlink" xml:space="preserve" style="enable-background:new 0 0 457.2 104.2" viewBox="0 0 457.2 104.2"><defs><path id="a" d="M0 0h457.2v104.2H0z"/></defs><clipPath id="b"><use xlink:href="#a" style="overflow:visible"/></clipPath><path d="M59.9 38.7h27.5v48.7H0V38.7h27.5V63h32.3V38.7zm93 24.9c0 8.3-5.4 13.1-12.9 13.1-7.3 0-12.8-4.9-12.8-13.1V24.4H115v39.1c0 15.4 11 25.2 25.1 25.2 14.2 0 25.1-9.8 25.1-25.2V24.4H153v39.2zm43.7-21.1c-4.7 0-9.9 2-12.6 6.6v-5.4h-11.4v43.7h11.8V62.2c0-5.1 3-9.1 8.2-9.1 5.7 0 8.1 3.8 8.1 8.7v25.5h11.8V59.8c-.1-9.6-5.1-17.3-15.9-17.3m43.3 18.4-6.5-1.3c-2.5-.5-4-1.8-4-3.9 0-2.5 2.2-4.3 5.3-4.3 4.4 0 6.1 2.2 6.5 4.9h10.2c-.1-6-4.8-13.8-16.5-13.8-9.4 0-16.3 6.5-16.3 14.3 0 6.1 3.8 11.2 12.2 13l6 1.3c3.4.7 4.7 2.3 4.7 4.3 0 2.3-2.1 4.3-6 4.3-4.7 0-7.3-2.7-7.9-5.8h-10.5c.6 6.5 5.3 14.8 18.5 14.8 11.4 0 17.2-7.3 17.2-14.4.1-6.4-4.3-11.6-12.9-13.4m63.2 4.5c0 13.2-8.3 23-20.6 23-6 0-10.5-2.4-12.6-5.3v21.1h-11.8V43.7h11.4v5.4c2-3.4 6.8-6.4 13.4-6.4 12.8 0 20.2 9.8 20.2 22.7m-11.6.1c0-7.7-4.8-12.2-10.8-12.2s-10.9 4.5-10.9 12.2c0 7.7 4.9 12.3 10.9 12.3s10.8-4.5 10.8-12.3m68-21.8h11.4v43.7h-11.8V82c-2 3.5-6.6 6.4-12.6 6.4-12.3 0-20.6-9.8-20.6-23 0-13 7.4-22.7 20.1-22.7 6.6 0 11.3 3 13.4 6.4v-5.4zm-.2 21.8c0-7.7-4.9-12.2-10.9-12.2s-10.8 4.5-10.8 12.2c0 7.8 4.8 12.3 10.8 12.3s10.9-4.6 10.9-12.3m-50.7 21.8h11.8V24.4h-11.8v62.9zM441 42.5c-4.2 0-9 1.4-11.8 4.8V24.4h-11.8v62.9h11.8V61.7c.3-4.8 3.2-8.5 8.2-8.5 5.7 0 8.1 3.8 8.1 8.7v25.5h11.8V59.9c-.1-9.7-5.2-17.4-16.3-17.4m-42 18.4-6.5-1.3c-2.5-.5-4-1.8-4-3.9 0-2.5 2.2-4.3 5.3-4.3 4.4 0 6.1 2.2 6.5 4.9h10.2c-.1-6-4.8-13.8-16.5-13.8-9.4 0-16.3 6.5-16.3 14.3 0 6.1 3.8 11.2 12.2 13l6 1.3c3.4.7 4.7 2.3 4.7 4.3 0 2.3-2.1 4.3-6 4.3-4.7 0-7.3-2.7-7.9-5.8h-10.5c.6 6.5 5.3 14.8 18.5 14.8 11.4 0 17.2-7.3 17.2-14.4.1-6.4-4.3-11.6-12.9-13.4M59.9 0H27.5v24.4h32.3V0z" style="clip-path:url(#b)"/></svg>