<svg xmlns="http://www.w3.org/2000/svg" width="375" height="70" fill="none"><path fill="#005847" d="M102.675 14.875c1.331 0 2.431.45 3.302 1.35.87.85 1.305 1.925 1.305 3.225V38.5c0 5.4-1.536 9.625-4.607 12.675-3.021 3.05-7.347 4.575-12.979 4.575-5.631 0-9.957-1.525-12.978-4.575-3.02-3.05-4.531-7.275-4.531-12.675V19.45c0-1.3.435-2.375 1.306-3.225.87-.9 1.97-1.35 3.302-1.35 1.33 0 2.431.45 3.302 1.35.87.85 1.305 1.925 1.305 3.225V38.5c0 3.05.692 5.325 2.074 6.825 1.382 1.45 3.456 2.175 6.22 2.175 2.816 0 4.915-.725 6.297-2.175 1.383-1.5 2.074-3.775 2.074-6.825V19.45c0-1.3.435-2.375 1.305-3.225.871-.9 1.971-1.35 3.303-1.35ZM138.531 14.125c3.533 0 6.733.9 9.6 2.7 2.867 1.75 5.119 4.2 6.758 7.35 1.689 3.15 2.534 6.725 2.534 10.725s-.819 7.6-2.458 10.8c-1.638 3.15-3.891 5.625-6.758 7.425-2.815 1.75-5.938 2.625-9.369 2.625-2.457 0-4.786-.475-6.988-1.425-2.15-1-3.942-2.2-5.376-3.6v14.7c0 1.3-.435 2.375-1.305 3.225-.87.9-1.971 1.35-3.302 1.35s-2.432-.425-3.302-1.275c-.871-.85-1.306-1.95-1.306-3.3V19.45c0-1.3.435-2.375 1.306-3.225.87-.9 1.971-1.35 3.302-1.35s2.432.45 3.302 1.35c.87.85 1.305 1.925 1.305 3.225v.3c1.229-1.5 2.944-2.8 5.146-3.9 2.201-1.15 4.505-1.725 6.911-1.725ZM137.379 47.5c3.277 0 5.965-1.2 8.064-3.6 2.099-2.4 3.148-5.4 3.148-9 0-3.6-1.049-6.575-3.148-8.925-2.048-2.4-4.736-3.6-8.064-3.6-3.327 0-6.041 1.2-8.14 3.6-2.099 2.35-3.149 5.325-3.149 8.925 0 3.6 1.05 6.6 3.149 9 2.099 2.4 4.813 3.6 8.14 3.6ZM186.378 14.125c3.533 0 6.732.9 9.599 2.7 2.867 1.75 5.12 4.2 6.758 7.35 1.69 3.15 2.535 6.725 2.535 10.725s-.82 7.6-2.458 10.8c-1.638 3.15-3.891 5.625-6.758 7.425-2.816 1.75-5.939 2.625-9.369 2.625-2.457 0-4.787-.475-6.988-1.425-2.15-1-3.942-2.2-5.376-3.6v14.7c0 1.3-.435 2.375-1.305 3.225-.871.9-1.971 1.35-3.302 1.35-1.332 0-2.432-.425-3.303-1.275-.87-.85-1.305-1.95-1.305-3.3V19.45c0-1.3.435-2.375 1.305-3.225.871-.9 1.971-1.35 3.303-1.35 1.331 0 2.431.45 3.302 1.35.87.85 1.305 1.925 1.305 3.225v.3c1.229-1.5 2.944-2.8 5.146-3.9 2.201-1.15 4.505-1.725 6.911-1.725ZM185.226 47.5c3.277 0 5.965-1.2 8.064-3.6 2.099-2.4 3.148-5.4 3.148-9 0-3.6-1.049-6.575-3.148-8.925-2.048-2.4-4.736-3.6-8.064-3.6-3.328 0-6.041 1.2-8.14 3.6-2.099 2.35-3.149 5.325-3.149 8.925 0 3.6 1.05 6.6 3.149 9 2.099 2.4 4.812 3.6 8.14 3.6ZM232.766 46.525c.717 0 1.357.35 1.92 1.05.614.65.921 1.525.921 2.625 0 1.35-.768 2.5-2.304 3.45-1.484.9-3.174 1.35-5.068 1.35-3.174 0-5.862-.65-8.064-1.95-2.15-1.35-3.225-4.175-3.225-8.475v-20.7h-3.532c-1.229 0-2.253-.4-3.072-1.2-.819-.8-1.229-1.8-1.229-3 0-1.15.41-2.1 1.229-2.85.819-.8 1.843-1.2 3.072-1.2h3.532v-4.8c0-1.3.435-2.375 1.306-3.225.921-.9 2.047-1.35 3.379-1.35 1.279 0 2.355.45 3.225 1.35.87.85 1.305 1.925 1.305 3.225v4.8h5.453c1.229 0 2.253.4 3.072 1.2.819.8 1.228 1.8 1.228 3 0 1.15-.409 2.125-1.228 2.925-.819.75-1.843 1.125-3.072 1.125h-5.453V44.2c0 1.05.282 1.825.845 2.325.563.45 1.331.675 2.304.675.41 0 .973-.1 1.69-.3.614-.25 1.203-.375 1.766-.375ZM253.053 50.425c0 1.3-.435 2.4-1.305 3.3-.87.85-1.971 1.275-3.302 1.275s-2.432-.425-3.302-1.275c-.871-.9-1.306-2-1.306-3.3V19.45c0-1.3.435-2.375 1.306-3.225.87-.9 1.971-1.35 3.302-1.35s2.432.45 3.302 1.35c.87.85 1.305 1.925 1.305 3.225v30.975ZM309.907 14.125c5.068 0 8.575 1.525 10.521 4.575 1.945 3 2.918 7.175 2.918 12.525v19.2c0 1.3-.435 2.4-1.305 3.3-.871.85-1.972 1.275-3.303 1.275s-2.431-.425-3.302-1.275c-.87-.9-1.305-2-1.305-3.3v-19.2c0-2.75-.563-4.9-1.69-6.45-1.075-1.6-2.995-2.4-5.759-2.4-2.867 0-5.12.85-6.758 2.55-1.587 1.65-2.381 3.75-2.381 6.3v19.2c0 1.3-.435 2.4-1.306 3.3-.87.85-1.971 1.275-3.302 1.275s-2.432-.425-3.302-1.275c-.87-.9-1.305-2-1.305-3.3v-19.2c0-2.75-.564-4.9-1.69-6.45-1.075-1.6-2.995-2.4-5.76-2.4-2.867 0-5.119.85-6.757 2.55-1.588 1.65-2.381 3.75-2.381 6.3v19.2c0 1.3-.435 2.4-1.306 3.3-.87.85-1.971 1.275-3.302 1.275s-2.432-.425-3.302-1.275c-.87-.9-1.306-2-1.306-3.3V19.45c0-1.3.436-2.375 1.306-3.225.87-.9 1.971-1.35 3.302-1.35s2.432.45 3.302 1.35c.871.85 1.306 1.925 1.306 3.225v1.2c1.382-1.8 3.123-3.325 5.222-4.575 2.15-1.3 4.531-1.95 7.142-1.95 6.451 0 10.572 2.75 12.364 8.25 1.177-2.1 2.944-4 5.299-5.7 2.406-1.7 5.119-2.55 8.14-2.55ZM369.236 29.082c.268 1.172.057 2.237-.634 3.194-.692.958-1.631 1.592-2.818 1.902l-24.479 6.406c1.376 2.694 3.352 4.584 5.929 5.67 2.563 1.037 5.18 1.206 7.851.508 2.027-.531 3.563-1.114 4.608-1.75 1.031-.684 1.816-1.303 2.352-1.858.574-.616.964-1.029 1.171-1.238.771-.668 1.552-1.105 2.344-1.312 1.038-.272 2.028-.142 2.968.388.941.53 1.543 1.278 1.808 2.244.358 1.304-.009 2.669-1.103 4.094-1.08 1.473-2.676 2.9-4.788 4.28a22.756 22.756 0 0 1-6.729 3.004c-4.154 1.087-8.02 1.193-11.6.318-3.529-.888-6.539-2.585-9.029-5.091-2.503-2.555-4.264-5.691-5.285-9.41-1.139-4.154-1.249-8.033-.331-11.638.919-3.605 2.613-6.61 5.08-9.016 2.454-2.454 5.337-4.115 8.65-4.982 3.264-.854 6.569-.787 9.914.201 3.395.976 6.362 2.71 8.901 5.203a19.456 19.456 0 0 1 5.22 8.883Zm-21.848-6.318c-5.737 1.502-8.402 5.02-7.996 10.556l19.435-5.086-.14-.507c-.754-1.976-2.245-3.45-4.472-4.42-2.227-.97-4.503-1.15-6.827-.543Z"/><ellipse cx="248.304" cy="5" fill="#005847" rx="5.12" ry="5"/><path fill="#1ABC9C" d="M53.757 44.339 33.95 22.26l-7.073-7.885-7.073 7.885L0 44.34l7.073 7.885 19.805-22.079 19.805 22.079 7.074-7.885Z"/><ellipse cx="26.566" cy="53.75" fill="#1ABC9C" rx="7.813" ry="7.631"/></svg>