<svg xmlns="http://www.w3.org/2000/svg" fill="none" viewBox="0 0 160 192"><g clip-path="url(#a)"><path fill="url(#b)" d="M.127 43.899c-.99-6.773 3.919-13.036 10.965-13.988l102.06-13.789c7.045-.952 13.56 3.767 14.55 10.54l20.171 137.973c.99 6.774-3.919 13.036-10.965 13.988l-97.807 13.214c-9.395 1.27-18.08-5.023-19.4-14.053L.126 43.899Z"/><path fill="url(#c)" d="M10.138 30.573c-1.073-7.694 4.245-14.808 11.877-15.89L124.678.14c7.632-1.082 14.689 4.28 15.762 11.973l19.422 139.315c1.073 7.694-4.245 14.808-11.877 15.89L45.322 181.861c-7.632 1.082-14.69-4.279-15.762-11.973L10.138 30.573Z"/><path fill="#fff" d="M19.098 33.742c-.763-5.467 3.02-10.521 8.45-11.29L121.947 9.1c5.43-.769 10.451 3.04 11.215 8.506l18.241 130.653c.763 5.467-3.02 10.521-8.451 11.289l-94.397 13.354c-5.43.769-10.451-3.04-11.215-8.506L19.098 33.742Z"/><path stroke="url(#d)" stroke-width="4" d="m118.649 103.244-61.826 8.132c-2.44.321-4.139 2.431-3.796 4.714l4.034 26.865c.343 2.282 2.598 3.872 5.037 3.552l61.826-8.132c2.439-.321 4.139-2.432 3.796-4.714l-4.034-26.865c-.343-2.283-2.598-3.873-5.037-3.552Z"/><path fill="url(#e)" d="m64.648 140.356-3.356-23.213 7.282-.995 8.516 7.539 6.048-9.53 7.282-.994 3.356 23.212-7.282.995-1.925-13.313-6.048 9.53-8.516-7.54 1.925 13.313-7.282.996Zm45.512-6.22-12.551-9.771 7.282-.996-1.728-11.948 7.283-.994 1.727 11.947 7.282-.995-9.295 12.757Z"/><path fill="url(#f)" d="M106.461 37.673 85.09 89.181c-.442 1.064-1.943 1.273-2.68.374l-35.847-43.77c-.803-.98-.022-2.404 1.295-2.362l29.054.933c.186.006.37-.02.547-.075l27.07-8.521c1.249-.393 2.411.758 1.932 1.913Z"/><path fill="url(#g)" d="m88.812 31.5-20.4 6.703a.738.738 0 0 0-.523.752l1.702 20.672c.04.487.566.798 1.05.621l5.652-2.057c.53-.193 1.089.193 1.052.725l-.568 8.227c-.038.553.565.94 1.1.705l3.455-1.518c.535-.236 1.14.153 1.1.707l-.924 12.926c-.058.809 1.114 1.087 1.479.35l.244-.49L95.63 45.425c.208-.576-.375-1.122-.985-.923l-5.849 1.904c-.55.18-1.101-.25-1.018-.792l2.055-13.324c.083-.542-.472-.972-1.021-.791Z"/></g><defs><linearGradient id="b" x1=".448" x2="148.448" y1="16.413" y2="191.541" gradientUnits="userSpaceOnUse"><stop stop-color="#508AB7"/><stop offset="1" stop-color="#2D1342"/></linearGradient><linearGradient id="c" x1="11.186" x2="158.875" y1="19.154" y2="162.67" gradientUnits="userSpaceOnUse"><stop stop-color="#49C7FF"/><stop offset="1" stop-color="#BD36FF"/></linearGradient><linearGradient id="d" x1="56.68" x2="122.209" y1="114.377" y2="145.088" gradientUnits="userSpaceOnUse"><stop stop-color="#49C8FF"/><stop offset="1" stop-color="#BE35FF"/></linearGradient><linearGradient id="e" x1="61.766" x2="121.328" y1="117.538" y2="133.876" gradientUnits="userSpaceOnUse"><stop stop-color="#4BC7FF"/><stop offset="1" stop-color="#B93DFF"/></linearGradient><linearGradient id="f" x1="45.296" x2="84.585" y1="42.033" y2="84.667" gradientUnits="userSpaceOnUse"><stop stop-color="#41D1FF"/><stop offset="1" stop-color="#BD34FE"/></linearGradient><linearGradient id="g" x1="73.829" x2="85.124" y1="34.598" y2="75.213" gradientUnits="userSpaceOnUse"><stop stop-color="#FFEA83"/><stop offset=".083" stop-color="#FFDD35"/><stop offset="1" stop-color="#FFA800"/></linearGradient><clipPath id="a"><path fill="#fff" d="M0 0h160v192H0z"/></clipPath></defs></svg>