<svg width="174" height="159" viewBox="0 0 174 159" fill="none" xmlns="http://www.w3.org/2000/svg">
<path d="M47.9305 0C42.5871 6.36417 38.0452 12.8327 34.3048 19.4055C30.5644 25.874 27.5186 32.4469 25.1675 39.124C22.8164 45.8012 21.1065 52.5305 20.0378 59.312C18.9692 66.0935 18.3814 72.875 18.2745 79.6565C18.4883 93.4282 20.8394 106.939 25.3278 120.189C29.8163 133.335 37.2971 146.272 47.7702 159H27.2515C22.6561 153.366 18.6486 147.315 15.2288 140.846C11.809 134.482 8.97695 127.909 6.73271 121.128C4.48847 114.242 2.77852 107.304 1.60297 100.314C0.534282 93.3238 0 86.438 0 79.6565C0 72.875 0.534282 65.9892 1.60297 58.999C2.77852 51.9045 4.48847 44.9144 6.73271 38.0285C9.08382 31.1427 11.9693 24.5177 15.3891 18.1535C18.8089 11.685 22.8164 5.63386 27.4117 0H47.9305Z" fill="black"/>
<path d="M126.069 159C136.649 146.272 144.184 133.283 148.672 120.033C153.161 106.678 155.512 93.1673 155.725 79.5C155.512 65.7284 153.161 52.2175 148.672 38.9675C144.184 25.7175 136.703 12.7283 126.23 0H146.588C151.184 5.63386 155.191 11.685 158.611 18.1535C162.031 24.5177 164.863 31.1427 167.107 38.0285C169.458 44.8101 171.168 51.748 172.237 58.8425C173.412 65.8327 174 72.7185 174 79.5C174 86.2815 173.412 93.2195 172.237 100.314C171.061 107.304 169.298 114.242 166.947 121.128C164.702 127.909 161.87 134.482 158.451 140.846C155.031 147.315 151.023 153.366 146.428 159H126.069Z" fill="black"/>
<path d="M130.266 79.3279C130.266 87.8129 129.375 95.5646 127.594 102.583C125.918 109.497 123.246 115.415 119.579 120.339C116.017 125.262 111.511 129.086 106.063 131.809C100.615 134.533 94.1712 135.895 86.7322 135.895C79.2932 135.895 72.8496 134.585 67.4014 131.966C61.9531 129.243 57.4478 125.472 53.8855 120.653C50.3232 115.834 47.6514 110.021 45.8703 103.212C44.0891 96.4027 43.1985 88.8081 43.1985 80.4278C43.1985 71.8381 44.0367 63.9816 45.7131 56.8584C47.3895 49.7352 50.0088 43.6072 53.5712 38.4743C57.1335 33.3414 61.6388 29.4131 67.087 26.6896C72.6401 23.8612 79.1884 22.4471 86.7322 22.4471C94.0664 22.4471 100.458 23.8088 105.906 26.5324C111.354 29.256 115.859 33.1319 119.422 38.16C123.089 43.1881 125.813 49.2114 127.594 56.2299C129.375 63.1436 130.266 70.8429 130.266 79.3279ZM61.2721 79.3279C61.2721 85.0894 61.6911 90.4317 62.5293 95.3551C63.3675 100.279 64.782 104.573 66.7727 108.24C67.0516 108.739 67.3429 109.223 67.6465 109.694C69.5098 112.579 71.8378 114.923 74.6307 116.725C76.0128 117.572 77.5371 118.238 79.2038 118.725C81.4539 119.382 83.9634 119.71 86.7322 119.71C91.447 119.71 95.4285 118.715 98.6765 116.725C101.925 114.63 104.544 111.801 106.535 108.24C108.525 104.573 109.94 100.279 110.778 95.3551C111.616 90.4317 112.035 85.0894 112.035 79.3279C112.035 73.6713 111.616 68.3812 110.778 63.4578C109.94 58.4297 108.525 54.1348 106.535 50.5732C106.226 50.0044 105.902 49.4546 105.563 48.9236C103.716 46.032 101.421 43.7011 98.6765 41.9311C97.2691 41.0233 95.7239 40.3122 94.0411 39.7977C91.8403 39.1249 89.404 38.7885 86.7322 38.7885C81.9126 38.7885 77.8787 39.8361 74.6307 41.9311C71.3827 44.0262 68.7634 46.9069 66.7727 50.5732C64.782 54.1348 63.3675 58.4297 62.5293 63.4578C61.6911 68.3812 61.2721 73.6713 61.2721 79.3279Z" fill="black"/>
<path d="M94.8379 36.1905H109.129L78.9972 122.809H64.706L94.8379 36.1905Z" fill="black"/>
</svg>
