<svg xmlns="http://www.w3.org/2000/svg" xmlns:xlink="http://www.w3.org/1999/xlink" width="256" height="224" preserveAspectRatio="xMidYMid"><defs><linearGradient id="a" x1="105.885%" x2="-.485%" y1="16.567%" y2="62.101%"><stop offset="0%" stop-color="#7A85EC"/><stop offset="100%" stop-color="#3DDCFF"/></linearGradient><path id="b" d="M110.204 12.886C71.297-14.28 21.28 8.106 0 20.072l99.384 168.085 92.185-157.935c-15.254 4.202-45.89 7.433-81.365-17.336Z"/></defs><path fill="url(#a)" d="M134.247 220.01c-2.777 4.809-9.718 4.809-12.494 0L.977 10.82C-1.799 6.011 1.671 0 7.224 0h241.552c5.553 0 9.023 6.011 6.247 10.82L134.247 220.01Z"/><g transform="translate(28.616 45.423)"><mask id="c" fill="#fff"><use xlink:href="#b"/></mask><path fill="#001AFF" d="M105.63 174.587c-2.776 4.81-9.717 4.81-12.493 0L-27.64-34.603c-2.777-4.808.694-10.82 6.247-10.82H220.16c5.553 0 9.023 6.012 6.246 10.82l-120.775 209.19Z" mask="url(#c)"/></g></svg>