<svg xmlns="http://www.w3.org/2000/svg" fill="none" class="h-5" viewBox="0 0 778 222"><g fill="currentColor" clip-path="url(#a)"><path d="M328.717 221.566c-16.406 0-30.625-3.515-42.656-10.543-12.032-7.029-21.365-16.862-28-29.5-6.563-12.638-9.844-27.405-9.844-44.303 0-16.897 3.281-31.7 9.844-44.409 6.635-12.708 15.968-22.577 28-29.606 12.031-7.029 26.25-10.543 42.656-10.543s30.625 3.514 42.656 10.543c12.031 7.029 21.328 16.898 27.891 29.606 6.635 12.709 9.953 27.512 9.953 44.409 0 16.898-3.318 31.665-9.953 44.303-6.563 12.638-15.86 22.471-27.891 29.5-12.031 7.028-26.25 10.543-42.656 10.543Zm.219-30.884c8.895 0 16.333-2.379 22.312-7.136 5.979-4.827 10.427-11.288 13.344-19.382 2.989-8.094 4.484-17.11 4.484-27.05 0-10.011-1.495-19.063-4.484-27.157-2.917-8.165-7.365-14.66-13.344-19.489-5.979-4.828-13.417-7.241-22.312-7.241-9.115 0-16.698 2.413-22.75 7.241-5.98 4.828-10.464 11.324-13.454 19.489-2.916 8.094-4.375 17.146-4.375 27.157 0 9.94 1.459 18.956 4.375 27.05 2.99 8.094 7.474 14.555 13.454 19.382 6.052 4.757 13.635 7.136 22.75 7.136ZM474.416.266a8 8 0 0 1 8 8V210.37a8 8 0 0 1-8 8h-23.594a8 8 0 0 1-8-8V8.266a8 8 0 0 1 8-8h23.594ZM599.021 54.792a8 8 0 0 1 8 8V76.61a8 8 0 0 1-8 8h-80.578a8 8 0 0 1-8-8v-13.82a8 8 0 0 1 8-8h80.578Zm-64.734-31.19a8 8 0 0 1 8-8h23.594a8 8 0 0 1 8 8v145.567c0 5.183.802 9.159 2.406 11.928 1.677 2.698 3.865 4.544 6.563 5.538 2.698.994 5.687 1.491 8.968 1.491 2.479 0 4.74-.178 6.782-.533 2.644-.444 5.293 1.216 5.873 3.834l4.056 18.323c.884 3.994-1.402 7.976-5.389 8.891-.679.156-1.39.314-2.134.475-3.865.852-8.604 1.349-14.219 1.491-9.917.284-18.849-1.171-26.797-4.366-7.948-3.266-14.255-8.307-18.922-15.123-4.593-6.815-6.854-15.335-6.781-25.559V23.601ZM688.478 221.672c-10.645 0-20.234-1.846-28.765-5.538-8.458-3.762-15.167-9.3-20.125-16.613-4.886-7.313-7.328-16.33-7.328-27.05 0-9.23 1.75-16.862 5.25-22.897s8.276-10.863 14.328-14.484c6.052-3.62 12.87-6.354 20.453-8.2 7.656-1.917 15.568-3.301 23.734-4.153 9.844-.994 17.828-1.882 23.953-2.663 6.125-.852 10.573-2.13 13.344-3.833 2.844-1.775 4.266-4.509 4.266-8.201v-.639c0-8.022-2.443-14.235-7.328-18.637-4.886-4.401-11.922-6.602-21.11-6.602-9.698 0-17.39 2.058-23.078 6.176-3.563 2.614-6.392 5.527-8.486 8.74-2.078 3.188-5.598 5.476-9.367 4.955l-21.297-2.945c-4.842-.67-8-5.52-5.97-9.967 2.828-6.192 6.566-11.6 11.214-16.225 6.708-6.744 14.911-11.785 24.609-15.122 9.698-3.408 20.417-5.112 32.157-5.112 8.093 0 16.151.923 24.172 2.769 8.02 1.846 15.348 4.899 21.984 9.159 6.635 4.188 11.958 9.904 15.969 17.146 4.083 7.241 6.125 16.294 6.125 27.156v101.479a8 8 0 0 1-8 8h-22.063a8 8 0 0 1-8-8V195.9h-1.312c-2.407 4.544-5.797 8.804-10.172 12.78-4.302 3.905-9.735 7.064-16.297 9.478-6.49 2.343-14.11 3.514-22.86 3.514Zm10.282-28.328c7.948 0 14.838-1.526 20.672-4.579 5.833-3.124 10.317-7.242 13.453-12.354 3.208-5.112 4.812-10.685 4.812-16.72v-12.314c0-2.803-3.648-4.961-6.343-4.193-2.917.852-6.198 1.598-9.844 2.237a310.654 310.654 0 0 1-10.828 1.704c-3.573.497-6.672.923-9.297 1.278-5.907.781-11.193 2.058-15.86 3.833-4.666 1.775-8.349 4.26-11.046 7.455-2.698 3.124-4.047 7.171-4.047 12.141 0 7.1 2.661 12.46 7.984 16.081 5.323 3.621 12.104 5.431 20.344 5.431ZM32.337 9.452c-2.748-3.676-5.366-6.615-9.254-8-4.392-1.96-9.32-2.086-13.934.553-1.726.988-2.874 1.904-3.836 2.996-5.361 4.935-6.97 12.87-3.416 19.557l.012-.006c.814 1.766 1.611 3.27 2.59 5.101l46.334 73.545 21.06 33.428 8.138 12.916 34.278 56.612c2 3.298 4.875 6.036 8.338 7.94A23.652 23.652 0 0 0 134.034 217c3.997 0 7.925-1.002 11.387-2.906 3.462-1.904 6.337-4.642 8.337-7.94L258.943 32.568A20.909 20.909 0 0 0 262 21.721a20.903 20.903 0 0 0-3.047-10.85c-1.998-3.298-4.873-6.038-8.335-7.942A23.643 23.643 0 0 0 239.231.022h-79.008c-31.304 0-54.39 13.1-70.275 38.658l-4.657 7.682-1.165 1.92 22.437 31.24 13.806-22.787c10.549-16.583 22.533-22.624 41.141-22.624l55.138.011L133.997 170.5l-23.44-38.756.017-.031-.876-1.391-16.94-28.01-21.44-32.901-24.54-38.948-14.44-21.01ZM18.214 159.003c-.555.941-1.209 2.27-1.556 3.259-1.69 5.249-.538 10.94 2.919 15.174.17.236.35.446.538.626a16.985 16.985 0 0 0 4.428 3.495c8.186 4.51 18.595 1.79 23.317-6.07a21.784 21.784 0 0 0 2.578-3.433l10.728-17.714-21.643-32.486-1.257 2.073-2.513 4.146-5.027 8.291-12.512 22.639Z"/></g><defs><clipPath id="a"><path fill="#fff" d="M0 0h778v222H0z"/></clipPath></defs></svg>