<svg xmlns="http://www.w3.org/2000/svg" width="262" height="217" fill="none" class="h-5"><g fill="currentColor" clip-path="url(#a)"><path d="M32.337 9.452c-2.748-3.676-5.366-6.615-9.254-8-4.392-1.96-9.32-2.086-13.934.553-1.726.988-2.874 1.904-3.836 2.996-5.361 4.935-6.97 12.87-3.416 19.557l.012-.006c.814 1.766 1.611 3.27 2.59 5.101l46.334 73.545 21.06 33.428 8.138 12.916 34.278 56.612c2 3.298 4.875 6.036 8.338 7.94A23.652 23.652 0 0 0 134.034 217c3.997 0 7.925-1.002 11.387-2.906 3.462-1.904 6.337-4.642 8.337-7.94L258.943 32.568A20.909 20.909 0 0 0 262 21.721a20.903 20.903 0 0 0-3.047-10.85c-1.998-3.298-4.873-6.038-8.335-7.942A23.643 23.643 0 0 0 239.231.022h-79.008c-31.304 0-54.39 13.1-70.275 38.658l-4.657 7.682-1.165 1.92 22.437 31.24 13.806-22.787c10.549-16.583 22.533-22.624 41.141-22.624l55.138.011L133.997 170.5l-23.44-38.756.017-.031-.876-1.391-16.94-28.01-21.44-32.901-24.54-38.948ZM18.214 159.003c-.555.941-1.209 2.27-1.556 3.259-1.69 5.249-.538 10.94 2.919 15.174.17.236.35.446.538.626a16.985 16.985 0 0 0 4.428 3.495c8.186 4.51 18.595 1.79 23.317-6.07a21.784 21.784 0 0 0 2.578-3.433l10.728-17.714-21.643-32.486-1.257 2.073-2.513 4.146-5.027 8.291z"/></g><defs><clipPath id="a"><path fill="#fff" d="M0 0h778v222H0z"/></clipPath></defs></svg>