<svg xmlns="http://www.w3.org/2000/svg" class="h-8" viewBox="0 0 190 35"><defs><linearGradient id="a" x1="49.583%" x2="50%" y1="11.263%" y2="86.366%"><stop offset="0%" stop-color="#31E476"/><stop offset="100%" stop-color="#07D9BE"/></linearGradient></defs><g fill="none"><path fill="url(#a)" d="M19.82 13.054c1.462 0 2.88.03 4.246.084l.064-.003c2.924.115 5.607.333 7.955.587L19.838 33.81 7.591 13.722c2.327-.254 4.998-.47 7.91-.584h.04c1.375-.054 2.816-.084 4.28-.084zM16.056 0l.018.04 3.736 6.375L23.525.002c3.105.108 5.947.341 8.42.596 3.332.358 5.994.79 7.698 1.103l-.02.03h-.014l-4.593 7.963a114.964 114.964 0 0 0-7.857-.782h-.026a112.19 112.19 0 0 0-7.313-.24c-2.615 0-5.09.105-7.372.255h-.022c-2.973.195-5.614.48-7.808.77L.025 1.736H.019L0 1.7A105.06 105.06 0 0 1 7.603.608c2.81-.304 5.63-.507 8.453-.608z"/><path fill="#FFF" d="M23.486 0 19.81 6.415 16.057 0c-3.098.114-5.94.34-8.401.608L19.87 20.485 31.99.598A115.289 115.289 0 0 0 23.486 0zm33.535 23.715 4.806-14.873h-4.411l-2.766 9.964-2.768-9.964h-5.096l4.91 14.873h5.325zm9.346.27c1.83 0 2.85-.79 3.454-1.955v1.685h4.097v-10.88h-4.099v6.2c0 1.29-.603 1.893-1.621 1.893-.958 0-1.374-.562-1.374-1.665v-6.427h-4.098v7.135c0 2.705 1.56 4.015 3.641 4.015zm15.648 0c3.454 0 5.347-1.455 5.68-3.952h-3.828c-.125.624-.562 1.165-1.705 1.165-1.166 0-1.935-.707-2.039-2.018h7.55v-.998c0-3.912-2.6-5.659-5.658-5.659-3.328 0-6.033 2.184-6.033 5.721v.167c0 3.599 2.56 5.575 6.033 5.575zm1.707-6.948h-3.579c.167-1.227.874-1.872 1.872-1.872 1.103 0 1.665.708 1.707 1.872zm8.056 6.928c1.33 0 2.329-.977 2.329-2.247 0-1.227-.998-2.225-2.33-2.225-1.31 0-2.288.998-2.288 2.225 0 1.27.978 2.247 2.289 2.247zm6.953-11.941c1.248 0 2.205-.873 2.205-2.06 0-1.206-.957-2.08-2.205-2.08-1.269 0-2.227.874-2.227 2.08 0 1.186.958 2.06 2.227 2.06zm-3.329 15.498c4.223 0 5.367-1.623 5.367-4.035v-10.65h-4.098v10.545c0 .833-.395 1.166-1.269 1.207v2.933zm12.57-3.536c3.08 0 5.118-1.145 5.118-3.828 0-2.35-1.456-3.1-4.598-3.474-1.207-.125-1.705-.333-1.705-.832 0-.416.333-.75 1.082-.75.748 0 1.102.375 1.227 1.02h3.681c-.249-2.662-2.142-3.599-4.971-3.599-2.663 0-4.847 1.186-4.847 3.683 0 2.33 1.29 3.12 4.223 3.453 1.456.187 1.914.436 1.914.915 0 .458-.353.77-1.145.77-.935 0-1.227-.416-1.352-1.124h-3.744c.062 2.455 1.934 3.766 5.118 3.766z" style="fill:#022f50;fill-opacity:1"/><path fill="#2CE27E" d="M124.085 23.715v-8.903l4.97 8.903h4.516V8.842h-4.14v7.862l-4.223-7.862h-5.284v14.873h4.16zm15.42.27c1.768 0 2.725-.77 3.183-1.518v1.248h3.952v-7.03c0-2.872-1.914-4.162-5.077-4.162-3.12 0-5.2 1.353-5.367 4.015h3.828c.063-.561.354-1.165 1.29-1.165 1.087 0 1.264.647 1.269 1.543v.225h-.936c-3.766 0-5.845 1-5.845 3.558 0 2.33 1.747 3.286 3.703 3.286zm1.476-2.745c-.749 0-1.143-.333-1.143-.853 0-.77.498-1.04 1.872-1.04h.873v.562c0 .811-.665 1.33-1.602 1.33zm12.633 2.725c.894 0 1.665-.167 2.164-.312v-3.08a2.834 2.834 0 0 1-1.02.168c-.666 0-1.061-.313-1.061-1.061v-4.1h2.08v-2.746h-2.08V10.61H149.6v2.225h-1.27v2.746h1.27v4.493c0 2.726 1.457 3.89 4.015 3.89zm6.516-11.941c1.248 0 2.206-.873 2.206-2.06 0-1.206-.958-2.08-2.205-2.08-1.27 0-2.226.874-2.226 2.08 0 1.186.956 2.06 2.226 2.06h-.001zm2.04 11.692v-10.88h-4.077v10.88h4.078zm8.285.27c3.39 0 6.054-2.1 6.054-5.678v-.167c0-3.494-2.642-5.595-6.033-5.595-3.432 0-6.075 2.162-6.075 5.7v.166c0 3.578 2.663 5.575 6.054 5.575zm.02-3.016c-1.31 0-1.934-.915-1.934-2.683v-.167c0-1.705.686-2.559 1.935-2.559 1.268 0 1.872.916 1.872 2.622v.145c0 1.727-.624 2.642-1.872 2.642zm12.217 2.746v-6.012c0-1.29.603-1.893 1.623-1.893.977 0 1.373.563 1.373 1.665v6.24h4.099V16.56c0-2.705-1.437-4.014-3.495-4.014-1.831 0-2.996.894-3.6 2.038v-1.748h-4.098v10.88h4.099-.001z"/></g></svg>