<svg xmlns="http://www.w3.org/2000/svg" width="186" height="32"><g fill="none"><path fill="#F05023" d="M99.1 10.283v12.203c0 2.785-1.316 4.653-6.187 4.653v-3.355c1.013-.052 1.463-.433 1.463-1.393V10.283h4.723zm7.37-.38c3.261 0 5.45 1.08 5.736 4.151h-4.248a1.28 1.28 0 0 0-1.41-1.176c-.865 0-1.246.38-1.246.865 0 .484.57.813 1.964.96 3.625.432 5.303 1.288 5.303 4.004 0 3.088-2.353 4.41-5.9 4.41s-5.84-1.495-5.909-4.367h4.326a1.34 1.34 0 0 0 1.557 1.298c.865 0 1.315-.364 1.315-.865 0-.502-.528-.865-2.206-1.055-3.383-.381-4.862-1.298-4.862-3.979 0-2.88 2.517-4.246 5.58-4.246zm-27.52-.026c3.53 0 6.523 2.015 6.523 6.52v1.151h-8.677a2.248 2.248 0 0 0 2.353 2.344c1.315 0 1.826-.623 1.964-1.34h4.412c-.38 2.88-2.595 4.557-6.549 4.557-3.953 0-6.946-2.3-6.946-6.443v-.19c0-4.082 3.114-6.6 6.92-6.6zm-16.73.363v7.403c0 1.272.475 1.92 1.582 1.92 1.108 0 1.869-.692 1.869-2.18V10.24h4.724v12.54H65.67v-1.945a4.066 4.066 0 0 1-3.98 2.257c-2.396 0-4.195-1.47-4.195-4.627V10.24h4.723zm27.224 7.637a2.595 2.595 0 1 1 .001 5.19 2.595 2.595 0 0 1 0-5.19zM45.74 5.639l3.192 11.477 3.184-11.477H57.2L51.665 22.78h-6.143L39.865 5.639h5.874zm33.237 7.282c-1.271 0-1.963.744-2.154 2.162h4.127c-.052-1.349-.7-2.162-1.973-2.162zm19.55-8.13a2.594 2.594 0 0 1-1.745 4.506 2.423 2.423 0 0 1-2.596-2.378 2.594 2.594 0 0 1 4.34-2.129z"/><path fill="#FCB540" d="M165.886 11.926v-1.73h4.724V21.7c0 3.737-2.475 5.726-7.146 5.726-4.283 0-6.342-1.773-6.679-4.74h4.672c.173.761.605 1.48 2.067 1.48a2.137 2.137 0 0 0 2.397-2.396v-1.94a4.196 4.196 0 0 1-3.816 2.206c-2.854 0-5.25-2.067-5.25-5.95v-.19c0-3.763 2.37-6.055 5.19-6.055a3.988 3.988 0 0 1 3.841 2.084zm13.314-2.05c3.53 0 6.523 2.016 6.523 6.522v1.15h-8.677a2.248 2.248 0 0 0 2.353 2.344c1.315 0 1.826-.623 1.964-1.34h4.412c-.38 2.88-2.595 4.557-6.549 4.557-3.953 0-6.947-2.3-6.947-6.443v-.19c0-4.082 3.115-6.6 6.921-6.6zm-40.695.027c3.962 0 6.921 2.421 6.921 6.452v.19c0 4.125-3.071 6.547-6.981 6.547-3.91 0-6.947-2.335-6.947-6.426v-.19c0-4.082 3.045-6.573 7.007-6.573zm-7.7-4.264v4.195h-6.427v3.182h5.19v4.005h-5.19v5.76h-5.442V5.639h11.87zm25.02 4.428v4.41c-2.596-.138-4.032.727-4.032 2.526v5.778h-4.723V10.24h4.723v2.543a3.936 3.936 0 0 1 4.032-2.716zm-17.32 3.347c-1.462 0-2.232.986-2.232 2.95v.19c0 2.04.718 3.096 2.232 3.096 1.514 0 2.111-1.09 2.111-3.08h.043v-.138c0-1.963-.692-3.018-2.154-3.018zm25.391-.035c-1.419 0-2.206.986-2.206 2.595v.19c0 1.531.77 2.543 2.206 2.543s2.206-1.038 2.206-2.62v-.165c0-1.54-.787-2.543-2.206-2.543zm15.33-.458c-1.272 0-1.964.744-2.154 2.162h4.127c-.052-1.349-.701-2.162-1.973-2.162z"/><path fill="#F05023" d="M16.169 15.135h1.419l3.573-6.15h-8.59l-1.653-2.827h11.878L26.369 0H0l5.208 8.986H0l3.599 6.15H8.78l9.75 16.82V19.175z"/><path fill="#FCB540" d="M18.53 19.174v12.783L37.063 0h-7.406z"/></g></svg>