<svg xmlns="http://www.w3.org/2000/svg" width="39.643" height="33.81" class="h-8"><defs><linearGradient id="a" x1="18.153" x2="18.305" y1="4.123" y2="31.619" gradientTransform="scale(1.08283 .9235)" gradientUnits="userSpaceOnUse"><stop offset="0%" stop-color="#31E476"/><stop offset="100%" stop-color="#07D9BE"/></linearGradient></defs><g fill="none"><path fill="url(#a)" d="M19.82 13.054c1.462 0 2.88.03 4.246.084l.064-.003c2.924.115 5.607.333 7.955.587L19.838 33.81 7.591 13.722c2.327-.254 4.998-.47 7.91-.584h.04c1.375-.054 2.816-.084 4.28-.084zM16.056 0l.018.04 3.736 6.375L23.525.002c3.105.108 5.947.341 8.42.596 3.332.358 5.994.79 7.698 1.103l-.02.03h-.014l-4.593 7.963a114.964 114.964 0 0 0-7.857-.782h-.026a112.19 112.19 0 0 0-7.313-.24c-2.615 0-5.09.105-7.372.255h-.022c-2.973.195-5.614.48-7.808.77L.025 1.736H.019L0 1.7A105.06 105.06 0 0 1 7.603.608c2.81-.304 5.63-.507 8.453-.608Z" style="fill:url(#a)"/><path fill="#fff" d="M23.486 0 19.81 6.415 16.057 0c-3.098.114-5.94.34-8.401.608L19.87 20.485 31.99.598A115.289 115.289 0 0 0 23.486 0Z" style="fill:#022f50;fill-opacity:1"/></g></svg>