<svg xmlns="http://www.w3.org/2000/svg" width="27.835" height="31.998" fill="none"><g clip-path="url(#a)" transform="translate(-.001)"><path fill="url(#b)" d="M8.314 19.853C6.154 9.23 8.2 2.26 8.2 2.26s-.547 4.242 3.755 11.083c-.056 8.479 1.623 12.902 1.623 12.902l.344-.254-.344.299s-2.552-2.072-5.264-6.437z" style="fill:url(#b)"/><path fill="url(#c)" d="M18.482 18.348c1.033 1.034 1.995 1.751 2.69 2.09-.004 0-.007-.005-.012-.005 0 0 .782.278.92.093.951-1.004 1.184-2.873.549-6.387-3.631-2.063-4.09-5.279-4.09-5.279s-.652 4.466-.057 9.488z" style="fill:url(#c)"/><path fill="url(#d)" d="M8.201 2.26S5.214 12.44 10.27 26.94c.137.419 0 .883-.367 1.162l-5.331 3.717c-.507.372-1.24.14-1.471-.464C1.674 27.497-2.232 14.715 1.72.727c.185-.559.782-.883 1.332-.652L8.199 2.26z" style="fill:url(#d)"/><path fill="url(#e)" d="m18.403 22.71-4.825 3.533s-2.575-6.786-1.24-19.66c.09-.743.873-1.117 1.516-.743l4.689 3.02s-.92 6.275.412 12.318c.137.604-.091 1.209-.552 1.533z" style="fill:url(#e)"/><path fill="url(#f)" d="m27.32 14.856-4.458-2.927c-.276-.186-.69.092-.598.419 1.058 4.693.919 7.019-.185 8.18-.137.186-.919-.092-.919-.092.734.37.92.185.92.185a222.39 222.39 0 0 1 5.24-3.765c.689-.512.689-1.533 0-2z" style="fill:url(#f)"/></g><defs><radialGradient id="b" cx="0" cy="0" r="1" gradientTransform="matrix(18.2385 0 0 18.0721 16.213 23.434)" gradientUnits="userSpaceOnUse"><stop stop-color="#4F81E7"/><stop offset="1" stop-color="#2A0894"/></radialGradient><radialGradient id="c" cx="0" cy="0" r="1" gradientTransform="matrix(12.3955 0 0 12.2824 25.653 18.98)" gradientUnits="userSpaceOnUse"><stop stop-color="#4F81E7"/><stop offset="1" stop-color="#2A0894"/></radialGradient><radialGradient id="d" cx="0" cy="0" r="1" gradientTransform="matrix(23.4711 0 0 23.2569 -.437 -2.271)" gradientUnits="userSpaceOnUse"><stop stop-color="#FFDAD4"/><stop offset=".92" stop-color="#FF4975"/></radialGradient><radialGradient id="e" cx="0" cy="0" r="1" gradientTransform="matrix(21.4987 0 0 21.3025 9.78 2.707)" gradientUnits="userSpaceOnUse"><stop stop-color="#FFFFDC"/><stop offset="1" stop-color="#0BD88F"/></radialGradient><radialGradient id="f" cx="0" cy="0" r="1" gradientTransform="matrix(11.9167 0 0 11.8079 22.941 13.635)" gradientUnits="userSpaceOnUse"><stop stop-color="#4BDFFF"/><stop offset="1" stop-color="#4F08E7"/></radialGradient><clipPath id="a"><path fill="#fff" d="M0 0h97.846v32H0z"/></clipPath></defs></svg>