<svg xmlns="http://www.w3.org/2000/svg" width="98" height="32" fill="none"><g clip-path="url(#a)"><path fill="#fff" fill-rule="evenodd" d="m44.84 11.45-2.48-7h-2.022l3.511 9.415h1.904l3.524-9.415H47.32l-2.478 7h-.003Zm9.245 2.415h1.701l-.012-.12a11.124 11.124 0 0 1-.053-.946V7.333h-1.783v3.798c0 .757-.455 1.287-1.245 1.287-.83 0-1.205-.585-1.205-1.315v-3.77h-1.783v4.129c0 1.42.912 2.576 2.507 2.576.696 0 1.46-.266 1.822-.875 0 .266.028.572.054.705l-.003-.003Zm6.286-5.298c-.924 0-1.433.69-1.473 1.287h2.95c-.028-.65-.456-1.287-1.474-1.287h-.003Zm1.649 2.988c-.216.584-.671.995-1.502.995-.883 0-1.62-.624-1.66-1.487h4.716l.02-.296c.005-.078.008-.163.008-.248 0-2.098-1.22-3.387-3.256-3.387-1.688 0-3.243 1.355-3.243 3.44 0 2.204 1.595 3.491 3.403 3.491 1.62 0 2.666-.943 3.002-2.072l-1.488-.439v.003Zm-17.743 6.64c2.304 0 3.19 1.38 3.403 2.443l-1.66.505c-.095-.517-.523-1.328-1.73-1.328-.899 0-1.489.572-1.489 1.195 0 .516.334.93 1.033 1.06l1.327.254c1.729.331 2.653 1.448 2.653 2.775 0 1.447-1.22 2.907-3.43 2.907-2.52 0-3.63-1.605-3.78-2.948l1.716-.451c.081.93.737 1.766 2.076 1.766.993 0 1.542-.492 1.542-1.156 0-.545-.415-.969-1.152-1.117l-1.327-.266c-1.514-.306-2.493-1.274-2.493-2.696 0-1.674 1.514-2.948 3.309-2.948l.002.005Zm7.879 4.515c.884 0 1.299.557 1.46 1.102l1.596-.532c-.281-1.101-1.299-2.205-3.097-2.205-1.916 0-3.417 1.447-3.417 3.467s1.526 3.467 3.47 3.467c1.755 0 2.788-1.117 3.082-2.205l-1.567-.517c-.147.504-.603 1.101-1.514 1.101-.912 0-1.689-.665-1.689-1.846 0-1.182.765-1.832 1.676-1.832Zm7.423-.012c-.75 0-1.192.557-1.233 1.274v3.838h-1.782v-9.612h1.782v3.624c.428-.504 1.152-.717 1.782-.717 1.676 0 2.454 1.156 2.454 2.589v4.117h-1.783V24c0-.73-.362-1.302-1.22-1.302Zm7.772 3.705c-.87 0-1.676-.637-1.676-1.859 0-1.221.806-1.859 1.676-1.859.871 0 1.676.625 1.676 1.86 0 1.233-.805 1.858-1.676 1.858Zm-3.458-1.859c0-2.02 1.489-3.467 3.458-3.467 1.97 0 3.459 1.448 3.459 3.467 0 2.02-1.489 3.467-3.459 3.467s-3.458-1.46-3.458-3.467Zm11.284 1.86c-.87 0-1.676-.638-1.676-1.86 0-1.221.805-1.859 1.676-1.859.87 0 1.676.625 1.676 1.86 0 1.233-.805 1.858-1.676 1.858Zm-3.458-1.86c0-2.02 1.488-3.467 3.458-3.467 1.97 0 3.458 1.448 3.458 3.467 0 2.02-1.488 3.467-3.458 3.467-1.97 0-3.458-1.46-3.458-3.467Zm10.104 3.267v-9.613H80.04v9.613h1.783Zm10.886-3.267c0 1.222.805 1.86 1.676 1.86.871 0 1.676-.625 1.676-1.86 0-1.234-.805-1.859-1.676-1.859-.87 0-1.676.625-1.676 1.86Zm1.676-3.467c-1.97 0-3.458 1.448-3.458 3.467 0 2.02 1.488 3.467 3.458 3.467 1.97 0 3.459-1.46 3.459-3.467s-1.49-3.467-3.459-3.467Zm-4.967.093v6.64h-1.782v-6.64h1.782Zm-1.869-1.789c0-.486.4-.885.89-.885.488 0 .898.399.898.886 0 .486-.4.885-.899.885a.884.884 0 0 1-.889-.886Zm-2.777 6.104c-.67 0-1.22.544-1.22 1.21 0 .664.55 1.208 1.22 1.208.671 0 1.233-.544 1.233-1.209s-.55-1.209-1.233-1.209Z" clip-rule="evenodd" style="fill:#022f50;fill-opacity:1"/><path fill="url(#b)" d="M8.314 19.853C6.154 9.23 8.2 2.26 8.2 2.26s-.547 4.242 3.755 11.083c-.056 8.479 1.623 12.902 1.623 12.902l.344-.254-.344.299s-2.552-2.072-5.264-6.437Z"/><path fill="url(#c)" d="M18.482 18.348c1.033 1.034 1.995 1.751 2.69 2.09-.004 0-.007-.005-.012-.005 0 0 .782.278.92.093.951-1.004 1.184-2.873.549-6.387-3.631-2.063-4.09-5.279-4.09-5.279s-.652 4.466-.057 9.488Z"/><path fill="url(#d)" d="M8.201 2.26S5.214 12.44 10.27 26.94c.136.419 0 .883-.368 1.162l-5.331 3.717c-.507.372-1.24.14-1.471-.464C1.674 27.497-2.232 14.715 1.72.727c.185-.559.782-.883 1.332-.652L8.199 2.26H8.2Z"/><path fill="url(#e)" d="m18.403 22.71-4.825 3.533s-2.575-6.786-1.24-19.66c.09-.743.873-1.117 1.516-.743l4.689 3.02s-.92 6.274.412 12.318c.137.604-.091 1.209-.552 1.533Z"/><path fill="url(#f)" d="M27.32 14.856 22.86 11.93c-.276-.186-.688.092-.597.419 1.058 4.693.919 7.019-.185 8.18-.137.186-.919-.092-.919-.092.734.37.92.185.92.185a222.39 222.39 0 0 1 5.24-3.765c.689-.512.689-1.533 0-2Z"/></g><defs><radialGradient id="b" cx="0" cy="0" r="1" gradientTransform="matrix(18.2385 0 0 18.0721 16.213 23.434)" gradientUnits="userSpaceOnUse"><stop stop-color="#4F81E7"/><stop offset="1" stop-color="#2A0894"/></radialGradient><radialGradient id="c" cx="0" cy="0" r="1" gradientTransform="matrix(12.3955 0 0 12.2824 25.653 18.98)" gradientUnits="userSpaceOnUse"><stop stop-color="#4F81E7"/><stop offset="1" stop-color="#2A0894"/></radialGradient><radialGradient id="d" cx="0" cy="0" r="1" gradientTransform="matrix(23.4711 0 0 23.2569 -.437 -2.271)" gradientUnits="userSpaceOnUse"><stop stop-color="#FFDAD4"/><stop offset=".92" stop-color="#FF4975"/></radialGradient><radialGradient id="e" cx="0" cy="0" r="1" gradientTransform="matrix(21.4987 0 0 21.3025 9.78 2.707)" gradientUnits="userSpaceOnUse"><stop stop-color="#FFFFDC"/><stop offset="1" stop-color="#0BD88F"/></radialGradient><radialGradient id="f" cx="0" cy="0" r="1" gradientTransform="matrix(11.9167 0 0 11.8079 22.941 13.635)" gradientUnits="userSpaceOnUse"><stop stop-color="#4BDFFF"/><stop offset="1" stop-color="#4F08E7"/></radialGradient><clipPath id="a"><path fill="#fff" d="M0 0h97.846v32H0z"/></clipPath></defs></svg>