<svg xmlns="http://www.w3.org/2000/svg" viewBox="0 0 54 50.8"><defs><clipPath id="a"><path fill="#fff" d="M0 0h37.277v35H0z"/></clipPath></defs><g fill="#04AA6D" clip-path="url(#a)" transform="translate(-.054) scale(1.45123)"><path d="M31.399 7.366s.937 1.005 2.247 1.005c1.034 0 1.785-.625 1.785-1.481 0-1.05-.96-1.533-2.12-1.533h-.685l-.409-.922 1.816-2.15c.387-.462.714-.752.714-.752s-.29.015-.878.015h-2.954V0h6.05v1.131l-2.426 2.805c1.369.193 2.708 1.168 2.708 2.887 0 1.689-1.28 3.251-3.49 3.251-2.105 0-3.273-1.324-3.273-1.324l.915-1.384ZM19.598 9.457l7.991 14.226 3.944-7.031-7.545-13.43h-8.78l-3.638 6.48-3.639-6.48H.037l11.488 20.461.045-.074.044.074 7.984-14.226ZM.119 33.326h1.168c0 .342.298.67.826.67.491 0 .818-.246.818-.574 0-.282-.215-.409-.587-.49l-.67-.172c-1.13-.297-1.421-.9-1.421-1.54 0-.781.774-1.495 1.867-1.495.893 0 1.905.453 1.89 1.57H2.827c0-.343-.312-.559-.67-.559-.386 0-.654.224-.654.536 0 .26.245.41.536.476l.803.216c1.131.29 1.332.997 1.332 1.458 0 1.02-1.02 1.578-2.039 1.578-.99 0-1.994-.603-2.016-1.674Zm5.089-.968c0-1.592 1.28-2.633 2.731-2.633.87 0 1.577.386 2.039.967l-.878.7c-.26-.313-.685-.507-1.139-.507-.87 0-1.495.625-1.495 1.473 0 .841.625 1.481 1.495 1.481.454 0 .878-.193 1.139-.506l.878.7A2.553 2.553 0 0 1 7.939 35c-1.45 0-2.73-1.05-2.73-2.642Zm10.782-.305v2.813h-1.25v-2.723c0-.804-.484-1.235-1.042-1.235-.573 0-1.28.334-1.28 1.31v2.655h-1.25v-7.752h1.258v3.49c.245-.611 1.056-.894 1.555-.894 1.294.008 2.008.878 2.008 2.337Zm1.309.305c0-1.592 1.235-2.633 2.664-2.633 1.428 0 2.678 1.041 2.678 2.633 0 1.593-1.25 2.642-2.678 2.642-1.429 0-2.664-1.05-2.664-2.642Zm4.085 0c0-.863-.648-1.473-1.421-1.473-.774 0-1.407.61-1.407 1.473 0 .878.633 1.481 1.407 1.481.773 0 1.42-.603 1.42-1.48Zm2.321 0c0-1.592 1.235-2.633 2.664-2.633 1.428 0 2.678 1.041 2.678 2.633 0 1.593-1.25 2.642-2.678 2.642-1.421 0-2.664-1.05-2.664-2.642Zm4.085 0c0-.863-.647-1.473-1.421-1.473s-1.406.61-1.406 1.473c0 .878.632 1.481 1.406 1.481.781 0 1.421-.603 1.421-1.48Zm2.641 2.515v-7.752h1.25v7.753h-1.25Zm2.612-1.547h1.168c0 .342.298.67.826.67.491 0 .819-.246.819-.574 0-.282-.216-.409-.588-.49l-.67-.172c-1.13-.297-1.421-.9-1.421-1.54 0-.781.774-1.495 1.868-1.495.892 0 1.904.453 1.89 1.57h-1.191c0-.343-.313-.559-.67-.559-.387 0-.654.224-.654.536 0 .26.245.41.535.476l.804.216c1.13.29 1.332.997 1.332 1.458 0 1.02-1.02 1.578-2.039 1.578-.99 0-1.987-.603-2.009-1.674Z"/></g></svg>