<svg xmlns="http://www.w3.org/2000/svg" width="200" height="200" fill="none" class="mx-auto mb-6 dark:fill-sky-100"><path fill="#72BFF5" fill-rule="evenodd" d="M38.05 113.727a6.004 6.004 0 0 1-.017 8.491 23.86 23.86 0 0 0-5.993 9.956 23.768 23.768 0 0 0-.572 11.584 23.83 23.83 0 0 0 4.983 10.49 24.003 24.003 0 0 0 9.374 6.922 24.117 24.117 0 0 0 22.55-2.21 23.937 23.937 0 0 0 7.833-8.605 23.795 23.795 0 0 0 2.83-11.253v-.125a6.004 6.004 0 0 1 6.004-6.004h38.421c4.521 0 8.432-2.903 12.094-5.621l.609-.451a14.935 14.935 0 0 1 8.915-2.934c8.289 0 15.009 6.721 15.009 15.01 0 8.29-6.72 15.01-15.009 15.01-3.339 0-6.423-1.09-8.915-2.934l-.609-.45c-3.662-2.719-7.573-5.622-12.094-5.622h-22.73c-5.87 0-10.69 4.376-13.239 9.664a35.949 35.949 0 0 1-12.468 14.312 36.141 36.141 0 0 1-33.78 3.314 36.015 36.015 0 0 1-14.061-10.386 35.845 35.845 0 0 1-7.492-15.775 35.776 35.776 0 0 1 .86-17.435 35.874 35.874 0 0 1 9.007-14.966 6.005 6.005 0 0 1 8.49.018Z" clip-rule="evenodd"/><path fill="#72BFF5" fill-rule="evenodd" d="M131.572 166.324a6.004 6.004 0 0 1 7.362-4.23 23.877 23.877 0 0 0 11.619.212 23.773 23.773 0 0 0 10.318-5.297 23.843 23.843 0 0 0 6.594-9.561 23.996 23.996 0 0 0 1.307-11.578 24.126 24.126 0 0 0-13.189-18.424 23.93 23.93 0 0 0-11.369-2.481 23.792 23.792 0 0 0-11.16 3.175l-.054.031-.054.031a6.005 6.005 0 0 1-8.202-2.197l-19.21-33.273c-2.261-3.916-6.73-5.851-10.916-7.664-.232-.1-.464-.2-.694-.301a14.942 14.942 0 0 1-6.998-6.254c-4.145-7.179-1.685-16.359 5.494-20.504 7.179-4.144 16.358-1.685 20.503 5.494a14.943 14.943 0 0 1 1.917 9.188l-.086.75c-.523 4.531-1.082 9.371 1.179 13.287l11.365 19.685c2.935 5.083 9.135 7.069 14.988 6.632a35.938 35.938 0 0 1 18.628 3.642 36.138 36.138 0 0 1 19.761 27.598 36.007 36.007 0 0 1-1.964 17.37 35.836 35.836 0 0 1-9.915 14.375 35.788 35.788 0 0 1-15.53 7.973 35.883 35.883 0 0 1-17.464-.317 6.005 6.005 0 0 1-4.23-7.362Z" clip-rule="evenodd"/><path fill="#C5D3FB" fill-rule="evenodd" d="M123.038 54.72a6.004 6.004 0 0 0 11.605-3.084 35.88 35.88 0 0 0-8.457-15.282 35.78 35.78 0 0 0-14.67-9.463 35.843 35.843 0 0 0-17.407-1.4 36.015 36.015 0 0 0-16.025 6.985 36.136 36.136 0 0 0-14.02 30.912 35.942 35.942 0 0 0 6.16 17.953c3.305 4.852 4.686 11.213 1.75 16.297L60.61 117.323c-2.26 3.915-6.73 5.851-10.915 7.663l-.695.301a14.947 14.947 0 0 0-6.998 6.254c-4.145 7.179-1.685 16.359 5.494 20.504 7.18 4.145 16.359 1.685 20.504-5.494a14.942 14.942 0 0 0 1.917-9.187l-.086-.752c-.524-4.531-1.082-9.37 1.178-13.286l19.21-33.272a6.004 6.004 0 0 0-2.197-8.202l-.054-.03-.054-.032a23.792 23.792 0 0 1-8.33-8.078 23.935 23.935 0 0 1-3.536-11.086 24.128 24.128 0 0 1 9.36-20.634 24.005 24.005 0 0 1 10.682-4.657 23.838 23.838 0 0 1 11.577.93 23.77 23.77 0 0 1 9.746 6.287 23.872 23.872 0 0 1 5.626 10.168Z" clip-rule="evenodd"/></svg>