<svg xmlns="http://www.w3.org/2000/svg" viewBox="0 0 554 142"><defs><linearGradient id="b" x1="20.3" x2="20.3" y1="2.55" y2="46.9" gradientUnits="userSpaceOnUse"><stop offset="0" style="stop-color:#8ae234"/><stop offset="1" style="stop-color:#4e9a06"/></linearGradient><linearGradient id="c" x1="6.48" x2="25.4" y1="4.54" y2="35.2" gradientTransform="matrix(2.01 0 0 2.01 410 110)" gradientUnits="userSpaceOnUse"><stop offset="0" style="stop-color:#fff;stop-opacity:.549"/><stop offset="1" style="stop-color:#fff;stop-opacity:0"/></linearGradient><filter id="a" color-interpolation-filters="sRGB"><feGaussianBlur stdDeviation=".827"/></filter></defs><path d="M39.5 24.7 1.1 46.9V2.5l19.2 11.1z" style="fill-opacity:.287;filter:url(#a)" transform="matrix(2.12 0 0 2.12 328.3 33.2)"/><path d="M39.5 24.7 1.1 46.9V2.5l19.2 11.1z" style="fill:url(#b);stroke-linejoin:round;stroke-width:1.05;stroke:#366a04" transform="matrix(1.91 0 0 1.91 331.3 38.2)"/><path d="M424 196v-76.6l66.1 38.2" style="fill:none;stroke-width:2.01;stroke:url(#c)" transform="translate(-88.7 -72.8)"/><path d="M511 206c-3.54 0-5.31-1.77-5.31-5.31v-82.3c0-3.54 1.77-5.31 5.31-5.31h14c3.54 0 5.31 1.77 5.31 5.31v5.13h.354c1.71-3.77 4.6-6.75 8.67-8.94 4.07-2.18 7.87-3.27 11.4-3.27 7.08 0 12.6 1.65 16.5 4.95 3.95 3.3 6.67 6.99 8.14 11.1h.354c5.13-6.67 9.76-11 13.9-13 4.19-2.01 9.53-3.01 16-3.01 8.73 0 16.1 2.89 22 8.67 6.02 5.78 9.02 16.3 9.02 31.7v49c0 3.54-1.77 5.31-5.31 5.31h-14.2c-3.54 0-5.31-1.77-5.31-5.31v-42.6c0-12.9-.885-21-2.65-24.3-1.71-3.36-4.78-5.04-9.2-5.04-4.13 0-7.9 2.42-11.3 7.26-3.42 4.84-5.13 14.8-5.13 29.9v34.9c0 3.54-1.77 5.31-5.31 5.31h-14.2c-3.54 0-5.31-1.77-5.31-5.31v-42.6c0-12.9-.885-21-2.65-24.3-1.71-3.36-4.78-5.04-9.2-5.04-4.13 0-7.9 2.42-11.3 7.26-3.42 4.78-5.13 14.7-5.13 29.9v34.9c0 3.54-1.77 5.31-5.31 5.31h-14.2" style="fill:#333;stroke-width:2.25;stroke:#292929" transform="translate(-88.7 -72.8)"/><g style="fill:#333;stroke-width:2.24;stroke:#292929"><path d="m83.3 42.2 16.5 46.4 3.26 15h.725l2.54-15.2 11.6-46.2h21.6l-27.9 91.5h-17.4L75.925 83l-2.36-11.4h-.906l-2.17 11.6-17.4 50.6h-17.9l-29.2-91.5h25.5l13.2 45.5 2.17 16.1h.906l3.08-16.3 15-45.3zM219.3 125.2c-3.62 2.9-8.58 5.38-14.9 7.43-6.16 1.93-12.7 2.9-19.8 2.9-14.6 0-25.3-4.23-32.1-12.7-6.76-8.58-10.1-20.3-10.1-35.2 0-15.9 3.81-27.9 11.4-35.9 7.61-7.97 18.3-12 32.1-12 4.59 0 9.06.604 13.4 1.81 4.35 1.21 8.21 3.2 11.6 5.98 3.38 2.78 6.1 6.52 8.15 11.2 2.05 4.71 3.08 10.6 3.08 17.6 0 2.54-.181 5.25-.544 8.15a85.29 85.29 0 0 1-1.27 9.06h-54.4c.362 7.61 2.3 13.3 5.8 17.2 3.62 3.87 9.42 5.8 17.4 5.8 4.95 0 9.36-.725 13.2-2.17 3.99-1.57 7.01-3.14 9.06-4.71zm-33.7-66.5c-6.16 0-10.8 1.87-13.8 5.62-2.9 3.62-4.65 8.52-5.25 14.7h33.7c.483-6.52-.544-11.5-3.08-15-2.42-3.5-6.28-5.25-11.6-5.25zM239.3 6.1h23.6v43.5h.725c2.54-2.9 5.8-5.19 9.78-6.89 3.99-1.69 8.4-2.54 13.2-2.54 10.9 0 19.1 3.74 24.8 11.2 5.8 7.37 8.7 18.7 8.7 33.9 0 16.3-4.05 28.7-12.1 37.1-7.97 8.46-19 12.7-33 12.7-7.73 0-14.8-.664-21.2-1.99-6.4-1.21-11.2-2.6-14.5-4.17zm40.4 54c-4.35 0-7.91 1.15-10.7 3.44-2.66 2.17-4.71 5.38-6.16 9.6v39.5c1.93.966 3.99 1.63 6.16 1.99 2.3.362 4.71.544 7.25.544 6.4 0 11.2-2.3 14.5-6.89 3.38-4.71 5.07-12.1 5.07-22.3 0-17.3-5.38-25.9-16.1-25.9z"/></g></svg>