<svg xmlns="http://www.w3.org/2000/svg" width="295.13" height="85.543"><g style="fill:#333;stroke:#333;stroke-opacity:1"><g style="fill:#333;stroke:#333;stroke-width:3.23988;stroke-linecap:round;stroke-miterlimit:3;stroke-dasharray:none;stroke-opacity:1"><path d="M74.107 144.94H50.626V57.173h23.481v6.443H58.483v74.88h15.624ZM116.193 144.94H92.712V57.173h23.481v6.443H100.57v74.88h15.624z" style="font-style:normal;font-weight:400;font-size:medium;line-height:125%;font-family:sans-serif;letter-spacing:0;word-spacing:0;fill:#333;fill-opacity:1;stroke:#333;stroke-width:3.23988;stroke-linecap:round;stroke-linejoin:miter;stroke-miterlimit:3;stroke-dasharray:none;stroke-opacity:1" transform="matrix(.91216 0 0 .93997 -44.701 -52.218)"/></g><g style="fill:#333;stroke:#333;stroke-width:3.23988;stroke-linecap:round;stroke-miterlimit:3;stroke-dasharray:none;stroke-opacity:1"><path d="M74.107 144.94H50.626V57.173h23.481v6.443H58.483v74.88h15.624ZM116.193 144.94H92.712V57.173h23.481v6.443H100.57v74.88h15.624z" style="font-style:normal;font-weight:400;font-size:medium;line-height:125%;font-family:sans-serif;letter-spacing:0;word-spacing:0;fill:#333;fill-opacity:1;stroke:#333;stroke-width:3.23988;stroke-linecap:round;stroke-linejoin:miter;stroke-miterlimit:3;stroke-dasharray:none;stroke-opacity:1" transform="matrix(-.91216 0 0 .93997 339.83 -52.218)"/></g><g aria-label="Wiki markup" style="font-style:normal;font-variant:normal;font-weight:400;font-stretch:normal;font-size:74.675px;line-height:1.25;font-family:sans-serif;-inkscape-font-specification:&quot;sans-serif, Normal&quot;;font-variant-ligatures:normal;font-variant-caps:normal;font-variant-numeric:normal;font-feature-settings:normal;text-align:center;letter-spacing:0;word-spacing:0;writing-mode:lr-tb;text-anchor:middle;fill:#333;fill-opacity:1;stroke:none;stroke-width:.823621"><path d="M146.932 70.848 134.17 17.394h11.048l8.058 36.718 9.772-36.718h12.835l9.37 37.337 8.205-37.337h10.865l-12.98 53.454h-11.45l-10.646-39.963-10.611 39.963ZM209.136 26.874v-9.48h10.246v9.48zm0 43.974V32.125h10.246v38.723zM229.482 70.848V17.394h10.246v28.368l11.997-13.637h12.615l-13.235 14.147 14.184 24.576H254.24l-9.735-17.393-4.777 4.996v12.397zM271.414 26.874v-9.48h10.246v9.48zm0 43.974V32.125h10.246v38.723z" style="font-style:normal;font-variant:normal;font-weight:700;font-stretch:normal;font-family:helvetica;-inkscape-font-specification:helvetica;fill:#333;fill-opacity:1;stroke-width:.823621" transform="translate(-61.56 -1.35)"/></g></g></svg>